<?xml version="1.0" standalone="no"?>
<!DOCTYPE svg PUBLIC "-//W3C//DTD SVG 1.1//EN" "http://www.w3.org/Graphics/SVG/1.1/DTD/svg11.dtd" >
<svg>
<metadata>
Created by FontForge 20090914 at Fri Aug  3 07:45:06 2012
 By www-data
Digitized data copyright &#194;&#169; 2001 Agfa Monotype Corporation, Inc. Monotype Modern MT is a trademark of Monotype Typography LTD. Registered in the U.S. Patent &#38; Trademark Office and may be registered in certain jurisdictions
</metadata>
<defs>
<font id="ModernMT-ExtendedItalic" horiz-adv-x="1044" >
  <font-face 
    font-family="ModernMT Extended"
    font-weight="400"
    font-style="italic"
    font-stretch="normal"
    units-per-em="2048"
    panose-1="2 2 5 5 5 5 5 9 3 3"
    ascent="1638"
    descent="-410"
    x-height="871.998"
    cap-height="1380"
    bbox="-350 -512 2048 1917"
    underline-thickness="102"
    underline-position="-103"
    slope="-15.6"
    unicode-range="U+0020-U+F006"
  />
<missing-glyph horiz-adv-x="1024" 
d="M51 0v1536h922v-1536h-922zM179 128h666v1280h-666v-1280z" />
    <glyph glyph-name=".notdef" horiz-adv-x="1024" 
d="M51 0v1536h922v-1536h-922zM179 128h666v1280h-666v-1280z" />
    <glyph glyph-name="space" unicode=" " horiz-adv-x="512" 
 />
    <glyph glyph-name="exclam" unicode="!" horiz-adv-x="682" 
d="M614 1294c0 -32.667 -8.33398 -73.1689 -25.001 -121.502s-47.667 -121.166 -93 -218.499c-89.333 -188.667 -165.333 -385 -228 -589l-26 8c72 256.667 125.667 500.334 161 731.001c14.667 74 32.334 138.833 53.001 194.5s53 83.5 97 83.5
c17.333 0 31.833 -8.16699 43.5 -24.5s17.5 -37.5 17.5 -63.5zM269.999 79.998c0 -25.333 -9.33301 -47.333 -28 -66s-40.667 -28 -66 -28s-47.333 9.33301 -66 28s-28 40.667 -28 66s9.33301 47.333 28 66s40.667 28 66 28c26.667 0 49 -9 67 -27s27 -40.333 27 -67z" />
    <glyph glyph-name="quotedbl" unicode="&#x22;" 
d="M831 1270c0 -18.667 -2 -42.667 -6 -72l-57 -395h-35l-59 395c-1.33301 8 -2 20.333 -2 37v18c0 46.667 6.33301 80.5 19 101.5s32.334 31.5 59.001 31.5c25.333 0 45.166 -9.83301 59.499 -29.5s21.5 -48.5 21.5 -86.5zM543 1270c0 -18.667 -2 -42.667 -6 -72l-58 -395
h-35l-59 395c-1.33301 8 -2 20.333 -2 37v18c0 88.667 26 133 78 133c25.333 0 45.333 -10.167 60 -30.5s22 -48.833 22 -85.5z" />
    <glyph glyph-name="numbersign" unicode="#" horiz-adv-x="1368" 
d="M1272 367h-334l-84 -414h-90l88 414h-457l-86 -414h-88l86 414h-213v88h232l86 405h-318v88h336l88 416h86l-88 -416h457l86 416h88l-88 -416h213v-88h-230l-86 -405h316v-88zM954 860h-456l-84 -403h456z" />
    <glyph glyph-name="dollar" unicode="$" 
d="M1004 1085c0 -32.667 -9.83594 -60.832 -29.5029 -84.499s-42.834 -35.5 -69.501 -35.5c-22 0 -41.167 9.16699 -57.5 27.5s-24.5 39.833 -24.5 64.5c0 12.667 2 24 6 34s10 19.333 18 28s20 18.667 36 30c21.333 16 32 29.667 32 41c0 10 -5.16699 21.833 -15.5 35.5
s-23.666 26.5 -39.999 38.5s-34.5 22 -54.5 30l-135 -563c40 -40 71.667 -74.667 95 -104s43 -65.5 59 -108.5s24 -92.167 24 -147.5c0 -70.667 -18.667 -136.667 -56 -198s-88.333 -109.333 -153 -144c-23.333 -12.667 -45.833 -22.167 -67.5 -28.5
s-48.167 -12.5 -79.5 -18.5l-56 -232h-35l56 227c-51.333 0 -106.666 5.66699 -165.999 17l-62 -244h-30l59 256c-68 28.667 -120.5 64.167 -157.5 106.5s-55.5 88.166 -55.5 137.499c0 36.667 9.5 66.334 28.5 89.001s42.833 34 71.5 34c25.333 0 46.333 -8.83301 63 -26.5
s25 -40.167 25 -67.5c0 -24.667 -4.66699 -43.5 -14 -56.5s-26.333 -24.5 -51 -34.5c-24.667 -8.66699 -37 -19.334 -37 -32.001c0 -17.333 15.833 -39.5 47.5 -66.5s60.834 -43.833 87.501 -50.5l154 645c-113.333 98 -170 205.333 -170 322
c0 92.667 30.833 168.667 92.5 228s140.834 100.666 237.501 123.999l16 67h31l-13 -63c62 0 118 -6.33301 168 -19l19 82h33l-21 -96c54 -22.667 99.333 -55.667 136 -99s55 -91.666 55 -144.999zM771.997 1311c-43.333 13.333 -84.333 20 -123 20
c-11.333 0 -26.333 -1.33301 -45 -4l-104 -446l141 -125zM570.997 1319c-56.667 -10.667 -103.5 -35.666 -140.5 -74.999s-55.5 -84 -55.5 -134c0 -24 4.33301 -46.833 13 -68.5s21 -44.334 37 -68.001l46 -66.5zM724.997 262.003c0 44 -9.66699 86.5 -29 127.5
s-46 77.167 -80 108.5l-114 -482c69.333 14.667 123.833 43.667 163.5 87s59.5 96.333 59.5 159zM587.997 528.003l-142 127l-147 -626c40 -12.667 81.667 -19 125 -19c6.66699 0.666992 12.667 1.16699 18 1.5s12.333 0.5 21 0.5z" />
    <glyph glyph-name="percent" unicode="%" horiz-adv-x="2068" 
d="M1053 1147c0 -66 -17.999 -135.166 -53.999 -207.499s-82.333 -132 -139 -179s-113.334 -70.5 -170.001 -70.5c-54 1.33301 -99.5 26.333 -136.5 75s-55.5 107 -55.5 175c0 68.667 19 139.667 57 213s85.667 133.333 143 180s114 70 170 70c35.333 0 67 -11.167 95 -33.5
s50 -53.333 66 -93s24 -82.834 24 -129.501zM1876 1407l-1554 -1460h-101l1555 1460h100zM1595 403.001c0 -67.333 -17.832 -136.501 -53.499 -207.501s-82 -130.167 -139 -177.5s-113.5 -71 -169.5 -71c-54.667 1.33301 -100.5 26 -137.5 74s-55.5 106.667 -55.5 176
s18.833 140.333 56.5 213s85.667 132.334 144 179.001s115.166 70 170.499 70c35.333 0 67 -11 95 -33s49.833 -52.167 65.5 -90.5s23.5 -82.5 23.5 -132.5zM934.002 1284c0 60 -24.6689 90.002 -74.002 90.002s-93.666 -48.333 -132.999 -145
c-29.333 -74.667 -55.166 -153.334 -77.499 -236.001s-33.5 -144 -33.5 -184c0 -60 22 -90 66 -90h4c29.333 0.666992 54.833 13.667 76.5 39s43.167 65.666 64.5 120.999c30 75.333 55.333 152.833 76 232.5s31 137.167 31 172.5zM1477 541.002
c0 60 -24.667 90.001 -74 90.001s-93.666 -48.667 -132.999 -146c-30.667 -73.333 -56.834 -151.833 -78.501 -235.5s-32.5 -144.834 -32.5 -183.501c0 -60.667 22 -91 66 -91h4c28.667 0.666992 54.167 14 76.5 40s43.833 66 64.5 120c25.333 64.667 49.5 139.5 72.5 224.5
s34.5 145.5 34.5 181.5z" />
    <glyph glyph-name="ampersand" unicode="&#x26;" horiz-adv-x="1729" 
d="M1581 616c0 -27.333 -4.49805 -52.5039 -13.498 -75.5039s-21.167 -41.333 -36.5 -55s-31.333 -20.5 -48 -20.5c-21.333 0 -39 8 -53 24s-21 36 -21 60c0 36 13 75.667 39 119c12 20.667 18 35.667 18 45c0 4.66699 -2.5 8.83398 -7.5 12.501s-11.167 5.5 -18.5 5.5
c-28.667 0 -58.334 -17.667 -89.001 -53s-73.334 -93.333 -128.001 -174c-52.667 -78 -96.334 -140 -131.001 -186s-73.667 -89.333 -117 -130c20.667 -63.333 42.834 -106.666 66.501 -129.999s57.5 -35 101.5 -35c63.333 0 121.166 22.833 173.499 68.5
s97.5 105.167 135.5 178.5h33c-22 -46.667 -47.333 -90.667 -76 -132s-70.667 -78.5 -126 -111.5s-125.333 -49.5 -210 -49.5c-54 0 -100.167 8.66699 -138.5 26s-74.166 46.333 -107.499 87c-114.667 -73.333 -219.667 -110 -315 -110c-88 0 -162.833 27.333 -224.5 82
s-92.5 121.334 -92.5 200.001c0 25.333 5.33301 57 16 95s35 80.5 73 127.5s92 89.5 162 127.5c107.333 58 217.333 100.333 330 127c12 94 33.5 179.333 64.5 256s67.5 137.167 109.5 181.5s85.667 66.5 131 66.5c37.333 0 68.166 -14.167 92.499 -42.5
s36.5 -66.166 36.5 -113.499c0 -39.333 -9.83301 -80.166 -29.5 -122.499s-46.5 -79.833 -80.5 -112.5c-23.333 -22 -44.166 -38.667 -62.499 -50s-48.833 -26 -91.5 -44c0 -20.667 -0.166992 -37.834 -0.5 -51.501s-0.833008 -28.5 -1.5 -44.5
c0 -192.667 7.66699 -337.667 23 -435c42.667 38 79.667 78 111 120s69.333 98.333 114 169c42 66 74.167 113.833 96.5 143.5s48 54.5 77 74.5s61.167 30 96.5 30s64 -13.833 86 -41.5s33 -63.167 33 -106.5zM1178 1094c0 33.333 -8.49902 60.335 -25.499 81.002
s-38.833 31 -65.5 31c-43.333 0 -75.5 -23.167 -96.5 -69.5s-34 -97.833 -39 -154.5s-7.5 -119 -7.5 -187c77.333 35.333 135.666 78.166 174.999 128.499s59 107.166 59 170.499zM811.003 120.998c-17.333 27.333 -29.833 73.999 -37.5 139.999s-11.5 134.667 -11.5 206
c0 64.667 4 144.667 12 240c-64.667 -18 -123 -39.833 -175 -65.5s-98.333 -68.667 -139 -129s-61 -141.166 -61 -242.499c0 -76.667 15.667 -136 47 -178s75.333 -63 132 -63c32.667 0 66.667 6.83301 102 20.5s79 37.5 131 71.5z" />
    <glyph glyph-name="quotesingle" unicode="'" horiz-adv-x="575" 
d="M473 1270c0 -18.667 -2 -42.667 -6 -72l-57 -395h-35l-60 395c-1.33301 8 -2 20.333 -2 37v18c0 88.667 26 133 78 133c25.333 0 45.333 -10.167 60 -30.5s22 -48.833 22 -85.5z" />
    <glyph glyph-name="parenleft" unicode="(" 
d="M995 1391c-56 -41.333 -97.3359 -75 -124.003 -101s-57 -61.333 -91 -106c-55.333 -72.667 -106.166 -164 -152.499 -274s-86.666 -226.333 -120.999 -349s-60.166 -234.334 -77.499 -335.001s-26 -180.667 -26 -240c0 -79.333 6.66699 -147.166 20 -203.499
s32 -117.5 56 -183.5h-33c-44.667 90 -82 183.833 -112 281.5s-45 216.167 -45 355.5c0 78.667 10 167.667 30 267s55 204.5 105 315.5s120.5 218.667 211.5 323s202.167 193.5 333.5 267.5z" />
    <glyph glyph-name="parenright" unicode=")" 
d="M762 772c0 -78.667 -10.166 -168.501 -30.499 -269.501s-54.833 -205.667 -103.5 -314s-118 -214.333 -208 -318s-202.667 -194.167 -338 -271.5l-27 18c56 40.667 97.667 74.334 125 101.001s57.333 62 90 106c71.333 93.333 136 219 194 377s103 314.333 135 469
s48 272 48 352c0 79.333 -6.83301 148.333 -20.5 207s-32.167 118.667 -55.5 180h33c26 -50.667 50.167 -103.667 72.5 -159s42.166 -124.5 59.499 -207.5s26 -173.167 26 -270.5z" />
    <glyph glyph-name="asterisk" unicode="*" horiz-adv-x="1067" 
d="M971 780c0 -18.667 -6.83203 -34.498 -20.499 -47.498s-30.834 -19.5 -51.501 -19.5c-47.333 0 -93.666 30 -138.999 90c-22 30.667 -42 54.667 -60 72s-41.667 34.333 -71 51l-15 -6c0 -27.333 1.83301 -51 5.5 -71s14.167 -53 31.5 -99c18 -50 27 -87 27 -111
c0 -28 -7 -51.667 -21 -71s-31.667 -29 -53 -29c-20.667 0 -39.167 9.5 -55.5 28.5s-24.5 42.167 -24.5 69.5c0 30.667 10.333 71.667 31 123c14 36 23 63.833 27 83.5s6 45.167 6 76.5l-15 6c-26 -16.667 -46.333 -31.667 -61 -45s-33 -34 -55 -62
c-24.667 -31.333 -49.167 -56.833 -73.5 -76.5s-51.833 -29.5 -82.5 -29.5c-18.667 0 -35 6.66699 -49 20s-21 29.666 -21 48.999c0 57.333 56 95.666 168 114.999c67.333 11.333 121.333 28.333 162 51v15c-20 13.333 -40.5 23.333 -61.5 30s-52.167 13.667 -93.5 21
c-52.667 8.66699 -95 21.834 -127 39.501s-48 43.167 -48 76.5c0 19.333 7.16699 35.5 21.5 48.5s31.166 19.5 50.499 19.5c30 0 59 -12.333 87 -37s56.333 -54.667 85 -90c25.333 -28.667 43.333 -47.667 54 -57s25.334 -19 44.001 -29l15 8v6c0 42.667 -11.667 94 -35 154
c-20.667 57.333 -31 99 -31 125s7.5 48.167 22.5 66.5s33.5 27.5 55.5 27.5c23.333 0 41.833 -9.16699 55.5 -27.5s20.5 -42.5 20.5 -72.5c0 -26.667 -9.66699 -64.334 -29 -113.001c-15.333 -41.333 -25 -71.833 -29 -91.5s-6 -44.5 -6 -74.5l13 -6
c28 16 50.5 31.833 67.5 47.5s36.833 38.167 59.5 67.5c27.333 33.333 52.166 58.333 74.499 75s46.5 25 72.5 25c14 0 26.333 -3.16699 37 -9.5s19.167 -14.833 25.5 -25.5s9.5 -23 9.5 -37c0 -29.333 -14.333 -53.166 -43 -71.499s-73.667 -32.5 -135 -42.5
c-42 -6.66699 -72.667 -13.334 -92 -20.001s-40 -17.667 -62 -33v-15c24 -13.333 46.833 -23.5 68.5 -30.5s51.5 -13.167 89.5 -18.5c116 -19.333 174 -59 174 -119z" />
    <glyph glyph-name="plus" unicode="+" horiz-adv-x="1364" 
d="M1221 610h-496v-489h-88v489h-492v88h492v494h88v-494h496v-88z" />
    <glyph glyph-name="comma" unicode="," horiz-adv-x="575" 
d="M272 37c0 -46 -10.665 -88.5 -31.998 -127.5s-52.333 -74.167 -93 -105.5s-90.334 -56.666 -149.001 -75.999l-8 28c72.667 28.667 130 63.667 172 105s63 83.666 63 126.999c0 10.667 -3.33301 16 -10 16c-2.66699 0 -12 -1.33301 -28 -4s-25.667 -4 -29 -4
c-24 0 -44.667 9.5 -62 28.5s-26 41.5 -26 67.5s8.5 47.833 25.5 65.5s37.833 26.5 62.5 26.5c35.333 0 63.166 -13 83.499 -39s30.5 -62 30.5 -108z" />
    <glyph glyph-name="hyphen" unicode="-" horiz-adv-x="682" 
d="M590 406h-436v83h436v-83z" />
    <glyph glyph-name="period" unicode="." horiz-adv-x="575" 
d="M279 80c0 -27.333 -9.83301 -50.833 -29.5 -70.5s-42.834 -29.5 -69.501 -29.5c-18 0 -34.667 4.5 -50 13.5s-27.5 21.167 -36.5 36.5s-13.5 32 -13.5 50c0 26 9.33301 48.833 28 68.5s42 29.5 70 29.5h2c28.667 0 52.334 -9.66699 71.001 -29s28 -42.333 28 -69z" />
    <glyph glyph-name="slash" unicode="/" horiz-adv-x="682" 
d="M567 1399l-422 -1903h-53l422 1903h53z" />
    <glyph glyph-name="zero" unicode="0" 
d="M985 963c0 -112 -17.6689 -227.501 -53.002 -346.501s-82.166 -226.167 -140.499 -321.5s-123.833 -172.166 -196.5 -230.499s-144 -87.5 -214 -87.5c-51.333 0 -97.333 18.5 -138 55.5s-72.167 89.333 -94.5 157s-33.5 144.5 -33.5 230.5c0 114 19.833 229.667 59.5 347
s91.5 224 155.5 320s131.333 172 202 228s134.334 84 191.001 84h8c80 -4 142.333 -44.833 187 -122.5s67 -182.167 67 -313.5zM865.998 1192c0 116 -42.999 174.001 -128.999 174.001h-4c-94 -2 -171 -74.333 -231 -217c-43.333 -105.333 -99 -273.5 -167 -504.5
s-102 -386.5 -102 -466.5c0 -53.333 13 -95 39 -125s62.333 -45 109 -45c49.333 0 93.166 22.167 131.499 66.5s74 109 107 194s73.5 210.5 121.5 376.5c52.667 178.667 86.667 301.167 102 367.5s23 126.166 23 179.499z" />
    <glyph glyph-name="one" unicode="1" 
d="M836 1391l-359.002 -1256c-4 -14 -6 -27.667 -6 -41c0 -42 34.667 -63 104 -63h140l-10 -31h-691v31h138c48.667 0 84.834 11.833 108.501 35.5s45.5 71.167 65.5 142.5l258 913c2.66699 10.667 4 19.667 4 27c0 39.333 -36.333 59 -109 59h-194l10 33h86
c158.667 0 294.334 50 407.001 150h48z" />
    <glyph glyph-name="two" unicode="2" 
d="M971 1090c0 -57.333 -10.498 -109.164 -31.498 -155.497s-49.667 -89 -86 -128s-72.166 -71.833 -107.499 -98.5s-85.333 -62 -150 -106l-182 -128.5c-52 -38.333 -96.667 -74 -134 -107s-68.833 -65.167 -94.5 -96.5s-45.167 -61.333 -58.5 -90
c48.667 18 98.334 27 149.001 27c47.333 0 102.666 -5.66699 165.999 -17c74.667 -10.667 124 -16 148 -16c56.667 0 102.834 11 138.501 33s62.667 49.333 81 82s36.5 76.334 54.5 131.001h31c-22.667 -84.667 -53 -160.667 -91 -228s-80.333 -119.5 -127 -156.5
s-93.334 -55.5 -140.001 -55.5c-32.667 0 -63.667 7.66699 -93 23s-63.333 42.333 -102 81c-28.667 30 -53.5 51.167 -74.5 63.5s-42.5 18.5 -64.5 18.5c-24 0 -44 -5 -60 -15s-24 -23.333 -24 -40c0 -6.66699 4.66699 -18.334 14 -35.001c14 -18.667 21 -36.334 21 -53.001
c0 -28.667 -15 -43 -45 -43c-30.667 0 -46 25 -46 75c0 53.333 11 101.666 33 144.999s56 88 102 134s113.667 108 203 186l45.5 41l41 37l44.5 39c43.333 46.667 75.666 83.5 96.999 110.5s40.666 56.5 57.999 88.5s34.666 68.667 51.999 110c32.667 79.333 49 153 49 221
c0 60.667 -13.333 107.667 -40 141s-65 50 -115 50c-55.333 0 -112.833 -18.5 -172.5 -55.5s-110 -80.667 -151 -131s-61.5 -92.833 -61.5 -127.5c0 -9.33301 2.5 -15 7.5 -17s14.167 -3 27.5 -3c23.333 0 43.333 -4.83301 60 -14.5s30.167 -23.167 40.5 -40.5
s15.5 -37.333 15.5 -60c0 -32.667 -10.667 -60.5 -32 -83.5s-47.333 -34.5 -78 -34.5c-34 0 -61 12.333 -81 37s-30 58 -30 100c0 72.667 24.167 145.5 72.5 218.5s110.5 133 186.5 180s151.667 70.5 227 70.5c56 0 107.667 -13.667 155 -41s84.5 -64.833 111.5 -112.5
s40.5 -98.834 40.5 -153.501z" />
    <glyph glyph-name="three" unicode="3" 
d="M954 1157c0 -40.667 -10.501 -79.165 -31.501 -115.498s-54 -73 -99 -110s-108.5 -79.833 -190.5 -128.5c-27.333 -16 -50 -30.333 -68 -43c54.667 -7.33301 95 -17.666 121 -30.999c42.667 -20.667 78.667 -48.167 108 -82.5s51.5 -73 66.5 -116s22.5 -87.5 22.5 -133.5
c0 -70 -22.167 -137.167 -66.5 -201.5s-102.833 -116.333 -175.5 -156s-149 -59.5 -229 -59.5c-68 0 -129.167 13.167 -183.5 39.5s-96.833 62.666 -127.5 108.999s-46 97.833 -46 154.5c0 56 13.833 103 41.5 141s62.5 57 104.5 57c24 0 44.333 -9 61 -27
s25 -39.667 25 -65c0 -29.333 -11.667 -56.5 -35 -81.5s-49.333 -37.5 -78 -37.5c-2.66699 0 -11.5 2.16699 -26.5 6.5s-25.167 6.5 -30.5 6.5c-15.333 0 -23 -14.333 -23 -43c0 -34.667 13.167 -69.334 39.5 -104.001s60.333 -63 102 -85s83.167 -33 124.5 -33
c28.667 0 57.834 6.33301 87.501 19s53.834 29 72.501 49c54 56 102 130.833 144 224.5s63 174.5 63 242.5c0 54.667 -14.333 97.334 -43 128.001s-68.334 46 -119.001 46c-41.333 0 -82.333 -15.667 -123 -47c-19.333 -15.333 -33 -23 -41 -23
c-14.667 0 -22 6.33301 -22 19c0 17.333 29.333 39.666 88 66.999c68 34.667 125.333 73 172 115c43.333 47.333 78.666 103.666 105.999 168.999s41 125 41 179c0 50 -12.167 88.833 -36.5 116.5s-59.833 41.5 -106.5 41.5c-49.333 0 -96.833 -11.5 -142.5 -34.5
s-68.5 -47.167 -68.5 -72.5c0 -6.66699 7 -13.334 21 -20.001c31.333 -16.667 47 -42.667 47 -78c0 -27.333 -11.167 -51.833 -33.5 -73.5s-46.833 -32.5 -73.5 -32.5c-22 0 -40.167 8.5 -54.5 25.5s-21.5 38.5 -21.5 64.5c0 41.333 16.833 82 50.5 122
s77.834 72 132.501 96s110.667 36 168 36c84.667 0 153.5 -22.167 206.5 -66.5s79.5 -102.166 79.5 -173.499z" />
    <glyph glyph-name="four" unicode="4" 
d="M961 1391l-276.999 -965h270l-16 -57h-270l-66 -234c-4 -14 -6 -28.333 -6 -43c0 -40.667 34.667 -61 104 -61h156l-10 -31h-713l10 31h142c44 0 77.167 9.66699 99.5 29s40.166 54 53.499 104l56 205h-437v55l779 967h125zM739.001 1221l-639 -795h412z" />
    <glyph glyph-name="five" unicode="5" 
d="M954 1397c-7.33301 -66.667 -37.0049 -120.502 -89.0049 -161.502s-115.667 -61.5 -191 -61.5c-30.667 0 -54 1.66699 -70 5s-61 16.666 -135 39.999l-150 -410c41.333 34.667 77.166 58.334 107.499 71.001s64.833 19 103.5 19c61.333 0 118.333 -18 171 -54
s94.334 -84.5 125.001 -145.5s46 -126.833 46 -197.5c0 -68.667 -13.167 -134.334 -39.5 -197.001s-62.666 -118.334 -108.999 -167.001s-99.833 -87.167 -160.5 -115.5s-123.334 -42.5 -188.001 -42.5c-92.667 0 -168.5 27.667 -227.5 83s-88.5 127.333 -88.5 216
c0 39.333 7.33301 76.333 22 111s34.334 62.334 59.001 83.001s50.334 31 77.001 31c24.667 0 45.167 -8.5 61.5 -25.5s24.5 -39.167 24.5 -66.5c0 -33.333 -12.333 -63.166 -37 -89.499s-53.334 -39.5 -86.001 -39.5c-3.33301 0 -14 3.33301 -32 10s-29 10 -33 10
c-14 0 -21 -16.333 -21 -49c0 -64.667 23.833 -120.5 71.5 -167.5s104.5 -70.5 170.5 -70.5c34.667 0 67.5 6.66699 98.5 20s56.833 32 77.5 56c32.667 38 63.334 88.5 92.001 151.5s51.834 131.167 69.501 204.5s26.5 138.333 26.5 195
c0 70.667 -15.667 125.834 -47 165.501s-75.666 59.5 -132.999 59.5c-93.333 0 -173.666 -56.667 -240.999 -170h-35l258 699c58.667 -25.333 105 -42.666 139 -51.999s71 -14 111 -14c76.667 0 144 22 202 66z" />
    <glyph glyph-name="six" unicode="6" 
d="M1008 1169c0 -42 -11.6592 -77.9971 -34.9922 -107.997s-52 -45 -86 -45c-24 0 -44.667 9.5 -62 28.5s-26 42.167 -26 69.5c0 37.333 10.5 67.5 31.5 90.5s49.167 35.167 84.5 36.5c19.333 0 29 8.33301 29 25c0 22.667 -16.833 44.667 -50.5 66s-68.834 32 -105.501 32
c-47.333 0 -89.333 -11.333 -126 -34s-69.334 -55.667 -98.001 -99s-56.167 -97.5 -82.5 -162.5s-56.5 -148.167 -90.5 -249.5l-31 -92c51.333 53.333 95.333 90.166 132 110.499s78 30.5 124 30.5c44.667 0 85.5 -9.33301 122.5 -28s70.167 -45.834 99.5 -81.501
s51.666 -76 66.999 -121s23 -94.5 23 -148.5c0 -60.667 -13.167 -121.5 -39.5 -182.5s-62.5 -116.5 -108.5 -166.5s-97.833 -89.667 -155.5 -119s-115.5 -44 -173.5 -44c-64.667 0 -122.334 19.167 -173.001 57.5s-89.834 92.833 -117.501 163.5s-41.5 150.667 -41.5 240
c0 109.333 19.667 221 59 335s91.166 218.167 155.499 312.5s135.666 169.833 213.999 226.5s155.166 85 230.499 85c68 0 123.333 -21.333 166 -64s64 -97.334 64 -164.001zM772.008 674.003c0 49.333 -14 88.668 -42 118.001s-66 44 -114 44
c-64.667 0 -121 -22.833 -169 -68.5s-86.5 -102 -115.5 -169s-50.833 -134.833 -65.5 -203.5s-22 -123.334 -22 -164.001c0 -40 6 -76.5 18 -109.5s31.667 -59.833 59 -80.5s63.666 -31 108.999 -31c94 0 172 76.667 234 230c30.667 76.667 56.334 157.167 77.001 241.5
s31 148.5 31 192.5z" />
    <glyph glyph-name="seven" unicode="7" 
d="M1044 1343c0 -34.667 -11.666 -76.498 -34.999 -125.498s-64.666 -119.5 -123.999 -211.5l-37 -58c-67.333 -104.667 -115.5 -182.334 -144.5 -233.001s-52.833 -100.5 -71.5 -149.5s-38.334 -115.167 -59.001 -198.5l-26 -109
c-17.333 -70.667 -33.833 -126.167 -49.5 -166.5s-32.5 -69.833 -50.5 -88.5s-38 -28 -60 -28c-54.667 0 -82 36.333 -82 109c0 58.667 15.333 121.834 46 189.501s65.167 130 103.5 187s98.5 141.167 180.5 252.5c166 221.333 259.333 355 280 401
c4.66699 6 8.33398 13 11.001 21c-2.66699 -0.666992 -5.5 -2 -8.5 -4s-7.83301 -4.33301 -14.5 -7c-64.667 -34 -124 -51 -178 -51c-40 0 -71.667 8.66699 -95 26s-42.333 46.333 -57 87c-8 22 -15.5 36.667 -22.5 44s-17.167 11 -30.5 11
c-27.333 0 -65.333 -19.667 -114 -59s-93.334 -124.666 -134.001 -255.999l-8 -27h-35l177 500h30l-74 -219l25 20c50 41.333 92.333 70.166 127 86.499s71 24.5 109 24.5c33.333 0 60.666 -8.5 81.999 -25.5s38.333 -44.167 51 -81.5
c9.33301 -26.667 19 -44.834 29 -54.501s24.667 -14.5 44 -14.5c21.333 0 42.833 6.16699 64.5 18.5s39.667 27.666 54 45.999s21.5 36.833 21.5 55.5c0 8 -0.166992 15.167 -0.5 21.5s-0.833008 12.833 -1.5 19.5c0 66 15 99 45 99c21.333 0 32 -17.333 32 -52z" />
    <glyph glyph-name="eight" unicode="8" 
d="M969 1128c0 -55.333 -14.502 -105 -43.502 -149s-63.167 -81.167 -102.5 -111.5s-92.333 -66.166 -159 -107.499c65.333 -73.333 114.666 -138.833 147.999 -196.5s50 -123.834 50 -198.501c0 -70 -18 -134.833 -54 -194.5s-85 -106.334 -147 -140.001
s-131.333 -50.5 -208 -50.5c-65.333 0 -126.166 14.667 -182.499 44s-101.5 68.666 -135.5 117.999s-51 102.333 -51 159c0 50.667 15 96.834 45 138.501s70.333 80.834 121 117.501s123.667 83.667 219 141l-29 39c-29.333 39.333 -52.666 75.5 -69.999 108.5
s-29.333 64 -36 93s-10 61.5 -10 97.5c0 46.667 9.5 91.834 28.5 135.501s45.667 82.5 80 116.5s73.833 60.333 118.5 79s92.334 28 143.001 28c50 0 96 -11.833 138 -35.5s75.333 -56.334 100 -98.001s37 -86.167 37 -133.5zM890.998 1151
c0 66 -18.168 118.001 -54.501 156.001s-85.833 57 -148.5 57c-44.667 0 -85.834 -9.66699 -123.501 -29s-67.5 -46.333 -89.5 -81s-33 -73 -33 -115c0 -58.667 17.5 -114.667 52.5 -168s84.5 -115.666 148.5 -186.999c36.667 22 72.834 47.667 108.501 77
s67.834 69.166 96.501 119.499s43 107.166 43 170.499zM736.997 262.001c0 66.667 -23.167 132.833 -69.5 198.5s-106.5 136.167 -180.5 211.5c-53.333 -31.333 -101.833 -63.833 -145.5 -97.5s-81.5 -77.167 -113.5 -130.5s-48 -116 -48 -188
c0 -74 24.5 -133.5 73.5 -178.5s114.167 -67.5 195.5 -67.5c54.667 0 104 10.833 148 32.5s78.333 51.667 103 90s37 81.5 37 129.5z" />
    <glyph glyph-name="nine" unicode="9" 
d="M975 956c0 -113.333 -18.668 -227.828 -56.001 -343.495s-88.166 -221.834 -152.499 -318.501s-134.666 -173.167 -210.999 -229.5s-152.166 -84.5 -227.499 -84.5c-70.667 0 -129.667 20 -177 60s-71 89.333 -71 148c0 46.667 12.667 85.334 38 116.001s57 46 95 46
c16.667 0 31.667 -3.83301 45 -11.5s23.833 -18.167 31.5 -31.5s11.5 -28.333 11.5 -45c0 -34.667 -11.833 -63.834 -35.5 -87.501s-52.834 -35.5 -87.501 -35.5c-2.66699 0.666992 -5.33398 1.16699 -8.00098 1.5s-6 0.5 -10 0.5c-15.333 0 -23 -6.66699 -23 -20
c0 -26.667 19.333 -51.5 58 -74.5s81 -34.5 127 -34.5c66.667 0 122.167 23.333 166.5 70s81.833 109.5 112.5 188.5s66.667 188.167 108 327.5l18 61c-44.667 -47.333 -85.5 -81 -122.5 -101s-78.167 -30 -123.5 -30c-57.333 0 -109.333 15.833 -156 47.5
s-83.5 75.5 -110.5 131.5s-40.5 117.333 -40.5 184c0 60.667 14 121.667 42 183s65.833 116.666 113.5 165.999s100.667 88.166 159 116.499s116.833 42.5 175.5 42.5c62.667 0 117.5 -17.833 164.5 -53.5s83.167 -86.834 108.5 -153.501s38 -145.334 38 -236.001z
M849.999 1155c0 69.333 -14.834 122.167 -44.501 158.5s-72.834 54.5 -129.501 54.5c-58 0 -107.333 -23.333 -148 -70c-38.667 -44 -72.5 -105.167 -101.5 -183.5s-51 -156 -66 -233s-22.5 -130.5 -22.5 -160.5c0 -108 46.333 -162 139 -162h2
c74.667 0 138.334 28.667 191.001 86c33.333 36 63.833 83 91.5 141s49.334 120 65.001 186s23.5 127 23.5 183z" />
    <glyph glyph-name="colon" unicode=":" horiz-adv-x="682" 
d="M508 774c0 -25.333 -9.33301 -47.666 -28 -66.999s-41.334 -29 -68.001 -29c-26 0 -48.667 9.66699 -68 29s-29 41.666 -29 66.999c0 26.667 9.66699 49.334 29 68.001s42 28 68 28c26.667 0 49.334 -9.33301 68.001 -28s28 -41.334 28 -68.001zM309 80
c0 -25.333 -9.33301 -47.666 -28 -66.999s-41.334 -29 -68.001 -29c-25.333 0 -47.666 9.66699 -66.999 29s-29 41.666 -29 66.999c0 26.667 9.66699 49.334 29 68.001s41.666 28 66.999 28c26.667 0 49.334 -9.33301 68.001 -28s28 -41.334 28 -68.001z" />
    <glyph glyph-name="semicolon" unicode=";" horiz-adv-x="682" 
d="M498 774c0 -25.333 -9.66699 -47.666 -29 -66.999s-42 -29 -68 -29c-25.333 0 -47.666 9.66699 -66.999 29s-29 41.666 -29 66.999c0 26.667 9.66699 49.334 29 68.001s41.666 28 66.999 28c26 0 48.667 -9.33301 68 -28s29 -41.334 29 -68.001zM315 37
c0 -46 -10.665 -88.5 -31.998 -127.5s-52.333 -74.167 -93 -105.5s-90.334 -56.666 -149.001 -75.999l-8 28c72.667 28.667 130 63.667 172 105s63 83.666 63 126.999c0 10.667 -3.33301 16 -10 16c-2.66699 0 -12 -1.33301 -28 -4s-25.667 -4 -29 -4
c-24 0 -44.667 9.5 -62 28.5s-26 41.5 -26 67.5s8.5 47.833 25.5 65.5s37.833 26.5 62.5 26.5c35.333 0 63.166 -13 83.499 -39s30.5 -62 30.5 -108z" />
    <glyph glyph-name="less" unicode="&#x3c;" horiz-adv-x="1368" 
d="M1219 162l-1072 456v78l1072 453v-96l-955 -396l955 -397v-98z" />
    <glyph glyph-name="equal" unicode="=" horiz-adv-x="1366" 
d="M1219 848h-1072v88h1072v-88zM1219 383h-1072v88h1072v-88z" />
    <glyph glyph-name="greater" unicode="&#x3e;" horiz-adv-x="1366" 
d="M1219 616l-1072 -454v96l955 397l-955 398v96l1072 -455v-78z" />
    <glyph glyph-name="question" unicode="?" horiz-adv-x="811" 
d="M776 1110c0 -82 -23.501 -152.332 -70.501 -210.999s-108.167 -117.334 -183.5 -176.001c-64.667 -50.667 -113.167 -94.334 -145.5 -131.001s-48.5 -76.334 -48.5 -119.001c0 -27.333 8.33301 -50.166 25 -68.499s37.667 -27.5 63 -27.5
c29.333 0 53.666 9.66699 72.999 29s36 51.333 50 96l30 -10c-13.333 -48.667 -33.5 -85.5 -60.5 -110.5s-59.167 -37.5 -96.5 -37.5c-36.667 0 -67 13.833 -91 41.5s-36 63.167 -36 106.5c0 68.667 20.5 133.334 61.5 194.001s95.5 125.667 163.5 195
c70.667 70.667 120.334 130.5 149.001 179.5s43 96.167 43 141.5c0 24.667 -4.5 46.667 -13.5 66s-21.833 34 -38.5 44s-36.667 15 -60 15c-60.667 0 -116.5 -32.333 -167.5 -97s-88.167 -151 -111.5 -259h-26c0.666992 66.667 15.334 130.5 44.001 191.5
s66 109.5 112 145.5s95 54 147 54c56 0 101.333 -23 136 -69s52 -107 52 -183zM390.999 76.001c0 -25.333 -9.33301 -47.333 -28 -66s-41.334 -28 -68.001 -28c-25.333 0 -47.333 9.33301 -66 28s-28 40.667 -28 66c0 26.667 9.33301 49.334 28 68.001s40.667 28 66 28
c26.667 0 49.334 -9.33301 68.001 -28s28 -41.334 28 -68.001z" />
    <glyph glyph-name="at" unicode="@" horiz-adv-x="1884" 
d="M1837 172c-28.667 -90.667 -70.8369 -173.664 -126.504 -248.997s-121.667 -140.166 -198 -194.499s-160 -96 -251 -125s-185.833 -43.5 -284.5 -43.5c-165.333 0 -315.166 38 -449.499 114s-239.166 181.167 -314.499 315.5s-113 284.5 -113 450.5
c0 137.333 23.833 266 71.5 386s115.167 224.667 202.5 314s189.333 158.5 306 207.5s243 73.5 379 73.5c103.333 0 198.333 -16.833 285 -50.5s160.667 -80.667 222 -141s108.833 -133 142.5 -218s50.5 -177.167 50.5 -276.5c0 -126 -24.667 -242.833 -74 -350.5
s-115.5 -193.5 -198.5 -257.5s-172.833 -96 -269.5 -96c-36.667 0 -67 5 -91 15s-41.5 25.167 -52.5 45.5s-16.5 47.166 -16.5 80.499c0 32.667 6 80.334 18 143.001c-70 -83.333 -136.167 -151.5 -198.5 -204.5s-127.166 -79.5 -194.499 -79.5
c-53.333 0 -97.333 22.667 -132 68s-52 102.333 -52 171c0 70.667 17 146.167 51 226.5s78.5 156.166 133.5 227.499s115.167 129.333 180.5 174s128 67 188 67c45.333 0 82.5 -11.833 111.5 -35.5s48.5 -57.834 58.5 -102.501l32 109l158 22l-117 -399l-59 -215
c-4.66699 -17.333 -11.334 -46 -20.001 -86s-13 -66 -13 -78c0 -22.667 7.33301 -41.334 22 -56.001s33.334 -22 56.001 -22c50.667 0 101.334 18.5 152.001 55.5s96.167 86.667 136.5 149s72.333 132.333 96 210s35.5 155.5 35.5 233.5c0 118.667 -27.167 225 -81.5 319
s-129.833 167.667 -226.5 221s-204.334 80 -323.001 80c-187.333 0 -347 -47.833 -479 -143.5s-230.833 -217.834 -296.5 -366.501s-98.5 -297.334 -98.5 -446.001c0 -151.333 33.167 -287.666 99.5 -408.999s158.833 -216 277.5 -284s252.334 -102 401.001 -102
c92.667 0 179.334 12 260.001 36s155.167 59.5 223.5 106.5s129.666 104.5 183.999 172.5s100.833 147.333 139.5 238h57zM1184 764.003c0 32 -5.17285 59.3311 -15.5059 81.998s-25.166 40.334 -44.499 53.001s-41 19 -65 19c-45.333 0 -92.166 -23.167 -140.499 -69.5
s-92.666 -104.666 -132.999 -174.999s-72.166 -140 -95.499 -209s-35 -122.833 -35 -161.5c0 -44 11 -80.167 33 -108.5s50 -42.5 84 -42.5c46 0 91.833 18.833 137.5 56.5s85.334 79.5 119.001 125.5s56.834 81.333 69.501 106c20.667 38 40.167 92.5 58.5 163.5
s27.5 124.5 27.5 160.5z" />
    <glyph glyph-name="A" unicode="A" horiz-adv-x="1493" 
d="M1329 31l-8.00586 -31.002h-641l8 31h127c38.667 0 66.334 8.5 83.001 25.5s25.334 45.833 26.001 86.5l10 326h-471c-73.333 -104 -120.333 -174.167 -141 -210.5s-31 -70.5 -31 -102.5c0 -38 13.167 -68.333 39.5 -91s61.5 -34 105.5 -34h88l-10 -31h-577v31
c44.667 3.33301 82.334 10.833 113.001 22.5s60.834 30.334 90.501 56.001s61.334 59.334 95.001 101.001s73.834 96.5 120.501 164.5l715 1030h74l-41 -1243v-10c0 -80.667 36 -121 108 -121h117zM955.994 1178l-450 -650h430z" />
    <glyph glyph-name="B" unicode="B" horiz-adv-x="1366" 
d="M1339 1069c0 -75.333 -25.3359 -135.667 -76.0029 -181s-108 -77.333 -172 -96s-141.667 -35.667 -233 -51c70.667 -25.333 132.5 -52.833 185.5 -82.5s97.5 -68.334 133.5 -116.001s54 -104.167 54 -169.5c0 -91.333 -29.833 -164.833 -89.5 -220.5s-130 -95 -211 -118
s-157.167 -34.5 -228.5 -34.5h-784l8 31h94c46.667 0 80.834 3.83301 102.501 11.5s39.334 24.334 53.001 50.001s28.834 68.5 45.501 128.5l291 1026c2.66699 17.333 4 29 4 35c0 44 -26.667 66 -80 66h-143l8 32h631c78.667 0 149.167 -13.167 211.5 -39.5
s110.5 -63 144.5 -110s51 -100.833 51 -161.5zM1159 1135c0 68 -14.5 117.666 -43.5 148.999s-65.667 50.5 -110 57.5s-105.833 10.5 -184.5 10.5c-28.667 0 -49.5 -1.66699 -62.5 -5s-22.833 -9.66602 -29.5 -18.999s-13.334 -25.333 -20.001 -48l-148 -514h232
c110.667 0 195.334 30 254.001 90c34 34 61.167 76.5 81.5 127.5s30.5 101.5 30.5 151.5zM1030 452.998c0 91.333 -28.167 160.833 -84.5 208.5s-138.166 71.5 -245.499 71.5h-147l-176 -633c-4 -10 -6 -20 -6 -30c0 -27.333 18.333 -41 55 -41h195
c57.333 0 110.166 7.66699 158.499 23s85.5 36.333 111.5 63c39.333 38.667 72.333 90.5 99 155.5s40 125.833 40 182.5z" />
    <glyph glyph-name="C" unicode="C" horiz-adv-x="1343" 
d="M1352 1399l-127.003 -660.001l-31 -2c0.666992 20.667 1.16699 39.5 1.5 56.5s0.5 37.833 0.5 62.5c0 69.333 -3 128.833 -9 178.5s-17.667 94.834 -35 135.501s-41.666 76.667 -72.999 108c-58 60 -127.667 90 -209 90c-46.667 0 -93.334 -10.167 -140.001 -30.5
s-84.667 -47.166 -114 -80.499c-50 -54.667 -101.667 -139.834 -155 -255.501s-96.666 -235.167 -129.999 -358.5s-50 -228.333 -50 -315c0 -65.333 13.167 -122.833 39.5 -172.5s64 -87.667 113 -114s105.833 -39.5 170.5 -39.5c59.333 0 117 13.833 173 41.5
s107.667 67.834 155 120.501c44.667 50 79.5 96.5 104.5 139.5s53.5 107.167 85.5 192.5h31c-26.667 -82.667 -52 -146.334 -76 -191.001s-58.667 -93 -104 -145c-111.333 -127.333 -233.666 -191 -366.999 -191c-90 0 -173.167 24.667 -249.5 74s-136.666 116 -180.999 200
s-66.5 176.333 -66.5 277c0 96 23 196.167 69 300.5s107 200.833 183 289.5s158.5 159.334 247.5 212.001s175.5 79 259.5 79c38 0 75 -6.33301 111 -19s68.5 -30.834 97.5 -54.501s53.833 -52.5 74.5 -86.5c10.667 -18 21 -27 31 -27c18.667 0 41 17.5 67 52.5
s49.333 79.167 70 132.5h33z" />
    <glyph glyph-name="D" unicode="D" horiz-adv-x="1493" 
d="M1427 805c0 -64.667 -8.66797 -129.168 -26.001 -193.501s-42.333 -124.666 -75 -180.999s-74 -110.5 -124 -162.5c-90.667 -94 -189.667 -162.167 -297 -204.5s-233.666 -63.5 -378.999 -63.5h-612l8 31h119c44.667 0 78.167 9.66699 100.5 29s40.833 56 55.5 110
l282 1016c12.667 42 19 74.667 19 98c0 42.667 -22.667 64 -68 64h-166l6 32h629c95.333 0 183.5 -25.833 264.5 -77.5s145.167 -121.5 192.5 -209.5s71 -184 71 -288zM1247 986.999c0 121.333 -31 212.502 -93 273.502s-156 91.5 -282 91.5h-47
c-44 0 -73.833 -2.83301 -89.5 -8.5s-27.5 -20.834 -35.5 -45.501l-323 -1165c-8 -28.667 -12 -50.334 -12 -65.001c0 -12 9 -20.833 27 -26.5s46.333 -8.5 85 -8.5c94 0 177.333 5.33301 250 16c91.333 13.333 170.666 56.333 237.999 129s121.333 159.167 162 259.5
s70.834 200.5 90.501 300.5s29.5 183 29.5 249z" />
    <glyph glyph-name="E" unicode="E" horiz-adv-x="1409" 
d="M1389 1380l-126.998 -545.999h-33c13.333 85.333 20 151.333 20 198c0 97.333 -18.333 169.333 -55 216s-80.834 75.334 -132.501 86.001s-118.167 16 -199.5 16h-39c-32.667 0 -55 -1.33301 -67 -4s-21 -9.16699 -27 -19.5s-12.667 -28.5 -20 -54.5l-154 -545h55
c63.333 0 126.333 19.667 189 59c48 33.333 86.333 76.833 115 130.5s51.667 115.5 69 185.5h37l-238 -844h-34c18.667 80 31.167 135.833 37.5 167.5s9.5 58.5 9.5 80.5c0 62.667 -15.833 110 -47.5 142s-86.834 48 -165.501 48h-33l-174 -608
c-1.33301 -2.66699 -2 -7.33398 -2 -14.001c0 -26 17 -39 51 -39h199c33.333 0 78 9 134 27s115.333 50 178 96s119 108.667 169 188c37.333 61.333 71.333 133 102 215h31l-158 -561h-1110l6 31h99c29.333 0 55.666 9.83301 78.999 29.5s39.333 44.5 48 74.5l311 1108
c4 14 6 27 6 39c0 21.333 -6.16699 37.666 -18.5 48.999s-30.166 17 -53.499 17h-149l12 30v2h1080z" />
    <glyph glyph-name="F" unicode="F" horiz-adv-x="1366" 
d="M1382 1380l-122 -555.001l-35 2c14.667 68.667 22 126.667 22 174c0 90.667 -15 161.167 -45 211.5s-59.333 82.833 -88 97.5s-55.334 24.334 -80.001 29.001c-32.667 6 -83.667 9 -153 9h-37c-30.667 0 -52.5 -2.33301 -65.5 -7s-23.167 -14.5 -30.5 -29.5
s-15.666 -39.167 -24.999 -72.5l-133 -500h41c76 0 137.833 18.333 185.5 55s82 76.167 103 118.5s42.167 94.5 63.5 156.5h31l-201 -758h-29c19.333 72 29 130 29 174c0 72 -15.667 127 -47 165s-77 57 -137 57h-45l-144 -547c-6.66699 -30 -10 -54.667 -10 -74
c0 -18.667 10 -32.5 30 -41.5s51.667 -13.5 95 -13.5h137l-10 -31h-725l8 31h86c57.333 0 100.5 6.33301 129.5 19s50.167 45 63.5 97l280 1049c11.333 40 17 69.333 17 88c0 42.667 -25.333 64 -76 64h-172l10 32h1079z" />
    <glyph glyph-name="G" unicode="G" horiz-adv-x="1386" 
d="M1368 588l-9.99805 -31h-105c-37.333 0 -66.166 -8.83301 -86.499 -26.5s-37.166 -48.5 -50.499 -92.5l-131 -458h-29c6 38.667 9 70.667 9 96c0 72 -16.667 108 -50 108c-9.33301 0 -19.833 -4.66699 -31.5 -14s-29.834 -26.333 -54.501 -51
c-96.667 -92.667 -192.667 -139 -288 -139c-73.333 0 -142.333 25.833 -207 77.5s-116.334 121.167 -155.001 208.5s-58 179.666 -58 276.999c0 224 97.667 433.333 293 628c52.667 52.667 104 96.334 154 131.001s99 61.167 147 79.5s93.667 27.5 137 27.5
c71.333 0 126.5 -14.167 165.5 -42.5s71.167 -61.833 96.5 -100.5c16.667 -23.333 28.667 -38.5 36 -45.5s16 -10.5 26 -10.5c24 0 50.5 17.833 79.5 53.5s55.5 83.5 79.5 143.5h33l-176 -700h-31c10 84 15 141.333 15 172c0 98 -12.833 184.833 -38.5 260.5
s-62.167 134 -109.5 175s-101.333 61.5 -162 61.5c-44 0 -86 -9.33301 -126 -28s-76.333 -46.667 -109 -84c-70 -79.333 -131.833 -182.833 -185.5 -310.5s-95.334 -253.834 -125.001 -378.501s-44.5 -216 -44.5 -274c0 -86 24.667 -155.667 74 -209s114.333 -80 195 -80
c58.667 0 116.667 19.333 174 58c50.667 33.333 92.167 80.833 124.5 142.5s56.166 121.334 71.499 179.001s23 93.167 23 106.5c0 20.667 -7.5 35.667 -22.5 45s-40.167 14 -75.5 14h-146l6 31h668z" />
    <glyph glyph-name="H" unicode="H" horiz-adv-x="1599" 
d="M1630 1350l-1.99609 -0.000976562c-35.333 0 -66.5 -5.66699 -93.5 -17s-46.167 -38 -57.5 -80l-316 -1118c-2.66699 -16 -4 -28.333 -4 -37c0 -44.667 26 -67 78 -67h123l-6 -31h-647l10 31h119c73.333 0 120.333 36.667 141 110l155 557h-581l-158 -559
c-4 -16 -6 -32.333 -6 -49s7.16699 -30.667 21.5 -42s33.166 -17 56.499 -17h117l-9 -31h-587v31h90c31.333 0 58.666 9.33301 81.999 28s39 43.334 47 74.001l307 1096c5.33301 18 8 39.667 8 65c0 21.333 -9 36 -27 44s-48 12 -90 12h-69l10 30h616l-8 -30
c-65.333 0 -111.833 -1.5 -139.5 -4.5s-49.334 -11.5 -65.001 -25.5s-27.834 -37.667 -36.501 -71l-148 -512h582l141 496c5.33301 19.333 8 41 8 65c0 18.667 -9 32 -27 40s-47.667 12 -89 12h-62l10 30h506v-30z" />
    <glyph glyph-name="I" unicode="I" horiz-adv-x="831" 
d="M901 1380l-3.99805 -31.998h-35c-50.667 0 -88.334 -6.83301 -113.001 -20.5s-42.334 -37.834 -53.001 -72.501l-317 -1118c-4 -12 -6 -25 -6 -39c0 -44.667 31.333 -67 94 -67h141l-8 -31h-672l6 31h140c24.667 0 47.667 9.66699 69 29s36.333 43.666 45 72.999
l312 1102c4 12 6 31 6 57c0 37.333 -31.333 56 -94 56h-115l8 32h596z" />
    <glyph glyph-name="J" unicode="J" horiz-adv-x="1217" 
d="M1272 1350l-64.002 -0.00195312c-71.333 0 -117 -35.667 -137 -107l-227 -846c-22 -80 -56.667 -152.167 -104 -216.5s-103 -114.666 -167 -150.999s-129.333 -54.5 -196 -54.5c-83.333 0 -153 24.5 -209 73.5s-84 110.5 -84 184.5c0 54 15.333 99.667 46 137
s68 56 112 56c34 0 61.833 -11.5 83.5 -34.5s32.5 -51.833 32.5 -86.5c0 -34 -12.5 -62.5 -37.5 -85.5s-58.833 -37.5 -101.5 -43.5c-40.667 -5.33301 -61 -17.666 -61 -36.999c0 -28.667 20.833 -57 62.5 -85s84.834 -42 129.501 -42c48 0 90.333 13 127 39
s66.334 58.5 89.001 97.5s41.667 80.833 57 125.5s28.333 88.667 39 132l206 780c14 50.667 21 84 21 100c0 42.667 -26 64 -78 64h-145l8 30h598v-30z" />
    <glyph glyph-name="K" unicode="K" horiz-adv-x="1516" 
d="M1581 1380l-6.00293 -32h-33c-30 0 -68.833 -12.833 -116.5 -38.5s-95.5 -60.167 -143.5 -103.5l-426 -377l260 -665c16 -40.667 30.833 -69.834 44.5 -87.501s31.334 -29.667 53.001 -36s52.834 -9.5 93.501 -9.5h65l-8 -31h-651l8 31h125
c26.667 0 48.334 6.33301 65.001 19s25 29.334 25 50.001c0 12.667 -2 25 -6 37l-219 563l-222 -196l-92 -332c-8 -30.667 -12 -60 -12 -88c0 -35.333 32 -53 96 -53h99l-13 -31h-639l9 31h124c37.333 0 67 9.33301 89 28s39 49 51 91l305 1081c5.33301 18 8 37 8 57
c0 40 -28 60 -84 60h-121l8 32h588l-10 -32h-37c-50 0 -86.5 -8.33301 -109.5 -25s-41.167 -48 -54.5 -94l-188 -668l590 524c34 30.667 58.5 59 73.5 85s22.5 52.333 22.5 79c0 30 -13.167 54 -39.5 72s-61.5 27 -105.5 27h-29l10 32h553z" />
    <glyph glyph-name="L" unicode="L" horiz-adv-x="1300" 
d="M1233 580l-174.003 -580h-1137l8 31h127c70 0 114.333 33.333 133 100l314 1102c5.33301 18 8 37.667 8 59c0 37.333 -38.333 56 -115 56h-104l6 32h698l-10 -32h-166c-30 0 -55.667 -8.33301 -77 -25s-36.666 -40.667 -45.999 -72l-321 -1145
c-2.66699 -8 -4 -19.333 -4 -34c0 -23.333 21 -35 63 -35h156c82 0 167 26 255 78s160 118 216 198c22.667 32.667 44.834 70.5 66.501 113.5s45.834 94.167 72.501 153.5h31z" />
    <glyph glyph-name="M" unicode="M" horiz-adv-x="1706" 
d="M1808 1380l-3.99707 -30.002h-78c-33.333 0 -59.666 -4 -78.999 -12s-35.333 -22.667 -48 -44s-24.667 -52.666 -36 -93.999l-293 -1024c-10 -32.667 -15 -62 -15 -88s14.167 -42 42.5 -48s81.166 -9 158.499 -9h39l-8 -31h-705l13 31h127c44 0 77.833 10.333 101.5 31
s42.834 57.334 57.501 110.001l326 1143c1.33301 2.66699 2 6.66699 2 12c0 6.66699 -1.83301 11.834 -5.5 15.501s-7.83398 5.5 -12.501 5.5c-6.66699 0 -12.334 -4.33301 -17.001 -13l-760 -1341h-24l-15 1311c0 28.667 -6 43 -18 43c-8.66699 0 -15.334 -9 -20.001 -27
l-234 -817l-27 -98.5c-6 -21.667 -12.333 -47.834 -19 -78.501s-10.834 -52.167 -12.501 -64.5s-2.5 -28.833 -2.5 -49.5c0 -63.333 14.667 -109.5 44 -138.5s76 -43.5 140 -43.5h51l-10 -31h-643l10 31h43c76.667 0 138.834 17.167 186.501 51.5
s84.167 77.666 109.5 129.999s49.666 118.833 72.999 199.5l221 776c6.66699 24 10 52 10 84c0 24.667 -9.5 43.834 -28.5 57.501s-46.833 20.5 -83.5 20.5h-125l8 30h514v-1046l598 1046h448z" />
    <glyph glyph-name="N" unicode="N" horiz-adv-x="1366" 
d="M1542 1380l-1.99805 -29.999c-38 -3.33301 -68.667 -11 -92 -23c-78.667 -40 -136 -125.333 -172 -256l-295 -1085h-29l-444 1231l-221 -805c-18 -65.333 -27 -120 -27 -164c0 -67.333 21 -120.333 63 -159s99 -58 171 -58h63l-10 -31h-664l6 31h29
c27.333 0 60.666 7.33301 99.999 22s67.333 30.334 84 47.001c28 26.667 54.667 63.5 80 110.5s44.666 96.167 57.999 147.5l229 834c2.66699 13.333 4 25 4 35c0 39.333 -12.5 69.666 -37.5 90.999s-60.833 32 -107.5 32h-135l12 30h428l393 -1093l197 706
c13.333 51.333 20 99.333 20 144c0 67.333 -18.333 119.666 -55 156.999s-88 56 -154 56h-37l7 30h538z" />
    <glyph glyph-name="O" unicode="O" horiz-adv-x="1386" 
d="M1346 850c0 -103.333 -22.667 -207.167 -68 -311.5s-106.833 -200 -184.5 -287s-163.334 -155.833 -257.001 -206.5s-186.167 -76 -277.5 -76c-80.667 0 -153.667 24 -219 72s-116.833 114.167 -154.5 198.5s-56.5 176.5 -56.5 276.5c0 104 23.167 209.333 69.5 316
s108.333 204.167 186 292.5s163.334 158.166 257.001 209.499s186.5 77 278.5 77c84 0 158.167 -23.5 222.5 -70.5s114.333 -113.167 150 -198.5s53.5 -182.666 53.5 -291.999zM1182 1069c0 64.667 -10.502 120.166 -31.502 166.499s-51.667 81.666 -92 105.999
s-87.166 36.5 -140.499 36.5c-52.667 0 -104.167 -11.333 -154.5 -34s-93.833 -55 -130.5 -97c-53.333 -59.333 -101.5 -135.166 -144.5 -227.499s-78.833 -186.833 -107.5 -283.5s-50.5 -185.667 -65.5 -267s-22.5 -138.666 -22.5 -171.999
c0 -52.667 9.5 -101.5 28.5 -146.5s48.167 -81 87.5 -108s88 -40.5 146 -40.5h4c102 0 190.667 37 266 111c68.667 68 124.667 154 168 258c11.333 24.667 32.833 81.5 64.5 170.5s60.334 183.5 86.001 283.5s38.5 181.333 38.5 244z" />
    <glyph glyph-name="P" unicode="P" horiz-adv-x="1386" 
d="M1372 1051c0 -78.667 -31.9971 -150.999 -95.9971 -216.999c-37.333 -37.333 -81 -67.833 -131 -91.5s-107.333 -41.334 -172 -53.001s-141.334 -17.5 -230.001 -17.5h-206l-144 -512c-8 -33.333 -12 -54.666 -12 -63.999c0 -43.333 26.667 -65 80 -65h153l-8 -31h-659
l8 31h106c33.333 0 62.333 9.5 87 28.5s41.667 44.833 51 77.5l307 1100c5.33301 21.333 8 37.666 8 48.999c0 41.333 -25.333 62 -76 62h-170l8 32h672c62.667 0 120.167 -8.16699 172.5 -24.5s97.166 -38.833 134.499 -67.5s66.166 -63.5 86.499 -104.5
s30.5 -85.167 30.5 -132.5zM1169 1114c0 76 -22.335 135.332 -67.002 177.999c-22 22 -47.667 37.167 -77 45.5s-72 12.5 -128 12.5h-41c-43.333 0 -73 -1 -89 -3s-27.667 -6 -35 -12s-13 -16.667 -17 -32l-168 -601h225c121.333 0 215 33 281 99
c22.667 22.667 42.834 50.834 60.501 84.501s31.334 70.5 41.001 110.5s14.5 79.333 14.5 118z" />
    <glyph glyph-name="Q" unicode="Q" horiz-adv-x="1386" 
d="M1341 848c0 -117.333 -28 -232.334 -84 -345.001s-127.833 -210.667 -215.5 -294s-174.167 -144 -259.5 -182l4 -64c4 -66.667 10.333 -119.5 19 -158.5s20.667 -66.667 36 -83s36 -24.5 62 -24.5c46 0 94.5 32.167 145.5 96.5s96.167 149.5 135.5 255.5h35
c-98.667 -281.333 -234 -422 -406 -422c-42 0 -78.333 8 -109 24s-54.334 38.833 -71.001 68.5s-25 63.834 -25 102.501c0 40 11 92.667 33 158c-20 -3.33301 -36.333 -5 -49 -5c-9.33301 0 -16.333 -0.166992 -21 -0.5s-10 -0.833008 -16 -1.5
c-99.333 0 -181.333 30.833 -246 92.5s-111.5 135.167 -140.5 220.5s-43.5 162 -43.5 230c0 104 23 209.5 69 316.5s107.833 204.333 185.5 292s163.667 157 258 208s188.5 76.5 282.5 76.5c80 0 152.333 -24.167 217 -72.5s114.834 -115 150.501 -200
s53.5 -181.167 53.5 -288.5zM1176 1065c0 62.667 -10.499 117.667 -31.499 165s-51 83.5 -90 108.5s-85.5 37.5 -139.5 37.5c-114.667 0 -210 -43 -286 -129c-54 -62.667 -102 -138.667 -144 -228s-78.167 -184.833 -108.5 -286.5s-52.166 -190 -65.499 -265
s-20 -128.5 -20 -160.5c0 -134 47.667 -225.333 143 -274c-27.333 44 -41 80.667 -41 110c0 52.667 17.5 97.334 52.5 134.001s76.833 55 125.5 55c38.667 0 72 -9.16699 100 -27.5s50.333 -46 67 -83s28.667 -84.833 36 -143.5c31.333 24.667 53.666 44 66.999 58
s27.333 31.333 42 52c50 69.333 97.667 161.833 143 277.5s81.666 230.167 108.999 343.5s41 198.666 41 255.999zM678.001 157.999c0 42.667 -10.168 75.833 -30.501 99.5s-49.166 35.5 -86.499 35.5c-36 0 -67.5 -14.667 -94.5 -44s-40.5 -62.333 -40.5 -99
c0 -48.667 23.333 -95.334 70 -140.001c14.667 -2.66699 33.667 -4 57 -4c37.333 0 70 4 98 12c18 46.667 27 93.334 27 140.001z" />
    <glyph glyph-name="R" unicode="R" horiz-adv-x="1409" 
d="M1333 1067c0 -58 -16.333 -110.669 -49 -158.002s-79.667 -86 -141 -116c-43.333 -20 -91.333 -35.667 -144 -47s-112.667 -21 -180 -29c66.667 -33.333 123 -75.5 169 -126.5s69 -127.167 69 -228.5c0 -40.667 -6.33301 -93.667 -19 -159
c-6.66699 -40.667 -10 -68.667 -10 -84v-4c0 -42.667 16.333 -64 49 -64c38.667 0 73.667 23.833 105 71.5s53.666 109.834 66.999 186.501h33c-16.667 -94 -46.667 -170 -90 -228s-102.666 -87 -177.999 -87c-49.333 0 -90.666 17.5 -123.999 52.5s-50 78.833 -50 131.5
c0 32.667 12.333 95 37 187c20 72 30 127.667 30 167c0 56 -18.5 99.833 -55.5 131.5s-88.167 47.5 -153.5 47.5h-147l-156 -564c-5.33301 -14 -8 -29.667 -8 -47c0 -46 26.667 -69 80 -69h158l-9 -31h-694l10 31h111c47.333 0 82.666 8.5 105.999 25.5s41.333 49.5 54 97.5
l307 1071c5.33301 21.333 8 45 8 71c0 16.667 -5.83301 29.834 -17.5 39.501s-28.167 14.5 -49.5 14.5h-172l6 30h614c82.667 0 151.5 -8.5 206.5 -25.5s101.5 -44.5 139.5 -82.5c58.667 -58.667 88 -127 88 -205zM1145 1145c0 90 -24.332 147.001 -72.999 171.001
s-112.334 36 -191.001 36h-39c-50 0 -81.833 -3.83301 -95.5 -11.5s-24.167 -25.167 -31.5 -52.5l-154 -545h150c150 0 256.333 31.667 319 95c34.667 34.667 62.5 80.167 83.5 136.5s31.5 113.166 31.5 170.499z" />
    <glyph glyph-name="S" unicode="S" horiz-adv-x="1194" 
d="M1202 1401l-149 -633.001h-33c14.667 76.667 22 141.667 22 195c0 60.667 -7.33301 116.167 -22 166.5s-35.834 93.333 -63.501 129s-61.667 63.167 -102 82.5s-84.833 29 -133.5 29c-51.333 0 -98 -11.333 -140 -34s-75.333 -53.667 -100 -93s-37 -81.666 -37 -126.999
c0 -40.667 12 -78.667 36 -114s54.333 -66.833 91 -94.5s79.667 -57.167 129 -88.5c49.333 -30.667 95 -61.167 137 -91.5s78.333 -61.666 109 -93.999s55.5 -69.333 74.5 -111s28.5 -87.5 28.5 -137.5c0 -72 -19 -140.167 -57 -204.5s-88.5 -115.666 -151.5 -153.999
s-130.167 -57.5 -201.5 -57.5c-56 0 -112.667 12.833 -170 38.5s-110 61.5 -158 107.5c-19.333 19.333 -34.5 33 -45.5 41s-24.5 12 -40.5 12c-26.667 0 -55.667 -17.667 -87 -53s-61.666 -84 -90.999 -146l-29 -2l197 699h33c-12.667 -74 -19 -133.667 -19 -179
c0 -68.667 9.5 -132.334 28.5 -191.001s47.167 -110.334 84.5 -155.001s81 -78.667 131 -102s104 -35 162 -35c84 0 155.167 24.667 213.5 74s87.5 109.333 87.5 180c0 50 -10 92.667 -30 128s-48 67.666 -84 96.999s-88.667 67 -158 113
c-68.667 46 -114.334 77.167 -137.001 93.5s-44.667 35.833 -66 58.5c-42 42 -72.333 84 -91 126s-28 88 -28 138c0 69.333 17 134.333 51 195s80 108.5 138 143.5s121.333 52.5 190 52.5c94.667 0 175.334 -32 242.001 -96c36 -37.333 64.667 -56 86 -56
c24 0 45.833 11.833 65.5 35.5s39.5 61.834 59.5 114.501h28z" />
    <glyph glyph-name="T" unicode="T" horiz-adv-x="1409" 
d="M1487 1380l-146.001 -635.002h-30c12 114 18 203 18 267c0 81.333 -7.83301 146.666 -23.5 195.999s-40.667 85.333 -75 108s-79.166 34 -134.499 34c-29.333 0 -50 -2.16699 -62 -6.5s-21.333 -13.666 -28 -27.999s-15.667 -42.5 -27 -84.5l-297 -1061
c-8 -26.667 -12 -52.667 -12 -78c0 -40.667 25 -61 75 -61h168l-10 -31h-737l8 31h164c44 0 77.167 9.83301 99.5 29.5s40.5 54.834 54.5 105.501l309 1102c5.33301 16 8 31 8 45c0 23.333 -23.333 35 -70 35c-67.333 0 -132 -22.667 -194 -68
s-124.333 -115.666 -187 -210.999c-38 -58 -71 -112 -99 -162s-55 -105.333 -81 -166h-33l220 639h1122z" />
    <glyph glyph-name="U" unicode="U" horiz-adv-x="1499" 
d="M1645 1380l-7.00293 -29.9971c-33.333 0 -61.5 -4.16699 -84.5 -12.5s-44.5 -23.5 -64.5 -45.5c-20.667 -22 -42.167 -55.833 -64.5 -101.5s-39.833 -92.834 -52.5 -141.501l-141 -553c-27.333 -107.333 -68.166 -201 -122.499 -281s-118.666 -140.667 -192.999 -182
s-155.5 -62 -243.5 -62c-80 0 -152.333 15.667 -217 47s-115.667 75 -153 131s-56 118.333 -56 187c0 39.333 6.66699 85 20 137l207 741c8 29.333 12 57.333 12 84c0 34.667 -23.667 52 -71 52h-150l8 30h680l-6 -30h-137c-43.333 0 -76 -11.833 -98 -35.5
s-42.667 -69.167 -62 -136.5l-233 -836c-10 -36.667 -15 -71.334 -15 -104.001c0 -70.667 26 -127.334 78 -170.001s121 -64 207 -64c122 0 228.167 45.333 318.5 136s156.833 216.667 199.5 378l131 504c14 54.667 21 101.667 21 141c0 60 -16.167 106.167 -48.5 138.5
s-79.166 48.5 -140.499 48.5h-41l7 30h512z" />
    <glyph glyph-name="V" unicode="V" horiz-adv-x="1343" 
d="M1470 1380l-6.00098 -29.999c-52 -2.66699 -97.167 -22.334 -135.5 -59.001s-85.166 -100.334 -140.499 -191.001l-717 -1166h-41v1334c0 25.333 -6.66699 45.333 -20 60s-32 22 -56 22h-139l10 30h625l-6 -30h-90c-39.333 0 -69 -3.5 -89 -10.5s-33.5 -20.333 -40.5 -40
s-10.5 -51.5 -10.5 -95.5v-975l504 820c44 70.667 66 129.334 66 176.001c0 38 -13 68.333 -39 91s-61.667 34 -107 34h-45l8 30h469z" />
    <glyph glyph-name="W" unicode="W" horiz-adv-x="1835" 
d="M1966 1380l-8 -29.999c-43.333 -2 -81.166 -11.833 -113.499 -29.5s-62.833 -45.834 -91.5 -84.501s-62 -95 -100 -169l-578 -1133h-45v1090l-584 -1092h-45v1321c0 64.667 -22.333 97 -67 97h-125l8 30h545l-8 -30h-74c-38 0 -64.5 -8.5 -79.5 -25.5
s-22.5 -46.167 -22.5 -87.5v-963l4 -8l450 830v161c0 62 -22.333 93 -67 93h-97l9 30h514l-9 -30h-41c-50.667 0 -84.834 -6.83301 -102.501 -20.5s-26.5 -39.834 -26.5 -78.501v-977l410 805c30 56.667 45 111.334 45 164.001c0 34 -10.167 60.333 -30.5 79
s-48.5 28 -84.5 28h-49l6 30h457z" />
    <glyph glyph-name="X" unicode="X" horiz-adv-x="1493" 
d="M1534 1380l-7.99805 -31.9971h-37c-102 0 -210 -65 -324 -195l-311 -354l236 -664c10.667 -30.667 29.167 -55.667 55.5 -75s56.166 -29 89.499 -29h119l-8 -31h-635l8 31h86c66.667 0 100 21 100 63c0 21.333 -3.33301 40.666 -10 57.999l-178 491l-242 -274
c-35.333 -39.333 -60.5 -74.666 -75.5 -105.999s-22.5 -63 -22.5 -95c0 -51.333 16.333 -86.833 49 -106.5s92 -29.834 178 -30.501l-6 -31h-688l8 31c52.667 1.33301 100.667 9.16602 144 23.499s90.166 41.666 140.499 81.999s110.5 99.833 180.5 178.5l322 361l-211 581
c-22 60.667 -64.333 91 -127 91h-113l8 32h594l-8 -32h-105c-17.333 0 -31.5 -4.66699 -42.5 -14s-16.5 -22 -16.5 -38c0 -12.667 2 -24 6 -34l152 -428l235 270c17.333 19.333 31 41.5 41 66.5s15 48.5 15 70.5c0 29.333 -11.333 54.5 -34 75.5s-49.667 31.5 -81 31.5h-74
l10 32h580z" />
    <glyph glyph-name="Y" unicode="Y" horiz-adv-x="1386" 
d="M1520 1380l-9 -31.998c-38.667 -1.33301 -74 -10.333 -106 -27c-36.667 -18.667 -73.167 -45.334 -109.5 -80.001s-79.833 -85 -130.5 -151l-352 -467l-131 -469c-5.33301 -18.667 -8 -38 -8 -58c0 -43.333 25.333 -65 76 -65h139l-12 -31h-687l9 31h149
c72.667 0 119 36 139 108l146 506l-166 580c-13.333 45.333 -31 77.166 -53 95.499s-54.333 27.5 -97 27.5h-106l10 32h639l-10 -32h-96c-74 0 -111 -17.333 -111 -52c0 -19.333 2.66699 -38.333 8 -57l162 -565l303 405c50.667 68.667 76 124.667 76 168
c0 32.667 -12.5 57.667 -37.5 75s-61.833 26 -110.5 26h-40l10 32h506z" />
    <glyph glyph-name="Z" unicode="Z" horiz-adv-x="1343" 
d="M1333 1362l-1052 -1327h266c202 0 354.333 64.167 457 192.5s179 262.833 229 403.5l33 2l-183 -633h-1052v14l1059 1334h-189c-44 0 -91.333 -8.83301 -142 -26.5s-97.667 -41.167 -141 -70.5c-46.667 -31.333 -89.667 -69.166 -129 -113.499
s-74.833 -94.166 -106.5 -149.499s-60.167 -113 -85.5 -173l-31 -2l176 567h891v-18z" />
    <glyph glyph-name="bracketleft" unicode="[" 
d="M965 1346h-103c-83.333 0 -135 -38.333 -155 -115l-385 -1440c-6 -17.333 -9 -37 -9 -59c0 -26 10 -44.167 30 -54.5s54.333 -15.5 103 -15.5h66l-8 -35h-383l471 1753h373v-34z" />
    <glyph glyph-name="backslash" unicode="\" horiz-adv-x="682" 
d="M659 -504h-55l-422 1903h56z" />
    <glyph glyph-name="bracketright" unicode="]" 
d="M971 1380l-475 -1753h-375v35h90c92 0 148 37.667 168 113l395 1458c4 14 6 28.333 6 43c0 46.667 -38.667 70 -116 70h-86l10 34h383z" />
    <glyph glyph-name="asciicircum" unicode="^" horiz-adv-x="864" 
d="M942 670h-92l-350 587l-350 -587h-95l432 716h29z" />
    <glyph glyph-name="underscore" unicode="_" horiz-adv-x="1024" 
d="M1024 -256h-1024v102h1024v-102z" />
    <glyph glyph-name="grave" unicode="`" horiz-adv-x="682" 
d="M582 1032h-39.001l-181 150c-26.667 22.667 -44.667 38.5 -54 47.5s-16.5 17.667 -21.5 26s-7.5 18.5 -7.5 30.5c0 18 5.83301 32.5 17.5 43.5s26.834 16.5 45.501 16.5c22.667 0 43 -8.5 61 -25.5s39.333 -47.5 64 -91.5z" />
    <glyph glyph-name="a" unicode="a" 
d="M997 358c-48.667 -132 -98.002 -228.498 -148.002 -289.498s-103.667 -91.5 -161 -91.5c-38 0 -68 16.333 -90 49s-33 76.667 -33 132c0 21.333 4.33301 56.666 13 105.999c-34.667 -64 -69.667 -117.167 -105 -159.5s-71.166 -73.666 -107.499 -93.999
s-73.5 -30.5 -111.5 -30.5c-40 0 -76.667 14.833 -110 44.5s-59.833 70 -79.5 121s-29.5 106.833 -29.5 167.5c0 84.667 15.833 162.167 47.5 232.5s72.5 130.666 122.5 180.999s103.167 89.333 159.5 117s106.166 41.5 149.499 41.5c47.333 0 85.833 -19.833 115.5 -59.5
s47.834 -95.834 54.501 -168.501l72 205h133l-211 -719c-6.66699 -22 -10 -42.333 -10 -61c0 -42.667 15.667 -64 47 -64c38 0 77.833 28.833 119.5 86.5s83.834 142.167 126.501 253.5h36zM650.998 635.002c0 64 -12.833 115.835 -38.5 155.502s-59.167 59.5 -100.5 59.5
c-46 0 -87 -19.667 -123 -59c-41.333 -46.667 -80 -114.334 -116 -203.001s-64.833 -176 -86.5 -262s-32.5 -146.333 -32.5 -181c0 -41.333 8.66699 -73.5 26 -96.5s41.333 -34.5 72 -34.5c52.667 0 103.167 22.667 151.5 68s91 102.333 128 171s66.167 138.167 87.5 208.5
s32 128.166 32 173.499z" />
    <glyph glyph-name="b" unicode="b" horiz-adv-x="918" 
d="M809 514c0 -83.333 -25.332 -166.501 -75.999 -249.501s-115.334 -151.167 -194.001 -204.5s-156.667 -80 -234 -80s-139 30.667 -185 92s-69 143 -69 245c0 23.333 2 47.833 6 73.5s9.16699 51.834 15.5 78.501s20.5 80 42.5 160l172 616c4 15.333 6 28.333 6 39
c0 42.667 -24 64 -72 64h-117l9 32h43c120 0 201.667 6.33301 245 19c17.333 4 27.666 6 30.999 6h49l-188 -680c48 58.667 92.333 100.667 133 126s83.667 38 129 38c36 0 69.167 -9.16699 99.5 -27.5s57.333 -45 81 -80s41.834 -75.167 54.501 -120.5s19 -94.333 19 -147z
M680.001 687.999c0 40 -8.16406 77.999 -24.4971 113.999s-50.5 54 -102.5 54h-4c-84.667 -0.666992 -156.334 -46.667 -215.001 -138s-102.334 -192.166 -131.001 -302.499s-43 -188.833 -43 -235.5c0 -52 13 -93 39 -123s62 -45 108 -45c29.333 0 58.833 8.33301 88.5 25
s57.167 40 82.5 70s47.666 66 66.999 108c24 52.667 52.5 129.167 85.5 229.5s49.5 181.5 49.5 243.5z" />
    <glyph glyph-name="c" unicode="c" horiz-adv-x="811" 
d="M733 369c-18.667 -56.667 -36.333 -100.501 -53 -131.501s-41.334 -65.167 -74.001 -102.5c-44 -50 -91.167 -88.333 -141.5 -115s-100.833 -40 -151.5 -40c-53.333 0 -101.166 15.833 -143.499 47.5s-76 75.167 -101 130.5s-37.5 115.333 -37.5 180
c0 86 24.333 173.333 73 262s110.667 161.667 186 219s150 86 224 86c51.333 0 92.833 -15.5 124.5 -46.5s47.5 -72.833 47.5 -125.5c0 -35.333 -9.33301 -64.666 -28 -87.999s-42.667 -35 -72 -35c-23.333 0 -42.833 9 -58.5 27s-23.5 39.667 -23.5 65
c0 27.333 15.667 57.666 47 90.999c19.333 19.333 29 33.666 29 42.999c0 25.333 -19.333 38 -58 38c-59.333 0 -111.5 -27.333 -156.5 -82s-81.667 -120.167 -110 -196.5s-50 -153.166 -65 -230.499s-22.5 -134.666 -22.5 -171.999c0 -58 13.833 -102.667 41.5 -134
s65.834 -47 114.501 -47c42.667 0 84.834 11 126.501 33s80.5 53.333 116.5 94c31.333 34.667 55.666 67.5 72.999 98.5s36.666 74.833 57.999 131.5h35z" />
    <glyph glyph-name="d" unicode="d" 
d="M999 1403l-333 -1176c-16.667 -56.667 -25 -101 -25 -133c0 -42 13.667 -63 41 -63c36 0 75.167 30 117.5 90s85.833 146.667 130.5 260h31c-34 -97.333 -71 -178 -111 -242c-66.667 -106 -133.667 -159 -201 -159c-34.667 0 -62 15.833 -82 47.5s-30 76.5 -30 134.5
c0 11.333 2 35 6 71l-29 -43c-34 -50 -61.833 -88.167 -83.5 -114.5s-47.167 -48.5 -76.5 -66.5s-61.333 -27 -96 -27c-42.667 0 -80.834 14.333 -114.501 43s-59.834 69 -78.501 121s-28 111.333 -28 178c0 84.667 15.333 162.667 46 234s69.5 131.333 116.5 180
s95.333 85.667 145 111s93.834 38 132.501 38c50.667 0 88.834 -17.167 114.501 -51.5s42.834 -91.5 51.501 -171.5l164 585c4 13.333 6 26.333 6 39c0 41.333 -33.333 62 -100 62h-131l8 30h98c43.333 0 84.666 1.83301 123.999 5.5s84 9.5 134 17.5h53zM606 631
c0 62.667 -6.16992 110.501 -18.5029 143.501s-27.166 54.5 -44.499 64.5s-36 15 -56 15h-4c-37.333 0 -70.666 -17 -99.999 -51c-35.333 -40 -70.833 -102.833 -106.5 -188.5s-65 -172.834 -88 -261.501s-34.5 -155 -34.5 -199c0 -42.667 9.33301 -76.667 28 -102
s43.334 -38 74.001 -38c39.333 0 80 18.333 122 55s80 85.167 114 145.5s61.5 127.833 82.5 202.5s31.5 146 31.5 214z" />
    <glyph glyph-name="e" unicode="e" horiz-adv-x="811" 
d="M709 276c-13.333 -40 -26.334 -71.834 -39.001 -95.501s-30.667 -48.5 -54 -74.5c-37.333 -41.333 -78.5 -72.666 -123.5 -93.999s-93.167 -32 -144.5 -32c-58 0 -110.5 14.667 -157.5 44s-83.667 70 -110 122s-39.5 111.333 -39.5 178c0 61.333 13.833 125.333 41.5 192
s64.667 128.5 111 185.5s97 102.5 152 136.5s107.833 51 158.5 51c52 0 92.667 -15.5 122 -46.5s44 -72.833 44 -125.5c0 -60.667 -16.167 -112.5 -48.5 -155.5s-73.5 -77.667 -123.5 -104s-92.333 -44.5 -127 -54.5s-90.667 -23.667 -168 -41
c-23.333 -62 -35 -124.667 -35 -188c0 -48 17.167 -87 51.5 -117s79.833 -45 136.5 -45c46.667 0 90.5 10.667 131.5 32s77.833 51.833 110.5 91.5s59.334 86.5 80.001 140.5h31zM611.999 757.999c0 30 -8.83301 54.167 -26.5 72.5s-41.5 27.5 -71.5 27.5
c-31.333 0 -63.5 -12.5 -96.5 -37.5s-62.833 -60.167 -89.5 -105.5c-15.333 -25.333 -30.166 -55.666 -44.499 -90.999s-26.833 -69.833 -37.5 -103.5s-22.334 -73.5 -35.001 -119.5c73.333 16 130.5 33.833 171.5 53.5s81.5 48.5 121.5 86.5
c72 67.333 108 139.666 108 216.999z" />
    <glyph glyph-name="f" unicode="f" horiz-adv-x="682" 
d="M817 1214c0 -30.667 -8.66602 -57 -25.999 -79s-39.333 -33 -66 -33c-20 0 -36.333 7.16699 -49 21.5s-19 32.5 -19 54.5c0 26.667 12.333 52.334 37 77.001c19.333 19.333 29 38 29 56c0 15.333 -5.33301 27.666 -16 36.999s-25 14 -43 14
c-30.667 0 -57.834 -12.167 -81.501 -36.5s-39.5 -55.166 -47.5 -92.499l-76 -375h194l-10 -45h-194l-58 -289c-48 -238 -92.833 -428.333 -134.5 -571s-91.167 -253.834 -148.5 -333.501s-126 -119.5 -206 -119.5c-46 0 -85.5 16.167 -118.5 48.5
s-49.5 72.166 -49.5 119.499c0 32.667 10.333 61.334 31 86.001s44.334 37 71.001 37c22 0 40.5 -6.83301 55.5 -20.5s22.5 -32.167 22.5 -55.5c0 -29.333 -17 -60 -51 -92c-20.667 -18 -31 -33.667 -31 -47c0 -12.667 5.66699 -23 17 -31s25.333 -12 42 -12
c54 0 98.667 30.667 134 92c22.667 39.333 43.667 91.5 63 156.5s42.666 165.167 69.999 300.5l143 731h-180l10 45h182c55.333 235.333 117 389 185 461c48.667 50.667 101 76 157 76c50 0 89.5 -16.333 118.5 -49s43.5 -76.667 43.5 -132z" />
    <glyph glyph-name="g" unicode="g" horiz-adv-x="918" 
d="M887 872l-259.999 -915.001c-21.333 -77.333 -43.833 -138.666 -67.5 -183.999s-54.5 -87 -92.5 -125c-64 -66 -139 -99 -225 -99c-38.667 0 -73.834 8.16699 -105.501 24.5s-56.834 38.833 -75.501 67.5s-28 60.334 -28 95.001c0 40 9.83301 73.167 29.5 99.5
s43.834 39.5 72.501 39.5c23.333 0 42.833 -9.16699 58.5 -27.5s23.5 -40.5 23.5 -66.5c0 -21.333 -4.66699 -39.833 -14 -55.5s-24.333 -30.5 -45 -44.5c-22 -16.667 -33 -30.334 -33 -41.001c0 -14 10.333 -26.833 31 -38.5s43 -17.5 67 -17.5
c25.333 0 50.5 5.83301 75.5 17.5s47.167 27.167 66.5 46.5c24.667 26.667 45.167 59.667 61.5 99s32.5 90.5 48.5 153.5s36.667 150.833 62 263.5c-49.333 -65.333 -94.5 -112.333 -135.5 -141s-82.833 -43 -125.5 -43c-60.667 0 -114 34.5 -160 103.5
s-69 149.167 -69 240.5c0 92 23.167 182.667 69.5 272s105.833 162.166 178.5 218.499s145 84.5 217 84.5c50 0 90.333 -19.167 121 -57.5s49 -92.166 55 -161.499l55 192h144zM655.001 667.999c0 58.667 -13.001 106.335 -39.001 143.002s-60 55 -102 55
c-23.333 0 -46.166 -5.33301 -68.499 -16s-41.166 -25 -56.499 -43c-52 -59.333 -100.167 -155.833 -144.5 -289.5s-66.5 -248.834 -66.5 -345.501c0 -38.667 7 -74.667 21 -108s41.333 -50 82 -50h4c53.333 0.666992 103.166 25.167 149.499 73.5s86 108.666 119 180.999
s58.167 145 75.5 218s26 133.5 26 181.5z" />
    <glyph glyph-name="h" unicode="h" 
d="M958 385c-24 -63.333 -44.334 -113.5 -61.001 -150.5s-33.834 -68.833 -51.501 -95.5s-37.5 -51 -59.5 -73c-48 -49.333 -93.667 -74 -137 -74c-41.333 0 -74.166 17.167 -98.499 51.5s-36.5 80.5 -36.5 138.5c0 44 7.83301 93 23.5 147s42.5 122.667 80.5 206
c53.333 114 80 194.333 80 241c0 24.667 -6.16699 44.5 -18.5 59.5s-28.5 22.5 -48.5 22.5c-22 0 -50.5 -12.333 -85.5 -37s-75.333 -69 -121 -133s-93.167 -152.5 -142.5 -265.5s-97.666 -253.833 -144.999 -422.5h-139l367 1227c6.66699 22 10 43 10 63
c0 22 -10.667 37.167 -32 45.5s-62.666 12.5 -123.999 12.5h-82l8 32h48c37.333 0 88.166 2.66699 152.499 8s123.833 12.333 178.5 21h45l-241 -813c2 4 4.66699 8.33301 8 13s6 8.66699 8 12l12 20c60.667 94 112 159.167 154 195.5s85.667 54.5 131 54.5
s80.833 -20.333 106.5 -61s38.5 -96.667 38.5 -168c0 -50 -8 -102 -24 -156s-43.333 -120.333 -82 -199c-46.667 -95.333 -70 -164.333 -70 -207c0 -44.667 17.333 -67 52 -67c50.667 0 103 43 157 129c35.333 54 70.333 127.667 105 221z" />
    <glyph glyph-name="i" unicode="i" horiz-adv-x="682" 
d="M586 1276c0 -29.333 -9.66699 -53.665 -29 -72.998s-43.333 -29 -72 -29c-29.333 0 -53.666 9.66699 -72.999 29s-29 43.666 -29 72.999s9.66699 53.666 29 72.999s43.666 29 72.999 29c13.333 0 26.5 -2.66699 39.5 -8s23.833 -12.333 32.5 -21s15.667 -19.5 21 -32.5
s8 -26.5 8 -40.5zM586 367.001c-32.667 -117.333 -77.1699 -211.167 -133.503 -281.5s-114.166 -105.5 -173.499 -105.5c-40 0 -71.167 17 -93.5 51s-33.5 80.333 -33.5 139c0 93.333 40 225 120 395c48 104.667 72 175.667 72 213c0 45.333 -19.667 68 -59 68
c-72.667 0 -148 -103.667 -226 -311h-30c20.667 60 35.834 101 45.501 123s25.834 52.667 48.501 92c53.333 88.667 110 133 170 133c44 0 78.5 -17.333 103.5 -52s37.5 -83 37.5 -145c0 -30 -3.5 -62.333 -10.5 -97s-18.167 -73.667 -33.5 -117s-34.666 -92 -57.999 -146
c-52 -122.667 -78 -206 -78 -250c0 -16.667 4.16699 -30.5 12.5 -41.5s19.166 -16.5 32.499 -16.5c42 0 85.5 30.333 130.5 91s87.5 146.667 127.5 258h29z" />
    <glyph glyph-name="j" unicode="j" horiz-adv-x="682" 
d="M608 1268c0 -30 -9.66797 -54.666 -29.001 -73.999s-43.666 -29 -72.999 -29c-27.333 0 -50.833 9.83301 -70.5 29.5s-29.5 44.167 -29.5 73.5c0 19.333 4.5 36.666 13.5 51.999s21.167 27.5 36.5 36.5s32 13.5 50 13.5c14 0 27.5 -2.66699 40.5 -8
s23.833 -12.333 32.5 -21s15.667 -19.5 21 -32.5s8 -26.5 8 -40.5zM511.999 608.001c0 -75.333 -10.1709 -162 -30.5039 -260s-47.333 -197.667 -81 -299s-70.667 -193.333 -111 -276s-79.5 -144.334 -117.5 -185.001c-23.333 -24.667 -56.166 -46.167 -98.499 -64.5
s-81.833 -27.5 -118.5 -27.5c-56.667 0 -103.667 16 -141 48s-56 71.333 -56 118c0 21.333 4.33301 41.333 13 60s20.834 33.167 36.501 43.5s32.834 15.5 51.501 15.5c23.333 0 43.166 -8.16699 59.499 -24.5s24.5 -36.166 24.5 -59.499
c0 -17.333 -3.16699 -31.166 -9.5 -41.499s-18.833 -23.166 -37.5 -38.499c-19.333 -14.667 -29 -27.667 -29 -39c0 -31.333 26.667 -47 80 -47c32.667 0 65.334 9.5 98.001 28.5s62 62.167 88 129.5c13.333 32.667 34 93.667 62 183s58.333 192.666 91 309.999
s60.834 228.666 84.501 333.999s35.5 180.333 35.5 225c0 74 -22.667 111 -68 111c-28.667 0 -60.167 -16.833 -94.5 -50.5s-66.333 -79 -96 -136s-53.5 -120.5 -71.5 -190.5h-33c20.667 77.333 47.334 147.5 80.001 210.5s68.167 112 106.5 147s75.166 52.5 110.499 52.5
c50 0 91.167 -25.833 123.5 -77.5s48.5 -118.167 48.5 -199.5z" />
    <glyph glyph-name="k" unicode="k" 
d="M940 752c0 -36.667 -7.83105 -67.3311 -23.498 -91.998s-35.834 -37 -60.501 -37c-18.667 0 -34.667 8.16699 -48 24.5s-20 36.833 -20 61.5c0 21.333 7.66699 48.666 23 81.999c9.33301 20.667 14 34 14 40c0 15.333 -7.33301 23 -22 23c-48 0 -102 -62.667 -162 -188
c-22.667 -45.333 -43.167 -82 -61.5 -110s-37.166 -49.333 -56.499 -64s-44 -28.334 -74 -41.001c52.667 -29.333 91.167 -67.5 115.5 -114.5s36.833 -106.5 37.5 -178.5c0 -34 3.33301 -62.333 10 -85s21.667 -34 45 -34c39.333 0 80.5 27.667 123.5 83
s80.5 129.333 112.5 222h33c-23.333 -68 -49.5 -128.167 -78.5 -180.5s-64.5 -95 -106.5 -128s-91 -49.5 -147 -49.5c-50 0 -90.167 14.333 -120.5 43s-45.5 67.334 -45.5 116.001c0 28.667 7.66699 65 23 109c12 36.667 18 65.334 18 86.001
c0 31.333 -8.5 55.833 -25.5 73.5s-41.167 26.5 -72.5 26.5h-60l-123 -440h-149l348 1239c5.33301 21.333 8 37.666 8 48.999c0 40 -30.667 60 -92 60h-98l10 32h84c64 0 150 9 258 27h27l-262 -938h59c38.667 0 71.5 9.5 98.5 28.5s50.5 43.833 70.5 74.5
s41.333 68.667 64 114c21.333 42 40.666 76.667 57.999 104s39.166 51.333 65.499 72s55.5 31 87.5 31c34.667 0 62.5 -12.833 83.5 -38.5s31.5 -59.834 31.5 -102.501z" />
    <glyph glyph-name="l" unicode="l" horiz-adv-x="610" 
d="M547 1407l-357 -1247c-9.33301 -36 -14 -63.333 -14 -82c0 -40 15.667 -60 47 -60c42.667 0 86 34.5 130 103.5s77.333 154.167 100 255.5h30c-16 -78.667 -38.5 -148 -67.5 -208s-61.833 -106.5 -98.5 -139.5s-74 -49.5 -112 -49.5c-41.333 0 -73.5 17.333 -96.5 52
s-34.5 82.667 -34.5 144c0 60 9.33301 124.333 28 193l244 858c5.33301 18 8 38.333 8 61c0 22 -9.66699 37.833 -29 47.5s-58 14.5 -116 14.5h-68l11 30h110c64 0 150 9 258 27h27z" />
    <glyph glyph-name="m" unicode="m" horiz-adv-x="1622" 
d="M1548 348c-22.667 -73.333 -50.5039 -137.832 -83.5039 -193.499s-68 -97.334 -105 -125.001s-75.833 -41.5 -116.5 -41.5c-42.667 0 -76.167 16.333 -100.5 49s-36.5 77.667 -36.5 135c0 87.333 37 215.666 111 384.999c46 102 69 173.667 69 215
c0 26.667 -5.5 47 -16.5 61s-27.167 21 -48.5 21c-52.667 0 -103.834 -30.333 -153.501 -91s-95.167 -134.834 -136.5 -222.501s-77 -175.167 -107 -262.5l-62 -180l-35 -98h-133l164 547c32.667 110.667 49 184.334 49 221.001c0 56 -23.333 84 -70 84
c-45.333 0 -92 -29.5 -140 -88.5s-92.5 -130.167 -133.5 -213.5s-74.667 -159 -101 -227s-49.5 -130.667 -69.5 -188l-47 -135h-135l204 688c11.333 38 17 70 17 96c0 46.667 -15.667 70 -47 70c-39.333 0 -83.333 -33.5 -132 -100.5s-88 -146.833 -118 -239.5h-29
c30.667 110 73.334 200.333 128.001 271s110.334 106 167.001 106c37.333 0 66.5 -17 87.5 -51s31.5 -81.333 31.5 -142c0 -35.333 -4 -81.666 -12 -138.999l-13 -80c3.33301 6 19.833 39.333 49.5 100s58.834 113.167 87.501 157.5s61.5 81.166 98.5 110.499
s76.833 44 119.5 44c42 0 76.333 -19.167 103 -57.5s40 -86.833 40 -145.5c0 -28 -3.16699 -63.5 -9.5 -106.5s-10.833 -75.833 -13.5 -98.5c16.667 37.333 36.667 79 60 125s50.333 90.5 81 133.5s64.834 78.667 102.501 107s77.5 42.5 119.5 42.5
c28.667 0 54.334 -8.66699 77.001 -26s40 -42.5 52 -75.5s18 -68.833 18 -107.5c0 -104.667 -40 -244 -120 -418c-42.667 -93.333 -64 -155.333 -64 -186c0 -38.667 18.333 -58 55 -58c26.667 0 57.5 14.333 92.5 43s66.5 64.334 94.5 107.001c25.333 42.667 52 102 80 178
h30z" />
    <glyph glyph-name="n" unicode="n" horiz-adv-x="1153" 
d="M1087 352c-34 -112 -79 -200.671 -135 -266.004s-114.667 -98 -176 -98c-45.333 0 -80.5 16.5 -105.5 49.5s-37.5 79.167 -37.5 138.5c0 47.333 8 98.5 24 153.5s43.333 125.5 82 211.5c49.333 102 74 177 74 225c0 24 -5.83301 44.333 -17.5 61s-26.167 25 -43.5 25
c-40.667 0 -84.334 -24.167 -131.001 -72.5s-94.334 -119.166 -143.001 -212.499s-96.667 -206 -144 -338l-82 -229h-131l180 606c30 98.667 45 158.667 45 180c0 20.667 -5.5 37.167 -16.5 49.5s-25.167 18.5 -42.5 18.5c-30 0 -60.667 -15.667 -92 -47
s-59.5 -68.666 -84.5 -111.999s-47.5 -89.333 -67.5 -138h-33c31.333 98.667 74.333 179.334 129 242.001s108.667 94 162 94c83.333 0 125 -60 125 -180c0 -27.333 -2.16699 -56.666 -6.5 -87.999s-9.5 -62.166 -15.5 -92.499s-9.66699 -50.166 -11 -59.499l57 112
c24 48 51.333 94.833 82 140.5s65 84.667 103 117s77 48.5 117 48.5c30.667 0 57.834 -9.5 81.501 -28.5s41.834 -46.333 54.501 -82s19 -76.834 19 -123.501s-7.5 -95.834 -22.5 -147.501s-41.5 -117.167 -79.5 -196.5c-48 -101.333 -72 -175 -72 -221
c0 -20 5.5 -35.833 16.5 -47.5s25.5 -17.5 43.5 -17.5c44.667 0 91.167 29.5 139.5 88.5s89.833 137.167 124.5 234.5z" />
    <glyph glyph-name="o" unicode="o" horiz-adv-x="918" 
d="M827 510c0 -67.333 -14.666 -133.33 -43.999 -197.997s-68.333 -121.834 -117 -171.501s-102 -88.834 -160 -117.501s-113.333 -43 -166 -43h-14c-53.333 2.66699 -102.833 21 -148.5 55s-81.5 79.333 -107.5 136s-39 118.334 -39 185.001c0 64 14 128.167 42 192.5
s65.833 122.166 113.5 173.499s100.667 91.666 159 120.999s117.166 44 176.499 44c57.333 0 109.333 -16.333 156 -49s83.167 -77.5 109.5 -134.5s39.5 -121.5 39.5 -193.5zM700.001 659.003c0 41.333 -7.16504 76.501 -21.498 105.501s-35.333 51.167 -63 66.5
s-60.834 23 -99.501 23c-54.667 0 -104.834 -24.167 -150.501 -72.5s-83.5 -107.666 -113.5 -177.999s-53.167 -143 -69.5 -218s-24.5 -135.167 -24.5 -180.5c0 -62.667 16.833 -110.5 50.5 -143.5s73.5 -49.5 119.5 -49.5h10c73.333 4.66699 137.5 45.667 192.5 123
s97 166.666 126 267.999s43.5 186.666 43.5 255.999z" />
    <glyph glyph-name="p" unicode="p" horiz-adv-x="1153" 
d="M1038 512c0 -63.333 -12.502 -127.497 -37.502 -192.497s-58.667 -123 -101 -174s-89.666 -91.333 -141.999 -121s-104.833 -44.5 -157.5 -44.5c-50.667 0 -91.334 16 -122.001 48s-54 82.667 -70 152l-136 -456c-9.33301 -30.667 -14 -56.667 -14 -78
c0 -45.333 26.667 -68 80 -68h125l-8 -31h-574l10 31h80c72.667 0 121.334 41 146.001 123l258 883c20.667 71.333 31 128.666 31 171.999c0 58.667 -22 88 -66 88c-32 0 -65.833 -16 -101.5 -48s-71.167 -78.333 -106.5 -139s-65.666 -127.334 -90.999 -200.001h-31
c44 133.333 96.5 237.666 157.5 312.999s123.167 113 186.5 113c102.667 0 154 -76 154 -228c0 -16 -0.166992 -27.833 -0.5 -35.5s-0.833008 -16.167 -1.5 -25.5c88 192.667 182 289 282 289c48 0 91.167 -15.667 129.5 -47s68 -75 89 -131s31.5 -120.333 31.5 -193z
M917.998 690.003c0 42 -9.16602 79.165 -27.499 111.498s-50.166 48.5 -95.499 48.5h-2c-46 0 -90.667 -22.667 -134 -68c-35.333 -39.333 -70.333 -93.833 -105 -163.5s-62.334 -140.167 -83.001 -211.5s-31 -132.666 -31 -183.999c0 -60.667 14.333 -110.667 43 -150
s65 -59 109 -59c83.333 0 153.666 71 210.999 213c21.333 54 40.5 109.333 57.5 166s30.833 112.334 41.5 167.001s16 98 16 130z" />
    <glyph glyph-name="q" unicode="q" horiz-adv-x="918" 
d="M895 911l-338.003 -1212c-5.33301 -24 -8 -41 -8 -51c0 -46.667 28.667 -70 86 -70h102l-6 -31h-590l13 31h110c38.667 0 69.334 9.66699 92.001 29s40 50 52 92l133 471c-48 -67.333 -93.333 -116.666 -136 -147.999s-85.667 -47 -129 -47
c-61.333 0 -114.166 33.667 -158.499 101s-66.5 150 -66.5 248c0 82 17 158.167 51 228.5s77.333 130.333 130 180s107.167 87.5 163.5 113.5s105.5 39 147.5 39c48 0 86.833 -16 116.5 -48s50.834 -81 63.501 -147c32.667 38 59 73.167 79 105.5s39.333 70.833 58 115.5h35
zM663.997 685.999c0 53.333 -10.8311 94.335 -32.498 123.002s-52.5 43 -92.5 43c-71.333 0 -134.5 -45.333 -189.5 -136s-97.667 -193.334 -128 -308.001s-45.5 -194.667 -45.5 -240c0 -102.667 37 -154 111 -154c36 0 73.833 15.667 113.5 47s76.667 73.833 111 127.5
s61.166 112.5 80.499 176.5c27.333 85.333 46.166 150.666 56.499 195.999s15.5 87 15.5 125z" />
    <glyph glyph-name="r" unicode="r" horiz-adv-x="811" 
d="M768 770c0 -34 -8.49805 -63.9971 -25.498 -89.9971s-37.167 -39 -60.5 -39c-15.333 0 -28.333 7 -39 21s-16 30.333 -16 49c0 20.667 8.66699 43 26 67c14 21.333 21 37 21 47s-5 15 -15 15c-22.667 0 -50.834 -22.833 -84.501 -68.5s-68 -103.834 -103 -174.501
s-66.833 -141.5 -95.5 -212.5s-51 -131.5 -67 -181.5l-63 -203h-123l166 590c28.667 105.333 43 171.333 43 198c0 36 -12.333 54 -37 54c-34 0 -70.5 -30 -109.5 -90s-73.5 -141.333 -103.5 -244h-35c18.667 60 34.5 106.167 47.5 138.5s29.167 65.166 48.5 98.499
c53.333 90.667 107.333 136 162 136c65.333 0 98 -67 98 -201c0 -43.333 -6 -106 -18 -188l25 51c37.333 76.667 71.666 140.667 102.999 192s60.333 88.5 87 111.5s54 34.5 82 34.5c23.333 0 43.5 -11.333 60.5 -34s25.5 -48.334 25.5 -77.001z" />
    <glyph glyph-name="s" unicode="s" horiz-adv-x="811" 
d="M713 686c0 -30 -8.50195 -56.001 -25.502 -78.001s-37.833 -33 -62.5 -33c-18.667 0 -35 7.83301 -49 23.5s-21 34.5 -21 56.5c0 33.333 19.667 62 59 86c16.667 11.333 25 21 25 29c0 22.667 -17 43.334 -51 62.001s-72.333 28 -115 28
c-51.333 0 -96.5 -15.667 -135.5 -47s-58.5 -67.333 -58.5 -108c0 -34 10.167 -62.333 30.5 -85s57.833 -47.667 112.5 -75c61.333 -28 113.166 -62.5 155.499 -103.5s63.5 -94.5 63.5 -160.5c0 -56 -14.833 -106.833 -44.5 -152.5s-70.5 -81.834 -122.5 -108.501
s-108.333 -40 -169 -40c-78 0 -145.667 24 -203 72s-86 105.667 -86 173c0 42.667 10.167 79.334 30.5 110.001s45.166 46 74.499 46c22.667 0 40.334 -7.5 53.001 -22.5s19 -35.5 19 -61.5c0 -54.667 -29 -89.334 -87 -104.001
c-13.333 -2.66699 -22.666 -6.5 -27.999 -11.5s-8 -12.167 -8 -21.5c0 -34.667 24.333 -67.667 73 -99s100.667 -47 156 -47c48 0 91.5 8.16699 130.5 24.5s69.333 39 91 68s32.5 61.167 32.5 96.5c0 38 -12.667 68.667 -38 92s-65.333 50 -120 80
c-25.333 13.333 -45.666 24.833 -60.999 34.5s-28.666 19 -39.999 28s-21.333 17.5 -30 25.5c-43.333 47.333 -65 100.666 -65 159.999c0 47.333 13 91.833 39 133.5s60.333 74.834 103 99.501s88 37 136 37c68 0 124.333 -19.667 169 -59s67 -88.666 67 -147.999z" />
    <glyph glyph-name="t" unicode="t" horiz-adv-x="575" 
d="M518 858l-12.002 -46.998h-162l-182 -684c-4 -16 -6 -31.667 -6 -47c0 -35.333 13.667 -53 41 -53c24 0 51.333 15.167 82 45.5s60.834 71.666 90.501 123.999s56.167 111.166 79.5 176.499h28c-32.667 -112.667 -77 -205 -133 -277s-112 -108 -168 -108
c-37.333 0 -68.166 17.5 -92.499 52.5s-36.5 80.167 -36.5 135.5c0 52 9.66699 114 29 186l121 449h-146l12 47h144l94 352h150l-97 -352h164z" />
    <glyph glyph-name="u" unicode="u" horiz-adv-x="1153" 
d="M1083 336c-37.333 -113.333 -81.665 -200.665 -132.998 -261.998s-106 -92 -164 -92c-34.667 0 -62.334 15 -83.001 45s-31 70 -31 120c0 42.667 8 114.334 24 215.001c2 12 3.33301 20.167 4 24.5l2 13c0.666992 4.33301 1.66699 10.5 3 18.5
c-51.333 -126 -105 -231 -161 -315s-118 -126 -186 -126c-50 0 -91.5 23.5 -124.5 70.5s-49.5 104.833 -49.5 173.5c0 43.333 8 91.166 24 143.499s43.667 118.5 83 198.5c49.333 101.333 74 173.666 74 216.999c0 20 -5.33301 36 -16 48s-26 18 -46 18
c-50 0 -98.667 -29.5 -146 -88.5s-84.666 -137.5 -111.999 -235.5l-31 -2c18 66 34.167 115.667 48.5 149s35.833 67.666 64.5 102.999c24.667 30.667 53.667 57.167 87 79.5s67.666 33.5 102.999 33.5c45.333 0 81.333 -18.333 108 -55s40 -83.334 40 -140.001
c0 -46.667 -8.66699 -99 -26 -157s-45 -127 -83 -207c-26 -57.333 -44.333 -101.666 -55 -132.999s-16 -58 -16 -80c0 -30 6.66699 -53.667 20 -71s31.666 -26 54.999 -26c39.333 0 79 20 119 60c49.333 50 92.666 113.667 129.999 191s80.666 190.333 129.999 339l88 266
h140l-170 -585c-12 -42 -22.167 -82.333 -30.5 -121s-12.5 -65.334 -12.5 -80.001c0 -19.333 4.83301 -35.166 14.5 -47.499s22.5 -18.5 38.5 -18.5c40.667 0 83.334 29 128.001 87s83.334 134.333 116.001 229h32z" />
    <glyph glyph-name="v" unicode="v" horiz-adv-x="918" 
d="M844 711c0 -60.667 -12.1689 -132.832 -36.502 -216.499s-58.166 -164.834 -101.499 -243.501s-94.166 -143.5 -152.499 -194.5s-121.166 -76.5 -188.499 -76.5c-39.333 0 -74 10.333 -104 31s-52.667 50.334 -68 89.001s-23 84 -23 136c0 48 7.83301 96.833 23.5 146.5
s43.167 114.834 82.5 195.501c49.333 96.667 74 165.334 74 206.001c0 19.333 -5.5 34.833 -16.5 46.5s-25.833 17.5 -44.5 17.5c-13.333 0 -29.666 -6.16699 -48.999 -18.5s-36.666 -28.166 -51.999 -47.499c-30 -34.667 -53.333 -67.834 -70 -99.501
s-36.334 -80.167 -59.001 -145.5h-30c22 70.667 41 122.5 57 155.5s39.333 67.833 70 104.5c47.333 56 98.333 84 153 84c25.333 0 48.166 -8.33301 68.499 -25s36.166 -40 47.499 -70s17 -64 17 -102c0 -96.667 -35.333 -215.334 -106 -356.001
c-27.333 -54 -46.5 -96.667 -57.5 -128s-16.5 -58.333 -16.5 -81c0 -70 35 -105 105 -105c56 0 110 22.333 162 67s97.833 101 137.5 169s70.667 133.833 93 197.5s33.5 112.5 33.5 146.5c0 24.667 -4.83301 43 -14.5 55s-27.5 21 -53.5 27c-8 2 -13.833 3.66699 -17.5 5
s-6.83398 2.66602 -9.50098 3.99902l-7 3.5c-2 1 -5.66699 3.5 -11 7.5c-19.333 21.333 -29 48.666 -29 81.999c0 30.667 8.5 55.834 25.5 75.501s38.5 29.5 64.5 29.5c20 0 37.833 -7.66699 53.5 -23s27.834 -36.333 36.501 -63s13 -55.334 13 -86.001z" />
    <glyph glyph-name="w" unicode="w" horiz-adv-x="1386" 
d="M1309 694c0 -102.667 -24.6699 -210.333 -74.0029 -323s-111.166 -206 -185.499 -280s-146.166 -111 -215.499 -111c-113.333 0 -170 85.333 -170 256c0 31.333 2.66699 73.333 8 126c-38.667 -81.333 -66 -135.666 -82 -162.999
c-39.333 -68 -83.833 -121.5 -133.5 -160.5s-98.167 -58.5 -145.5 -58.5c-45.333 0 -83.5 22.5 -114.5 67.5s-46.5 101.5 -46.5 169.5c0 28.667 3.66699 60.667 11 96s18.333 71.666 33 108.999s36 84.333 64 141c46.667 94 70 161 70 201c0 13.333 -2.5 26 -7.5 38
s-12.167 21.333 -21.5 28s-19 10 -29 10c-24 0 -56.333 -18.333 -97 -55s-86 -113.334 -136 -230.001h-33c36 94.667 73 165.334 111 212.001s71.167 76.667 99.5 90s51.833 20 70.5 20c28 0 52.5 -8.83301 73.5 -26.5s37.167 -42.5 48.5 -74.5s17 -69.333 17 -112
c0 -86.667 -34 -201.667 -102 -345c-27.333 -55.333 -46.166 -99 -56.499 -131s-15.5 -60.667 -15.5 -86c0 -27.333 7 -49.5 21 -66.5s32.333 -25.5 55 -25.5c18 0 40.833 8 68.5 24s52.5 35.333 74.5 58c33.333 33.333 65.833 78 97.5 134s63.167 124.667 94.5 206
s68.333 188 111 320l37 114h137c-45.333 -169.333 -80 -293.333 -104 -372c-64.667 -223.333 -97 -347 -97 -371c0 -72.667 31.667 -109 95 -109c46 0 93.5 19.833 142.5 59.5s94.5 90.834 136.5 153.501s75.5 126.167 100.5 190.5s37.5 119.166 37.5 164.499
c0 21.333 -4.33301 37 -13 47s-24 17.333 -46 22c-21.333 6 -39.666 15 -54.999 27c-20.667 21.333 -31 48.666 -31 81.999c0 37.333 8.16699 66.5 24.5 87.5s38.833 31.5 67.5 31.5c19.333 0 37.166 -7.83301 53.499 -23.5s29 -38.167 38 -67.5s13.5 -60.666 13.5 -93.999z
" />
    <glyph glyph-name="x" unicode="x" 
d="M975 748c0 -34 -9.33496 -64.1719 -28.002 -90.5049s-40.667 -39.5 -66 -39.5c-20.667 0 -36.834 6.66699 -48.501 20s-17.5 31.333 -17.5 54c0 30 12.333 60.667 37 92c12 14.667 18 26.334 18 35.001c0 4 -2.5 7.83301 -7.5 11.5s-11.833 5.5 -20.5 5.5
c-10.667 0 -25.667 -5.66699 -45 -17s-36.666 -25.666 -51.999 -42.999c-35.333 -37.333 -71.5 -95 -108.5 -173s-67.333 -158.5 -91 -241.5s-35.5 -151.5 -35.5 -205.5c0 -88.667 33.333 -133 100 -133c34.667 0 77.834 17.833 129.501 53.5s103.5 109.834 155.5 222.501
h33c-22 -53.333 -41.833 -94.666 -59.5 -123.999s-41.5 -59.666 -71.5 -90.999c-67.333 -69.333 -135 -104 -203 -104c-58.667 0 -103 24.167 -133 72.5s-47.667 124.5 -53 228.5c-44 -96.667 -90.167 -171.5 -138.5 -224.5s-95.166 -79.5 -140.499 -79.5
c-32.667 0 -60.334 13.833 -83.001 41.5s-34 61.167 -34 100.5c0 34 9.16699 63.667 27.5 89s39.833 38 64.5 38c16.667 0 31.167 -7.5 43.5 -22.5s18.5 -33.5 18.5 -55.5c0 -32 -13.667 -64 -41 -96c-14 -16.667 -21 -29.667 -21 -39
c0 -4.66699 3.33301 -9.33398 10 -14.001s13.667 -7 21 -7c35.333 0 75.5 26.167 120.5 78.5s81.5 114.166 109.5 185.499c29.333 76 54 154.667 74 236s30 140.666 30 177.999c0 40.667 -9.66699 74.334 -29 101.001s-43.666 40 -72.999 40
c-50.667 0 -99.667 -24.167 -147 -72.5s-92.666 -120.166 -135.999 -215.499h-31c34.667 87.333 73.167 155.666 115.5 204.999s82.5 82.333 120.5 99s70 25 96 25c36.667 0 68.667 -10.5 96 -31.5s48.166 -51.667 62.499 -92s21.5 -87.166 21.5 -140.499
c0 -27.333 -0.666992 -49.666 -2 -66.999c102 219.333 203 329 303 329c29.333 0 54.833 -11.833 76.5 -35.5s32.5 -52.5 32.5 -86.5z" />
    <glyph glyph-name="y" unicode="y" 
d="M987 872l-208.995 -715.997c-32.667 -117.333 -70.167 -217.833 -112.5 -301.5s-88.833 -149.167 -139.5 -196.5c-26.667 -26 -56.834 -48.833 -90.501 -68.5s-67.5 -35 -101.5 -46s-66 -16.5 -96 -16.5c-40 0 -76.333 7.5 -109 22.5s-58.167 35.667 -76.5 62
s-27.5 55.5 -27.5 87.5c0 35.333 9.33301 65 28 89s42 36 70 36c25.333 0 46.333 -8.83301 63 -26.5s25 -38.834 25 -63.501c0 -46.667 -21.333 -81.667 -64 -105c-16 -8.66699 -24 -16.667 -24 -24c0 -12 11.333 -22.5 34 -31.5s46 -13.5 70 -13.5
c56 0 104.667 15.167 146 45.5s75.833 70.333 103.5 120s53.334 110.167 77.001 181.5s46.167 147.333 67.5 228l28 107l-39 -64c-36.667 -60.667 -80.334 -108.834 -131.001 -144.501s-99.667 -53.5 -147 -53.5c-50.667 0 -90.334 19.833 -119.001 59.5
s-43 94.834 -43 165.501c0 37.333 7.66699 80.166 23 128.499s41.666 113.833 78.999 196.5c57.333 124 86 208.667 86 254c0 17.333 -4.66699 31 -14 41s-21.666 15 -36.999 15c-36.667 0 -78.334 -30 -125.001 -90s-88.334 -137.333 -125.001 -232h-32
c36.667 108.667 83.334 196 140.001 262s113 99 169 99c39.333 0 70 -16.667 92 -50s33 -79.666 33 -138.999c0 -48.667 -9.33301 -103.167 -28 -163.5s-48.334 -133.5 -89.001 -219.5c-50.667 -103.333 -76 -174.333 -76 -213c0 -54.667 24 -82 72 -82
c22 0 49.167 8.16699 81.5 24.5s60.5 36.166 84.5 59.499c25.333 24.667 49.166 53.667 71.499 87s42 67.5 59 102.5s35.833 80.167 56.5 135.5s41 113.666 61 174.999l35 98.5c20 56.333 32 90.5 36 102.5l27 75h137z" />
    <glyph glyph-name="z" unicode="z" horiz-adv-x="811" 
d="M719 313c-42 -133.333 -91.3291 -222.169 -147.996 -266.502s-102.334 -66.5 -137.001 -66.5c-26 0 -50.167 6.33301 -72.5 19s-48.5 35.667 -78.5 69c-26.667 29.333 -48.834 49.5 -66.501 60.5s-37.834 16.5 -60.501 16.5c-23.333 0 -42.166 -5.83301 -56.499 -17.5
s-21.5 -26.834 -21.5 -45.501c0 0.666992 2.33301 -7.5 7 -24.5s7 -28.5 7 -34.5c0 -28.667 -13 -43 -39 -43c-11.333 0 -20.666 5.83301 -27.999 17.5s-11 26.834 -11 45.501c0 42 15.833 86 47.5 132s72.834 92.833 123.501 140.5s125.667 112.5 225 194.5
c56.667 48 98.667 85.167 126 111.5s51.333 56.166 72 89.499c-2.66699 0 -4.83398 -0.5 -6.50098 -1.5s-4.83398 -1.83301 -9.50098 -2.5c-25.333 -11.333 -50 -17 -74 -17c-14 0 -47.333 5.66699 -100 17c-64 14.667 -112.667 22 -146 22
c-50.667 0 -91.334 -10.667 -122.001 -32s-62.334 -60.333 -95.001 -117h-26c29.333 86 71.333 157.333 126 214s109.334 85 164.001 85c42.667 0 87.334 -28.667 134.001 -86c22 -26 40 -43.833 54 -53.5s28 -14.5 42 -14.5c18.667 0 34.834 5.83301 48.501 17.5
s20.5 24.834 20.5 39.501c0 6 -1.66699 17 -5 33s-5 23.667 -5 23c0 10.667 3.5 19.834 10.5 27.501s15.833 11.5 26.5 11.5c24.667 0 37 -18 37 -54c0 -44 -14.333 -87.5 -43 -130.5s-67.334 -87.167 -116.001 -132.5s-115.667 -103.666 -201 -174.999
c-74.667 -62 -125 -105.5 -151 -130.5s-50.333 -54.5 -73 -88.5c35.333 12 63.333 18 84 18c14.667 0 42 -4.66699 82 -14c71.333 -19.333 128.666 -29 171.999 -29c123.333 0 206.666 57.333 249.999 172h33z" />
    <glyph glyph-name="braceleft" unicode="{" horiz-adv-x="983" 
d="M883 1436l-2.00293 -35.0029c-47.333 -11.333 -88.166 -28.333 -122.499 -51s-60.166 -49.667 -77.499 -81s-26 -66.666 -26 -105.999c0 -23.333 9 -75.666 27 -156.999c13.333 -57.333 20 -108 20 -152c0 -78 -25.667 -147.167 -77 -207.5
s-123.666 -107.166 -216.999 -140.499c60 -22.667 112.167 -52 156.5 -88s78.333 -76.5 102 -121.5s35.5 -92.5 35.5 -142.5c0 -39.333 -7.33301 -90 -22 -152c-16.667 -75.333 -25 -128 -25 -158c0 -38.667 8.83301 -74 26.5 -106s43.5 -59 77.5 -81
s74.667 -38.667 122 -50v-35c-74 10 -139.5 33.5 -196.5 70.5s-101 84 -132 141s-46.5 120.833 -46.5 191.5c0 34 7.33301 81.333 22 142c16.667 60 25 110.333 25 151c0 54.667 -21 102 -63 142s-96.667 64.333 -164 73v41c68 10 122.833 34.833 164.5 74.5
s62.5 86.5 62.5 140.5c0 36 -9 86.667 -27 152c-13.333 58.667 -20 110.667 -20 156c0 97.333 35.667 183 107 257s161.333 118 270 132z" />
    <glyph glyph-name="bar" unicode="|" horiz-adv-x="1016" 
d="M551 -512h-88v2048h88v-2048z" />
    <glyph glyph-name="braceright" unicode="}" horiz-adv-x="983" 
d="M735 483c-43.333 -6 -82.502 -19.166 -117.502 -39.499s-62 -45.666 -81 -75.999s-28.5 -63.5 -28.5 -99.5c0 -30.667 8 -81 24 -151c14 -58 21 -110 21 -156c0 -65.333 -16.167 -125.833 -48.5 -181.5s-76.666 -101.667 -132.999 -138s-120.833 -59.5 -193.5 -69.5v35
c74.667 19.333 130.834 48.833 168.501 88.5s56.5 89.167 56.5 148.5c0 33.333 -8 86 -24 158c-14 68.667 -21 119.334 -21 152.001c0 75.333 26.167 144 78.5 206s124.5 109.333 216.5 142c-92 34 -164.167 82.333 -216.5 145s-78.5 131.667 -78.5 207
c0 31.333 7 82 21 152c16 72 24 124.333 24 157c0 60 -19.167 110.167 -57.5 150.5s-94.166 69.5 -167.499 87.5v35c72.667 -10 137.667 -33.5 195 -70.5s101.666 -84.5 132.999 -142.5s47 -121.667 47 -191c0 -40.667 -7 -87.667 -21 -141
c-16 -70.667 -24 -121.334 -24 -152.001c0 -36.667 9.5 -69.834 28.5 -99.501s45.667 -54.834 80 -75.501s73.833 -34 118.5 -40v-41z" />
    <glyph glyph-name="asciitilde" unicode="~" horiz-adv-x="1366" 
d="M1214 793c-2 -80 -25 -145.502 -69 -196.502s-100 -76.5 -168 -76.5c-28.667 0 -56.834 3.16699 -84.501 9.5s-69.834 20.833 -126.501 43.5l-166 68c-61.333 26 -107.166 43.167 -137.499 51.5s-58.833 12.5 -85.5 12.5c-98.667 0 -160 -61 -184 -183h-43
c2 48.667 8.33301 88.167 19 118.5s28.667 58.5 54 84.5c20 21.333 44.167 38.333 72.5 51s55.5 19 81.5 19v0c20 0 41.667 -2.16699 65 -6.5s61.333 -15.666 114 -33.999s121.334 -45.833 206.001 -82.5c40.667 -17.333 74 -30.666 100 -39.999s48.667 -16 68 -20
s37 -6 53 -6c55.333 0 99 16.333 131 49s51 78.667 57 138h43z" />
    <glyph glyph-name="uni00A0" unicode="&#xa0;" horiz-adv-x="512" 
 />
    <glyph glyph-name="exclamdown" unicode="&#xa1;" horiz-adv-x="688" 
d="M510 813c0 -25.333 -9.33301 -47.333 -28 -66s-40.667 -28 -66 -28c-26.667 0 -49 9 -67 27s-27 40.333 -27 67c0 25.333 9.33301 47.333 28 66s40.667 28 66 28s47.333 -9.33301 66 -28s28 -40.667 28 -66zM350 520
c-71.333 -254.667 -125.334 -498.332 -162.001 -730.999c-30 -185.333 -79.667 -278 -149 -278c-18 0 -32.833 8.33301 -44.5 25s-17.5 37.667 -17.5 63c0 30.667 8.83301 71.5 26.5 122.5s48.5 123.5 92.5 217.5c46 97.333 87.333 193.166 124 287.499
s71.334 194.833 104.001 301.5z" />
    <glyph glyph-name="cent" unicode="&#xa2;" horiz-adv-x="811" 
d="M739 367c-26 -80 -60.501 -149.166 -103.501 -207.499s-92 -103.333 -147 -135s-111.5 -47.5 -169.5 -47.5c-16 0 -31.667 1.66699 -47 5l-114 -480h-43l116 492c-40.667 18 -70 36.333 -88 55c-73.333 74 -110 171.667 -110 293c0 82 18.667 158.833 56 230.5
s87.833 135.167 151.5 190.5s133.167 98.666 208.5 129.999l92 389h43l-88 -381h16c50.667 0 89.5 -9.83301 116.5 -29.5s44.667 -42.167 53 -67.5s12.5 -49 12.5 -71c0 -36.667 -9.33301 -67.334 -28 -92.001s-42.667 -37 -72 -37c-23.333 0 -43.166 9 -59.499 27
s-24.5 40.333 -24.5 67c0 30 15.667 59.333 47 88c20.667 20.667 31 37.334 31 50.001c0 21.333 -21.333 32 -64 32c-13.333 0 -26.333 -1.33301 -39 -4l-204 -848c24 -4 40.333 -6 49 -6c74.667 0 146.5 32.5 215.5 97.5s122.167 151.5 159.5 259.5h34zM435.999 842.001
c-38 -24 -73 -62.334 -105 -115.001s-60 -113 -84 -181s-42.167 -134.167 -54.5 -198.5s-18.5 -118.166 -18.5 -161.499c0 -35.333 5 -64 15 -86s28.333 -43.667 55 -65z" />
    <glyph glyph-name="sterling" unicode="&#xa3;" 
d="M948 1178c0 -26.667 -5.99707 -53.1689 -17.9971 -79.502s-27.333 -47.666 -46 -63.999s-38.334 -24.5 -59.001 -24.5c-24 0 -45.333 10.333 -64 31s-28 44.334 -28 71.001c0 27.333 9.66699 51.666 29 72.999s40.333 32 63 32c12 0 24.333 -3.66699 37 -11
c8 -2.66699 13 -4 15 -4c16 0 24 12.333 24 37c0 26 -10.167 48.167 -30.5 66.5s-46.166 27.5 -77.499 27.5c-44 0 -83 -17 -117 -51c-31.333 -30.667 -54.333 -70.167 -69 -118.5s-26 -124.166 -34 -227.499c-6 -94.667 -17.333 -182 -34 -262h252l-19 -68h-246
c-30 -108 -51.5 -183.5 -64.5 -226.5s-30.167 -88.167 -51.5 -135.5c99.333 -44 186 -66 260 -66c55.333 0 99 14 131 42s58.667 75.333 80 142h32c-12.667 -54 -29.167 -103.333 -49.5 -148s-43 -82.834 -68 -114.501s-51.833 -56.5 -80.5 -74.5s-57.334 -27 -86.001 -27
c-64.667 0 -126.334 40.333 -185.001 121c-23.333 31.333 -43 51.666 -59 60.999c-30 -53.333 -63.667 -97 -101 -131s-71.333 -51 -102 -51c-30 0 -54.5 10.833 -73.5 32.5s-28.5 49.167 -28.5 82.5c0 46.667 18 83.834 54 111.501s84.333 41.5 145 41.5
c16 0 33 -0.666992 51 -2c0 142.667 5.33301 257.334 16 344.001h-237l16 66h227l22.5 102c8.33301 36.667 17 71.167 26 103.5s20.167 65.5 33.5 99.5c37.333 100 86.666 188.5 147.999 265.5s133 115.5 215 115.5c48 0 85.167 -16 111.5 -48s39.5 -76.667 39.5 -134z
M322.003 224.998c-24 5.33301 -42.667 8.00098 -56 8.00098c-43.333 0 -79.333 -12 -108 -36s-43 -54.333 -43 -91c0 -21.333 6.5 -38.833 19.5 -52.5s29.5 -20.5 49.5 -20.5c30.667 0 58.667 17.667 84 53s43.333 81.666 54 138.999z" />
    <glyph glyph-name="currency" unicode="&#xa4;" horiz-adv-x="1389" 
d="M1276 172l-86 -85.999l-201 197c-32 -26.667 -71 -48 -117 -64s-95 -24 -147 -24c-104.667 0 -192.667 29.333 -264 88l-197 -197l-90 86l201 201c-58.667 70 -88 158 -88 264c0 50 8.33301 98.667 25 146s37.667 86.666 63 117.999l-201 197l90 90l197 -201
c34.667 28.667 74.667 50.5 120 65.5s93.333 22.5 144 22.5c34.667 0 68 -3.66699 100 -11s62.5 -17.833 91.5 -31.5s53.167 -28.834 72.5 -45.501l201 201l86 -90l-197 -197c26.667 -31.333 48 -70.666 64 -117.999s24 -96 24 -146c0 -52.667 -7.83301 -101.5 -23.5 -146.5
s-37.167 -84.167 -64.5 -117.5zM1061 637.001c0 58 -14.999 112.833 -44.999 164.5s-71 93.167 -123 124.5s-108 47 -168 47c-45.333 0 -88 -8.83301 -128 -26.5s-75.5 -42.5 -106.5 -74.5s-55 -68.167 -72 -108.5s-25.5 -82.5 -25.5 -126.5
c0 -59.333 14.833 -115.166 44.5 -167.499s70.167 -94.166 121.5 -125.499s106.666 -47 165.999 -47c60 0 116 15.667 168 47s93 73.166 123 125.499s45 108.166 45 167.499z" />
    <glyph glyph-name="yen" unicode="&#xa5;" horiz-adv-x="1386" 
d="M1497 1350c-56 -5.33301 -109 -25.6689 -159 -61.002s-113.667 -104.666 -191 -207.999l-322 -428h455l-8 -30h-471l-66 -238h500l-8 -31h-500l-55 -192c-8.66699 -29.333 -13 -54.666 -13 -75.999c0 -36.667 27.333 -55 82 -55h133l-10 -31h-688l8 31h142
c46 0 80.5 10.5 103.5 31.5s42.167 59.5 57.5 115.5l50 176h-469l8 31h469l67 238h-477l8 30h473l-159 559c-16 56.667 -34.667 93.834 -56 111.501s-58.666 26.5 -111.999 26.5h-90l8 30h639l-10 -30h-97c-38.667 0 -66.334 -4.83301 -83.001 -14.5s-25 -25.5 -25 -47.5
c0 -18.667 2 -34.334 6 -47.001l162 -567l301 399c52 70 78 128 78 174c0 34 -12.667 59.667 -38 77s-62 26 -110 26h-41l10 30h498v-30z" />
    <glyph glyph-name="brokenbar" unicode="&#xa6;" horiz-adv-x="1016" 
d="M551 666h-88v716h88v-716zM551 -358h-88v716h88v-716z" />
    <glyph glyph-name="section" unicode="&#xa7;" horiz-adv-x="1260" 
d="M1118 1104c0 -50 -12.832 -92.4951 -38.499 -127.495s-57.834 -52.5 -96.501 -52.5c-21.333 0 -40 7.66699 -56 23s-24 34.333 -24 57c0 24 9.66699 44.667 29 62s45.333 28 78 32c22.667 2.66699 38.834 7.5 48.501 14.5s14.5 18.5 14.5 34.5
c0 21.333 -5.83301 42.166 -17.5 62.499s-27 37.5 -46 51.5s-41 25.167 -66 33.5s-52.833 12.5 -83.5 12.5c-80 0 -148.833 -25.333 -206.5 -76s-86.5 -111.334 -86.5 -182.001c0 -37.333 5.66699 -69.333 17 -96s28.666 -50.834 51.999 -72.501s59.666 -47.5 108.999 -77.5
c61.333 -36 115 -79.5 161 -130.5s69 -120.833 69 -209.5c0 -71.333 -19.167 -138.333 -57.5 -201s-99.833 -126.667 -184.5 -192c18 -40.667 27 -85 27 -133c0 -51.333 -10.333 -100.833 -31 -148.5s-48.834 -89 -84.501 -124s-77 -62.667 -124 -83
s-96.833 -30.5 -149.5 -30.5c-46.667 0 -90.167 10.667 -130.5 32s-72 50.5 -95 87.5s-34.5 77.167 -34.5 120.5c0 46 13 85.833 39 119.5s56.667 50.5 92 50.5c22 0 39 -6.33301 51 -19s18 -31.667 18 -57c0 -28.667 -10.167 -53.667 -30.5 -75
s-48.833 -36.666 -85.5 -45.999c-26 -5.33301 -39 -14 -39 -26c0 -36.667 22.833 -71.167 68.5 -103.5s93.167 -48.5 142.5 -48.5c54.667 0 105.834 12.5 153.501 37.5s85.5 59 113.5 102s42 90.167 42 141.5s-19 96.666 -57 135.999s-82.667 75.333 -134 108
c-38.667 24.667 -73 50.167 -103 76.5s-56.167 60.666 -78.5 102.999s-33.5 93.5 -33.5 153.5c0 61.333 12.5 118.166 37.5 170.499s50.333 93.5 76 123.5s60.834 67.333 105.501 112c-10.667 37.333 -16 73.333 -16 108c0 46.667 10.5 93.167 31.5 139.5
s49.833 88.5 86.5 126.5s77.5 67.833 122.5 89.5s91.167 32.5 138.5 32.5c52 0 97.833 -10.5 137.5 -31.5s71 -50 94 -87s34.5 -78.167 34.5 -123.5zM905.001 377.005c0 61.333 -17.835 111.003 -53.502 149.003s-83.167 75 -142.5 111c-57.333 36 -98.5 65.167 -123.5 87.5
s-52.167 51.833 -81.5 88.5c-59.333 -57.333 -100.5 -106.333 -123.5 -147s-34.5 -85.334 -34.5 -134.001c0 -64.667 19.167 -117.834 57.5 -159.501s84.833 -79.834 139.5 -114.501c88.667 -56.667 147.334 -108.667 176.001 -156c60.667 42 106.834 86.667 138.501 134
s47.5 94.333 47.5 141z" />
    <glyph glyph-name="dieresis" unicode="&#xa8;" horiz-adv-x="682" 
d="M745 1114c0 -22 -7.49902 -40.833 -22.499 -56.5s-32.5 -23.5 -52.5 -23.5c-22.667 0 -42.334 8 -59.001 24s-25 34.667 -25 56c0 23.333 8.16699 42.5 24.5 57.5s35.5 22.5 57.5 22.5s40.333 -7.66699 55 -23s22 -34.333 22 -57zM381.001 1114
c0 -21.333 -7.66797 -40 -23.001 -56s-33.666 -24 -54.999 -24c-22 0 -41.167 7.83301 -57.5 23.5s-24.5 34.5 -24.5 56.5s7.5 40.833 22.5 56.5s33.5 23.5 55.5 23.5c22.667 0 42 -7.66699 58 -23s24 -34.333 24 -57z" />
    <glyph glyph-name="copyright" unicode="&#xa9;" horiz-adv-x="1556" 
d="M1487 678c0 -128 -31.8311 -246.331 -95.498 -354.998s-149.834 -194.834 -258.501 -258.501s-227 -95.5 -355 -95.5c-127.333 0 -245.333 31.667 -354 95s-194.834 149.5 -258.501 258.5s-95.5 227.5 -95.5 355.5c0 127.333 31.667 245.5 95 354.5
s149.5 195.167 258.5 258.5s227.167 95 354.5 95c128 0 246.5 -31.833 355.5 -95.5s195.167 -149.834 258.5 -258.501s95 -226.667 95 -354zM1425 678.002c0 116 -28.667 223.669 -86 323.002s-135.666 178.166 -234.999 236.499s-208 87.5 -326 87.5
c-116.667 0 -224.667 -29 -324 -87s-178 -136.667 -236 -236s-87 -207.333 -87 -324c0 -88.667 16.167 -171.667 48.5 -249s79.333 -146.833 141 -208.5s131.167 -108.667 208.5 -141s160.333 -48.5 249 -48.5c117.333 0 225.666 28.833 324.999 86.5
s177.833 136.167 235.5 235.5s86.5 207.666 86.5 324.999zM1165 432.004c-92.667 -135.333 -220.331 -202.999 -382.998 -202.999c-86 0 -164.333 19.5 -235 58.5s-126.334 92.333 -167.001 160s-61 142.5 -61 224.5c0 86 22 164.667 66 236s104.167 127 180.5 167
s160.833 60 253.5 60c32.667 0 59.5 -2.33301 80.5 -7s55.833 -14.667 104.5 -30c16 -5.33301 28 -8 36 -8c21.333 0 37 15 47 45h41l21 -281h-39c-49.333 157.333 -150.333 236 -303 236c-64.667 0 -121.5 -15.833 -170.5 -47.5s-86.5 -77.167 -112.5 -136.5
s-39 -128 -39 -206c0 -130.667 28.833 -231.834 86.5 -303.501s139.5 -107.5 245.5 -107.5c54.667 0 107 10.833 157 32.5s91.333 51.167 124 88.5l15.5 21.5c8.33301 11.667 13.166 18.167 14.499 19.5z" />
    <glyph glyph-name="ordfeminine" unicode="&#xaa;" horiz-adv-x="705" 
d="M801 1055c-30 -84 -62.167 -147.333 -96.5 -190s-70.5 -64 -108.5 -64c-57.333 0 -86 41 -86 123c0 10 2 30.333 6 61c-22 -36 -43 -67.167 -63 -93.5s-42.5 -48 -67.5 -65s-53.167 -25.5 -84.5 -25.5c-38.667 0 -72.5 22 -101.5 66s-43.5 97 -43.5 159
c0 60.667 15.833 120.667 47.5 180s72.667 108 123 146s100.5 57 150.5 57c62.667 0 101 -49.667 115 -149l49 133h86l-139 -471c-5.33301 -28 -8 -45.333 -8 -52c0 -28.667 10.667 -43 32 -43c52 0 106.667 76 164 228h25zM569 1245
c0 41.333 -8.50098 74.835 -25.501 100.502s-38.5 38.5 -64.5 38.5c-14.667 0 -29 -3 -43 -9s-26.333 -14.333 -37 -25c-43.333 -47.333 -81.333 -122.833 -114 -226.5s-49 -173.834 -49 -210.501c0 -26 5.83301 -47.167 17.5 -63.5s26.834 -24.5 45.501 -24.5
c48 0 92.833 25 134.5 75s74.667 109.167 99 177.5s36.5 124.166 36.5 167.499z" />
    <glyph glyph-name="guillemotleft" unicode="&#xab;" horiz-adv-x="811" 
d="M694 807l-243 -361l96 -362h-41l-184 365l331 358h41zM469 862l-281 -418l144 -415h-41l-244 420l379 413h43z" />
    <glyph glyph-name="logicalnot" unicode="&#xac;" horiz-adv-x="1366" 
d="M1219 369h-86v487h-988v88h1074v-575z" />
    <glyph glyph-name="uni00AD" unicode="&#xad;" horiz-adv-x="682" 
d="M590 406h-436v83h436v-83z" />
    <glyph glyph-name="registered" unicode="&#xae;" horiz-adv-x="1556" 
d="M1487 678c0 -128 -31.8311 -246.331 -95.498 -354.998s-149.834 -194.834 -258.501 -258.501s-227 -95.5 -355 -95.5c-127.333 0 -245.333 31.667 -354 95s-194.834 149.5 -258.501 258.5s-95.5 227.5 -95.5 355.5c0 127.333 31.667 245.5 95 354.5
s149.5 195.167 258.5 258.5s227.167 95 354.5 95c128 0 246.5 -31.833 355.5 -95.5s195.167 -149.834 258.5 -258.501s95 -226.667 95 -354zM1425 678.002c0 116 -28.667 223.669 -86 323.002s-135.666 178.166 -234.999 236.499s-208 87.5 -326 87.5
c-116.667 0 -224.667 -29 -324 -87s-178 -136.667 -236 -236s-87 -207.333 -87 -324c0 -88.667 16.167 -171.667 48.5 -249s79.333 -146.833 141 -208.5s131.167 -108.667 208.5 -141s160.333 -48.5 249 -48.5c117.333 0 225.666 28.833 324.999 86.5
s177.833 136.167 235.5 235.5s86.5 207.666 86.5 324.999zM1176 250.004l-183.001 0.00195312l-295 403h-75v-309c0 -22 9.16699 -37.667 27.5 -47s47.833 -14 88.5 -14v-33h-364v33c22.667 0 40.5 2 53.5 6s23.833 10.667 32.5 20c8 10 12.667 19.833 14 29.5
s2 32.167 2 67.5v14v543c0 31.333 -1.5 54.166 -4.5 68.499s-11 25.5 -24 33.5s-34.167 12 -63.5 12v37h385c59.333 0 111.666 -9.33301 156.999 -28s80.333 -45 105 -79s37 -73.333 37 -118c0 -108.667 -74.333 -182.334 -223 -221.001l209 -297
c24.667 -34.667 44.834 -57.5 60.501 -68.5s35.834 -17.5 60.501 -19.5v-33zM907.001 879.006c0 36 -8.83301 68.5 -26.5 97.5s-41.5 51.667 -71.5 68s-64 24.5 -102 24.5c-28 0 -56 -4.66699 -84 -14v-359h28c81.333 0 144.333 16 189 48s67 77 67 135z" />
    <glyph glyph-name="uni00AF" unicode="&#xaf;" horiz-adv-x="1024" 
d="M1264 1534h-1024v102h1024v-102z" />
    <glyph glyph-name="degree" unicode="&#xb0;" horiz-adv-x="817" 
d="M829 1081c0 -54.667 -13.502 -105.668 -40.502 -153.001s-64 -84.833 -111 -112.5s-98.167 -41.5 -153.5 -41.5s-106.666 13.667 -153.999 41s-84.666 64.666 -111.999 111.999s-41 98.666 -41 153.999s13.833 106.833 41.5 154.5s65 85.167 112 112.5
s98.167 41 153.5 41c42.667 0 82.167 -7.66699 118.5 -23s68.833 -37.666 97.5 -66.999s50.667 -62.166 66 -98.499s23 -76.166 23 -119.499zM744.998 1081c0 40 -9.83301 77.333 -29.5 112s-46.5 62 -80.5 82s-71.667 30 -113 30c-40 0 -76.833 -10 -110.5 -30
s-60.5 -47.333 -80.5 -82s-30 -72 -30 -112c0 -61.333 21.5 -113.833 64.5 -157.5s95.167 -65.5 156.5 -65.5c40.667 0 78.167 9.83301 112.5 29.5s61.333 46.667 81 81s29.5 71.833 29.5 112.5z" />
    <glyph glyph-name="plusminus" unicode="&#xb1;" horiz-adv-x="1366" 
d="M1221 770h-496v-491h-88v491h-492v88h492v494h88v-494h496v-88zM1221 -37h-1076v88h1076v-88z" />
    <glyph glyph-name="twosuperior" unicode="&#xb2;" horiz-adv-x="682" 
d="M668 1245c0 -46.667 -19.1719 -88.6641 -57.5049 -125.997s-95.166 -80 -170.499 -128c-61.333 -39.333 -107 -70.5 -137 -93.5s-64 -53.167 -102 -90.5c63.333 20.667 113 31 149 31c17.333 0 44.5 -3.16699 81.5 -9.5s61.833 -9.5 74.5 -9.5
c26.667 0 49.334 7.16699 68.001 21.5s38.334 40.166 59.001 77.499h20c-31.333 -72.667 -65.5 -128.834 -102.5 -168.501s-74.5 -59.5 -112.5 -59.5c-26 0 -64 17.667 -114 53c-37.333 28.667 -68.333 43 -93 43c-11.333 0 -21 -3.33301 -29 -10s-12 -16 -12 -28
c0.666992 -4.66699 1.33398 -10.334 2.00098 -17.001s1 -11.334 1 -14.001c0 -18 -6.33301 -27 -19 -27c-19.333 0 -29 17 -29 51s14 66 42 96s64.667 61 110 93c51.333 38.667 86 67.334 104 86.001c42 44 74.333 88.667 97 134s34 88 34 128c0 60 -25.667 90 -77 90
c-24 0 -51.833 -6.66699 -83.5 -20s-58.5 -29.333 -80.5 -48s-33 -35 -33 -49c0 -10 8.33301 -16 25 -18c30 -5.33301 45 -24.333 45 -57c0 -24.667 -6.66699 -45.667 -20 -63s-30.666 -26 -51.999 -26c-20.667 0 -37.5 7.33301 -50.5 22s-19.5 32.667 -19.5 54
c0 39.333 14 77.333 42 114s65 66.167 111 88.5s93.333 33.5 142 33.5c54 0 98.667 -14.167 134 -42.5s53 -65.5 53 -111.5z" />
    <glyph glyph-name="threesuperior" unicode="&#xb3;" horiz-adv-x="682" 
d="M676 1270c0 -31.333 -12.666 -59.166 -37.999 -83.499s-70.666 -52.5 -135.999 -84.5l-23 -11l-24 -12c129.333 -24 194 -87.333 194 -190c0 -58 -26.833 -106.333 -80.5 -145s-120.167 -58 -199.5 -58c-72.667 0 -128.834 14 -168.501 42s-59.5 67.333 -59.5 118
c0 33.333 7.66699 60 23 80s36.333 30 63 30c18 0 32.167 -5.83301 42.5 -17.5s15.5 -26.167 15.5 -43.5c0 -22.667 -7.16699 -41.834 -21.5 -57.501s-33.833 -23.834 -58.5 -24.501c-18 -2 -27 -6 -27 -12c0 -19.333 19.5 -38.5 58.5 -57.5s77.5 -28.5 115.5 -28.5
c40.667 0 70 11.667 88 35c17.333 18.667 34 51.834 50 99.501s24 87.5 24 119.5c0 26 -7.83301 47.167 -23.5 63.5s-37.167 24.5 -64.5 24.5c-18.667 0 -38.334 -5.66699 -59.001 -17c-10.667 -6.66699 -19.667 -10 -27 -10c-10.667 0 -16 4 -16 12s12 17 36 27
c64 27.333 111.833 58.333 143.5 93s47.5 73.334 47.5 116.001c0 26 -7.83301 46.5 -23.5 61.5s-37.167 22.5 -64.5 22.5c-22.667 0 -46.5 -3.83301 -71.5 -11.5s-37.5 -14.834 -37.5 -21.501c0 -4 5 -8.66699 15 -14c18.667 -11.333 28 -27 28 -47
c0 -18 -6.16699 -32.5 -18.5 -43.5s-28.5 -16.5 -48.5 -16.5c-18.667 0 -33.667 4.83301 -45 14.5s-17 22.167 -17 37.5c0 38 22 70 66 96s99.333 39 166 39c52 0 94.333 -11.667 127 -35s49 -53.333 49 -90z" />
    <glyph glyph-name="acute" unicode="&#xb4;" horiz-adv-x="682" 
d="M735 1286c0 -16 -5.16699 -30.001 -15.5 -42.001s-33.166 -32.667 -68.499 -62l-182 -150h-39l115 197c26 44.667 48.167 75.334 66.5 92.001s38.5 25 60.5 25c17.333 0 32.166 -5.5 44.499 -16.5s18.5 -25.5 18.5 -43.5z" />
    <glyph glyph-name="uni00B5" unicode="&#xb5;" horiz-adv-x="1024" 
d="M983 215c-17.333 -54.667 -33.832 -94.666 -49.499 -119.999s-38.834 -49.333 -69.501 -72c-43.333 -32 -87.666 -48 -132.999 -48c-38.667 0 -70.167 14 -94.5 42s-36.5 64.667 -36.5 110c0 20 2 45.333 6 76c-32.667 -48.667 -68.334 -90.5 -107.001 -125.5
s-76.5 -60.833 -113.5 -77.5s-72.5 -25 -106.5 -25c-45.333 0 -78.833 9.83301 -100.5 29.5s-40.834 46.167 -57.501 79.5c-20.667 -68 -33.834 -118.833 -39.501 -152.5s-13.167 -102.167 -22.5 -205.5c-10 -110.667 -46.667 -166 -110 -166
c-21.333 0 -38.666 7.33301 -51.999 22s-20 34 -20 58c0 12.667 1.33301 23.667 4 33s11.334 29.166 26.001 59.499l46 91.5c38 72 76.333 173.667 115 305l219 752h151l-159 -559c-19.333 -66.667 -29 -105 -29 -115c0 -36.667 6.16699 -68.667 18.5 -96
s40.166 -41 83.499 -41c66 0 131.667 41 197 123c39.333 50 66.333 90.833 81 122.5s35.334 93.834 62.001 186.501l111 379h151l-168 -578l-20 -65c-8 -24.667 -12 -51.334 -12 -80.001c0 -56 18.333 -84 55 -84c30.667 0 56 12.5 76 37.5s40.333 59.5 61 103.5h37z" />
    <glyph glyph-name="paragraph" unicode="&#xb6;" horiz-adv-x="928" 
d="M936 1325h-133v-1743h-72v1743h-186v-1743h-74v1043l-29 2c-75.333 5.33301 -139.166 15 -191.499 29s-95.333 33.5 -129 58.5s-61.834 58.5 -84.501 100.5c-30 53.333 -45 115.333 -45 186c0 58 10.167 110.833 30.5 158.5s50 88 89 121s86.333 57.833 142 74.5
s118.5 25 188.5 25h494v-55z" />
    <glyph glyph-name="uni00B7" unicode="&#xb7;" horiz-adv-x="575" 
d="M424 606c0 -31.333 -11.167 -58.168 -33.5 -80.501s-49.5 -33.5 -81.5 -33.5c-29.333 0 -55.333 11.333 -78 34s-34 49.334 -34 80.001c0 30 11.333 56.333 34 79s48.667 34 78 34c32 0 59.167 -11.167 81.5 -33.5s33.5 -48.833 33.5 -79.5z" />
    <glyph glyph-name="cedilla" unicode="&#xb8;" horiz-adv-x="682" 
d="M264 -238c0 -36 -13.833 -68.832 -41.5 -98.499s-65.5 -53.334 -113.5 -71.001s-99.333 -26.5 -154 -26.5c-28.667 0 -73.667 5.33301 -135 16l16 37c26 -4 53.333 -6 82 -6c63.333 0 114.666 11.5 153.999 34.5s59 53.167 59 90.5c0 24 -8.66699 44.333 -26 61
s-45.666 25 -84.999 25h-22l143 190h64l-72 -104c87.333 -24 131 -73.333 131 -148z" />
    <glyph glyph-name="onesuperior" unicode="&#xb9;" horiz-adv-x="682" 
d="M596 1391l-160 -580c-2.66699 -10.667 -4 -19.667 -4 -27c0 -34 22 -51 66 -51h69l-6 -28h-442l8 26h76c52 0 84.667 22.667 98 68l121 420c4 12 6 25.667 6 41c0 24 -21 36 -63 36h-111l8 29h66c100.667 0 179.667 21.333 237 64z" />
    <glyph glyph-name="ordmasculine" unicode="&#xba;" horiz-adv-x="618" 
d="M715 1157c0 -55.333 -15.334 -110.831 -46.001 -166.498s-71.667 -101.167 -123 -136.5s-103.666 -53 -156.999 -53h-4c-59.333 0 -108.333 24.5 -147 73.5s-58 109.833 -58 182.5c0 57.333 16 113.166 48 167.499s74 98.666 126 132.999s104 51.5 156 51.5
c37.333 0 71.833 -10.833 103.5 -32.5s56.5 -52.167 74.5 -91.5s27 -82 27 -128zM628.999 1257c0 41.333 -10.668 73.666 -32.001 96.999s-51 35 -89 35c-52 0 -96.167 -27.667 -132.5 -83s-63.666 -118 -81.999 -188s-27.5 -124.667 -27.5 -164
c0 -30.667 6.83301 -60.5 20.5 -89.5s44.5 -43.5 92.5 -43.5h6c42 0.666992 78.667 18.834 110 54.501s56.5 78 75.5 127s33.5 98.167 43.5 147.5s15 85 15 107z" />
    <glyph glyph-name="guillemotright" unicode="&#xbb;" horiz-adv-x="811" 
d="M745 442l-378 -413h-43l280 417l-143 416h41zM471 442l-332 -358h-41l244 360l-96 363h41z" />
    <glyph glyph-name="onequarter" unicode="&#xbc;" horiz-adv-x="1622" 
d="M1528 1401l-1288 -1471h-86l1286 1471h88zM662 1391l-160.002 -580c-2.66699 -5.33301 -4 -15 -4 -29c0 -32.667 21.667 -49 65 -49h68l-6 -28h-441l9 26h73c29.333 0 51.833 5.66699 67.5 17s26.834 28.333 33.501 51l120 420c4.66699 11.333 7 25 7 41
c0 24 -21.333 36 -64 36h-111l9 29h65c98.667 0 177.334 21.333 236.001 64zM1391 170l-13.001 -41.001h-131l-20 -66c-2.66699 -16 -4 -26.667 -4 -32c0 -38.667 21.667 -58 65 -58h53l-6 -26h-403l8 28h82c16.667 0 31.834 4.83301 45.501 14.5s22.5 20.834 26.5 33.501
l28 106h-243v41l428 463h79l-129 -463h134zM1227 503.999l-303 -334h209z" />
    <glyph glyph-name="onehalf" unicode="&#xbd;" horiz-adv-x="1622" 
d="M1528 1401l-1288 -1471h-86l1286 1471h88zM678 1391l-161.999 -579.999c-2.66699 -10.667 -4 -20.334 -4 -29.001c0 -32.667 22 -49 66 -49h69l-6 -28h-442l8 26h76c53.333 0 86.666 22.667 99.999 68l121 420c4 12 6 25.667 6 41c0 24 -21.333 36 -64 36h-112l10 29h64
c99.333 0 178.333 21.333 237 64zM1452 485.001c0 -47.333 -19.5068 -89.8301 -58.5068 -127.497s-95.167 -79.834 -168.5 -126.501c-61.333 -38.667 -107.166 -69.667 -137.499 -93s-64.5 -53.666 -102.5 -90.999c34.667 11.333 62.667 19.333 84 24s43.333 7 66 7
c7.33301 0 34.333 -3.16699 81 -9.5s71.334 -9.5 74.001 -9.5c26.667 0 49.334 7.16699 68.001 21.5s38.334 40.166 59.001 77.499h21c-33.333 -75.333 -68.166 -132.166 -104.499 -170.499s-73.166 -57.5 -110.499 -57.5c-27.333 0 -65.666 18 -114.999 54
c-38.667 28.667 -69.334 43 -92.001 43c-12.667 0 -22.667 -3.66699 -30 -11s-11 -16.666 -11 -27.999c0.666992 -4.66699 1.16699 -9.33398 1.5 -14.001s0.5 -10.334 0.5 -17.001c0 -18 -6.33301 -27 -19 -27c-18.667 0 -28 17.333 -28 52c0 33.333 13.667 64.5 41 93.5
s64 60.5 110 94.5c48.667 36 83.667 64.667 105 86c42 44 74.333 88.667 97 134s34 88 34 128c0 60 -26 90 -78 90c-24 0 -51.5 -6.5 -82.5 -19.5s-57.833 -28.833 -80.5 -47.5s-34 -35 -34 -49c0 -10.667 8.33301 -17 25 -19
c16.667 -2.66699 28.334 -8.33398 35.001 -17.001s10 -22 10 -40c0 -24 -6.66699 -44.667 -20 -62s-30.666 -26 -51.999 -26c-20.667 0 -37.334 7.16699 -50.001 21.5s-19 32.166 -19 53.499c0 38.667 13.833 76.5 41.5 113.5s64.667 66.667 111 89s93.833 33.5 142.5 33.5
c54 0 98.5 -14.333 133.5 -43s52.5 -65.667 52.5 -111z" />
    <glyph glyph-name="threequarters" unicode="&#xbe;" horiz-adv-x="1622" 
d="M1567 1401l-1288 -1471h-84l1286 1471h86zM750 1268c0 -31.333 -12.5 -58.999 -37.5 -82.999s-70.833 -52.333 -137.5 -85l-23.5 -12c-6.33301 -3.33301 -14.166 -7 -23.499 -11c64.667 -12 113.334 -33.667 146.001 -65s49 -73 49 -125
c0 -58.667 -27 -107.167 -81 -145.5s-120.667 -57.5 -200 -57.5c-72 0 -127.833 14 -167.5 42s-59.5 67.333 -59.5 118c0 33.333 7.66699 60 23 80s36.333 30 63 30c17.333 0 31.166 -5.83301 41.499 -17.5s15.5 -26.167 15.5 -43.5c0 -24 -7.16699 -43.167 -21.5 -57.5
s-34.5 -22.5 -60.5 -24.5c-16 -2 -24 -6 -24 -12c0 -19.333 19.5 -38.5 58.5 -57.5s77.5 -28.5 115.5 -28.5c39.333 0 68.666 10.667 87.999 32c17.333 20.667 34 54.834 50 102.501s24 87.5 24 119.5c0 26 -7.83301 47.167 -23.5 63.5s-37.167 24.5 -64.5 24.5
c-18 0 -38 -5.66699 -60 -17c-10 -6.66699 -18.667 -10 -26 -10c-11.333 0 -17 4 -17 12c0 7.33301 12.333 16.333 37 27c60 26 107 56 141 90c33.333 33.333 50 73 50 119c0 26 -7.83301 46.5 -23.5 61.5s-37.167 22.5 -64.5 22.5c-22 0 -45.667 -3.33301 -71 -10
s-38 -14.334 -38 -23.001c0 -4 4.66699 -8.66699 14 -14c19.333 -12 29 -27.667 29 -47c0 -18 -6.16699 -32.5 -18.5 -43.5s-28.833 -16.5 -49.5 -16.5c-18 0 -32.667 4.66699 -44 14s-17 21.666 -17 36.999c0 38.667 21.667 71 65 97s98.666 39 165.999 39
c52.667 0 95.334 -11.667 128.001 -35s49 -53.333 49 -90zM1430 170.001l-13.001 -41.001h-131l-20 -66c-2.66699 -16 -4 -26.667 -4 -32c0 -38.667 21.667 -58 65 -58h53l-6 -26h-403l8 28h82c16.667 0 31.834 4.83301 45.501 14.5s22.5 20.834 26.5 33.501l28 106h-243v41
l428 463h79l-129 -463h134zM1266 504l-303 -334h208z" />
    <glyph glyph-name="questiondown" unicode="&#xbf;" horiz-adv-x="811" 
d="M559 819c0 -25.333 -9.33301 -47.666 -28 -66.999s-40.667 -29 -66 -29s-47.666 9.66699 -66.999 29s-29 41.666 -29 66.999s9.66699 47.333 29 66s41.666 28 66.999 28s47.333 -9.33301 66 -28s28 -40.667 28 -66zM475 -76
c-0.666992 -66.667 -15.332 -130.501 -43.999 -191.501s-66 -109.5 -112 -145.5s-95 -54 -147 -54c-56 0 -101.333 23 -136 69s-52 107 -52 183c0 82 22.833 151.5 68.5 208.5s107.5 116.5 185.5 178.5c67.333 52 116.5 96.167 147.5 132.5s46.5 75.5 46.5 117.5
c0 28 -8.16699 51 -24.5 69s-37.5 27 -63.5 27c-29.333 0 -53.5 -9.66699 -72.5 -29s-35.833 -51.333 -50.5 -96l-31 10c14 50 34.333 87.167 61 111.5s59 36.5 97 36.5s68.667 -13.833 92 -41.5s35 -63.167 35 -106.5c0 -68.667 -19.667 -132.167 -59 -190.5
s-94.666 -124.5 -165.999 -198.5c-70 -70 -119.667 -129.833 -149 -179.5s-44 -96.834 -44 -141.501c0 -24.667 4.66699 -46.667 14 -66s22.166 -34 38.499 -44s36.5 -15 60.5 -15c29.333 0 58.666 8.5 87.999 25.5s56.333 41.333 81 73s46.5 69.834 65.5 114.501
s33.833 92.334 44.5 143.001h26z" />
    <glyph glyph-name="Agrave" unicode="&#xc0;" horiz-adv-x="1493" 
d="M1329 31l-8.00586 -31.002h-641l8 31h127c38.667 0 66.334 8.5 83.001 25.5s25.334 45.833 26.001 86.5l10 326h-471c-73.333 -104 -120.333 -174.167 -141 -210.5s-31 -70.5 -31 -102.5c0 -38 13.167 -68.333 39.5 -91s61.5 -34 105.5 -34h88l-10 -31h-577v31
c44.667 3.33301 82.334 10.833 113.001 22.5s60.834 30.334 90.501 56.001s61.334 59.334 95.001 101.001s73.834 96.5 120.501 164.5l715 1030h74l-41 -1243v-10c0 -80.667 36 -121 108 -121h117zM955.994 1178l-450 -650h430zM1232.99 1539h-39.001l-181 150
c-26.667 22.667 -44.667 38.5 -54 47.5s-16.5 17.667 -21.5 26s-7.5 18.5 -7.5 30.5c0 18 5.83301 32.5 17.5 43.5s26.834 16.5 45.501 16.5c22.667 0 43 -8.5 61 -25.5s39.333 -47.5 64 -91.5z" />
    <glyph glyph-name="Aacute" unicode="&#xc1;" horiz-adv-x="1493" 
d="M1329 31l-8.00586 -31.002h-641l8 31h127c38.667 0 66.334 8.5 83.001 25.5s25.334 45.833 26.001 86.5l10 326h-471c-73.333 -104 -120.333 -174.167 -141 -210.5s-31 -70.5 -31 -102.5c0 -38 13.167 -68.333 39.5 -91s61.5 -34 105.5 -34h88l-10 -31h-577v31
c44.667 3.33301 82.334 10.833 113.001 22.5s60.834 30.334 90.501 56.001s61.334 59.334 95.001 101.001s73.834 96.5 120.501 164.5l715 1030h74l-41 -1243v-10c0 -80.667 36 -121 108 -121h117zM955.994 1178l-450 -650h430zM1324.99 1793
c0 -16 -5.16699 -30.001 -15.5 -42.001s-33.166 -32.667 -68.499 -62l-182 -150h-39l115 197c26 44.667 48.167 75.334 66.5 92.001s38.5 25 60.5 25c17.333 0 32.166 -5.5 44.499 -16.5s18.5 -25.5 18.5 -43.5z" />
    <glyph glyph-name="Acircumflex" unicode="&#xc2;" horiz-adv-x="1493" 
d="M1329 31l-8.00586 -31.002h-641l8 31h127c38.667 0 66.334 8.5 83.001 25.5s25.334 45.833 26.001 86.5l10 326h-471c-73.333 -104 -120.333 -174.167 -141 -210.5s-31 -70.5 -31 -102.5c0 -38 13.167 -68.333 39.5 -91s61.5 -34 105.5 -34h88l-10 -31h-577v31
c44.667 3.33301 82.334 10.833 113.001 22.5s60.834 30.334 90.501 56.001s61.334 59.334 95.001 101.001s73.834 96.5 120.501 164.5l715 1030h74l-41 -1243v-10c0 -80.667 36 -121 108 -121h117zM955.994 1178l-450 -650h430zM1373.99 1538h-39l-141 191l-326 -191h-51
l342 297h127z" />
    <glyph glyph-name="Atilde" unicode="&#xc3;" horiz-adv-x="1493" 
d="M1329 31l-8.00586 -31.002h-641l8 31h127c38.667 0 66.334 8.5 83.001 25.5s25.334 45.833 26.001 86.5l10 326h-471c-73.333 -104 -120.333 -174.167 -141 -210.5s-31 -70.5 -31 -102.5c0 -38 13.167 -68.333 39.5 -91s61.5 -34 105.5 -34h88l-10 -31h-577v31
c44.667 3.33301 82.334 10.833 113.001 22.5s60.834 30.334 90.501 56.001s61.334 59.334 95.001 101.001s73.834 96.5 120.501 164.5l715 1030h74l-41 -1243v-10c0 -80.667 36 -121 108 -121h117zM955.994 1178l-450 -650h430zM1447.99 1761
c-4 -73.333 -18.335 -125.666 -43.002 -156.999c-14 -18.667 -32.333 -34 -55 -46s-46 -18 -70 -18c-36.667 0 -78.334 13 -125.001 39l-59 33c-61.333 34 -103.666 51 -126.999 51c-59.333 0 -92 -41 -98 -123h-35c0 67.333 16.333 121 49 161s76.334 60 131.001 60
c42 0 106.333 -25.667 193 -77c34 -20 57.333 -32.667 70 -38s25.334 -8 38.001 -8c29.333 0 51.333 9.16699 66 27.5s26 50.166 34 95.499h31z" />
    <glyph glyph-name="Adieresis" unicode="&#xc4;" horiz-adv-x="1493" 
d="M1329 31l-8.00586 -31.002h-641l8 31h127c38.667 0 66.334 8.5 83.001 25.5s25.334 45.833 26.001 86.5l10 326h-471c-73.333 -104 -120.333 -174.167 -141 -210.5s-31 -70.5 -31 -102.5c0 -38 13.167 -68.333 39.5 -91s61.5 -34 105.5 -34h88l-10 -31h-577v31
c44.667 3.33301 82.334 10.833 113.001 22.5s60.834 30.334 90.501 56.001s61.334 59.334 95.001 101.001s73.834 96.5 120.501 164.5l715 1030h74l-41 -1243v-10c0 -80.667 36 -121 108 -121h117zM955.994 1178l-450 -650h430zM1406.99 1622
c0 -22 -7.49902 -40.833 -22.499 -56.5s-32.5 -23.5 -52.5 -23.5c-22.667 0 -42.334 8 -59.001 24s-25 34.667 -25 56c0 23.333 8.16699 42.5 24.5 57.5s35.5 22.5 57.5 22.5s40.333 -7.66699 55 -23s22 -34.333 22 -57zM1043 1622c0 -21.333 -7.66797 -40 -23.001 -56
s-33.666 -24 -54.999 -24c-22 0 -41.167 7.83301 -57.5 23.5s-24.5 34.5 -24.5 56.5s7.5 40.833 22.5 56.5s33.5 23.5 55.5 23.5c22.667 0 42 -7.66699 58 -23s24 -34.333 24 -57z" />
    <glyph glyph-name="Aring" unicode="&#xc5;" horiz-adv-x="1493" 
d="M1329 31l-8.00586 -31.002h-641l8 31h127c38.667 0 66.334 8.5 83.001 25.5s25.334 45.833 26.001 86.5l10 326h-471c-73.333 -104 -120.333 -174.167 -141 -210.5s-31 -70.5 -31 -102.5c0 -38 13.167 -68.333 39.5 -91s61.5 -34 105.5 -34h88l-10 -31h-577v31
c44.667 3.33301 82.334 10.833 113.001 22.5s60.834 30.334 90.501 56.001s61.334 59.334 95.001 101.001s73.834 96.5 120.501 164.5l715 1030h74l-41 -1243v-10c0 -80.667 36 -121 108 -121h117zM955.994 1178l-450 -650h430zM1350.99 1722
c0 -50 -17.832 -92.834 -53.499 -128.501s-78.5 -53.5 -128.5 -53.5c-52.667 0 -97.834 18.5 -135.501 55.5s-56.5 80.833 -56.5 131.5c0 52.667 18.167 97.5 54.5 134.5s80.833 55.5 133.5 55.5c34 0 65.333 -9 94 -27s51.167 -41.667 67.5 -71s24.5 -61.666 24.5 -96.999z
M1296 1725c0 36.667 -12.5 68.333 -37.5 95s-56.167 40 -93.5 40c-36 0 -66.833 -13.167 -92.5 -39.5s-38.5 -56.833 -38.5 -91.5c0 -36 13.167 -66.833 39.5 -92.5s57.5 -38.5 93.5 -38.5c24 0 45.667 5.5 65 16.5s34.833 26.333 46.5 46s17.5 41.167 17.5 64.5z" />
    <glyph glyph-name="AE" unicode="&#xc6;" horiz-adv-x="1942" 
d="M1855 1380l-106.001 -548.996h-31c10 72.667 15 128 15 166c0 130 -29.333 226.333 -88 289c-24.667 25.333 -54.167 42.666 -88.5 51.999s-86.833 14 -157.5 14h-4c-43.333 0 -73.333 -1 -90 -3s-29 -7 -37 -15s-15 -22.667 -21 -44l-151 -542h47
c58 0 109 13.667 153 41s80.167 60.666 108.5 99.999s50.5 79.166 66.5 119.499s28 74.833 36 103.5h31l-238 -844l-26 -2l6 33l17 94.5c3.33301 17.667 5.83301 34.5 7.5 50.5s2.5 33.333 2.5 52c0 146 -62.333 219 -187 219h-35l-170 -602c-4 -14.667 -6 -29 -6 -43
c0 -23.333 16.333 -35 49 -35h136c65.333 0 138.833 15.833 220.5 47.5s162.5 88.834 242.5 171.501s144 196 192 340h31l-166 -594h-1108l10 31h80c40.667 0 72.167 11.667 94.5 35s41.5 64.666 57.5 123.999l92 332h-410l-22 -28
c-63.333 -81.333 -106.5 -138.833 -129.5 -172.5s-39.667 -63.5 -50 -89.5s-15.5 -52 -15.5 -78c0 -38.667 12.5 -68.834 37.5 -90.501s58.833 -32.5 101.5 -32.5h47l-8 -31h-545v31c52.667 2 102.834 18 150.501 48s96.5 71.333 146.5 124c10 10 20.667 22 32 36l28.5 36
l49.5 66l77 103l561 750c23.333 32.667 35 62 35 88c0 22 -7.33301 38.833 -22 50.5s-36 17.5 -64 17.5h-140l7 30h1148zM1069 1335c0 10 -4 15 -12 15s-15.667 -5 -23 -15l-573 -774h391l213 756c2.66699 5.33301 4 11.333 4 18z" />
    <glyph glyph-name="Ccedilla" unicode="&#xc7;" horiz-adv-x="1368" 
d="M1368 1399l-127.003 -659.999l-31 -2c0.666992 20.667 1.16699 39.5 1.5 56.5s0.5 37.833 0.5 62.5c0 69.333 -3 128.833 -9 178.5s-17.667 95 -35 136s-41.333 76.833 -72 107.5c-59.333 60 -129 90 -209 90c-46.667 0 -93.167 -10 -139.5 -30s-84.5 -47 -114.5 -81
c-51.333 -56 -103.5 -141.5 -156.5 -256.5s-96.167 -234.167 -129.5 -357.5s-50 -228.333 -50 -315c0 -65.333 13.167 -122.833 39.5 -172.5s64 -87.667 113 -114s106.167 -39.5 171.5 -39.5c58.667 0 116 13.833 172 41.5s107.667 67.834 155 120.501
c44.667 50 79.334 96 104.001 138s53.667 106.667 87 194h30c-26.667 -82.667 -52 -146.334 -76 -191.001s-58.667 -93 -104 -145c-110 -127.333 -232 -191 -366 -191c-12.667 0 -21.667 1.33301 -27 4l-43 -63c87.333 -24 131 -73.333 131 -148
c0 -36 -13.833 -68.833 -41.5 -98.5s-65.5 -53.334 -113.5 -71.001s-99.333 -26.5 -154 -26.5c-28.667 0 -73.667 5.33301 -135 16l16 37c26 -4 53.333 -6 82 -6c63.333 0 114.666 11.5 153.999 34.5s59 53.167 59 90.5c0 23.333 -8.5 43.5 -25.5 60.5
s-45.5 25.5 -85.5 25.5h-22l121 158c-119.333 21.333 -218.166 82.5 -296.499 183.5s-117.5 219.167 -117.5 354.5c0 97.333 23.167 197.833 69.5 301.5s107.5 199.834 183.5 288.501s158.5 159.334 247.5 212.001s175.5 79 259.5 79c37.333 0 74 -6.33301 110 -19
s68.5 -30.834 97.5 -54.501s53.833 -52.5 74.5 -86.5c8.66699 -12.667 14.834 -20.334 18.501 -23.001s7.83398 -4 12.501 -4c18.667 0 41 17.5 67 52.5s49.333 79.167 70 132.5h33z" />
    <glyph glyph-name="Egrave" unicode="&#xc8;" horiz-adv-x="1409" 
d="M1389 1380l-126.998 -545.999h-33c13.333 85.333 20 151.333 20 198c0 97.333 -18.333 169.333 -55 216s-80.834 75.334 -132.501 86.001s-118.167 16 -199.5 16h-39c-32.667 0 -55 -1.33301 -67 -4s-21 -9.16699 -27 -19.5s-12.667 -28.5 -20 -54.5l-154 -545h55
c63.333 0 126.333 19.667 189 59c48 33.333 86.333 76.833 115 130.5s51.667 115.5 69 185.5h37l-238 -844h-34c18.667 80 31.167 135.833 37.5 167.5s9.5 58.5 9.5 80.5c0 62.667 -15.833 110 -47.5 142s-86.834 48 -165.501 48h-33l-174 -608
c-1.33301 -2.66699 -2 -7.33398 -2 -14.001c0 -26 17 -39 51 -39h199c33.333 0 78 9 134 27s115.333 50 178 96s119 108.667 169 188c37.333 61.333 71.333 133 102 215h31l-158 -561h-1110l6 31h99c29.333 0 55.666 9.83301 78.999 29.5s39.333 44.5 48 74.5l311 1108
c4 14 6 27 6 39c0 21.333 -6.16699 37.666 -18.5 48.999s-30.166 17 -53.499 17h-149l12 30v2h1080zM1028 1539h-39.001l-181 150c-26.667 22.667 -44.667 38.5 -54 47.5s-16.5 17.667 -21.5 26s-7.5 18.5 -7.5 30.5c0 18 5.83301 32.5 17.5 43.5s26.834 16.5 45.501 16.5
c22.667 0 43 -8.5 61 -25.5s39.333 -47.5 64 -91.5z" />
    <glyph glyph-name="Eacute" unicode="&#xc9;" horiz-adv-x="1409" 
d="M1389 1380l-126.998 -545.999h-33c13.333 85.333 20 151.333 20 198c0 97.333 -18.333 169.333 -55 216s-80.834 75.334 -132.501 86.001s-118.167 16 -199.5 16h-39c-32.667 0 -55 -1.33301 -67 -4s-21 -9.16699 -27 -19.5s-12.667 -28.5 -20 -54.5l-154 -545h55
c63.333 0 126.333 19.667 189 59c48 33.333 86.333 76.833 115 130.5s51.667 115.5 69 185.5h37l-238 -844h-34c18.667 80 31.167 135.833 37.5 167.5s9.5 58.5 9.5 80.5c0 62.667 -15.833 110 -47.5 142s-86.834 48 -165.501 48h-33l-174 -608
c-1.33301 -2.66699 -2 -7.33398 -2 -14.001c0 -26 17 -39 51 -39h199c33.333 0 78 9 134 27s115.333 50 178 96s119 108.667 169 188c37.333 61.333 71.333 133 102 215h31l-158 -561h-1110l6 31h99c29.333 0 55.666 9.83301 78.999 29.5s39.333 44.5 48 74.5l311 1108
c4 14 6 27 6 39c0 21.333 -6.16699 37.666 -18.5 48.999s-30.166 17 -53.499 17h-149l12 30v2h1080zM1079 1793c0 -16 -5.16699 -30.001 -15.5 -42.001s-33.166 -32.667 -68.499 -62l-182 -150h-39l115 197c26 44.667 48.167 75.334 66.5 92.001s38.5 25 60.5 25
c17.333 0 32.166 -5.5 44.499 -16.5s18.5 -25.5 18.5 -43.5z" />
    <glyph glyph-name="Ecircumflex" unicode="&#xca;" horiz-adv-x="1409" 
d="M1389 1380l-126.998 -545.999h-33c13.333 85.333 20 151.333 20 198c0 97.333 -18.333 169.333 -55 216s-80.834 75.334 -132.501 86.001s-118.167 16 -199.5 16h-39c-32.667 0 -55 -1.33301 -67 -4s-21 -9.16699 -27 -19.5s-12.667 -28.5 -20 -54.5l-154 -545h55
c63.333 0 126.333 19.667 189 59c48 33.333 86.333 76.833 115 130.5s51.667 115.5 69 185.5h37l-238 -844h-34c18.667 80 31.167 135.833 37.5 167.5s9.5 58.5 9.5 80.5c0 62.667 -15.833 110 -47.5 142s-86.834 48 -165.501 48h-33l-174 -608
c-1.33301 -2.66699 -2 -7.33398 -2 -14.001c0 -26 17 -39 51 -39h199c33.333 0 78 9 134 27s115.333 50 178 96s119 108.667 169 188c37.333 61.333 71.333 133 102 215h31l-158 -561h-1110l6 31h99c29.333 0 55.666 9.83301 78.999 29.5s39.333 44.5 48 74.5l311 1108
c4 14 6 27 6 39c0 21.333 -6.16699 37.666 -18.5 48.999s-30.166 17 -53.499 17h-149l12 30v2h1080zM1221 1538h-39l-141 191l-326 -191h-51l342 297h127z" />
    <glyph glyph-name="Edieresis" unicode="&#xcb;" horiz-adv-x="1409" 
d="M1389 1380l-126.998 -545.999h-33c13.333 85.333 20 151.333 20 198c0 97.333 -18.333 169.333 -55 216s-80.834 75.334 -132.501 86.001s-118.167 16 -199.5 16h-39c-32.667 0 -55 -1.33301 -67 -4s-21 -9.16699 -27 -19.5s-12.667 -28.5 -20 -54.5l-154 -545h55
c63.333 0 126.333 19.667 189 59c48 33.333 86.333 76.833 115 130.5s51.667 115.5 69 185.5h37l-238 -844h-34c18.667 80 31.167 135.833 37.5 167.5s9.5 58.5 9.5 80.5c0 62.667 -15.833 110 -47.5 142s-86.834 48 -165.501 48h-33l-174 -608
c-1.33301 -2.66699 -2 -7.33398 -2 -14.001c0 -26 17 -39 51 -39h199c33.333 0 78 9 134 27s115.333 50 178 96s119 108.667 169 188c37.333 61.333 71.333 133 102 215h31l-158 -561h-1110l6 31h99c29.333 0 55.666 9.83301 78.999 29.5s39.333 44.5 48 74.5l311 1108
c4 14 6 27 6 39c0 21.333 -6.16699 37.666 -18.5 48.999s-30.166 17 -53.499 17h-149l12 30v2h1080zM1233 1622c0 -22 -7.49902 -40.833 -22.499 -56.5s-32.5 -23.5 -52.5 -23.5c-22.667 0 -42.334 8 -59.001 24s-25 34.667 -25 56c0 23.333 8.16699 42.5 24.5 57.5
s35.5 22.5 57.5 22.5s40.333 -7.66699 55 -23s22 -34.333 22 -57zM869.003 1622c0 -21.333 -7.66797 -40 -23.001 -56s-33.666 -24 -54.999 -24c-22 0 -41.167 7.83301 -57.5 23.5s-24.5 34.5 -24.5 56.5s7.5 40.833 22.5 56.5s33.5 23.5 55.5 23.5
c22.667 0 42 -7.66699 58 -23s24 -34.333 24 -57z" />
    <glyph glyph-name="Igrave" unicode="&#xcc;" horiz-adv-x="831" 
d="M901 1380l-3.99805 -31.998h-35c-50.667 0 -88.334 -6.83301 -113.001 -20.5s-42.334 -37.834 -53.001 -72.501l-317 -1118c-4 -12 -6 -25 -6 -39c0 -44.667 31.333 -67 94 -67h141l-8 -31h-672l6 31h140c24.667 0 47.667 9.66699 69 29s36.333 43.666 45 72.999
l312 1102c4 12 6 31 6 57c0 37.333 -31.333 56 -94 56h-115l8 32h596zM719.002 1539h-39.001l-181 150c-26.667 22.667 -44.667 38.5 -54 47.5s-16.5 17.667 -21.5 26s-7.5 18.5 -7.5 30.5c0 18 5.83301 32.5 17.5 43.5s26.834 16.5 45.501 16.5c22.667 0 43 -8.5 61 -25.5
s39.333 -47.5 64 -91.5z" />
    <glyph glyph-name="Iacute" unicode="&#xcd;" horiz-adv-x="831" 
d="M901 1380l-3.99805 -31.998h-35c-50.667 0 -88.334 -6.83301 -113.001 -20.5s-42.334 -37.834 -53.001 -72.501l-317 -1118c-4 -12 -6 -25 -6 -39c0 -44.667 31.333 -67 94 -67h141l-8 -31h-672l6 31h140c24.667 0 47.667 9.66699 69 29s36.333 43.666 45 72.999
l312 1102c4 12 6 31 6 57c0 37.333 -31.333 56 -94 56h-115l8 32h596zM913.002 1793c0 -16 -5.16699 -30.001 -15.5 -42.001s-33.166 -32.667 -68.499 -62l-182 -150h-39l115 197c26 44.667 48.167 75.334 66.5 92.001s38.5 25 60.5 25c17.333 0 32.166 -5.5 44.499 -16.5
s18.5 -25.5 18.5 -43.5z" />
    <glyph glyph-name="Icircumflex" unicode="&#xce;" horiz-adv-x="831" 
d="M901 1380l-3.99805 -31.998h-35c-50.667 0 -88.334 -6.83301 -113.001 -20.5s-42.334 -37.834 -53.001 -72.501l-317 -1118c-4 -12 -6 -25 -6 -39c0 -44.667 31.333 -67 94 -67h141l-8 -31h-672l6 31h140c24.667 0 47.667 9.66699 69 29s36.333 43.666 45 72.999
l312 1102c4 12 6 31 6 57c0 37.333 -31.333 56 -94 56h-115l8 32h596zM922.002 1538h-39l-141 191l-326 -191h-51l342 297h127z" />
    <glyph glyph-name="Idieresis" unicode="&#xcf;" horiz-adv-x="831" 
d="M901 1380l-3.99805 -31.998h-35c-50.667 0 -88.334 -6.83301 -113.001 -20.5s-42.334 -37.834 -53.001 -72.501l-317 -1118c-4 -12 -6 -25 -6 -39c0 -44.667 31.333 -67 94 -67h141l-8 -31h-672l6 31h140c24.667 0 47.667 9.66699 69 29s36.333 43.666 45 72.999
l312 1102c4 12 6 31 6 57c0 37.333 -31.333 56 -94 56h-115l8 32h596zM944.002 1622c0 -22 -7.49902 -40.833 -22.499 -56.5s-32.5 -23.5 -52.5 -23.5c-22.667 0 -42.334 8 -59.001 24s-25 34.667 -25 56c0 23.333 8.16699 42.5 24.5 57.5s35.5 22.5 57.5 22.5
s40.333 -7.66699 55 -23s22 -34.333 22 -57zM580.003 1622c0 -21.333 -7.66797 -40 -23.001 -56s-33.666 -24 -54.999 -24c-22 0 -41.167 7.83301 -57.5 23.5s-24.5 34.5 -24.5 56.5s7.5 40.833 22.5 56.5s33.5 23.5 55.5 23.5c22.667 0 42 -7.66699 58 -23
s24 -34.333 24 -57z" />
    <glyph glyph-name="Eth" unicode="&#xd0;" horiz-adv-x="1493" 
d="M1427 805c0 -64.667 -8.66797 -129.168 -26.001 -193.501s-42.333 -124.666 -75 -180.999s-74 -110.5 -124 -162.5c-90.667 -94 -189.667 -162.167 -297 -204.5s-233.666 -63.5 -378.999 -63.5h-612l8 31h119c44.667 0 78.167 9.66699 100.5 29s40.833 56 55.5 110
l141 504h-248l21 59h243l125 453c12.667 42 19 74.667 19 98c0 42.667 -22.667 64 -68 64h-166l6 32h629c95.333 0 183.5 -25.833 264.5 -77.5s145.167 -121.5 192.5 -209.5s71 -184 71 -288zM1247 986.999c0 121.333 -31 212.502 -93 273.502s-156 91.5 -282 91.5h-47
c-44 0 -73.833 -2.83301 -89.5 -8.5s-27.5 -20.834 -35.5 -45.501l-157 -565h315l-16 -59h-316l-149 -541c-8 -28.667 -12 -50.334 -12 -65.001c0 -12 9 -20.833 27 -26.5s46.333 -8.5 85 -8.5c94 0 177.333 5.33301 250 16c91.333 13.333 170.666 56.333 237.999 129
s121.333 159.167 162 259.5s70.834 200.5 90.501 300.5s29.5 183 29.5 249z" />
    <glyph glyph-name="Ntilde" unicode="&#xd1;" horiz-adv-x="1366" 
d="M1542 1380l-1.99805 -29.999c-38 -3.33301 -68.667 -11 -92 -23c-78.667 -40 -136 -125.333 -172 -256l-295 -1085h-29l-444 1231l-221 -805c-18 -65.333 -27 -120 -27 -164c0 -67.333 21 -120.333 63 -159s99 -58 171 -58h63l-10 -31h-664l6 31h29
c27.333 0 60.666 7.33301 99.999 22s67.333 30.334 84 47.001c28 26.667 54.667 63.5 80 110.5s44.666 96.167 57.999 147.5l229 834c2.66699 13.333 4 25 4 35c0 39.333 -12.5 69.666 -37.5 90.999s-60.833 32 -107.5 32h-135l12 30h428l393 -1093l197 706
c13.333 51.333 20 99.333 20 144c0 67.333 -18.333 119.666 -55 156.999s-88 56 -154 56h-37l7 30h538zM1241 1761c-4 -73.333 -18.335 -125.666 -43.002 -156.999c-14 -18.667 -32.333 -34 -55 -46s-46 -18 -70 -18c-36.667 0 -78.334 13 -125.001 39l-59 33
c-61.333 34 -103.666 51 -126.999 51c-59.333 0 -92 -41 -98 -123h-35c0 67.333 16.333 121 49 161s76.334 60 131.001 60c42 0 106.333 -25.667 193 -77c34 -20 57.333 -32.667 70 -38s25.334 -8 38.001 -8c29.333 0 51.333 9.16699 66 27.5s26 50.166 34 95.499h31z" />
    <glyph glyph-name="Ograve" unicode="&#xd2;" horiz-adv-x="1386" 
d="M1346 850c0 -103.333 -22.667 -207.167 -68 -311.5s-106.833 -200 -184.5 -287s-163.334 -155.833 -257.001 -206.5s-186.167 -76 -277.5 -76c-80.667 0 -153.667 24 -219 72s-116.833 114.167 -154.5 198.5s-56.5 176.5 -56.5 276.5c0 104 23.167 209.333 69.5 316
s108.333 204.167 186 292.5s163.334 158.166 257.001 209.499s186.5 77 278.5 77c84 0 158.167 -23.5 222.5 -70.5s114.333 -113.167 150 -198.5s53.5 -182.666 53.5 -291.999zM1182 1069c0 64.667 -10.502 120.166 -31.502 166.499s-51.667 81.666 -92 105.999
s-87.166 36.5 -140.499 36.5c-52.667 0 -104.167 -11.333 -154.5 -34s-93.833 -55 -130.5 -97c-53.333 -59.333 -101.5 -135.166 -144.5 -227.499s-78.833 -186.833 -107.5 -283.5s-50.5 -185.667 -65.5 -267s-22.5 -138.666 -22.5 -171.999
c0 -52.667 9.5 -101.5 28.5 -146.5s48.167 -81 87.5 -108s88 -40.5 146 -40.5h4c102 0 190.667 37 266 111c68.667 68 124.667 154 168 258c11.333 24.667 32.833 81.5 64.5 170.5s60.334 183.5 86.001 283.5s38.5 181.333 38.5 244zM1036 1539h-39.001l-181 150
c-26.667 22.667 -44.667 38.5 -54 47.5s-16.5 17.667 -21.5 26s-7.5 18.5 -7.5 30.5c0 18 5.83301 32.5 17.5 43.5s26.834 16.5 45.501 16.5c22.667 0 43 -8.5 61 -25.5s39.333 -47.5 64 -91.5z" />
    <glyph glyph-name="Oacute" unicode="&#xd3;" horiz-adv-x="1386" 
d="M1346 850c0 -103.333 -22.667 -207.167 -68 -311.5s-106.833 -200 -184.5 -287s-163.334 -155.833 -257.001 -206.5s-186.167 -76 -277.5 -76c-80.667 0 -153.667 24 -219 72s-116.833 114.167 -154.5 198.5s-56.5 176.5 -56.5 276.5c0 104 23.167 209.333 69.5 316
s108.333 204.167 186 292.5s163.334 158.166 257.001 209.499s186.5 77 278.5 77c84 0 158.167 -23.5 222.5 -70.5s114.333 -113.167 150 -198.5s53.5 -182.666 53.5 -291.999zM1182 1069c0 64.667 -10.502 120.166 -31.502 166.499s-51.667 81.666 -92 105.999
s-87.166 36.5 -140.499 36.5c-52.667 0 -104.167 -11.333 -154.5 -34s-93.833 -55 -130.5 -97c-53.333 -59.333 -101.5 -135.166 -144.5 -227.499s-78.833 -186.833 -107.5 -283.5s-50.5 -185.667 -65.5 -267s-22.5 -138.666 -22.5 -171.999
c0 -52.667 9.5 -101.5 28.5 -146.5s48.167 -81 87.5 -108s88 -40.5 146 -40.5h4c102 0 190.667 37 266 111c68.667 68 124.667 154 168 258c11.333 24.667 32.833 81.5 64.5 170.5s60.334 183.5 86.001 283.5s38.5 181.333 38.5 244zM1169 1793
c0 -16 -5.16699 -30.001 -15.5 -42.001s-33.166 -32.667 -68.499 -62l-182 -150h-39l115 197c26 44.667 48.167 75.334 66.5 92.001s38.5 25 60.5 25c17.333 0 32.166 -5.5 44.499 -16.5s18.5 -25.5 18.5 -43.5z" />
    <glyph glyph-name="Ocircumflex" unicode="&#xd4;" horiz-adv-x="1386" 
d="M1346 850c0 -103.333 -22.667 -207.167 -68 -311.5s-106.833 -200 -184.5 -287s-163.334 -155.833 -257.001 -206.5s-186.167 -76 -277.5 -76c-80.667 0 -153.667 24 -219 72s-116.833 114.167 -154.5 198.5s-56.5 176.5 -56.5 276.5c0 104 23.167 209.333 69.5 316
s108.333 204.167 186 292.5s163.334 158.166 257.001 209.499s186.5 77 278.5 77c84 0 158.167 -23.5 222.5 -70.5s114.333 -113.167 150 -198.5s53.5 -182.666 53.5 -291.999zM1182 1069c0 64.667 -10.502 120.166 -31.502 166.499s-51.667 81.666 -92 105.999
s-87.166 36.5 -140.499 36.5c-52.667 0 -104.167 -11.333 -154.5 -34s-93.833 -55 -130.5 -97c-53.333 -59.333 -101.5 -135.166 -144.5 -227.499s-78.833 -186.833 -107.5 -283.5s-50.5 -185.667 -65.5 -267s-22.5 -138.666 -22.5 -171.999
c0 -52.667 9.5 -101.5 28.5 -146.5s48.167 -81 87.5 -108s88 -40.5 146 -40.5h4c102 0 190.667 37 266 111c68.667 68 124.667 154 168 258c11.333 24.667 32.833 81.5 64.5 170.5s60.334 183.5 86.001 283.5s38.5 181.333 38.5 244zM1260 1538h-39l-141 191l-326 -191h-51
l342 297h127z" />
    <glyph glyph-name="Otilde" unicode="&#xd5;" horiz-adv-x="1386" 
d="M1346 850c0 -103.333 -22.667 -207.167 -68 -311.5s-106.833 -200 -184.5 -287s-163.334 -155.833 -257.001 -206.5s-186.167 -76 -277.5 -76c-80.667 0 -153.667 24 -219 72s-116.833 114.167 -154.5 198.5s-56.5 176.5 -56.5 276.5c0 104 23.167 209.333 69.5 316
s108.333 204.167 186 292.5s163.334 158.166 257.001 209.499s186.5 77 278.5 77c84 0 158.167 -23.5 222.5 -70.5s114.333 -113.167 150 -198.5s53.5 -182.666 53.5 -291.999zM1182 1069c0 64.667 -10.502 120.166 -31.502 166.499s-51.667 81.666 -92 105.999
s-87.166 36.5 -140.499 36.5c-52.667 0 -104.167 -11.333 -154.5 -34s-93.833 -55 -130.5 -97c-53.333 -59.333 -101.5 -135.166 -144.5 -227.499s-78.833 -186.833 -107.5 -283.5s-50.5 -185.667 -65.5 -267s-22.5 -138.666 -22.5 -171.999
c0 -52.667 9.5 -101.5 28.5 -146.5s48.167 -81 87.5 -108s88 -40.5 146 -40.5h4c102 0 190.667 37 266 111c68.667 68 124.667 154 168 258c11.333 24.667 32.833 81.5 64.5 170.5s60.334 183.5 86.001 283.5s38.5 181.333 38.5 244zM1251 1761
c-4 -73.333 -18.335 -125.666 -43.002 -156.999c-14 -18.667 -32.333 -34 -55 -46s-46 -18 -70 -18c-36.667 0 -78.334 13 -125.001 39l-59 33c-61.333 34 -103.666 51 -126.999 51c-59.333 0 -92 -41 -98 -123h-35c0 67.333 16.333 121 49 161s76.334 60 131.001 60
c42 0 106.333 -25.667 193 -77c34 -20 57.333 -32.667 70 -38s25.334 -8 38.001 -8c29.333 0 51.333 9.16699 66 27.5s26 50.166 34 95.499h31z" />
    <glyph glyph-name="Odieresis" unicode="&#xd6;" horiz-adv-x="1386" 
d="M1346 850c0 -103.333 -22.667 -207.167 -68 -311.5s-106.833 -200 -184.5 -287s-163.334 -155.833 -257.001 -206.5s-186.167 -76 -277.5 -76c-80.667 0 -153.667 24 -219 72s-116.833 114.167 -154.5 198.5s-56.5 176.5 -56.5 276.5c0 104 23.167 209.333 69.5 316
s108.333 204.167 186 292.5s163.334 158.166 257.001 209.499s186.5 77 278.5 77c84 0 158.167 -23.5 222.5 -70.5s114.333 -113.167 150 -198.5s53.5 -182.666 53.5 -291.999zM1182 1069c0 64.667 -10.502 120.166 -31.502 166.499s-51.667 81.666 -92 105.999
s-87.166 36.5 -140.499 36.5c-52.667 0 -104.167 -11.333 -154.5 -34s-93.833 -55 -130.5 -97c-53.333 -59.333 -101.5 -135.166 -144.5 -227.499s-78.833 -186.833 -107.5 -283.5s-50.5 -185.667 -65.5 -267s-22.5 -138.666 -22.5 -171.999
c0 -52.667 9.5 -101.5 28.5 -146.5s48.167 -81 87.5 -108s88 -40.5 146 -40.5h4c102 0 190.667 37 266 111c68.667 68 124.667 154 168 258c11.333 24.667 32.833 81.5 64.5 170.5s60.334 183.5 86.001 283.5s38.5 181.333 38.5 244zM1261 1622
c0 -22 -7.49902 -40.833 -22.499 -56.5s-32.5 -23.5 -52.5 -23.5c-22.667 0 -42.334 8 -59.001 24s-25 34.667 -25 56c0 23.333 8.16699 42.5 24.5 57.5s35.5 22.5 57.5 22.5s40.333 -7.66699 55 -23s22 -34.333 22 -57zM896.999 1622c0 -21.333 -7.66797 -40 -23.001 -56
s-33.666 -24 -54.999 -24c-22 0 -41.167 7.83301 -57.5 23.5s-24.5 34.5 -24.5 56.5s7.5 40.833 22.5 56.5s33.5 23.5 55.5 23.5c22.667 0 42 -7.66699 58 -23s24 -34.333 24 -57z" />
    <glyph glyph-name="multiply" unicode="&#xd7;" horiz-adv-x="1368" 
d="M1171 1081l-423 -428l419 -420l-61 -63l-422 422l-424 -422l-61 63l424 420l-424 428l59 62l426 -426l426 426z" />
    <glyph glyph-name="Oslash" unicode="&#xd8;" horiz-adv-x="1386" 
d="M1368 1393l-129 -154c71.333 -100.667 107 -230.334 107 -389.001c0 -103.333 -22.667 -207.166 -68 -311.499s-106.833 -200 -184.5 -287s-163.334 -155.833 -257.001 -206.5s-186.167 -76 -277.5 -76c-114.667 0 -211.667 47.333 -291 142l-147 -172l-31 26l152 176
c-35.333 48 -63 104.833 -83 170.5s-30 133.834 -30 204.501c0 104 23.167 209.333 69.5 316s108.333 204.167 186 292.5s163.334 158.166 257.001 209.499s186.5 77 278.5 77c119.333 0 217.333 -46.333 294 -139l125 143zM1161 1208
c-18 54 -47.832 95.8311 -89.499 125.498s-92.834 44.5 -153.501 44.5c-52.667 0 -104.167 -11.333 -154.5 -34s-93.833 -55 -130.5 -97c-53.333 -59.333 -101.5 -135.166 -144.5 -227.499s-78.833 -186.833 -107.5 -283.5s-50.5 -185.667 -65.5 -267
s-22.5 -138.666 -22.5 -171.999c0 -35.333 3.33301 -63.333 10 -84zM1182 1069c0 38 -2.66797 69.333 -8.00098 94l-859 -997c19.333 -50 49 -89.833 89 -119.5s89.667 -44.5 149 -44.5h6c102 0 190.667 37 266 111c68.667 68 124.667 154 168 258
c11.333 24.667 32.833 81.5 64.5 170.5s60.334 183.5 86.001 283.5s38.5 181.333 38.5 244z" />
    <glyph glyph-name="Ugrave" unicode="&#xd9;" horiz-adv-x="1499" 
d="M1645 1380l-7.00293 -29.9971c-33.333 0 -61.5 -4.16699 -84.5 -12.5s-44.5 -23.5 -64.5 -45.5c-20.667 -22 -42.167 -55.833 -64.5 -101.5s-39.833 -92.834 -52.5 -141.501l-141 -553c-27.333 -107.333 -68.166 -201 -122.499 -281s-118.666 -140.667 -192.999 -182
s-155.5 -62 -243.5 -62c-80 0 -152.333 15.667 -217 47s-115.667 75 -153 131s-56 118.333 -56 187c0 39.333 6.66699 85 20 137l207 741c8 29.333 12 57.333 12 84c0 34.667 -23.667 52 -71 52h-150l8 30h680l-6 -30h-137c-43.333 0 -76 -11.833 -98 -35.5
s-42.667 -69.167 -62 -136.5l-233 -836c-10 -36.667 -15 -71.334 -15 -104.001c0 -70.667 26 -127.334 78 -170.001s121 -64 207 -64c122 0 228.167 45.333 318.5 136s156.833 216.667 199.5 378l131 504c14 54.667 21 101.667 21 141c0 60 -16.167 106.167 -48.5 138.5
s-79.166 48.5 -140.499 48.5h-41l7 30h512zM1083 1539h-39.001l-181 150c-26.667 22.667 -44.667 38.5 -54 47.5s-16.5 17.667 -21.5 26s-7.5 18.5 -7.5 30.5c0 18 5.83301 32.5 17.5 43.5s26.834 16.5 45.501 16.5c22.667 0 43 -8.5 61 -25.5s39.333 -47.5 64 -91.5z" />
    <glyph glyph-name="Uacute" unicode="&#xda;" horiz-adv-x="1499" 
d="M1645 1380l-7.00293 -29.9971c-33.333 0 -61.5 -4.16699 -84.5 -12.5s-44.5 -23.5 -64.5 -45.5c-20.667 -22 -42.167 -55.833 -64.5 -101.5s-39.833 -92.834 -52.5 -141.501l-141 -553c-27.333 -107.333 -68.166 -201 -122.499 -281s-118.666 -140.667 -192.999 -182
s-155.5 -62 -243.5 -62c-80 0 -152.333 15.667 -217 47s-115.667 75 -153 131s-56 118.333 -56 187c0 39.333 6.66699 85 20 137l207 741c8 29.333 12 57.333 12 84c0 34.667 -23.667 52 -71 52h-150l8 30h680l-6 -30h-137c-43.333 0 -76 -11.833 -98 -35.5
s-42.667 -69.167 -62 -136.5l-233 -836c-10 -36.667 -15 -71.334 -15 -104.001c0 -70.667 26 -127.334 78 -170.001s121 -64 207 -64c122 0 228.167 45.333 318.5 136s156.833 216.667 199.5 378l131 504c14 54.667 21 101.667 21 141c0 60 -16.167 106.167 -48.5 138.5
s-79.166 48.5 -140.499 48.5h-41l7 30h512zM1247 1793c0 -16 -5.16699 -30.001 -15.5 -42.001s-33.166 -32.667 -68.499 -62l-182 -150h-39l115 197c26 44.667 48.167 75.334 66.5 92.001s38.5 25 60.5 25c17.333 0 32.166 -5.5 44.499 -16.5s18.5 -25.5 18.5 -43.5z" />
    <glyph glyph-name="Ucircumflex" unicode="&#xdb;" horiz-adv-x="1499" 
d="M1645 1380l-7.00293 -29.9971c-33.333 0 -61.5 -4.16699 -84.5 -12.5s-44.5 -23.5 -64.5 -45.5c-20.667 -22 -42.167 -55.833 -64.5 -101.5s-39.833 -92.834 -52.5 -141.501l-141 -553c-27.333 -107.333 -68.166 -201 -122.499 -281s-118.666 -140.667 -192.999 -182
s-155.5 -62 -243.5 -62c-80 0 -152.333 15.667 -217 47s-115.667 75 -153 131s-56 118.333 -56 187c0 39.333 6.66699 85 20 137l207 741c8 29.333 12 57.333 12 84c0 34.667 -23.667 52 -71 52h-150l8 30h680l-6 -30h-137c-43.333 0 -76 -11.833 -98 -35.5
s-42.667 -69.167 -62 -136.5l-233 -836c-10 -36.667 -15 -71.334 -15 -104.001c0 -70.667 26 -127.334 78 -170.001s121 -64 207 -64c122 0 228.167 45.333 318.5 136s156.833 216.667 199.5 378l131 504c14 54.667 21 101.667 21 141c0 60 -16.167 106.167 -48.5 138.5
s-79.166 48.5 -140.499 48.5h-41l7 30h512zM1296 1538h-39l-141 191l-326 -191h-51l342 297h127z" />
    <glyph glyph-name="Udieresis" unicode="&#xdc;" horiz-adv-x="1499" 
d="M1645 1380l-7.00293 -29.9971c-33.333 0 -61.5 -4.16699 -84.5 -12.5s-44.5 -23.5 -64.5 -45.5c-20.667 -22 -42.167 -55.833 -64.5 -101.5s-39.833 -92.834 -52.5 -141.501l-141 -553c-27.333 -107.333 -68.166 -201 -122.499 -281s-118.666 -140.667 -192.999 -182
s-155.5 -62 -243.5 -62c-80 0 -152.333 15.667 -217 47s-115.667 75 -153 131s-56 118.333 -56 187c0 39.333 6.66699 85 20 137l207 741c8 29.333 12 57.333 12 84c0 34.667 -23.667 52 -71 52h-150l8 30h680l-6 -30h-137c-43.333 0 -76 -11.833 -98 -35.5
s-42.667 -69.167 -62 -136.5l-233 -836c-10 -36.667 -15 -71.334 -15 -104.001c0 -70.667 26 -127.334 78 -170.001s121 -64 207 -64c122 0 228.167 45.333 318.5 136s156.833 216.667 199.5 378l131 504c14 54.667 21 101.667 21 141c0 60 -16.167 106.167 -48.5 138.5
s-79.166 48.5 -140.499 48.5h-41l7 30h512zM1329 1622c0 -22 -7.49902 -40.833 -22.499 -56.5s-32.5 -23.5 -52.5 -23.5c-22.667 0 -42.334 8 -59.001 24s-25 34.667 -25 56c0 23.333 8.16699 42.5 24.5 57.5s35.5 22.5 57.5 22.5s40.333 -7.66699 55 -23s22 -34.333 22 -57
zM964.998 1622c0 -21.333 -7.66797 -40 -23.001 -56s-33.666 -24 -54.999 -24c-22 0 -41.167 7.83301 -57.5 23.5s-24.5 34.5 -24.5 56.5s7.5 40.833 22.5 56.5s33.5 23.5 55.5 23.5c22.667 0 42 -7.66699 58 -23s24 -34.333 24 -57z" />
    <glyph glyph-name="Yacute" unicode="&#xdd;" horiz-adv-x="1386" 
d="M1520 1380l-9 -31.998c-38.667 -1.33301 -74 -10.333 -106 -27c-36.667 -18.667 -73.167 -45.334 -109.5 -80.001s-79.833 -85 -130.5 -151l-352 -467l-131 -469c-5.33301 -18.667 -8 -38 -8 -58c0 -43.333 25.333 -65 76 -65h139l-12 -31h-687l9 31h149
c72.667 0 119 36 139 108l146 506l-166 580c-13.333 45.333 -31 77.166 -53 95.499s-54.333 27.5 -97 27.5h-106l10 32h639l-10 -32h-96c-74 0 -111 -17.333 -111 -52c0 -19.333 2.66699 -38.333 8 -57l162 -565l303 405c50.667 68.667 76 124.667 76 168
c0 32.667 -12.5 57.667 -37.5 75s-61.833 26 -110.5 26h-40l10 32h506zM1169 1793c0 -16 -5.16699 -30.001 -15.5 -42.001s-33.166 -32.667 -68.499 -62l-182 -150h-39l115 197c26 44.667 48.167 75.334 66.5 92.001s38.5 25 60.5 25c17.333 0 32.166 -5.5 44.499 -16.5
s18.5 -25.5 18.5 -43.5z" />
    <glyph glyph-name="Thorn" unicode="&#xde;" horiz-adv-x="1386" 
d="M1278 715c0 -80 -32.001 -153 -96.001 -219c-38 -38 -81.5 -68.833 -130.5 -92.5s-105.833 -41.167 -170.5 -52.5s-142 -17 -232 -17h-207l-55 -203c-2.66699 -16 -4 -27.667 -4 -35c0 -40.667 23.333 -61 70 -61h163l-8 -35h-663l10 33h106c72.667 0 118.667 34 138 102
l307 1092c5.33301 24 8 41 8 51c0 45.333 -28 68 -84 68h-162l11 34h665l-14 -34h-111c-26.667 0 -48.167 -6.5 -64.5 -19.5s-29.5 -35.167 -39.5 -66.5l-70 -213h205c64 0 122.167 -8 174.5 -24s97.333 -38.667 135 -68s66.834 -64.833 87.501 -106.5s31 -86.167 31 -133.5
zM1077 778c0 73.333 -21 130.667 -63 172s-100 62 -174 62h-201l-186 -647h252c98 0 174.667 24.5 230 73.5s92.833 104.833 112.5 167.5s29.5 120 29.5 172z" />
    <glyph glyph-name="germandbls" unicode="&#xdf;" horiz-adv-x="1153" 
d="M1038 1104c0 -55.333 -13.8271 -105.664 -41.4941 -150.997s-68.5 -84.333 -122.5 -117c-24.667 -14.667 -47.334 -25.834 -68.001 -33.501s-55.334 -17.167 -104.001 -28.5c62 -27.333 108 -55.333 138 -84c82 -78 123 -176.333 123 -295
c0 -52 -10.5 -103.667 -31.5 -155s-50.5 -97.166 -88.5 -137.499s-80.333 -72 -127 -95s-94.334 -34.5 -143.001 -34.5c-56.667 0 -100.834 15.333 -132.501 46s-47.5 72 -47.5 124c0 41.333 10.5 76.333 31.5 105s46.833 43 77.5 43c22 0 40.167 -8.66699 54.5 -26
s21.5 -38.666 21.5 -63.999c0 -29.333 -13.667 -59.333 -41 -90c-20.667 -22 -31 -40.667 -31 -56c0 -14.667 5.5 -26.834 16.5 -36.501s24.5 -14.5 40.5 -14.5c52.667 0 97.834 27.5 135.501 82.5s66.167 121.333 85.5 199s29 147.834 29 210.501
c0 59.333 -8.83301 108.5 -26.5 147.5s-44.5 67.833 -80.5 86.5s-82.333 28 -139 28l11 33c95.333 0 164 21 206 63c22 23.333 41.833 54.5 59.5 93.5s31.667 83 42 132s15.5 95.5 15.5 139.5c0 49.333 -11 87.5 -33 114.5s-53.333 40.5 -94 40.5
c-56.667 0 -103.834 -20.333 -141.501 -61s-67 -89.167 -88 -145.5s-41.5 -124.5 -61.5 -204.5l-178 -707c-5.33301 -21.333 -10.5 -43.5 -15.5 -66.5s-10.833 -46.5 -17.5 -70.5c-18.667 -78.667 -37.834 -153.167 -57.501 -223.5s-37 -124.666 -52 -162.999
s-30.667 -69.833 -47 -94.5s-35.833 -47.334 -58.5 -68.001c-46 -38 -96.333 -57 -151 -57c-44 0 -83 19 -117 57s-51 81 -51 129c0 31.333 9.16699 58 27.5 80s40.5 33 66.5 33c29.333 0 52 -8.83301 68 -26.5s24 -41.834 24 -72.501c0 -20 -3.83301 -36.333 -11.5 -49
s-20.834 -26.334 -39.501 -41.001c-19.333 -15.333 -29 -28.333 -29 -39s5.16699 -19.834 15.5 -27.501s22.5 -11.5 36.5 -11.5c41.333 0 72 21 92 63s38.333 103 55 183c5.33301 24.667 12.333 53.667 21 87l18 69l201 796c28.667 112.667 54.834 204.667 78.501 276
s53 135.666 88 192.999s76.167 102 123.5 134c64 40.667 128.333 61 193 61c49.333 0 95.166 -13.333 137.499 -40s75.333 -63.167 99 -109.5s35.5 -97.5 35.5 -153.5z" />
    <glyph glyph-name="agrave" unicode="&#xe0;" 
d="M997 358c-48.667 -132 -98.002 -228.498 -148.002 -289.498s-103.667 -91.5 -161 -91.5c-38 0 -68 16.333 -90 49s-33 76.667 -33 132c0 21.333 4.33301 56.666 13 105.999c-34.667 -64 -69.667 -117.167 -105 -159.5s-71.166 -73.666 -107.499 -93.999
s-73.5 -30.5 -111.5 -30.5c-40 0 -76.667 14.833 -110 44.5s-59.833 70 -79.5 121s-29.5 106.833 -29.5 167.5c0 84.667 15.833 162.167 47.5 232.5s72.5 130.666 122.5 180.999s103.167 89.333 159.5 117s106.166 41.5 149.499 41.5c47.333 0 85.833 -19.833 115.5 -59.5
s47.834 -95.834 54.501 -168.501l72 205h133l-211 -719c-6.66699 -22 -10 -42.333 -10 -61c0 -42.667 15.667 -64 47 -64c38 0 77.833 28.833 119.5 86.5s83.834 142.167 126.501 253.5h36zM650.998 635.002c0 64 -12.833 115.835 -38.5 155.502s-59.167 59.5 -100.5 59.5
c-46 0 -87 -19.667 -123 -59c-41.333 -46.667 -80 -114.334 -116 -203.001s-64.833 -176 -86.5 -262s-32.5 -146.333 -32.5 -181c0 -41.333 8.66699 -73.5 26 -96.5s41.333 -34.5 72 -34.5c52.667 0 103.167 22.667 151.5 68s91 102.333 128 171s66.167 138.167 87.5 208.5
s32 128.166 32 173.499zM763.998 1032h-39.001l-181 150c-26.667 22.667 -44.667 38.5 -54 47.5s-16.5 17.667 -21.5 26s-7.5 18.5 -7.5 30.5c0 18 5.83301 32.5 17.5 43.5s26.834 16.5 45.501 16.5c22.667 0 43 -8.5 61 -25.5s39.333 -47.5 64 -91.5z" />
    <glyph glyph-name="aacute" unicode="&#xe1;" 
d="M997 358c-48.667 -132 -98.002 -228.498 -148.002 -289.498s-103.667 -91.5 -161 -91.5c-38 0 -68 16.333 -90 49s-33 76.667 -33 132c0 21.333 4.33301 56.666 13 105.999c-34.667 -64 -69.667 -117.167 -105 -159.5s-71.166 -73.666 -107.499 -93.999
s-73.5 -30.5 -111.5 -30.5c-40 0 -76.667 14.833 -110 44.5s-59.833 70 -79.5 121s-29.5 106.833 -29.5 167.5c0 84.667 15.833 162.167 47.5 232.5s72.5 130.666 122.5 180.999s103.167 89.333 159.5 117s106.166 41.5 149.499 41.5c47.333 0 85.833 -19.833 115.5 -59.5
s47.834 -95.834 54.501 -168.501l72 205h133l-211 -719c-6.66699 -22 -10 -42.333 -10 -61c0 -42.667 15.667 -64 47 -64c38 0 77.833 28.833 119.5 86.5s83.834 142.167 126.501 253.5h36zM650.998 635.002c0 64 -12.833 115.835 -38.5 155.502s-59.167 59.5 -100.5 59.5
c-46 0 -87 -19.667 -123 -59c-41.333 -46.667 -80 -114.334 -116 -203.001s-64.833 -176 -86.5 -262s-32.5 -146.333 -32.5 -181c0 -41.333 8.66699 -73.5 26 -96.5s41.333 -34.5 72 -34.5c52.667 0 103.167 22.667 151.5 68s91 102.333 128 171s66.167 138.167 87.5 208.5
s32 128.166 32 173.499zM845.998 1286c0 -16 -5.16699 -30.001 -15.5 -42.001s-33.166 -32.667 -68.499 -62l-182 -150h-39l115 197c26 44.667 48.167 75.334 66.5 92.001s38.5 25 60.5 25c17.333 0 32.166 -5.5 44.499 -16.5s18.5 -25.5 18.5 -43.5z" />
    <glyph glyph-name="acircumflex" unicode="&#xe2;" 
d="M997 358c-48.667 -132 -98.002 -228.498 -148.002 -289.498s-103.667 -91.5 -161 -91.5c-38 0 -68 16.333 -90 49s-33 76.667 -33 132c0 21.333 4.33301 56.666 13 105.999c-34.667 -64 -69.667 -117.167 -105 -159.5s-71.166 -73.666 -107.499 -93.999
s-73.5 -30.5 -111.5 -30.5c-40 0 -76.667 14.833 -110 44.5s-59.833 70 -79.5 121s-29.5 106.833 -29.5 167.5c0 84.667 15.833 162.167 47.5 232.5s72.5 130.666 122.5 180.999s103.167 89.333 159.5 117s106.166 41.5 149.499 41.5c47.333 0 85.833 -19.833 115.5 -59.5
s47.834 -95.834 54.501 -168.501l72 205h133l-211 -719c-6.66699 -22 -10 -42.333 -10 -61c0 -42.667 15.667 -64 47 -64c38 0 77.833 28.833 119.5 86.5s83.834 142.167 126.501 253.5h36zM650.998 635.002c0 64 -12.833 115.835 -38.5 155.502s-59.167 59.5 -100.5 59.5
c-46 0 -87 -19.667 -123 -59c-41.333 -46.667 -80 -114.334 -116 -203.001s-64.833 -176 -86.5 -262s-32.5 -146.333 -32.5 -181c0 -41.333 8.66699 -73.5 26 -96.5s41.333 -34.5 72 -34.5c52.667 0 103.167 22.667 151.5 68s91 102.333 128 171s66.167 138.167 87.5 208.5
s32 128.166 32 173.499zM853.998 1030h-39l-141 191l-326 -191h-51l342 297h127z" />
    <glyph glyph-name="atilde" unicode="&#xe3;" 
d="M997 358c-48.667 -132 -98.002 -228.498 -148.002 -289.498s-103.667 -91.5 -161 -91.5c-38 0 -68 16.333 -90 49s-33 76.667 -33 132c0 21.333 4.33301 56.666 13 105.999c-34.667 -64 -69.667 -117.167 -105 -159.5s-71.166 -73.666 -107.499 -93.999
s-73.5 -30.5 -111.5 -30.5c-40 0 -76.667 14.833 -110 44.5s-59.833 70 -79.5 121s-29.5 106.833 -29.5 167.5c0 84.667 15.833 162.167 47.5 232.5s72.5 130.666 122.5 180.999s103.167 89.333 159.5 117s106.166 41.5 149.499 41.5c47.333 0 85.833 -19.833 115.5 -59.5
s47.834 -95.834 54.501 -168.501l72 205h133l-211 -719c-6.66699 -22 -10 -42.333 -10 -61c0 -42.667 15.667 -64 47 -64c38 0 77.833 28.833 119.5 86.5s83.834 142.167 126.501 253.5h36zM650.998 635.002c0 64 -12.833 115.835 -38.5 155.502s-59.167 59.5 -100.5 59.5
c-46 0 -87 -19.667 -123 -59c-41.333 -46.667 -80 -114.334 -116 -203.001s-64.833 -176 -86.5 -262s-32.5 -146.333 -32.5 -181c0 -41.333 8.66699 -73.5 26 -96.5s41.333 -34.5 72 -34.5c52.667 0 103.167 22.667 151.5 68s91 102.333 128 171s66.167 138.167 87.5 208.5
s32 128.166 32 173.499zM957.998 1253c-4 -73.333 -18.335 -125.666 -43.002 -156.999c-14 -18.667 -32.333 -34 -55 -46s-46 -18 -70 -18c-36.667 0 -78.334 13 -125.001 39l-59 33c-61.333 34 -103.666 51 -126.999 51c-59.333 0 -92 -41 -98 -123h-35
c0 67.333 16.333 121 49 161s76.334 60 131.001 60c42 0 106.333 -25.667 193 -77c34 -20 57.333 -32.667 70 -38s25.334 -8 38.001 -8c29.333 0 51.333 9.16699 66 27.5s26 50.166 34 95.499h31z" />
    <glyph glyph-name="adieresis" unicode="&#xe4;" 
d="M997 358c-48.667 -132 -98.002 -228.498 -148.002 -289.498s-103.667 -91.5 -161 -91.5c-38 0 -68 16.333 -90 49s-33 76.667 -33 132c0 21.333 4.33301 56.666 13 105.999c-34.667 -64 -69.667 -117.167 -105 -159.5s-71.166 -73.666 -107.499 -93.999
s-73.5 -30.5 -111.5 -30.5c-40 0 -76.667 14.833 -110 44.5s-59.833 70 -79.5 121s-29.5 106.833 -29.5 167.5c0 84.667 15.833 162.167 47.5 232.5s72.5 130.666 122.5 180.999s103.167 89.333 159.5 117s106.166 41.5 149.499 41.5c47.333 0 85.833 -19.833 115.5 -59.5
s47.834 -95.834 54.501 -168.501l72 205h133l-211 -719c-6.66699 -22 -10 -42.333 -10 -61c0 -42.667 15.667 -64 47 -64c38 0 77.833 28.833 119.5 86.5s83.834 142.167 126.501 253.5h36zM650.998 635.002c0 64 -12.833 115.835 -38.5 155.502s-59.167 59.5 -100.5 59.5
c-46 0 -87 -19.667 -123 -59c-41.333 -46.667 -80 -114.334 -116 -203.001s-64.833 -176 -86.5 -262s-32.5 -146.333 -32.5 -181c0 -41.333 8.66699 -73.5 26 -96.5s41.333 -34.5 72 -34.5c52.667 0 103.167 22.667 151.5 68s91 102.333 128 171s66.167 138.167 87.5 208.5
s32 128.166 32 173.499zM926.998 1114c0 -22 -7.49902 -40.833 -22.499 -56.5s-32.5 -23.5 -52.5 -23.5c-22.667 0 -42.334 8 -59.001 24s-25 34.667 -25 56c0 23.333 8.16699 42.5 24.5 57.5s35.5 22.5 57.5 22.5s40.333 -7.66699 55 -23s22 -34.333 22 -57zM562.999 1114
c0 -21.333 -7.66797 -40 -23.001 -56s-33.666 -24 -54.999 -24c-22 0 -41.167 7.83301 -57.5 23.5s-24.5 34.5 -24.5 56.5s7.5 40.833 22.5 56.5s33.5 23.5 55.5 23.5c22.667 0 42 -7.66699 58 -23s24 -34.333 24 -57z" />
    <glyph glyph-name="aring" unicode="&#xe5;" 
d="M997 358c-48.667 -132 -98.002 -228.498 -148.002 -289.498s-103.667 -91.5 -161 -91.5c-38 0 -68 16.333 -90 49s-33 76.667 -33 132c0 21.333 4.33301 56.666 13 105.999c-34.667 -64 -69.667 -117.167 -105 -159.5s-71.166 -73.666 -107.499 -93.999
s-73.5 -30.5 -111.5 -30.5c-40 0 -76.667 14.833 -110 44.5s-59.833 70 -79.5 121s-29.5 106.833 -29.5 167.5c0 84.667 15.833 162.167 47.5 232.5s72.5 130.666 122.5 180.999s103.167 89.333 159.5 117s106.166 41.5 149.499 41.5c47.333 0 85.833 -19.833 115.5 -59.5
s47.834 -95.834 54.501 -168.501l72 205h133l-211 -719c-6.66699 -22 -10 -42.333 -10 -61c0 -42.667 15.667 -64 47 -64c38 0 77.833 28.833 119.5 86.5s83.834 142.167 126.501 253.5h36zM650.998 635.002c0 64 -12.833 115.835 -38.5 155.502s-59.167 59.5 -100.5 59.5
c-46 0 -87 -19.667 -123 -59c-41.333 -46.667 -80 -114.334 -116 -203.001s-64.833 -176 -86.5 -262s-32.5 -146.333 -32.5 -181c0 -41.333 8.66699 -73.5 26 -96.5s41.333 -34.5 72 -34.5c52.667 0 103.167 22.667 151.5 68s91 102.333 128 171s66.167 138.167 87.5 208.5
s32 128.166 32 173.499zM881.998 1214c0 -50 -17.832 -92.834 -53.499 -128.501s-78.5 -53.5 -128.5 -53.5c-52.667 0 -97.834 18.5 -135.501 55.5s-56.5 80.833 -56.5 131.5c0 52.667 18.167 97.5 54.5 134.5s80.833 55.5 133.5 55.5c34 0 65.333 -9 94 -27
s51.167 -41.667 67.5 -71s24.5 -61.666 24.5 -96.999zM826.999 1217c0 36.667 -12.5 68.333 -37.5 95s-56.167 40 -93.5 40c-36 0 -66.833 -13.167 -92.5 -39.5s-38.5 -56.833 -38.5 -91.5c0 -36 13.167 -66.833 39.5 -92.5s57.5 -38.5 93.5 -38.5c24 0 45.667 5.5 65 16.5
s34.833 26.333 46.5 46s17.5 41.167 17.5 64.5z" />
    <glyph glyph-name="ae" unicode="&#xe6;" horiz-adv-x="1386" 
d="M1282 301c-22.667 -51.333 -42.5059 -90.502 -59.5059 -117.502s-39.5 -54.833 -67.5 -83.5c-78 -80 -164.667 -120 -260 -120c-151.333 0 -241.333 97.333 -270 292c-35.333 -69.333 -69.666 -125 -102.999 -167s-68.666 -73.333 -105.999 -94s-77 -31 -119 -31
c-40.667 0 -79.667 15.833 -117 47.5s-67.166 74.334 -89.499 128.001s-33.5 109.167 -33.5 166.5c0 81.333 25 165.833 75 253.5s113 160.5 189 218.5s148.667 87 218 87c50 0 88.833 -18 116.5 -54s45.5 -91 53.5 -165l59 206h141l-59 -221
c53.333 82.667 102.333 142 147 178s92 54 142 54c42 0 76 -14.833 102 -44.5s39 -68.834 39 -117.501c0 -171.333 -172 -289.666 -516 -354.999c-3.33301 -16.667 -7.66602 -35.834 -12.999 -57.501s-8.66602 -36.667 -9.99902 -45s-2.66602 -19.166 -3.99902 -32.499
s-2 -24.666 -2 -33.999c0 -54.667 15.167 -98.167 45.5 -130.5s70.5 -48.5 120.5 -48.5c136 0 251.333 95.667 346 287h35zM1209.99 751.998c0 30.667 -7.33105 54 -21.998 70s-35.334 24 -62.001 24c-61.333 0 -125 -42.333 -191 -127s-118.333 -190.667 -157 -318
c76.667 10.667 148.167 33.667 214.5 69s119.166 78.5 158.499 129.5s59 101.833 59 152.5zM675.996 638.998c0 66.667 -12.332 118.166 -36.999 154.499s-59.334 54.5 -104.001 54.5c-20.667 0 -42.5 -5.66699 -65.5 -17s-42.833 -27 -59.5 -47
c-34.667 -38 -70 -96.167 -106 -174.5s-66 -160.166 -90 -245.499s-36 -156 -36 -212c0 -36.667 10.667 -69.167 32 -97.5s51 -42.5 89 -42.5h4c58.667 0.666992 112.167 25.5 160.5 74.5s87.833 108.167 118.5 177.5s54 138.5 70 207.5s24 124.833 24 167.5z" />
    <glyph glyph-name="ccedilla" unicode="&#xe7;" horiz-adv-x="819" 
d="M784 369c-18.667 -56.667 -36.332 -100.503 -52.999 -131.503s-41.334 -65.167 -74.001 -102.5c-44 -50 -90.833 -88.333 -140.5 -115s-100.167 -40 -151.5 -40c-14 0 -23.667 1.33301 -29 4l-49 -74c87.333 -24 131 -73.333 131 -148c0 -36 -13.833 -68.833 -41.5 -98.5
s-65.5 -53.334 -113.5 -71.001s-99.333 -26.5 -154 -26.5c-28.667 0 -74 5.33301 -136 16l17 37c26 -4 53.333 -6 82 -6c63.333 0 114.666 11.5 153.999 34.5s59 53.167 59 90.5c0 23.333 -8.5 43.5 -25.5 60.5s-45.5 25.5 -85.5 25.5h-22l129 174
c-59.333 22.667 -107.333 64.834 -144 126.501s-55 132.834 -55 213.501c0 86 24.333 173.333 73 262s110.667 161.667 186 219s150 86 224 86c52 0 93.667 -15.667 125 -47s47 -73 47 -125c0 -35.333 -9.33301 -64.666 -28 -87.999s-42.667 -35 -72 -35
c-23.333 0 -42.833 9 -58.5 27s-23.5 39.667 -23.5 65c0 27.333 15.667 57.666 47 90.999c19.333 18.667 29 33 29 43c0 25.333 -19.333 38 -58 38c-59.333 0 -111.5 -27.333 -156.5 -82s-81.667 -120.167 -110 -196.5s-50 -153.166 -65 -230.499
s-22.5 -134.666 -22.5 -171.999c0 -58 13.833 -102.667 41.5 -134s65.834 -47 114.501 -47c42.667 0 84.834 11 126.501 33s80.5 53.333 116.5 94c31.333 34.667 55.666 67.167 72.999 97.5s37 74.5 59 132.5h34z" />
    <glyph glyph-name="egrave" unicode="&#xe8;" horiz-adv-x="811" 
d="M709 276c-13.333 -40 -26.334 -71.834 -39.001 -95.501s-30.667 -48.5 -54 -74.5c-37.333 -41.333 -78.5 -72.666 -123.5 -93.999s-93.167 -32 -144.5 -32c-58 0 -110.5 14.667 -157.5 44s-83.667 70 -110 122s-39.5 111.333 -39.5 178c0 61.333 13.833 125.333 41.5 192
s64.667 128.5 111 185.5s97 102.5 152 136.5s107.833 51 158.5 51c52 0 92.667 -15.5 122 -46.5s44 -72.833 44 -125.5c0 -60.667 -16.167 -112.5 -48.5 -155.5s-73.5 -77.667 -123.5 -104s-92.333 -44.5 -127 -54.5s-90.667 -23.667 -168 -41
c-23.333 -62 -35 -124.667 -35 -188c0 -48 17.167 -87 51.5 -117s79.833 -45 136.5 -45c46.667 0 90.5 10.667 131.5 32s77.833 51.833 110.5 91.5s59.334 86.5 80.001 140.5h31zM611.999 757.999c0 30 -8.83301 54.167 -26.5 72.5s-41.5 27.5 -71.5 27.5
c-31.333 0 -63.5 -12.5 -96.5 -37.5s-62.833 -60.167 -89.5 -105.5c-15.333 -25.333 -30.166 -55.666 -44.499 -90.999s-26.833 -69.833 -37.5 -103.5s-22.334 -73.5 -35.001 -119.5c73.333 16 130.5 33.833 171.5 53.5s81.5 48.5 121.5 86.5
c72 67.333 108 139.666 108 216.999zM646.999 1032h-39.001l-181 150c-26.667 22.667 -44.667 38.5 -54 47.5s-16.5 17.667 -21.5 26s-7.5 18.5 -7.5 30.5c0 18 5.83301 32.5 17.5 43.5s26.834 16.5 45.501 16.5c22.667 0 43 -8.5 61 -25.5s39.333 -47.5 64 -91.5z" />
    <glyph glyph-name="eacute" unicode="&#xe9;" horiz-adv-x="811" 
d="M709 276c-13.333 -40 -26.334 -71.834 -39.001 -95.501s-30.667 -48.5 -54 -74.5c-37.333 -41.333 -78.5 -72.666 -123.5 -93.999s-93.167 -32 -144.5 -32c-58 0 -110.5 14.667 -157.5 44s-83.667 70 -110 122s-39.5 111.333 -39.5 178c0 61.333 13.833 125.333 41.5 192
s64.667 128.5 111 185.5s97 102.5 152 136.5s107.833 51 158.5 51c52 0 92.667 -15.5 122 -46.5s44 -72.833 44 -125.5c0 -60.667 -16.167 -112.5 -48.5 -155.5s-73.5 -77.667 -123.5 -104s-92.333 -44.5 -127 -54.5s-90.667 -23.667 -168 -41
c-23.333 -62 -35 -124.667 -35 -188c0 -48 17.167 -87 51.5 -117s79.833 -45 136.5 -45c46.667 0 90.5 10.667 131.5 32s77.833 51.833 110.5 91.5s59.334 86.5 80.001 140.5h31zM611.999 757.999c0 30 -8.83301 54.167 -26.5 72.5s-41.5 27.5 -71.5 27.5
c-31.333 0 -63.5 -12.5 -96.5 -37.5s-62.833 -60.167 -89.5 -105.5c-15.333 -25.333 -30.166 -55.666 -44.499 -90.999s-26.833 -69.833 -37.5 -103.5s-22.334 -73.5 -35.001 -119.5c73.333 16 130.5 33.833 171.5 53.5s81.5 48.5 121.5 86.5
c72 67.333 108 139.666 108 216.999zM800.999 1286c0 -16 -5.16699 -30.001 -15.5 -42.001s-33.166 -32.667 -68.499 -62l-182 -150h-39l115 197c26 44.667 48.167 75.334 66.5 92.001s38.5 25 60.5 25c17.333 0 32.166 -5.5 44.499 -16.5s18.5 -25.5 18.5 -43.5z" />
    <glyph glyph-name="ecircumflex" unicode="&#xea;" horiz-adv-x="811" 
d="M709 276c-13.333 -40 -26.334 -71.834 -39.001 -95.501s-30.667 -48.5 -54 -74.5c-37.333 -41.333 -78.5 -72.666 -123.5 -93.999s-93.167 -32 -144.5 -32c-58 0 -110.5 14.667 -157.5 44s-83.667 70 -110 122s-39.5 111.333 -39.5 178c0 61.333 13.833 125.333 41.5 192
s64.667 128.5 111 185.5s97 102.5 152 136.5s107.833 51 158.5 51c52 0 92.667 -15.5 122 -46.5s44 -72.833 44 -125.5c0 -60.667 -16.167 -112.5 -48.5 -155.5s-73.5 -77.667 -123.5 -104s-92.333 -44.5 -127 -54.5s-90.667 -23.667 -168 -41
c-23.333 -62 -35 -124.667 -35 -188c0 -48 17.167 -87 51.5 -117s79.833 -45 136.5 -45c46.667 0 90.5 10.667 131.5 32s77.833 51.833 110.5 91.5s59.334 86.5 80.001 140.5h31zM611.999 757.999c0 30 -8.83301 54.167 -26.5 72.5s-41.5 27.5 -71.5 27.5
c-31.333 0 -63.5 -12.5 -96.5 -37.5s-62.833 -60.167 -89.5 -105.5c-15.333 -25.333 -30.166 -55.666 -44.499 -90.999s-26.833 -69.833 -37.5 -103.5s-22.334 -73.5 -35.001 -119.5c73.333 16 130.5 33.833 171.5 53.5s81.5 48.5 121.5 86.5
c72 67.333 108 139.666 108 216.999zM767.999 1030h-39l-141 191l-326 -191h-51l342 297h127z" />
    <glyph glyph-name="edieresis" unicode="&#xeb;" horiz-adv-x="811" 
d="M709 276c-13.333 -40 -26.334 -71.834 -39.001 -95.501s-30.667 -48.5 -54 -74.5c-37.333 -41.333 -78.5 -72.666 -123.5 -93.999s-93.167 -32 -144.5 -32c-58 0 -110.5 14.667 -157.5 44s-83.667 70 -110 122s-39.5 111.333 -39.5 178c0 61.333 13.833 125.333 41.5 192
s64.667 128.5 111 185.5s97 102.5 152 136.5s107.833 51 158.5 51c52 0 92.667 -15.5 122 -46.5s44 -72.833 44 -125.5c0 -60.667 -16.167 -112.5 -48.5 -155.5s-73.5 -77.667 -123.5 -104s-92.333 -44.5 -127 -54.5s-90.667 -23.667 -168 -41
c-23.333 -62 -35 -124.667 -35 -188c0 -48 17.167 -87 51.5 -117s79.833 -45 136.5 -45c46.667 0 90.5 10.667 131.5 32s77.833 51.833 110.5 91.5s59.334 86.5 80.001 140.5h31zM611.999 757.999c0 30 -8.83301 54.167 -26.5 72.5s-41.5 27.5 -71.5 27.5
c-31.333 0 -63.5 -12.5 -96.5 -37.5s-62.833 -60.167 -89.5 -105.5c-15.333 -25.333 -30.166 -55.666 -44.499 -90.999s-26.833 -69.833 -37.5 -103.5s-22.334 -73.5 -35.001 -119.5c73.333 16 130.5 33.833 171.5 53.5s81.5 48.5 121.5 86.5
c72 67.333 108 139.666 108 216.999zM748.999 1114c0 -22 -7.49902 -40.833 -22.499 -56.5s-32.5 -23.5 -52.5 -23.5c-22.667 0 -42.334 8 -59.001 24s-25 34.667 -25 56c0 23.333 8.16699 42.5 24.5 57.5s35.5 22.5 57.5 22.5s40.333 -7.66699 55 -23s22 -34.333 22 -57z
M385 1114c0 -21.333 -7.66797 -40 -23.001 -56s-33.666 -24 -54.999 -24c-22 0 -41.167 7.83301 -57.5 23.5s-24.5 34.5 -24.5 56.5s7.5 40.833 22.5 56.5s33.5 23.5 55.5 23.5c22.667 0 42 -7.66699 58 -23s24 -34.333 24 -57z" />
    <glyph glyph-name="igrave" unicode="&#xec;" horiz-adv-x="682" 
d="M586 367c-32.667 -117.333 -77.1699 -211.167 -133.503 -281.5s-114.166 -105.5 -173.499 -105.5c-40 0 -71.167 17 -93.5 51s-33.5 80.333 -33.5 139c0 93.333 40 225 120 395c48 104.667 72 175.667 72 213c0 45.333 -19.667 68 -59 68
c-72.667 0 -148 -103.667 -226 -311h-30c20.667 60 35.834 101 45.501 123s25.834 52.667 48.501 92c53.333 88.667 110 133 170 133c44 0 78.5 -17.333 103.5 -52s37.5 -83 37.5 -145c0 -30 -3.5 -62.333 -10.5 -97s-18.167 -73.667 -33.5 -117s-34.666 -92 -57.999 -146
c-52 -122.667 -78 -206 -78 -250c0 -16.667 4.16699 -30.5 12.5 -41.5s19.166 -16.5 32.499 -16.5c42 0 85.5 30.333 130.5 91s87.5 146.667 127.5 258h29zM581.997 1032h-39.001l-181 150c-26.667 22.667 -44.667 38.5 -54 47.5s-16.5 17.667 -21.5 26s-7.5 18.5 -7.5 30.5
c0 18 5.83301 32.5 17.5 43.5s26.834 16.5 45.501 16.5c22.667 0 43 -8.5 61 -25.5s39.333 -47.5 64 -91.5z" />
    <glyph glyph-name="iacute" unicode="&#xed;" horiz-adv-x="682" 
d="M586 367c-32.667 -117.333 -77.1699 -211.167 -133.503 -281.5s-114.166 -105.5 -173.499 -105.5c-40 0 -71.167 17 -93.5 51s-33.5 80.333 -33.5 139c0 93.333 40 225 120 395c48 104.667 72 175.667 72 213c0 45.333 -19.667 68 -59 68
c-72.667 0 -148 -103.667 -226 -311h-30c20.667 60 35.834 101 45.501 123s25.834 52.667 48.501 92c53.333 88.667 110 133 170 133c44 0 78.5 -17.333 103.5 -52s37.5 -83 37.5 -145c0 -30 -3.5 -62.333 -10.5 -97s-18.167 -73.667 -33.5 -117s-34.666 -92 -57.999 -146
c-52 -122.667 -78 -206 -78 -250c0 -16.667 4.16699 -30.5 12.5 -41.5s19.166 -16.5 32.499 -16.5c42 0 85.5 30.333 130.5 91s87.5 146.667 127.5 258h29zM663.997 1286c0 -16 -5.16699 -30.001 -15.5 -42.001s-33.166 -32.667 -68.499 -62l-182 -150h-39l115 197
c26 44.667 48.167 75.334 66.5 92.001s38.5 25 60.5 25c17.333 0 32.166 -5.5 44.499 -16.5s18.5 -25.5 18.5 -43.5z" />
    <glyph glyph-name="icircumflex" unicode="&#xee;" horiz-adv-x="682" 
d="M586 367c-32.667 -117.333 -77.1699 -211.167 -133.503 -281.5s-114.166 -105.5 -173.499 -105.5c-40 0 -71.167 17 -93.5 51s-33.5 80.333 -33.5 139c0 93.333 40 225 120 395c48 104.667 72 175.667 72 213c0 45.333 -19.667 68 -59 68
c-72.667 0 -148 -103.667 -226 -311h-30c20.667 60 35.834 101 45.501 123s25.834 52.667 48.501 92c53.333 88.667 110 133 170 133c44 0 78.5 -17.333 103.5 -52s37.5 -83 37.5 -145c0 -30 -3.5 -62.333 -10.5 -97s-18.167 -73.667 -33.5 -117s-34.666 -92 -57.999 -146
c-52 -122.667 -78 -206 -78 -250c0 -16.667 4.16699 -30.5 12.5 -41.5s19.166 -16.5 32.499 -16.5c42 0 85.5 30.333 130.5 91s87.5 146.667 127.5 258h29zM640.997 1030h-39l-141 191l-326 -191h-51l342 297h127z" />
    <glyph glyph-name="idieresis" unicode="&#xef;" horiz-adv-x="682" 
d="M586 367c-32.667 -117.333 -77.1699 -211.167 -133.503 -281.5s-114.166 -105.5 -173.499 -105.5c-40 0 -71.167 17 -93.5 51s-33.5 80.333 -33.5 139c0 93.333 40 225 120 395c48 104.667 72 175.667 72 213c0 45.333 -19.667 68 -59 68
c-72.667 0 -148 -103.667 -226 -311h-30c20.667 60 35.834 101 45.501 123s25.834 52.667 48.501 92c53.333 88.667 110 133 170 133c44 0 78.5 -17.333 103.5 -52s37.5 -83 37.5 -145c0 -30 -3.5 -62.333 -10.5 -97s-18.167 -73.667 -33.5 -117s-34.666 -92 -57.999 -146
c-52 -122.667 -78 -206 -78 -250c0 -16.667 4.16699 -30.5 12.5 -41.5s19.166 -16.5 32.499 -16.5c42 0 85.5 30.333 130.5 91s87.5 146.667 127.5 258h29zM642.997 1114c0 -22 -7.49902 -40.833 -22.499 -56.5s-32.5 -23.5 -52.5 -23.5c-22.667 0 -42.334 8 -59.001 24
s-25 34.667 -25 56c0 23.333 8.16699 42.5 24.5 57.5s35.5 22.5 57.5 22.5s40.333 -7.66699 55 -23s22 -34.333 22 -57zM278.998 1114c0 -21.333 -7.66797 -40 -23.001 -56s-33.666 -24 -54.999 -24c-22 0 -41.167 7.83301 -57.5 23.5s-24.5 34.5 -24.5 56.5
s7.5 40.833 22.5 56.5s33.5 23.5 55.5 23.5c22.667 0 42 -7.66699 58 -23s24 -34.333 24 -57z" />
    <glyph glyph-name="eth" unicode="&#xf0;" horiz-adv-x="918" 
d="M846 672c0 -115.333 -15.5 -216.83 -46.5 -304.497s-71.333 -159.834 -121 -216.501s-103.5 -99.334 -161.5 -128.001s-113 -43 -165 -43c-85.333 0 -158.166 37.167 -218.499 111.5s-90.5 164.5 -90.5 270.5c0 89.333 22.167 174.666 66.5 255.999
s102.666 147.166 174.999 197.499s147.5 75.5 225.5 75.5c49.333 0 88.833 -8.83301 118.5 -26.5s57.834 -49.167 84.501 -94.5c-1.33301 65.333 -4 120.333 -8 165s-11.833 91.334 -23.5 140.001s-27.834 92.334 -48.501 131.001l-172 -119l-17 25l172 119
c-22 40 -61.333 95.333 -118 166l24 18c54 -60.667 96.333 -113.334 127 -158.001l160 113l16 -24l-157 -113c53.333 -87.333 96.333 -181.833 129 -283.5s49 -194.167 49 -277.5zM707 696.003c-30 108 -91.668 162 -185.001 162c-60 0 -112.5 -25.833 -157.5 -77.5
s-81.833 -114.5 -110.5 -188.5s-50.5 -147 -65.5 -219s-22.5 -124 -22.5 -156c0 -63.333 16 -113 48 -149s76.667 -54 134 -54c67.333 0 126.333 34.333 177 103s90.834 155 120.501 259s50.167 210.667 61.5 320z" />
    <glyph glyph-name="ntilde" unicode="&#xf1;" horiz-adv-x="1153" 
d="M1087 352c-34 -112 -79 -200.671 -135 -266.004s-114.667 -98 -176 -98c-45.333 0 -80.5 16.5 -105.5 49.5s-37.5 79.167 -37.5 138.5c0 47.333 8 98.5 24 153.5s43.333 125.5 82 211.5c49.333 102 74 177 74 225c0 24 -5.83301 44.333 -17.5 61s-26.167 25 -43.5 25
c-40.667 0 -84.334 -24.167 -131.001 -72.5s-94.334 -119.166 -143.001 -212.499s-96.667 -206 -144 -338l-82 -229h-131l180 606c30 98.667 45 158.667 45 180c0 20.667 -5.5 37.167 -16.5 49.5s-25.167 18.5 -42.5 18.5c-30 0 -60.667 -15.667 -92 -47
s-59.5 -68.666 -84.5 -111.999s-47.5 -89.333 -67.5 -138h-33c31.333 98.667 74.333 179.334 129 242.001s108.667 94 162 94c83.333 0 125 -60 125 -180c0 -27.333 -2.16699 -56.666 -6.5 -87.999s-9.5 -62.166 -15.5 -92.499s-9.66699 -50.166 -11 -59.499l57 112
c24 48 51.333 94.833 82 140.5s65 84.667 103 117s77 48.5 117 48.5c30.667 0 57.834 -9.5 81.501 -28.5s41.834 -46.333 54.501 -82s19 -76.834 19 -123.501s-7.5 -95.834 -22.5 -147.501s-41.5 -117.167 -79.5 -196.5c-48 -101.333 -72 -175 -72 -221
c0 -20 5.5 -35.833 16.5 -47.5s25.5 -17.5 43.5 -17.5c44.667 0 91.167 29.5 139.5 88.5s89.833 137.167 124.5 234.5zM1011 1253c-4 -73.333 -18.335 -125.666 -43.002 -156.999c-14 -18.667 -32.333 -34 -55 -46s-46 -18 -70 -18c-36.667 0 -78.334 13 -125.001 39l-59 33
c-61.333 34 -103.666 51 -126.999 51c-59.333 0 -92 -41 -98 -123h-35c0 67.333 16.333 121 49 161s76.334 60 131.001 60c42 0 106.333 -25.667 193 -77c34 -20 57.333 -32.667 70 -38s25.334 -8 38.001 -8c29.333 0 51.333 9.16699 66 27.5s26 50.166 34 95.499h31z" />
    <glyph glyph-name="ograve" unicode="&#xf2;" horiz-adv-x="918" 
d="M827 510c0 -67.333 -14.666 -133.33 -43.999 -197.997s-68.333 -121.834 -117 -171.501s-102 -88.834 -160 -117.501s-113.333 -43 -166 -43h-14c-53.333 2.66699 -102.833 21 -148.5 55s-81.5 79.333 -107.5 136s-39 118.334 -39 185.001c0 64 14 128.167 42 192.5
s65.833 122.166 113.5 173.499s100.667 91.666 159 120.999s117.166 44 176.499 44c57.333 0 109.333 -16.333 156 -49s83.167 -77.5 109.5 -134.5s39.5 -121.5 39.5 -193.5zM700.001 659.003c0 41.333 -7.16504 76.501 -21.498 105.501s-35.333 51.167 -63 66.5
s-60.834 23 -99.501 23c-54.667 0 -104.834 -24.167 -150.501 -72.5s-83.5 -107.666 -113.5 -177.999s-53.167 -143 -69.5 -218s-24.5 -135.167 -24.5 -180.5c0 -62.667 16.833 -110.5 50.5 -143.5s73.5 -49.5 119.5 -49.5h10c73.333 4.66699 137.5 45.667 192.5 123
s97 166.666 126 267.999s43.5 186.666 43.5 255.999zM700.003 1032h-39.001l-181 150c-26.667 22.667 -44.667 38.5 -54 47.5s-16.5 17.667 -21.5 26s-7.5 18.5 -7.5 30.5c0 18 5.83301 32.5 17.5 43.5s26.834 16.5 45.501 16.5c22.667 0 43 -8.5 61 -25.5
s39.333 -47.5 64 -91.5z" />
    <glyph glyph-name="oacute" unicode="&#xf3;" horiz-adv-x="918" 
d="M827 510c0 -67.333 -14.666 -133.33 -43.999 -197.997s-68.333 -121.834 -117 -171.501s-102 -88.834 -160 -117.501s-113.333 -43 -166 -43h-14c-53.333 2.66699 -102.833 21 -148.5 55s-81.5 79.333 -107.5 136s-39 118.334 -39 185.001c0 64 14 128.167 42 192.5
s65.833 122.166 113.5 173.499s100.667 91.666 159 120.999s117.166 44 176.499 44c57.333 0 109.333 -16.333 156 -49s83.167 -77.5 109.5 -134.5s39.5 -121.5 39.5 -193.5zM700.001 659.003c0 41.333 -7.16504 76.501 -21.498 105.501s-35.333 51.167 -63 66.5
s-60.834 23 -99.501 23c-54.667 0 -104.834 -24.167 -150.501 -72.5s-83.5 -107.666 -113.5 -177.999s-53.167 -143 -69.5 -218s-24.5 -135.167 -24.5 -180.5c0 -62.667 16.833 -110.5 50.5 -143.5s73.5 -49.5 119.5 -49.5h10c73.333 4.66699 137.5 45.667 192.5 123
s97 166.666 126 267.999s43.5 186.666 43.5 255.999zM854.003 1286c0 -16 -5.16699 -30.001 -15.5 -42.001s-33.166 -32.667 -68.499 -62l-182 -150h-39l115 197c26 44.667 48.167 75.334 66.5 92.001s38.5 25 60.5 25c17.333 0 32.166 -5.5 44.499 -16.5
s18.5 -25.5 18.5 -43.5z" />
    <glyph glyph-name="ocircumflex" unicode="&#xf4;" horiz-adv-x="918" 
d="M827 510c0 -67.333 -14.666 -133.33 -43.999 -197.997s-68.333 -121.834 -117 -171.501s-102 -88.834 -160 -117.501s-113.333 -43 -166 -43h-14c-53.333 2.66699 -102.833 21 -148.5 55s-81.5 79.333 -107.5 136s-39 118.334 -39 185.001c0 64 14 128.167 42 192.5
s65.833 122.166 113.5 173.499s100.667 91.666 159 120.999s117.166 44 176.499 44c57.333 0 109.333 -16.333 156 -49s83.167 -77.5 109.5 -134.5s39.5 -121.5 39.5 -193.5zM700.001 659.003c0 41.333 -7.16504 76.501 -21.498 105.501s-35.333 51.167 -63 66.5
s-60.834 23 -99.501 23c-54.667 0 -104.834 -24.167 -150.501 -72.5s-83.5 -107.666 -113.5 -177.999s-53.167 -143 -69.5 -218s-24.5 -135.167 -24.5 -180.5c0 -62.667 16.833 -110.5 50.5 -143.5s73.5 -49.5 119.5 -49.5h10c73.333 4.66699 137.5 45.667 192.5 123
s97 166.666 126 267.999s43.5 186.666 43.5 255.999zM801.003 1030h-39l-141 191l-326 -191h-51l342 297h127z" />
    <glyph glyph-name="otilde" unicode="&#xf5;" horiz-adv-x="918" 
d="M827 510c0 -67.333 -14.666 -133.33 -43.999 -197.997s-68.333 -121.834 -117 -171.501s-102 -88.834 -160 -117.501s-113.333 -43 -166 -43h-14c-53.333 2.66699 -102.833 21 -148.5 55s-81.5 79.333 -107.5 136s-39 118.334 -39 185.001c0 64 14 128.167 42 192.5
s65.833 122.166 113.5 173.499s100.667 91.666 159 120.999s117.166 44 176.499 44c57.333 0 109.333 -16.333 156 -49s83.167 -77.5 109.5 -134.5s39.5 -121.5 39.5 -193.5zM700.001 659.003c0 41.333 -7.16504 76.501 -21.498 105.501s-35.333 51.167 -63 66.5
s-60.834 23 -99.501 23c-54.667 0 -104.834 -24.167 -150.501 -72.5s-83.5 -107.666 -113.5 -177.999s-53.167 -143 -69.5 -218s-24.5 -135.167 -24.5 -180.5c0 -62.667 16.833 -110.5 50.5 -143.5s73.5 -49.5 119.5 -49.5h10c73.333 4.66699 137.5 45.667 192.5 123
s97 166.666 126 267.999s43.5 186.666 43.5 255.999zM895.003 1253c-4 -73.333 -18.335 -125.666 -43.002 -156.999c-14 -18.667 -32.333 -34 -55 -46s-46 -18 -70 -18c-36.667 0 -78.334 13 -125.001 39l-59 33c-61.333 34 -103.666 51 -126.999 51
c-59.333 0 -92 -41 -98 -123h-35c0 67.333 16.333 121 49 161s76.334 60 131.001 60c42 0 106.333 -25.667 193 -77c34 -20 57.333 -32.667 70 -38s25.334 -8 38.001 -8c29.333 0 51.333 9.16699 66 27.5s26 50.166 34 95.499h31z" />
    <glyph glyph-name="odieresis" unicode="&#xf6;" horiz-adv-x="918" 
d="M827 510c0 -67.333 -14.666 -133.33 -43.999 -197.997s-68.333 -121.834 -117 -171.501s-102 -88.834 -160 -117.501s-113.333 -43 -166 -43h-14c-53.333 2.66699 -102.833 21 -148.5 55s-81.5 79.333 -107.5 136s-39 118.334 -39 185.001c0 64 14 128.167 42 192.5
s65.833 122.166 113.5 173.499s100.667 91.666 159 120.999s117.166 44 176.499 44c57.333 0 109.333 -16.333 156 -49s83.167 -77.5 109.5 -134.5s39.5 -121.5 39.5 -193.5zM700.001 659.003c0 41.333 -7.16504 76.501 -21.498 105.501s-35.333 51.167 -63 66.5
s-60.834 23 -99.501 23c-54.667 0 -104.834 -24.167 -150.501 -72.5s-83.5 -107.666 -113.5 -177.999s-53.167 -143 -69.5 -218s-24.5 -135.167 -24.5 -180.5c0 -62.667 16.833 -110.5 50.5 -143.5s73.5 -49.5 119.5 -49.5h10c73.333 4.66699 137.5 45.667 192.5 123
s97 166.666 126 267.999s43.5 186.666 43.5 255.999zM864.003 1114c0 -22 -7.49902 -40.833 -22.499 -56.5s-32.5 -23.5 -52.5 -23.5c-22.667 0 -42.334 8 -59.001 24s-25 34.667 -25 56c0 23.333 8.16699 42.5 24.5 57.5s35.5 22.5 57.5 22.5s40.333 -7.66699 55 -23
s22 -34.333 22 -57zM500.004 1114c0 -21.333 -7.66797 -40 -23.001 -56s-33.666 -24 -54.999 -24c-22 0 -41.167 7.83301 -57.5 23.5s-24.5 34.5 -24.5 56.5s7.5 40.833 22.5 56.5s33.5 23.5 55.5 23.5c22.667 0 42 -7.66699 58 -23s24 -34.333 24 -57z" />
    <glyph glyph-name="divide" unicode="&#xf7;" horiz-adv-x="1368" 
d="M741 1069c0 -17.333 -5.83301 -31.833 -17.5 -43.5s-25.5 -17.5 -41.5 -17.5c-17.333 0 -32.333 6 -45 18s-19 27.667 -19 47v2c0 15.333 6.33301 28.333 19 39s27.667 16 45 16c16.667 0 30.667 -5.66699 42 -17s17 -26 17 -44zM1221 612h-1074v86h1074v-86zM741 242
c0 -17.333 -5.66699 -32.001 -17 -44.001s-25.333 -18 -42 -18c-17.333 0 -32.333 6.33301 -45 19s-19 28.334 -19 47.001v2c0 15.333 6.33301 28.333 19 39s27.667 16 45 16c16 0 29.833 -5.83301 41.5 -17.5s17.5 -26.167 17.5 -43.5z" />
    <glyph glyph-name="oslash" unicode="&#xf8;" horiz-adv-x="918" 
d="M856 893l-108 -124.995c52.667 -68 79 -154 79 -258c0 -67.333 -14.667 -133.333 -44 -198s-68.333 -121.834 -117 -171.501s-102 -88.834 -160 -117.501s-113.333 -43 -166 -43h-14c-75.333 4 -137.666 33.333 -186.999 88l-98 -113l-29 25l103 118
c-56 66.667 -84 152.667 -84 258c0 64 14 128.167 42 192.5s65.833 122.166 113.5 173.499s100.667 91.666 159 120.999s117.166 44 176.499 44c39.333 0 76.333 -7.83301 111 -23.5s64.667 -37.834 90 -66.501l104 121zM684 752.005
c-29.333 68 -85.332 101.999 -167.999 101.999c-54.667 0 -104.834 -24.167 -150.501 -72.5s-83.5 -107.666 -113.5 -177.999s-53.167 -143 -69.5 -218s-24.5 -135.167 -24.5 -180.5c0 -18 2 -35 6 -51zM700.001 659.004c0 10.667 -1.33301 27.332 -4 49.999l-520 -598
c14.667 -33.333 35.5 -58.166 62.5 -74.499s56.833 -24.5 89.5 -24.5h10c56.667 4 107.834 29.667 153.501 77s83.667 105.666 114 174.999s53.666 139.833 69.999 211.5s24.5 132.834 24.5 183.501z" />
    <glyph glyph-name="ugrave" unicode="&#xf9;" horiz-adv-x="1153" 
d="M1083 336c-37.333 -113.333 -81.665 -200.665 -132.998 -261.998s-106 -92 -164 -92c-34.667 0 -62.334 15 -83.001 45s-31 70 -31 120c0 42.667 8 114.334 24 215.001c2 12 3.33301 20.167 4 24.5l2 13c0.666992 4.33301 1.66699 10.5 3 18.5
c-51.333 -126 -105 -231 -161 -315s-118 -126 -186 -126c-50 0 -91.5 23.5 -124.5 70.5s-49.5 104.833 -49.5 173.5c0 43.333 8 91.166 24 143.499s43.667 118.5 83 198.5c49.333 101.333 74 173.666 74 216.999c0 20 -5.33301 36 -16 48s-26 18 -46 18
c-50 0 -98.667 -29.5 -146 -88.5s-84.666 -137.5 -111.999 -235.5l-31 -2c18 66 34.167 115.667 48.5 149s35.833 67.666 64.5 102.999c24.667 30.667 53.667 57.167 87 79.5s67.666 33.5 102.999 33.5c45.333 0 81.333 -18.333 108 -55s40 -83.334 40 -140.001
c0 -46.667 -8.66699 -99 -26 -157s-45 -127 -83 -207c-26 -57.333 -44.333 -101.666 -55 -132.999s-16 -58 -16 -80c0 -30 6.66699 -53.667 20 -71s31.666 -26 54.999 -26c39.333 0 79 20 119 60c49.333 50 92.666 113.667 129.999 191s80.666 190.333 129.999 339l88 266
h140l-170 -585c-12 -42 -22.167 -82.333 -30.5 -121s-12.5 -65.334 -12.5 -80.001c0 -19.333 4.83301 -35.166 14.5 -47.499s22.5 -18.5 38.5 -18.5c40.667 0 83.334 29 128.001 87s83.334 134.333 116.001 229h32zM735.001 1032h-39.001l-181 150
c-26.667 22.667 -44.667 38.5 -54 47.5s-16.5 17.667 -21.5 26s-7.5 18.5 -7.5 30.5c0 18 5.83301 32.5 17.5 43.5s26.834 16.5 45.501 16.5c22.667 0 43 -8.5 61 -25.5s39.333 -47.5 64 -91.5z" />
    <glyph glyph-name="uacute" unicode="&#xfa;" horiz-adv-x="1153" 
d="M1083 336c-37.333 -113.333 -81.665 -200.665 -132.998 -261.998s-106 -92 -164 -92c-34.667 0 -62.334 15 -83.001 45s-31 70 -31 120c0 42.667 8 114.334 24 215.001c2 12 3.33301 20.167 4 24.5l2 13c0.666992 4.33301 1.66699 10.5 3 18.5
c-51.333 -126 -105 -231 -161 -315s-118 -126 -186 -126c-50 0 -91.5 23.5 -124.5 70.5s-49.5 104.833 -49.5 173.5c0 43.333 8 91.166 24 143.499s43.667 118.5 83 198.5c49.333 101.333 74 173.666 74 216.999c0 20 -5.33301 36 -16 48s-26 18 -46 18
c-50 0 -98.667 -29.5 -146 -88.5s-84.666 -137.5 -111.999 -235.5l-31 -2c18 66 34.167 115.667 48.5 149s35.833 67.666 64.5 102.999c24.667 30.667 53.667 57.167 87 79.5s67.666 33.5 102.999 33.5c45.333 0 81.333 -18.333 108 -55s40 -83.334 40 -140.001
c0 -46.667 -8.66699 -99 -26 -157s-45 -127 -83 -207c-26 -57.333 -44.333 -101.666 -55 -132.999s-16 -58 -16 -80c0 -30 6.66699 -53.667 20 -71s31.666 -26 54.999 -26c39.333 0 79 20 119 60c49.333 50 92.666 113.667 129.999 191s80.666 190.333 129.999 339l88 266
h140l-170 -585c-12 -42 -22.167 -82.333 -30.5 -121s-12.5 -65.334 -12.5 -80.001c0 -19.333 4.83301 -35.166 14.5 -47.499s22.5 -18.5 38.5 -18.5c40.667 0 83.334 29 128.001 87s83.334 134.333 116.001 229h32zM971.001 1286c0 -16 -5.16699 -30.001 -15.5 -42.001
s-33.166 -32.667 -68.499 -62l-182 -150h-39l115 197c26 44.667 48.167 75.334 66.5 92.001s38.5 25 60.5 25c17.333 0 32.166 -5.5 44.499 -16.5s18.5 -25.5 18.5 -43.5z" />
    <glyph glyph-name="ucircumflex" unicode="&#xfb;" horiz-adv-x="1153" 
d="M1083 336c-37.333 -113.333 -81.665 -200.665 -132.998 -261.998s-106 -92 -164 -92c-34.667 0 -62.334 15 -83.001 45s-31 70 -31 120c0 42.667 8 114.334 24 215.001c2 12 3.33301 20.167 4 24.5l2 13c0.666992 4.33301 1.66699 10.5 3 18.5
c-51.333 -126 -105 -231 -161 -315s-118 -126 -186 -126c-50 0 -91.5 23.5 -124.5 70.5s-49.5 104.833 -49.5 173.5c0 43.333 8 91.166 24 143.499s43.667 118.5 83 198.5c49.333 101.333 74 173.666 74 216.999c0 20 -5.33301 36 -16 48s-26 18 -46 18
c-50 0 -98.667 -29.5 -146 -88.5s-84.666 -137.5 -111.999 -235.5l-31 -2c18 66 34.167 115.667 48.5 149s35.833 67.666 64.5 102.999c24.667 30.667 53.667 57.167 87 79.5s67.666 33.5 102.999 33.5c45.333 0 81.333 -18.333 108 -55s40 -83.334 40 -140.001
c0 -46.667 -8.66699 -99 -26 -157s-45 -127 -83 -207c-26 -57.333 -44.333 -101.666 -55 -132.999s-16 -58 -16 -80c0 -30 6.66699 -53.667 20 -71s31.666 -26 54.999 -26c39.333 0 79 20 119 60c49.333 50 92.666 113.667 129.999 191s80.666 190.333 129.999 339l88 266
h140l-170 -585c-12 -42 -22.167 -82.333 -30.5 -121s-12.5 -65.334 -12.5 -80.001c0 -19.333 4.83301 -35.166 14.5 -47.499s22.5 -18.5 38.5 -18.5c40.667 0 83.334 29 128.001 87s83.334 134.333 116.001 229h32zM999.001 1030h-39l-141 191l-326 -191h-51l342 297h127z
" />
    <glyph glyph-name="udieresis" unicode="&#xfc;" horiz-adv-x="1153" 
d="M1083 336c-37.333 -113.333 -81.665 -200.665 -132.998 -261.998s-106 -92 -164 -92c-34.667 0 -62.334 15 -83.001 45s-31 70 -31 120c0 42.667 8 114.334 24 215.001c2 12 3.33301 20.167 4 24.5l2 13c0.666992 4.33301 1.66699 10.5 3 18.5
c-51.333 -126 -105 -231 -161 -315s-118 -126 -186 -126c-50 0 -91.5 23.5 -124.5 70.5s-49.5 104.833 -49.5 173.5c0 43.333 8 91.166 24 143.499s43.667 118.5 83 198.5c49.333 101.333 74 173.666 74 216.999c0 20 -5.33301 36 -16 48s-26 18 -46 18
c-50 0 -98.667 -29.5 -146 -88.5s-84.666 -137.5 -111.999 -235.5l-31 -2c18 66 34.167 115.667 48.5 149s35.833 67.666 64.5 102.999c24.667 30.667 53.667 57.167 87 79.5s67.666 33.5 102.999 33.5c45.333 0 81.333 -18.333 108 -55s40 -83.334 40 -140.001
c0 -46.667 -8.66699 -99 -26 -157s-45 -127 -83 -207c-26 -57.333 -44.333 -101.666 -55 -132.999s-16 -58 -16 -80c0 -30 6.66699 -53.667 20 -71s31.666 -26 54.999 -26c39.333 0 79 20 119 60c49.333 50 92.666 113.667 129.999 191s80.666 190.333 129.999 339l88 266
h140l-170 -585c-12 -42 -22.167 -82.333 -30.5 -121s-12.5 -65.334 -12.5 -80.001c0 -19.333 4.83301 -35.166 14.5 -47.499s22.5 -18.5 38.5 -18.5c40.667 0 83.334 29 128.001 87s83.334 134.333 116.001 229h32zM981.001 1114c0 -22 -7.49902 -40.833 -22.499 -56.5
s-32.5 -23.5 -52.5 -23.5c-22.667 0 -42.334 8 -59.001 24s-25 34.667 -25 56c0 23.333 8.16699 42.5 24.5 57.5s35.5 22.5 57.5 22.5s40.333 -7.66699 55 -23s22 -34.333 22 -57zM617.002 1114c0 -21.333 -7.66797 -40 -23.001 -56s-33.666 -24 -54.999 -24
c-22 0 -41.167 7.83301 -57.5 23.5s-24.5 34.5 -24.5 56.5s7.5 40.833 22.5 56.5s33.5 23.5 55.5 23.5c22.667 0 42 -7.66699 58 -23s24 -34.333 24 -57z" />
    <glyph glyph-name="yacute" unicode="&#xfd;" 
d="M987 872l-208.995 -715.997c-32.667 -117.333 -70.167 -217.833 -112.5 -301.5s-88.833 -149.167 -139.5 -196.5c-26.667 -26 -56.834 -48.833 -90.501 -68.5s-67.5 -35 -101.5 -46s-66 -16.5 -96 -16.5c-40 0 -76.333 7.5 -109 22.5s-58.167 35.667 -76.5 62
s-27.5 55.5 -27.5 87.5c0 35.333 9.33301 65 28 89s42 36 70 36c25.333 0 46.333 -8.83301 63 -26.5s25 -38.834 25 -63.501c0 -46.667 -21.333 -81.667 -64 -105c-16 -8.66699 -24 -16.667 -24 -24c0 -12 11.333 -22.5 34 -31.5s46 -13.5 70 -13.5
c56 0 104.667 15.167 146 45.5s75.833 70.333 103.5 120s53.334 110.167 77.001 181.5s46.167 147.333 67.5 228l28 107l-39 -64c-36.667 -60.667 -80.334 -108.834 -131.001 -144.501s-99.667 -53.5 -147 -53.5c-50.667 0 -90.334 19.833 -119.001 59.5
s-43 94.834 -43 165.501c0 37.333 7.66699 80.166 23 128.499s41.666 113.833 78.999 196.5c57.333 124 86 208.667 86 254c0 17.333 -4.66699 31 -14 41s-21.666 15 -36.999 15c-36.667 0 -78.334 -30 -125.001 -90s-88.334 -137.333 -125.001 -232h-32
c36.667 108.667 83.334 196 140.001 262s113 99 169 99c39.333 0 70 -16.667 92 -50s33 -79.666 33 -138.999c0 -48.667 -9.33301 -103.167 -28 -163.5s-48.334 -133.5 -89.001 -219.5c-50.667 -103.333 -76 -174.333 -76 -213c0 -54.667 24 -82 72 -82
c22 0 49.167 8.16699 81.5 24.5s60.5 36.166 84.5 59.499c25.333 24.667 49.166 53.667 71.499 87s42 67.5 59 102.5s35.833 80.167 56.5 135.5s41 113.666 61 174.999l35 98.5c20 56.333 32 90.5 36 102.5l27 75h137zM918.005 1286c0 -16 -5.16699 -30.001 -15.5 -42.001
s-33.166 -32.667 -68.499 -62l-182 -150h-39l115 197c26 44.667 48.167 75.334 66.5 92.001s38.5 25 60.5 25c17.333 0 32.166 -5.5 44.499 -16.5s18.5 -25.5 18.5 -43.5z" />
    <glyph glyph-name="thorn" unicode="&#xfe;" horiz-adv-x="918" 
d="M809 516c0 -63.333 -12.168 -127.171 -36.501 -191.504s-57.666 -122.666 -99.999 -174.999s-89 -93.666 -140 -123.999s-102.833 -45.5 -155.5 -45.5c-53.333 0 -95.5 16 -126.5 48s-55.167 83.333 -72.5 154l-141 -483c-5.33301 -20.667 -8 -42.667 -8 -66
c0 -17.333 6.66699 -30.833 20 -40.5s32.333 -14.5 57 -14.5h125l-8 -31h-573l10 31h82c38.667 0 69.167 10 91.5 30s40.166 53.667 53.499 101l437 1524c5.33301 18 8 38.333 8 61c0 16.667 -6.33301 29.834 -19 39.501s-31 14.5 -55 14.5h-113l7 32
c130.667 0 218.667 5 264 15c33.333 6.66699 51 10 53 10h45l-231 -801c48.667 94.667 91 165.167 127 211.5s87.667 69.5 155 69.5c44.667 0 85.834 -16.5 123.501 -49.5s67.167 -77.667 88.5 -134s32 -118.166 32 -185.499zM689.999 691.995
c0 46 -10.499 84.1641 -31.499 114.497s-50.833 45.5 -89.5 45.5h-2c-23.333 0 -46.5 -5.66699 -69.5 -17s-44.167 -27.666 -63.5 -48.999c-56 -61.333 -107.167 -150.666 -153.5 -267.999s-69.5 -213.666 -69.5 -288.999c0 -63.333 14.167 -115.333 42.5 -156
s63.833 -61 106.5 -61c53.333 0 101.333 29.167 144 87.5s77.667 128.833 105 211.5s47.666 160 60.999 232s20 121.667 20 149z" />
    <glyph glyph-name="ydieresis" unicode="&#xff;" 
d="M987 872l-208.995 -715.997c-32.667 -117.333 -70.167 -217.833 -112.5 -301.5s-88.833 -149.167 -139.5 -196.5c-26.667 -26 -56.834 -48.833 -90.501 -68.5s-67.5 -35 -101.5 -46s-66 -16.5 -96 -16.5c-40 0 -76.333 7.5 -109 22.5s-58.167 35.667 -76.5 62
s-27.5 55.5 -27.5 87.5c0 35.333 9.33301 65 28 89s42 36 70 36c25.333 0 46.333 -8.83301 63 -26.5s25 -38.834 25 -63.501c0 -46.667 -21.333 -81.667 -64 -105c-16 -8.66699 -24 -16.667 -24 -24c0 -12 11.333 -22.5 34 -31.5s46 -13.5 70 -13.5
c56 0 104.667 15.167 146 45.5s75.833 70.333 103.5 120s53.334 110.167 77.001 181.5s46.167 147.333 67.5 228l28 107l-39 -64c-36.667 -60.667 -80.334 -108.834 -131.001 -144.501s-99.667 -53.5 -147 -53.5c-50.667 0 -90.334 19.833 -119.001 59.5
s-43 94.834 -43 165.501c0 37.333 7.66699 80.166 23 128.499s41.666 113.833 78.999 196.5c57.333 124 86 208.667 86 254c0 17.333 -4.66699 31 -14 41s-21.666 15 -36.999 15c-36.667 0 -78.334 -30 -125.001 -90s-88.334 -137.333 -125.001 -232h-32
c36.667 108.667 83.334 196 140.001 262s113 99 169 99c39.333 0 70 -16.667 92 -50s33 -79.666 33 -138.999c0 -48.667 -9.33301 -103.167 -28 -163.5s-48.334 -133.5 -89.001 -219.5c-50.667 -103.333 -76 -174.333 -76 -213c0 -54.667 24 -82 72 -82
c22 0 49.167 8.16699 81.5 24.5s60.5 36.166 84.5 59.499c25.333 24.667 49.166 53.667 71.499 87s42 67.5 59 102.5s35.833 80.167 56.5 135.5s41 113.666 61 174.999l35 98.5c20 56.333 32 90.5 36 102.5l27 75h137zM958.005 1114c0 -22 -7.49902 -40.833 -22.499 -56.5
s-32.5 -23.5 -52.5 -23.5c-22.667 0 -42.334 8 -59.001 24s-25 34.667 -25 56c0 23.333 8.16699 42.5 24.5 57.5s35.5 22.5 57.5 22.5s40.333 -7.66699 55 -23s22 -34.333 22 -57zM594.006 1114c0 -21.333 -7.66797 -40 -23.001 -56s-33.666 -24 -54.999 -24
c-22 0 -41.167 7.83301 -57.5 23.5s-24.5 34.5 -24.5 56.5s7.5 40.833 22.5 56.5s33.5 23.5 55.5 23.5c22.667 0 42 -7.66699 58 -23s24 -34.333 24 -57z" />
    <glyph glyph-name="dotlessi" unicode="&#x131;" horiz-adv-x="682" 
d="M586 367c-32.667 -117.333 -77.1699 -211.167 -133.503 -281.5s-114.166 -105.5 -173.499 -105.5c-40 0 -71.167 17 -93.5 51s-33.5 80.333 -33.5 139c0 93.333 40 225 120 395c48 104.667 72 175.667 72 213c0 45.333 -19.667 68 -59 68
c-72.667 0 -148 -103.667 -226 -311h-30c20.667 60 35.834 101 45.501 123s25.834 52.667 48.501 92c53.333 88.667 110 133 170 133c44 0 78.5 -17.333 103.5 -52s37.5 -83 37.5 -145c0 -30 -3.5 -62.333 -10.5 -97s-18.167 -73.667 -33.5 -117s-34.666 -92 -57.999 -146
c-52 -122.667 -78 -206 -78 -250c0 -16.667 4.16699 -30.5 12.5 -41.5s19.166 -16.5 32.499 -16.5c42 0 85.5 30.333 130.5 91s87.5 146.667 127.5 258h29z" />
    <glyph glyph-name="Lslash" unicode="&#x141;" horiz-adv-x="1300" 
d="M1233 580l-174.003 -580h-1137l8 31h127c70 0 114.333 33.333 133 100l140 487l-334 -135l20 49l326 134l162 567c5.33301 18 8 37.667 8 59c0 37.333 -38.333 56 -115 56h-104l6 32h698l-10 -32h-166c-30 0 -55.667 -8.33301 -77 -25s-36.666 -40.667 -45.999 -72
l-139 -497l395 159l-20 -49l-387 -157l-170 -601c-2.66699 -8 -4 -19.333 -4 -34c0 -23.333 21 -35 63 -35h156c82 0 167 26 255 78s160 118 216 198c22.667 32.667 44.834 70.5 66.501 113.5s45.834 94.167 72.501 153.5h31z" />
    <glyph glyph-name="lslash" unicode="&#x142;" horiz-adv-x="575" 
d="M549 961l-27 -72l-160 -127l-172 -602c-9.33301 -36 -14 -63.333 -14 -82c0 -40 15.667 -60 47 -60c42.667 0 86 34.5 130 103.5s77.333 154.167 100 255.5h30c-16 -78.667 -38.5 -148 -67.5 -208s-61.833 -106.5 -98.5 -139.5s-74 -49.5 -112 -49.5
c-41.333 0 -73.5 17.333 -96.5 52s-34.5 82.667 -34.5 144c0 60 9.33301 124.333 28 193l70 243l-141 -112l24 69l135 107l156 551c5.33301 18 8 38.333 8 61c0 22 -9.66699 37.833 -29 47.5s-58 14.5 -116 14.5h-68l11 30h110c64 0 150 9 258 27h27l-166 -580z" />
    <glyph glyph-name="OE" unicode="&#x152;" horiz-adv-x="2028" 
d="M2023 1380l-149.002 -526h-31c19.333 77.333 29 137.333 29 180c0 58.667 -11.667 112.334 -35 161.001s-56.166 86.667 -98.499 114s-88.833 41 -139.5 41h-192c-26 0 -43.333 -6.5 -52 -19.5s-20.667 -45.5 -36 -97.5l-141 -500h47c84.667 0 153.167 20.833 205.5 62.5
s90.833 88.5 115.5 140.5s44.667 105.333 60 160h32l-241 -846h-33l10 39c26 98.667 39 173 39 223c0 125.333 -58.667 188 -176 188h-70l-161 -573c-7.33301 -26 -11 -45.667 -11 -59c0 -23.333 26.667 -35 80 -35c104 0 183.333 4.66699 238 14
c34.667 5.33301 69.5 15.666 104.5 30.999s70.833 35.333 107.5 60s69 51 97 79c57.333 58.667 101.333 119 132 181s55 122 73 180h35l-164 -578h-975c-10.667 -0 -24.667 -0.666992 -42 -2s-33.333 -2.66602 -48 -3.99902c-30.667 -4 -61.334 -6 -92.001 -6
c-77.333 0 -147.5 23 -210.5 69s-112 109.167 -147 189.5s-52.5 170.166 -52.5 269.499c0 58.667 3.83301 113.167 11.5 163.5s20.334 100 38.001 149s40.834 95.167 69.501 138.5c76.667 113.333 174.667 212.666 294 297.999s237.666 128 354.999 128
c65.333 0 127.333 -2.33301 186 -7c41.333 -1.33301 77.333 -2.66602 108 -3.99902s56.334 -2 77.001 -2h753zM1092 1155c0 59.333 -15.666 108.333 -46.999 147s-80.666 58 -147.999 58c-95.333 0 -182 -39 -260 -117c-66.667 -68.667 -126.334 -159 -179.001 -271
s-94.334 -229.333 -125.001 -352s-46 -231 -46 -325c0 -92 24.667 -160 74 -204s103 -66 161 -66c60 0 113.5 16.5 160.5 49.5s91.167 85.167 132.5 156.5c22.667 38.667 40.667 74.667 54 108s25.5 68.166 36.5 104.499s21.833 74.333 32.5 114s21.667 77.167 33 112.5
c22 66.667 47.667 153.334 77 260.001s44 181.667 44 225z" />
    <glyph glyph-name="oe" unicode="&#x153;" horiz-adv-x="1386" 
d="M1282 309c-24 -54.667 -45.166 -96.1699 -63.499 -124.503s-42.833 -57.833 -73.5 -88.5c-75.333 -77.333 -160.666 -116 -255.999 -116c-62.667 0 -114 19 -154 57s-68 94 -84 168c-98 -150 -205.667 -225 -323 -225c-50.667 0 -98.334 15.833 -143.001 47.5
s-80.167 74.334 -106.5 128.001s-39.5 112.5 -39.5 176.5c0 61.333 15 124.166 45 188.499s70.5 124 121.5 179s106.5 99 166.5 132s118.333 49.5 175 49.5c130.667 0 207.667 -82.667 231 -248c125.333 166.667 237.333 250 336 250c42 0 76.333 -14.333 103 -43
s40 -65.667 40 -111c0 -65.333 -18.833 -122.666 -56.5 -171.999s-92.834 -89.666 -165.501 -120.999s-163 -53.666 -271 -66.999c-19.333 -56.667 -29 -110 -29 -160c0 -63.333 13.5 -112.333 40.5 -147s65.5 -52 115.5 -52c72.667 0 140 26.5 202 79.5
s112.667 126.167 152 219.5h37zM1202 753.997c0 30.667 -7.66602 54.667 -22.999 72s-36.333 26 -63 26c-20 0 -44.833 -7 -74.5 -21s-53.834 -30.333 -72.501 -49c-38.667 -37.333 -73 -86.333 -103 -147s-59.333 -138.667 -88 -234c80 12.667 152.167 36.5 216.5 71.5
s115 77.333 152 127s55.5 101.167 55.5 154.5zM692.002 691.997c0 48.667 -13.167 87.499 -39.5 116.499s-61.5 43.5 -105.5 43.5c-65.333 0 -122 -28.5 -170 -85.5s-87 -125.833 -117 -206.5s-52.5 -157.167 -67.5 -229.5s-22.5 -120.5 -22.5 -144.5
c0 -47.333 12.667 -88.166 38 -122.499s61.666 -51.5 108.999 -51.5h5c110.667 2 197.334 84.667 260.001 248c29.333 74.667 55 155 77 241s33 149.667 33 191z" />
    <glyph glyph-name="Scaron" unicode="&#x160;" horiz-adv-x="1194" 
d="M1202 1401l-149 -633.001h-33c14.667 76.667 22 141.667 22 195c0 60.667 -7.33301 116.167 -22 166.5s-35.834 93.333 -63.501 129s-61.667 63.167 -102 82.5s-84.833 29 -133.5 29c-51.333 0 -98 -11.333 -140 -34s-75.333 -53.667 -100 -93s-37 -81.666 -37 -126.999
c0 -40.667 12 -78.667 36 -114s54.333 -66.833 91 -94.5s79.667 -57.167 129 -88.5c49.333 -30.667 95 -61.167 137 -91.5s78.333 -61.666 109 -93.999s55.5 -69.333 74.5 -111s28.5 -87.5 28.5 -137.5c0 -72 -19 -140.167 -57 -204.5s-88.5 -115.666 -151.5 -153.999
s-130.167 -57.5 -201.5 -57.5c-56 0 -112.667 12.833 -170 38.5s-110 61.5 -158 107.5c-19.333 19.333 -34.5 33 -45.5 41s-24.5 12 -40.5 12c-26.667 0 -55.667 -17.667 -87 -53s-61.666 -84 -90.999 -146l-29 -2l197 699h33c-12.667 -74 -19 -133.667 -19 -179
c0 -68.667 9.5 -132.334 28.5 -191.001s47.167 -110.334 84.5 -155.001s81 -78.667 131 -102s104 -35 162 -35c84 0 155.167 24.667 213.5 74s87.5 109.333 87.5 180c0 50 -10 92.667 -30 128s-48 67.666 -84 96.999s-88.667 67 -158 113
c-68.667 46 -114.334 77.167 -137.001 93.5s-44.667 35.833 -66 58.5c-42 42 -72.333 84 -91 126s-28 88 -28 138c0 69.333 17 134.333 51 195s80 108.5 138 143.5s121.333 52.5 190 52.5c94.667 0 175.334 -32 242.001 -96c36 -37.333 64.667 -56 86 -56
c24 0 45.833 11.833 65.5 35.5s39.5 61.834 59.5 114.501h28zM1182 1837l-345 -297h-124l-91 297h41l142 -190l323 190h54z" />
    <glyph glyph-name="scaron" unicode="&#x161;" horiz-adv-x="811" 
d="M713 686c0 -30 -8.50195 -56.001 -25.502 -78.001s-37.833 -33 -62.5 -33c-18.667 0 -35 7.83301 -49 23.5s-21 34.5 -21 56.5c0 33.333 19.667 62 59 86c16.667 11.333 25 21 25 29c0 22.667 -17 43.334 -51 62.001s-72.333 28 -115 28
c-51.333 0 -96.5 -15.667 -135.5 -47s-58.5 -67.333 -58.5 -108c0 -34 10.167 -62.333 30.5 -85s57.833 -47.667 112.5 -75c61.333 -28 113.166 -62.5 155.499 -103.5s63.5 -94.5 63.5 -160.5c0 -56 -14.833 -106.833 -44.5 -152.5s-70.5 -81.834 -122.5 -108.501
s-108.333 -40 -169 -40c-78 0 -145.667 24 -203 72s-86 105.667 -86 173c0 42.667 10.167 79.334 30.5 110.001s45.166 46 74.499 46c22.667 0 40.334 -7.5 53.001 -22.5s19 -35.5 19 -61.5c0 -54.667 -29 -89.334 -87 -104.001
c-13.333 -2.66699 -22.666 -6.5 -27.999 -11.5s-8 -12.167 -8 -21.5c0 -34.667 24.333 -67.667 73 -99s100.667 -47 156 -47c48 0 91.5 8.16699 130.5 24.5s69.333 39 91 68s32.5 61.167 32.5 96.5c0 38 -12.667 68.667 -38 92s-65.333 50 -120 80
c-25.333 13.333 -45.666 24.833 -60.999 34.5s-28.666 19 -39.999 28s-21.333 17.5 -30 25.5c-43.333 47.333 -65 100.666 -65 159.999c0 47.333 13 91.833 39 133.5s60.333 74.834 103 99.501s88 37 136 37c68 0 124.333 -19.667 169 -59s67 -88.666 67 -147.999z
M898.998 1329l-345 -297h-124l-91 297h41l142 -190l323 190h54z" />
    <glyph glyph-name="Ydieresis" unicode="&#x178;" horiz-adv-x="1386" 
d="M1520 1380l-9 -31.998c-38.667 -1.33301 -74 -10.333 -106 -27c-36.667 -18.667 -73.167 -45.334 -109.5 -80.001s-79.833 -85 -130.5 -151l-352 -467l-131 -469c-5.33301 -18.667 -8 -38 -8 -58c0 -43.333 25.333 -65 76 -65h139l-12 -31h-687l9 31h149
c72.667 0 119 36 139 108l146 506l-166 580c-13.333 45.333 -31 77.166 -53 95.499s-54.333 27.5 -97 27.5h-106l10 32h639l-10 -32h-96c-74 0 -111 -17.333 -111 -52c0 -19.333 2.66699 -38.333 8 -57l162 -565l303 405c50.667 68.667 76 124.667 76 168
c0 32.667 -12.5 57.667 -37.5 75s-61.833 26 -110.5 26h-40l10 32h506zM1210 1622c0 -22 -7.49902 -40.833 -22.499 -56.5s-32.5 -23.5 -52.5 -23.5c-22.667 0 -42.334 8 -59.001 24s-25 34.667 -25 56c0 23.333 8.16699 42.5 24.5 57.5s35.5 22.5 57.5 22.5
s40.333 -7.66699 55 -23s22 -34.333 22 -57zM846.001 1622c0 -21.333 -7.66797 -40 -23.001 -56s-33.666 -24 -54.999 -24c-22 0 -41.167 7.83301 -57.5 23.5s-24.5 34.5 -24.5 56.5s7.5 40.833 22.5 56.5s33.5 23.5 55.5 23.5c22.667 0 42 -7.66699 58 -23
s24 -34.333 24 -57z" />
    <glyph glyph-name="Zcaron" unicode="&#x17d;" horiz-adv-x="1343" 
d="M1333 1362l-1052 -1327h266c202 0 354.333 64.167 457 192.5s179 262.833 229 403.5l33 2l-183 -633h-1052v14l1059 1334h-189c-44 0 -91.333 -8.83301 -142 -26.5s-97.667 -41.167 -141 -70.5c-46.667 -31.333 -89.667 -69.166 -129 -113.499
s-74.833 -94.166 -106.5 -149.499s-60.167 -113 -85.5 -173l-31 -2l176 567h891v-18zM1288 1837l-345 -297h-124l-91 297h41l142 -190l323 190h54z" />
    <glyph glyph-name="zcaron" unicode="&#x17e;" horiz-adv-x="811" 
d="M719 313c-42 -133.333 -91.3291 -222.169 -147.996 -266.502s-102.334 -66.5 -137.001 -66.5c-26 0 -50.167 6.33301 -72.5 19s-48.5 35.667 -78.5 69c-26.667 29.333 -48.834 49.5 -66.501 60.5s-37.834 16.5 -60.501 16.5c-23.333 0 -42.166 -5.83301 -56.499 -17.5
s-21.5 -26.834 -21.5 -45.501c0 0.666992 2.33301 -7.5 7 -24.5s7 -28.5 7 -34.5c0 -28.667 -13 -43 -39 -43c-11.333 0 -20.666 5.83301 -27.999 17.5s-11 26.834 -11 45.501c0 42 15.833 86 47.5 132s72.834 92.833 123.501 140.5s125.667 112.5 225 194.5
c56.667 48 98.667 85.167 126 111.5s51.333 56.166 72 89.499c-2.66699 0 -4.83398 -0.5 -6.50098 -1.5s-4.83398 -1.83301 -9.50098 -2.5c-25.333 -11.333 -50 -17 -74 -17c-14 0 -47.333 5.66699 -100 17c-64 14.667 -112.667 22 -146 22
c-50.667 0 -91.334 -10.667 -122.001 -32s-62.334 -60.333 -95.001 -117h-26c29.333 86 71.333 157.333 126 214s109.334 85 164.001 85c42.667 0 87.334 -28.667 134.001 -86c22 -26 40 -43.833 54 -53.5s28 -14.5 42 -14.5c18.667 0 34.834 5.83301 48.501 17.5
s20.5 24.834 20.5 39.501c0 6 -1.66699 17 -5 33s-5 23.667 -5 23c0 10.667 3.5 19.834 10.5 27.501s15.833 11.5 26.5 11.5c24.667 0 37 -18 37 -54c0 -44 -14.333 -87.5 -43 -130.5s-67.334 -87.167 -116.001 -132.5s-115.667 -103.666 -201 -174.999
c-74.667 -62 -125 -105.5 -151 -130.5s-50.333 -54.5 -73 -88.5c35.333 12 63.333 18 84 18c14.667 0 42 -4.66699 82 -14c71.333 -19.333 128.666 -29 171.999 -29c123.333 0 206.666 57.333 249.999 172h33zM838.004 1329l-345 -297h-124l-91 297h41l142 -190l323 190h54z
" />
    <glyph glyph-name="florin" unicode="&#x192;" horiz-adv-x="999" 
d="M956 1274c0 -21.333 -6.33496 -39.3359 -19.002 -54.0029s-28.667 -22 -48 -22c-16 0 -30.667 5.83301 -44 17.5s-20 24.834 -20 39.501c0 13.333 4.33301 25.666 13 36.999c5.33301 12.667 8 21 8 25c0 19.333 -12.333 29 -37 29c-17.333 0 -35.5 -8.16699 -54.5 -24.5
s-32.167 -36.166 -39.5 -59.499c-5.33301 -14.667 -13.666 -55 -24.999 -121l-47 -267h178l-16 -65h-174c-15.333 -83.333 -43.333 -208.333 -84 -375l-103 -383c-45.333 -160 -98.333 -280.167 -159 -360.5s-129 -120.5 -205 -120.5c-35.333 0 -64.333 10 -87 30
s-34 46 -34 78c0 24 8 44.333 24 61s34.667 25 56 25c15.333 0 29.666 -5.83301 42.999 -17.5s20 -24.167 20 -37.5c0 -16.667 -5.33301 -30.334 -16 -41.001c-5.33301 -7.33301 -8 -13.333 -8 -18c0 -5.33301 2.5 -10.166 7.5 -14.499s10.5 -6.5 16.5 -6.5
c70 0 125.333 99 166 297l56 275l65 307l78 301h-176l14 65c60 4.66699 101.333 10.334 124 17.001s40.334 20.334 53.001 41.001s29.334 61.667 50.001 123c22 64.667 43.667 119.5 65 164.5s50.333 84 87 117s81 49.5 133 49.5c41.333 0 74.833 -10.333 100.5 -31
s38.5 -47.667 38.5 -81z" />
    <glyph glyph-name="circumflex" unicode="&#x2c6;" horiz-adv-x="682" 
d="M764 1030h-39l-141 191l-326 -191h-51l342 297h127z" />
    <glyph glyph-name="caron" unicode="&#x2c7;" horiz-adv-x="682" 
d="M834 1329l-345 -297h-124l-91 297h41l142 -190l323 190h54z" />
    <glyph glyph-name="macron" unicode="&#x2c9;" horiz-adv-x="682" 
d="M774 1126l-26 -92h-584l26 92h584z" />
    <glyph glyph-name="breve" unicode="&#x2d8;" horiz-adv-x="682" 
d="M805 1309c-38.667 -88 -86.335 -156.167 -143.002 -204.5s-117 -72.5 -181 -72.5c-66.667 0 -119.167 24.833 -157.5 74.5s-57.5 117.167 -57.5 202.5h43c0 -44.667 16.833 -81.5 50.5 -110.5s76.834 -43.5 129.501 -43.5c51.333 0 101.833 13.667 151.5 41
s90.834 65 123.501 113h41z" />
    <glyph glyph-name="dotaccent" unicode="&#x2d9;" horiz-adv-x="682" 
d="M602 1120c0 -24.667 -9.1709 -45.832 -27.5039 -63.499s-41.166 -26.5 -68.499 -26.5c-25.333 0 -47.666 9.33301 -66.999 28s-29 40.667 -29 66c0 27.333 9.33301 51 28 71s41.334 30 68.001 30s49.334 -10.333 68.001 -31s28 -45.334 28 -74.001z" />
    <glyph glyph-name="ring" unicode="&#x2da;" horiz-adv-x="682" 
d="M700 1214c0 -50 -17.832 -92.834 -53.499 -128.501s-78.5 -53.5 -128.5 -53.5c-52.667 0 -97.834 18.5 -135.501 55.5s-56.5 80.833 -56.5 131.5c0 52.667 18.167 97.5 54.5 134.5s80.833 55.5 133.5 55.5c34 0 65.333 -9 94 -27s51.167 -41.667 67.5 -71
s24.5 -61.666 24.5 -96.999zM645.001 1217c0 36.667 -12.5 68.333 -37.5 95s-56.167 40 -93.5 40c-36 0 -66.833 -13.167 -92.5 -39.5s-38.5 -56.833 -38.5 -91.5c0 -36 13.167 -66.833 39.5 -92.5s57.5 -38.5 93.5 -38.5c24 0 45.667 5.5 65 16.5s34.833 26.333 46.5 46
s17.5 41.167 17.5 64.5z" />
    <glyph glyph-name="ogonek" unicode="&#x2db;" horiz-adv-x="682" 
d="M467 -307c-45.333 -22.667 -84.666 -39.001 -117.999 -49.001s-67 -15 -101 -15c-68.667 0 -123.334 17.5 -164.001 52.5s-61 81.167 -61 138.5c0 32.667 6.66699 64.334 20 95.001s34.333 63.667 63 99h44c-26 -42 -39 -80 -39 -114c0 -38 9.33301 -71.833 28 -101.5
s45 -52.667 79 -69s72 -24.5 114 -24.5c35.333 0 74.333 8.33301 117 25z" />
    <glyph glyph-name="tilde" unicode="&#x2dc;" horiz-adv-x="682" 
d="M776 1253c-4 -73.333 -18.335 -125.666 -43.002 -156.999c-14 -18.667 -32.333 -34 -55 -46s-46 -18 -70 -18c-36.667 0 -78.334 13 -125.001 39l-59 33c-61.333 34 -103.666 51 -126.999 51c-59.333 0 -92 -41 -98 -123h-35c0 67.333 16.333 121 49 161
s76.334 60 131.001 60c42 0 106.333 -25.667 193 -77c34 -20 57.333 -32.667 70 -38s25.334 -8 38.001 -8c29.333 0 51.333 9.16699 66 27.5s26 50.166 34 95.499h31z" />
    <glyph glyph-name="hungarumlaut" unicode="&#x2dd;" horiz-adv-x="682" 
d="M795 1292c0 -16.667 -4 -30.5 -12 -41.5s-29.333 -32.5 -64 -64.5l-170 -154h-39l102 197c20.667 39.333 39.5 69 56.5 89s37.833 30 62.5 30c18.667 0 34 -5.16699 46 -15.5s18 -23.833 18 -40.5zM553 1292c0 -17.333 -3.99805 -31.333 -11.998 -42s-29.333 -32 -64 -64
l-170 -154h-39l105 197c23.333 42 42.666 72.333 57.999 91s35.666 28 60.999 28c16.667 0 31 -5.16699 43 -15.5s18 -23.833 18 -40.5z" />
    <glyph glyph-name="endash" unicode="&#x2013;" horiz-adv-x="1024" 
d="M1024 500h-1024v45h1024v-45z" />
    <glyph glyph-name="emdash" unicode="&#x2014;" horiz-adv-x="2048" 
d="M2048 498h-2048v45h2048v-45z" />
    <glyph glyph-name="quoteleft" unicode="&#x2018;" horiz-adv-x="575" 
d="M584 1348c-40.667 -12.667 -79 -31.499 -115 -56.499s-64.5 -52.5 -85.5 -82.5s-31.5 -58.333 -31.5 -85c0 -10.667 6.33301 -16 19 -16c2 0 9.66699 1.33301 23 4s21.333 4 24 4c28 0 51 -9 69 -27s27 -41 27 -69c0 -23.333 -8.83301 -43.833 -26.5 -61.5
s-38.834 -26.5 -63.501 -26.5c-34.667 0 -63.167 13.167 -85.5 39.5s-33.5 60.833 -33.5 103.5c0 66 23.833 125.667 71.5 179s113.834 94.666 198.501 123.999z" />
    <glyph glyph-name="quoteright" unicode="&#x2019;" horiz-adv-x="575" 
d="M606 1237c0 -65.333 -23.501 -124.667 -70.501 -178s-113.5 -95 -199.5 -125l-8 31c40.667 12.667 79 31.667 115 57s64.333 52.666 85 81.999s31 57.333 31 84c0 10.667 -6 16 -18 16c-2 0 -9.66699 -1.33301 -23 -4s-21.333 -4 -24 -4
c-27.333 0 -50.333 9.33301 -69 28s-28 41.334 -28 68.001c0 24.667 8.83301 45.5 26.5 62.5s38.834 25.5 63.501 25.5c34.667 0 63.167 -13.167 85.5 -39.5s33.5 -60.833 33.5 -103.5z" />
    <glyph glyph-name="quotesinglbase" unicode="&#x201a;" horiz-adv-x="575" 
d="M268 41c0 -65.333 -23.501 -124.667 -70.501 -178s-113.5 -95 -199.5 -125l-8 31c62.667 18.667 116.834 50.167 162.501 94.5s68.5 87.166 68.5 128.499c0 10.667 -6 16 -18 16c-2 0 -9.66699 -1.33301 -23 -4s-21.333 -4 -24 -4c-27.333 0 -50.333 9.33301 -69 28
s-28 41.334 -28 68.001c0 24.667 8.83301 45.5 26.5 62.5s39.167 25.5 64.5 25.5c34 0 62.167 -13.167 84.5 -39.5s33.5 -60.833 33.5 -103.5z" />
    <glyph glyph-name="quotedblleft" unicode="&#x201c;" 
d="M1085 1348c-60 -26.667 -108.999 -58.334 -146.999 -95.001s-57 -70.667 -57 -102c0 -14.667 2.33301 -25.667 7 -33s16 -18.333 34 -33c18.667 -13.333 31.167 -25.5 37.5 -36.5s9.5 -24.5 9.5 -40.5c0 -30 -8.33301 -54.333 -25 -73s-38.334 -28 -65.001 -28
c-28.667 0 -52.667 12.333 -72 37s-29 55.334 -29 92.001c0 72.667 27.167 140 81.5 202s127.5 109.333 219.5 142zM711.001 1348c-61.333 -27.333 -110.832 -59.1699 -148.499 -95.5029s-56.5 -70.166 -56.5 -101.499c0 -14.667 2.33301 -25.667 7 -33s16 -18.333 34 -33
c18 -12 30.333 -23.5 37 -34.5s10 -25.167 10 -42.5c0 -30 -8.33301 -54.333 -25 -73s-38.334 -28 -65.001 -28c-28.667 0 -52.667 12.333 -72 37s-29 55.334 -29 92.001c0 46.667 12 92.334 36 137.001s59.5 85 106.5 121s100.167 64.667 159.5 86z" />
    <glyph glyph-name="quotedblright" unicode="&#x201d;" 
d="M887 1251c0 -47.333 -12 -93.002 -36 -137.002s-58.333 -83.667 -103 -119s-98.667 -64.666 -162 -87.999l-6 33c60 26.667 109 58.167 147 94.5s57 70.5 57 102.5c0 14 -2.66699 25.333 -8 34s-16.333 19 -33 31c-18.667 14.667 -31.167 27.334 -37.5 38.001
s-9.5 24 -9.5 40c0 30 8.33301 54.167 25 72.5s38.334 27.5 65.001 27.5c19.333 0 36.666 -5.66699 51.999 -17s27.333 -27 36 -47s13 -41.667 13 -65zM512 1251c0 -47.333 -12.001 -93.002 -36.001 -137.002s-58.333 -83.667 -103 -119s-98.667 -64.666 -162 -87.999l-6 33
c38 16 72.667 35.167 104 57.5s56 45.833 74 70.5s27 47.667 27 69c0 14 -2.83301 25.333 -8.5 34s-16.5 19 -32.5 31c-18.667 14.667 -31.167 27.334 -37.5 38.001s-9.5 24 -9.5 40c0 30 8.33301 54.167 25 72.5s38.334 27.5 65.001 27.5c18.667 0 35.667 -5.66699 51 -17
s27.333 -27 36 -47s13 -41.667 13 -65z" />
    <glyph glyph-name="quotedblbase" unicode="&#x201e;" 
d="M721 66c0 -46.667 -11.999 -92.335 -35.999 -137.002s-58.333 -84.667 -103 -120s-98.667 -64.666 -162 -87.999l-6 33c60 26.667 109 58.167 147 94.5s57 70.5 57 102.5c0 14.667 -2.66699 26.167 -8 34.5s-16 18.5 -32 30.5
c-18.667 14.667 -31.334 27.334 -38.001 38.001s-10 24 -10 40c0 30 8.33301 54.333 25 73s38.667 28 66 28c18.667 0 35.667 -5.66699 51 -17s27.333 -27 36 -47s13 -41.667 13 -65zM346.001 65.999c0 -46.667 -12.001 -92.335 -36.001 -137.002s-58.333 -84.667 -103 -120
s-98.667 -64.666 -162 -87.999l-6 33c38 16 72.667 35.167 104 57.5s56 45.833 74 70.5s27 47.667 27 69c0 14.667 -2.66699 26.167 -8 34.5s-16.333 18.5 -33 30.5c-18.667 14.667 -31.167 27.334 -37.5 38.001s-9.5 24 -9.5 40c0 30 8.33301 54.333 25 73
s38.334 28 65.001 28c18.667 0 35.667 -5.66699 51 -17s27.333 -27 36 -47s13 -41.667 13 -65z" />
    <glyph glyph-name="dagger" unicode="&#x2020;" horiz-adv-x="1153" 
d="M1030 850c0 -24.667 -9.49902 -45.499 -28.499 -62.499s-44.167 -25.5 -75.5 -25.5c-26 0 -63 9.66699 -111 29c-42 15.333 -72.833 24.833 -92.5 28.5s-47.5 5.5 -83.5 5.5c-4 -34 -6 -57.667 -6 -71c0 -28 3.66699 -52.333 11 -73s19.333 -42.334 36 -65.001
c-49.333 -85.333 -91.666 -164.833 -126.999 -238.5s-72.666 -164.667 -111.999 -273s-82 -233.833 -128 -376.5l-53 -164l-37 -2c51.333 165.333 91.666 300.833 120.999 406.5s53 211.167 71 316.5s27 209 27 311v18c76 68 129.333 138.333 160 211
c-37.333 -1.33301 -66.833 -4.33301 -88.5 -9s-49.5 -14 -83.5 -28c-46 -17.333 -80.667 -26 -104 -26c-30.667 0 -55.5 8.5 -74.5 25.5s-28.5 37.833 -28.5 62.5c0 24 9.16699 43.333 27.5 58s42.166 22 71.499 22c26.667 0 64.667 -9.66699 114 -29
c45.333 -18 79.166 -29.5 101.499 -34.5s48.5 -7.83301 78.5 -8.5c11.333 37.333 17 76.333 17 117c0 14 -1.66699 43.5 -5 88.5s-5 66.5 -5 64.5c0 58.667 9.83301 105.167 29.5 139.5s46.5 51.5 80.5 51.5c30 0 53.167 -9.5 69.5 -28.5s24.5 -44.5 24.5 -76.5
c0 -28.667 -6.5 -57 -19.5 -85s-35.833 -65 -68.5 -111c-20 -27.333 -35 -49 -45 -65s-17.833 -30.333 -23.5 -43s-12.167 -30 -19.5 -52c29.333 1.33301 52.5 4 69.5 8s45.833 14.333 86.5 31c48 22 87.667 33 119 33c30 0 54.833 -7.66699 74.5 -23s29.5 -34.333 29.5 -57
z" />
    <glyph glyph-name="daggerdbl" unicode="&#x2021;" horiz-adv-x="1153" 
d="M1012 924c0 -16.667 -7.49707 -31.499 -22.4971 -44.499s-34.167 -19.5 -57.5 -19.5c-14.667 0 -44 7 -88 21c-59.333 17.333 -110 26 -152 26h-14c-2.66699 -12 -4 -25.667 -4 -41c0 -36.667 11 -74.667 33 -114c-52 -64 -89 -115.5 -111 -154.5
s-41.667 -90.833 -59 -155.5c-20.667 -70 -31 -140.333 -31 -211c0 -28 2.66699 -67.333 8 -118c-50.667 -43.333 -94.334 -96.666 -131.001 -159.999c36.667 1.33301 79.667 10.333 129 27c50.667 16 88.334 24 113.001 24c27.333 0 49.833 -6.16699 67.5 -18.5
s26.5 -28.5 26.5 -48.5c0 -20.667 -7.83301 -37.5 -23.5 -50.5s-37.167 -19.5 -64.5 -19.5c-22.667 0 -54.667 7.33301 -96 22c-62 20.667 -117.333 31.667 -166 33c-14 -40 -21 -76.667 -21 -110c0 -2.66699 0.5 -13.667 1.5 -33l3 -58c1 -19.333 1.5 -30 1.5 -32
c0 -40 -9 -74.667 -27 -104s-39.667 -44 -65 -44c-18.667 0 -34.834 7.66699 -48.501 23s-20.5 33 -20.5 53c0 36 23.667 89.333 71 160c24.667 34 42.167 61.167 52.5 81.5s17.5 41.5 21.5 63.5c-28 -2 -50.333 -4.83301 -67 -8.5s-40.667 -11.834 -72 -24.501
c-43.333 -16 -79 -24 -107 -24c-23.333 0 -43.166 6.33301 -59.499 19s-24.5 28.667 -24.5 48c0 20.667 8.33301 37.5 25 50.5s38.334 19.5 65.001 19.5c24 0 56.333 -7.33301 97 -22c48 -19.333 86 -29 114 -29c14 0 25 0.666992 33 2c1.33301 9.33301 2 21.666 2 36.999
c0 24.667 -11 67 -33 127c65.333 83.333 117.5 166 156.5 248s58.5 165.667 58.5 251c0 37.333 -6.66699 82.666 -20 135.999c1.33301 0.666992 3 2 5 4s4.33301 4 7 6c47.333 44.667 87.666 93.667 120.999 147c-44.667 0 -95.334 -10 -152.001 -30
c-37.333 -14 -67.333 -21 -90 -21c-28.667 0 -52.167 6.5 -70.5 19.5s-27.5 29.167 -27.5 48.5c0 18 9.66699 33.667 29 47s42.333 20 69 20s61.667 -7.33301 105 -22c38.667 -12 65.667 -19.5 81 -22.5s37.333 -4.5 66 -4.5c15.333 35.333 23 68.666 23 99.999
c0 8.66699 -0.166992 16.5 -0.5 23.5l-1.5 31c-0.666992 13.667 -1.5 27.167 -2.5 40.5s-1.5 22 -1.5 26c0 44.667 9.16699 81.5 27.5 110.5s41.166 43.5 68.499 43.5c18.667 0 34.167 -6.66699 46.5 -20s18.5 -30.666 18.5 -51.999c0 -20.667 -5.16699 -42.167 -15.5 -64.5
s-27.5 -50.5 -51.5 -84.5c-28 -42.667 -46.5 -73 -55.5 -91s-15.833 -39 -20.5 -63c20 0 37 1.33301 51 4s40 10.334 78 23.001c50.667 16 89 24 115 24c25.333 0 45.666 -6.83301 60.999 -20.5s23 -30.5 23 -50.5z" />
    <glyph glyph-name="bullet" unicode="&#x2022;" horiz-adv-x="717" 
d="M610 678c0 -45.333 -11.167 -87.3281 -33.5 -125.995s-52.5 -69.334 -90.5 -92.001s-80 -34 -126 -34c-69.333 0 -128.5 24.5 -177.5 73.5s-73.5 107.833 -73.5 176.5c0 34.667 6.16699 67 18.5 97s30.666 57.167 54.999 81.5s51.666 42.666 81.999 54.999
s62.166 18.5 95.499 18.5c34.667 0 67.334 -6.33301 98.001 -19s57.334 -30.334 80.001 -53.001s40.334 -49.334 53.001 -80.001s19 -63.334 19 -98.001z" />
    <glyph glyph-name="ellipsis" unicode="&#x2026;" horiz-adv-x="2048" 
d="M1724 76c0 -31.333 -10.667 -57.666 -32 -78.999s-47.333 -32 -78 -32c-31.333 0 -57.666 10.667 -78.999 32s-32 47.666 -32 78.999c0 30.667 10.667 56.667 32 78s47.666 32 78.999 32c30.667 0 56.667 -10.667 78 -32s32 -47.333 32 -78zM1042 76
c0 -30 -10.167 -56.001 -30.5 -78.001s-46.166 -33 -77.499 -33h-2c-32 0 -58.5 10.833 -79.5 32.5s-31.5 47.834 -31.5 78.501s10.667 56.667 32 78s47.666 32 78.999 32c30.667 0 56.667 -10.667 78 -32s32 -47.333 32 -78zM360 75.999
c0 -30 -10.167 -56.001 -30.5 -78.001s-46.166 -33 -77.499 -33h-2c-32 0 -58.5 10.833 -79.5 32.5s-31.5 47.834 -31.5 78.501s10.667 56.667 32 78s47.666 32 78.999 32c30.667 0 56.667 -10.667 78 -32s32 -47.333 32 -78z" />
    </font>
</defs>
</svg>
