<?xml version="1.0" standalone="no"?>
<!DOCTYPE svg PUBLIC "-//W3C//DTD SVG 1.1//EN" "http://www.w3.org/Graphics/SVG/1.1/DTD/svg11.dtd" >
<svg xmlns="http://www.w3.org/2000/svg">
<metadata></metadata>
<defs>
<font id="NeutraDisplayThinAltMedium" horiz-adv-x="352" >
<font-face units-per-em="2048" ascent="1597" descent="-451" />
<missing-glyph horiz-adv-x="372" />
<glyph unicode="&#xfb01;" horiz-adv-x="776" d="M53 567v107h88v577q0 111 53.5 165t141.5 54q59 0 97 -18t67 -53l-74 -80q-14 18 -33.5 29.5t-48.5 11.5q-35 0 -56.5 -24.5t-21.5 -86.5v-575h400v-674h-125v567h-275v-567h-125v567h-88zM518 1006q0 37 25.5 61.5t60.5 24.5t60.5 -25t25.5 -61q0 -37 -25.5 -61.5 t-60.5 -24.5t-60.5 24.5t-25.5 61.5z" />
<glyph unicode="&#xfb02;" horiz-adv-x="776" d="M53 567v107h88v583q0 106 51.5 159.5t135.5 53.5q98 0 147 -53l-63 -86q-8 10 -25.5 19.5t-46.5 9.5q-31 0 -52.5 -24.5t-21.5 -82.5v-579h152v-107h-152v-567h-125v567h-88zM541 0v1454h125v-1454h-125z" />
<glyph unicode="&#xfb03;" horiz-adv-x="1185" d="M53 567v107h88v579q0 111 53.5 164t135.5 53q53 0 92 -15t65 -42l-69 -84q-12 14 -28.5 22.5t-45.5 8.5q-35 0 -56.5 -24.5t-21.5 -86.5v-575h279v577q0 111 54 165t140 54q59 0 98.5 -18t67.5 -53l-76 -80q-14 18 -32.5 29.5t-46.5 11.5q-35 0 -57.5 -24.5t-22.5 -86.5 v-575h405v-674h-125v567h-280v-567h-125v567h-279v-567h-125v567h-88zM928 1006q0 37 25.5 61.5t60.5 24.5t60.5 -25t25.5 -61q0 -37 -25.5 -61.5t-60.5 -24.5t-60.5 24.5t-25.5 61.5z" />
<glyph unicode="&#xfb04;" horiz-adv-x="1181" d="M53 567v107h88v579q0 111 53.5 164t135.5 53q53 0 92 -15t65 -42l-69 -84q-12 14 -28.5 22.5t-45.5 8.5q-35 0 -56.5 -24.5t-21.5 -86.5v-575h281v583q0 106 51 159.5t135 53.5q98 0 148 -53l-64 -86q-8 10 -25.5 19.5t-46.5 9.5q-31 0 -52 -24.5t-21 -82.5v-579h151 v-107h-151v-567h-125v567h-281v-567h-125v567h-88zM946 0v1454h125v-1454h-125z" />
<glyph horiz-adv-x="0" />
<glyph horiz-adv-x="2048" />
<glyph unicode=" "  horiz-adv-x="372" />
<glyph unicode="&#x09;" horiz-adv-x="372" />
<glyph unicode="&#xa0;" horiz-adv-x="372" />
<glyph unicode="!" horiz-adv-x="438" d="M123 84q0 41 29.5 68.5t66.5 27.5q39 0 67.5 -27.5t28.5 -68.5t-28.5 -68.5t-67.5 -27.5q-37 0 -66.5 27.5t-29.5 68.5zM150 1393h141l-15 -1020h-112z" />
<glyph unicode="&#x22;" horiz-adv-x="536" d="M76 1393h139l-16 -351h-107zM319 1393h142l-17 -351h-106z" />
<glyph unicode="#" horiz-adv-x="976" d="M45 674v104h182l72 283h-168v106h195l57 226h113l-58 -226h219l58 226h114l-57 -226h160v-106h-187l-71 -283h170v-104h-197l-53 -213h-115l53 213h-217l-53 -213h-115l54 213h-156zM342 778h217l72 283h-219z" />
<glyph unicode="$" horiz-adv-x="1058" d="M49 264l109 60q25 -43 54.5 -81t66 -68t83 -49.5t107.5 -25.5v592l-14 6q-76 35 -137.5 74t-104.5 85t-65.5 103.5t-22.5 131.5q0 68 26.5 125t73.5 98t109.5 65.5t134.5 28.5v174h100v-178q111 -16 180.5 -70.5t116.5 -132.5l-102 -65q-35 57 -79 96t-116 55v-504 l31 -14q88 -41 154.5 -83t111.5 -91t67.5 -109.5t22.5 -136.5q0 -162 -103 -258t-284 -106v-224h-100v224q-158 12 -261.5 91t-158.5 187zM254 1094q0 -92 52 -148.5t163 -111.5v460q-98 -6 -156.5 -59t-58.5 -141zM569 100q125 10 190.5 76t65.5 170q0 109 -66.5 174.5 t-189.5 124.5v-545z" />
<glyph unicode="%" horiz-adv-x="1579" d="M57 1065q0 76 29 138.5t76 108.5t110.5 71.5t130.5 25.5q68 0 131.5 -25.5t110.5 -71.5t76 -108.5t29 -138.5q0 -74 -29 -137.5t-76 -109.5t-110.5 -71.5t-131.5 -25.5t-131 25.5t-110 71.5t-76 109.5t-29 137.5zM180 1065q0 -51 17.5 -94t48 -74t70.5 -48.5t87 -17.5 q45 0 86 17.5t72 48.5t48.5 74t17.5 94q0 104 -65.5 168.5t-158.5 64.5q-92 0 -157.5 -64.5t-65.5 -168.5zM285 0l874 1393h135l-876 -1393h-133zM827 328q0 74 29 137t76 109.5t110.5 72t131.5 25.5t131 -25.5t111 -72t77 -110t29 -136.5q0 -76 -29 -138.5t-77 -108.5 t-111 -71.5t-131 -25.5t-131.5 25.5t-110.5 71.5t-76 108.5t-29 138.5zM950 328q0 -104 66 -169t158 -65q45 0 85.5 16.5t71.5 47t49.5 73.5t18.5 97q0 51 -18.5 94t-49.5 73.5t-71.5 48t-85.5 17.5q-92 0 -158 -64.5t-66 -168.5z" />
<glyph unicode="&#x26;" horiz-adv-x="1308" d="M76 371q0 86 28.5 152.5t77.5 119.5t114.5 96t139.5 86l-24 31q-59 74 -85 140.5t-26 131.5q0 59 20.5 110.5t59.5 89.5t93 59.5t120 21.5q63 0 115.5 -21.5t88.5 -58.5t55 -87t19 -109q0 -102 -69.5 -181.5t-181.5 -148.5l321 -397q57 150 57 352h123q0 -137 -24.5 -251 t-69.5 -206l244 -301h-164l-152 186q-78 -98 -187.5 -150t-240.5 -52q-98 0 -182 27.5t-143.5 77.5t-93 122t-33.5 160zM213 371q0 -61 23.5 -111.5t65.5 -86.5t100.5 -54.5t125.5 -18.5q225 0 351 183l-371 454q-66 -37 -120 -73.5t-93 -78.5t-60.5 -94.5t-21.5 -119.5z M430 1128q0 -53 22.5 -100t59.5 -94l37 -45q88 53 142 108.5t54 135.5q0 70 -39.5 115.5t-111.5 45.5q-76 0 -120 -47t-44 -119z" />
<glyph unicode="'" horiz-adv-x="290" d="M76 1393h139l-16 -351h-107z" />
<glyph unicode="(" horiz-adv-x="565" d="M86 596q0 156 29.5 286t79 238.5t111 195.5t126.5 154l82 -67q-59 -70 -112.5 -153t-93.5 -182t-63.5 -217t-23.5 -255q0 -139 23.5 -256t63.5 -216t93.5 -182t112.5 -153l-82 -68q-66 68 -127 155t-110.5 194.5t-79 238.5t-29.5 287z" />
<glyph unicode=")" horiz-adv-x="565" d="M51 -211q59 70 112.5 153t93.5 182t63.5 216t23.5 256q0 137 -23.5 255t-63.5 217t-93 182t-113 153l80 67q66 -68 128.5 -154.5t111.5 -194t78.5 -238.5t29.5 -287t-29.5 -286t-78.5 -238.5t-111.5 -195.5t-128.5 -155z" />
<glyph unicode="*" horiz-adv-x="733" d="M123 1057l174 80l-174 77l53 95l154 -109l-17 193h109l-16 -193l151 109l53 -95l-174 -77l174 -80l-53 -92l-151 108l16 -192h-109l17 192l-154 -108z" />
<glyph unicode="+" horiz-adv-x="679" d="M76 600v115h205v223h118v-223h205v-115h-205v-223h-118v223h-205z" />
<glyph unicode="," horiz-adv-x="358" d="M80 -168l63 164q-23 10 -40 32.5t-17 55.5q0 41 28.5 68.5t67.5 27.5q37 0 67 -27.5t30 -68.5q0 -23 -8.5 -40t-20.5 -38l-98 -174h-72z" />
<glyph unicode="-" horiz-adv-x="479" d="M74 332v112h332v-112h-332z" />
<glyph unicode="." d="M80 84q0 41 28.5 68.5t67.5 27.5q37 0 66.5 -27.5t29.5 -68.5t-29.5 -68.5t-66.5 -27.5q-39 0 -67.5 27.5t-28.5 68.5z" />
<glyph unicode="/" horiz-adv-x="833" d="M12 -262l613 1716h131l-613 -1716h-131z" />
<glyph unicode="0" horiz-adv-x="1593" d="M86 696q0 154 56.5 285t152.5 226.5t227 148.5t279 53q147 0 278 -53t227.5 -148.5t153 -226.5t56.5 -285t-56.5 -284.5t-153 -226t-227.5 -148.5t-278 -53t-278.5 53t-227.5 148.5t-152.5 226.5t-56.5 284zM225 696q0 -127 43 -235.5t120 -187t182.5 -124t230.5 -45.5 t230.5 45.5t182 124t119.5 187t43 235.5t-43 235.5t-119.5 187.5t-182 124t-230.5 45t-230.5 -45t-182.5 -124t-120 -187.5t-43 -235.5z" />
<glyph unicode="1" horiz-adv-x="598" d="M68 1274v119h338v-1393h-136v1274h-202z" />
<glyph unicode="2" horiz-adv-x="1073" d="M59 0v10l578 615q92 98 144.5 190t52.5 203q0 57 -18.5 106.5t-55.5 86t-90.5 57t-120.5 20.5q-61 0 -113.5 -20.5t-92.5 -55t-68.5 -82t-45.5 -100.5q-33 10 -59 19q-23 8 -42 14t-17 6q18 70 56 132.5t94 108.5t129 72.5t161 26.5q94 0 172 -28.5t132 -80t84 -123 t30 -155.5q0 -137 -69 -251t-171 -222l-403 -430h653v-119h-920z" />
<glyph unicode="3" horiz-adv-x="1112" d="M51 256l111 59q53 -92 143 -151.5t232 -59.5q88 0 156.5 27t115.5 74t71.5 111.5t24.5 142.5q0 156 -100 251t-281 95q-59 0 -101 -8.5t-71 -18.5l-6 13l412 483h-594v119h831v-11l-405 -473q100 -4 183 -38.5t142.5 -95t92 -142.5t32.5 -178q0 -104 -36.5 -191.5 t-102 -150t-157.5 -96t-203 -33.5q-178 0 -302 76.5t-188 195.5z" />
<glyph unicode="4" horiz-adv-x="1173" d="M31 270v11l921 1144h9v-1042h151v-113h-151v-270h-134v270h-796zM262 383h565v719z" />
<glyph unicode="5" horiz-adv-x="1110" d="M51 246l113 59q53 -92 145 -146.5t230 -54.5q84 0 149.5 29t110.5 78t68.5 115.5t23.5 144.5q0 76 -25.5 142.5t-74 115.5t-118 77t-157.5 28q-104 0 -186 -31t-142 -84l-10 4v670h748v-119h-627v-379q49 29 106.5 43t126.5 14q111 0 202 -36.5t156.5 -101t101.5 -153 t36 -190.5q0 -106 -33.5 -196.5t-97 -155t-154.5 -100t-204 -35.5q-166 0 -293 69.5t-195 192.5z" />
<glyph unicode="6" horiz-adv-x="1126" d="M86 446q0 90 30.5 168t84.5 156l436 623h147l-376 -535q35 23 82 38t100 15q98 0 182 -35.5t144.5 -98t95.5 -146.5t35 -182q0 -96 -35 -181.5t-98.5 -148t-152 -99t-194.5 -36.5t-194 35.5t-151.5 99t-99.5 147.5t-36 180zM221 449q0 -70 24.5 -132.5t68.5 -110.5 t107.5 -76t143.5 -28t144.5 28t108.5 76t68.5 110.5t24.5 132.5q0 72 -23.5 135t-67.5 110t-108.5 75t-146.5 28q-80 0 -143.5 -27t-107.5 -74t-68.5 -110.5t-24.5 -136.5z" />
<glyph unicode="7" horiz-adv-x="1099" d="M66 1274v119h989v-11l-693 -1382h-143l639 1274h-792z" />
<glyph unicode="8" horiz-adv-x="1161" d="M82 414q0 141 84 237.5t215 139.5q-78 39 -131 109.5t-53 172.5q0 72 29.5 133.5t81.5 106.5t123 70.5t151 25.5t150.5 -25.5t122.5 -70.5t82 -106.5t30 -133.5q0 -102 -53.5 -173t-131.5 -109q131 -43 214 -139.5t83 -237.5q0 -94 -36.5 -173t-103.5 -136.5t-158 -89 t-199 -31.5q-109 0 -200 31.5t-157.5 89t-104.5 136t-38 173.5zM219 416q0 -70 26.5 -127.5t74 -99.5t115 -64.5t147.5 -22.5q82 0 148.5 24t113.5 64.5t73.5 99t26.5 126.5t-26.5 125t-73.5 98t-113.5 63.5t-148.5 22.5q-80 0 -147.5 -22.5t-115 -63.5t-74 -98.5 t-26.5 -124.5zM330 1065q0 -98 67.5 -160.5t184.5 -62.5t184.5 62.5t67.5 160.5t-68 162.5t-184 64.5q-117 0 -184.5 -64.5t-67.5 -162.5z" />
<glyph unicode="9" horiz-adv-x="1140" d="M80 936q0 98 36 184t99.5 150.5t152.5 101.5t197 37q109 0 199 -37t154.5 -100.5t100.5 -149.5t36 -182q0 -90 -35 -170t-90 -166l-400 -604h-145l346 520q-37 -23 -84 -38t-104 -15q-102 0 -187.5 37t-147 100.5t-95 148.5t-33.5 183zM215 936q0 -72 23.5 -136.5 t68.5 -112.5t110.5 -76.5t149.5 -28.5q82 0 146.5 28.5t109.5 76.5t70 112.5t25 136.5t-24 136.5t-69 112.5t-110.5 76.5t-147.5 28.5q-84 0 -148.5 -28.5t-110.5 -76.5t-69.5 -112.5t-23.5 -136.5z" />
<glyph unicode=":" horiz-adv-x="368" d="M88 84q0 41 29.5 68.5t66.5 27.5t67 -27.5t30 -68.5t-30 -68.5t-67 -27.5t-66.5 27.5t-29.5 68.5zM88 526q0 41 29.5 69t66.5 28t67 -28t30 -69t-30 -68.5t-67 -27.5t-66.5 27.5t-29.5 68.5z" />
<glyph unicode="&#x3c;" horiz-adv-x="653" d="M59 641v8l519 281v-123l-308 -164l308 -164v-123z" />
<glyph unicode="=" horiz-adv-x="679" d="M76 479v115h528v-115h-528zM76 717v114h528v-114h-528z" />
<glyph unicode="&#x3e;" horiz-adv-x="653" d="M76 356v123l309 164l-309 164v123l518 -285v-8z" />
<glyph unicode="?" horiz-adv-x="907" d="M49 1174q49 100 144.5 167.5t234.5 67.5q90 0 163 -28.5t123 -79t77.5 -120t27.5 -151.5q0 -78 -24.5 -143.5t-70.5 -115.5t-112.5 -81t-148.5 -39v-284h-121v393h59q70 0 123.5 21.5t89 58.5t54 86t18.5 104q0 123 -70.5 193.5t-187.5 70.5q-104 0 -167.5 -50 t-108.5 -130zM305 84q0 41 30 68.5t66 27.5q37 0 67 -27.5t30 -68.5t-30 -68.5t-67 -27.5t-66.5 27.5t-29.5 68.5z" />
<glyph unicode="@" horiz-adv-x="1511" d="M68 328q0 147 54 274t148.5 220t221 146.5t270.5 53.5q150 0 275.5 -50t215.5 -139.5t140.5 -209t50.5 -256.5q0 -98 -21.5 -172t-58.5 -122t-86 -73t-104 -25q-86 0 -138.5 41t-72.5 111q-76 -143 -246 -143q-63 0 -119.5 25.5t-97.5 69.5t-65.5 104.5t-24.5 131.5 q0 72 24.5 133.5t65.5 107.5t97 71.5t120 25.5q80 0 135 -33.5t86 -93.5v111h127v-420q0 -63 25.5 -101t85.5 -38q61 0 107 69.5t46 217.5q0 121 -40 222t-113.5 175t-179 115t-236.5 41q-127 0 -231.5 -45.5t-180.5 -125t-117 -187t-41 -232.5q0 -127 42 -234.5t118 -186.5 t183.5 -124t238.5 -45q78 0 150.5 17.5t136.5 51.5l51 -92q-139 -82 -336 -82q-152 0 -282 52.5t-224 145.5t-147 220t-53 277zM543 315q0 -96 53 -159.5t143 -63.5t145.5 63.5t55.5 159.5q0 98 -55.5 164t-145.5 66t-143 -65.5t-53 -164.5z" />
<glyph unicode="A" horiz-adv-x="1306" d="M61 0l586 1425h10l588 -1425h-137l-96 242h-719l-98 -242h-134zM340 360h623q-23 57 -48 121q-23 53 -50 123t-56 141q-68 170 -156 388z" />
<glyph unicode="B" horiz-adv-x="1212" d="M178 0v1393h455q98 0 172 -27t122 -73t72.5 -108.5t24.5 -133.5q0 -100 -46 -170t-132 -109q133 -35 211 -130t78 -236q0 -84 -28 -158t-84 -129.5t-140 -87t-197 -31.5h-508zM311 119h363q86 0 148.5 22.5t101.5 61.5t57 92t18 115q0 63 -19 117.5t-60 93t-103.5 61.5 t-146.5 23h-359v-586zM311 817h336q133 0 188.5 64.5t55.5 167.5q0 47 -14.5 88t-47 71.5t-83 48t-121.5 17.5h-314v-457z" />
<glyph unicode="C" horiz-adv-x="1449" d="M86 696q0 156 54.5 286t149.5 225.5t224 148.5t277 53q178 0 315 -68.5t231 -191.5l-102 -74q-78 102 -188.5 157.5t-258.5 55.5q-121 0 -224 -45t-179 -124t-118 -187.5t-42 -235.5q0 -129 43 -237.5t120 -187t182.5 -123t228.5 -44.5q152 0 270.5 60.5t202.5 171.5 l104 -74q-104 -135 -248.5 -206.5t-332.5 -71.5q-150 0 -280 53t-225 148.5t-149.5 225.5t-54.5 285z" />
<glyph unicode="D" horiz-adv-x="1353" d="M178 0v1393h348q172 0 309.5 -51.5t231.5 -143.5t144.5 -220t50.5 -282t-50.5 -281.5t-144.5 -220t-230.5 -143.5t-310.5 -51h-348zM311 121h203q154 0 268.5 42t190.5 118.5t112.5 182t36.5 232.5t-36.5 232.5t-112.5 182.5t-190.5 119t-268.5 42h-203v-1151z" />
<glyph unicode="E" horiz-adv-x="1150" d="M178 0v1393h840v-119h-707v-696h631v-117h-631v-342h736v-119h-869z" />
<glyph unicode="F" horiz-adv-x="1103" d="M178 0v1393h832v-119h-699v-696h635v-119h-635v-459h-133z" />
<glyph unicode="G" horiz-adv-x="1562" d="M86 696q0 154 55.5 285t152.5 226.5t227 148.5t278 53q186 0 330.5 -67.5t242.5 -208.5l-102 -76q-80 115 -196 173t-277 58q-123 0 -228.5 -45t-181.5 -124t-119 -187.5t-43 -235.5t43 -235.5t120 -187t183.5 -124t231.5 -45.5q119 0 209 31t153.5 81t101.5 113.5 t56 129.5h-496v119h650q-10 -133 -60.5 -242t-136.5 -187.5t-206.5 -121.5t-270.5 -43q-147 0 -278.5 53t-228.5 148.5t-153.5 226.5t-56.5 284z" />
<glyph unicode="H" horiz-adv-x="1382" d="M178 0v1393h133v-815h760v815h133v-1393h-133v459h-760v-459h-133z" />
<glyph unicode="I" horiz-adv-x="507" d="M186 0v1393h136v-1393h-136z" />
<glyph unicode="J" horiz-adv-x="942" d="M55 188l109 68q39 -72 97 -112t147 -40q102 0 166.5 61.5t64.5 201.5v1026h135v-1031q0 -94 -27.5 -164.5t-75.5 -118.5t-114.5 -71.5t-144.5 -23.5q-139 0 -224.5 58t-132.5 146z" />
<glyph unicode="K" horiz-adv-x="1169" d="M178 0v1393h133v-828l633 828h152l-645 -846l661 -547h-192q-172 139 -306 250l-303 250v-500h-133z" />
<glyph unicode="L" horiz-adv-x="1028" d="M178 0v1393h133v-1274h647v-119h-780z" />
<glyph unicode="M" horiz-adv-x="1685" d="M147 0l156 1421h10l529 -948l530 948h10l156 -1421h-131l-115 1063l-450 -815h-6l-449 815l-115 -1063h-125z" />
<glyph unicode="N" horiz-adv-x="1431" d="M178 0v1421h12l938 -1124v1096h125v-1422h-12l-938 1125v-1096h-125z" />
<glyph unicode="O" horiz-adv-x="1601" d="M86 696q0 154 56.5 285t152.5 226.5t227 148.5t279 53q147 0 278 -53t227.5 -148.5t153 -226.5t56.5 -285t-56.5 -284.5t-153 -226t-227.5 -148.5t-278 -53t-278.5 53t-227.5 148.5t-152.5 226.5t-56.5 284zM225 696q0 -127 43 -235.5t120 -187t182.5 -124t230.5 -45.5 t230.5 45.5t182 124t119.5 187t43 235.5t-43 235.5t-119.5 187.5t-182 124t-230.5 45t-230.5 -45t-182.5 -124t-120 -187.5t-43 -235.5z" />
<glyph unicode="P" horiz-adv-x="1146" d="M178 0v1393h299q141 0 249 -40t179.5 -109.5t108.5 -166t37 -209.5t-37 -208t-108.5 -164.5t-179.5 -108.5t-249 -39h-166v-348h-133zM311 467h158q119 0 203 29.5t138 84t78.5 128t24.5 159.5q0 88 -24.5 162t-78.5 128t-138 85t-203 31h-158v-807z" />
<glyph unicode="Q" horiz-adv-x="1601" d="M86 696q0 154 56.5 285t152.5 226.5t227 148.5t279 53q147 0 278 -53t227.5 -148.5t153 -226.5t56.5 -285t-54.5 -282.5t-152.5 -225.5l229 -245l-94 -82l-232 248q-88 -59 -191 -92t-220 -33q-147 0 -278.5 53t-227.5 148.5t-152.5 226.5t-56.5 284zM225 696 q0 -127 43 -235.5t120 -187t182.5 -124t230.5 -45.5q96 0 178 25t149 70l-172 186l97 82l172 -186q72 80 111.5 185t39.5 230q0 127 -43 235.5t-119.5 187.5t-182 124t-230.5 45t-230.5 -45t-182.5 -124t-120 -187.5t-43 -235.5z" />
<glyph unicode="R" horiz-adv-x="1167" d="M178 0v1393h303q141 0 250 -40t180.5 -109.5t108.5 -166t37 -209.5q0 -168 -82 -296t-244 -185l303 -387h-162l-276 356q-29 -4 -56.5 -6t-58.5 -2h-170v-348h-133zM311 465h162q119 0 203 29.5t138 84t79 128t25 161.5t-26 162t-79 128t-137 85t-203 31h-162v-809z" />
<glyph unicode="S" horiz-adv-x="1075" d="M59 264l113 60q55 -104 148.5 -162t216.5 -58q143 0 223 64.5t80 175.5q0 57 -17.5 100t-51.5 78t-82 64.5t-111 58.5l-113 53q-76 35 -135.5 72t-101.5 81t-63.5 98.5t-21.5 127.5q0 74 28 135.5t75 105.5t112.5 67.5t143.5 23.5q131 0 223 -50t158 -155l-103 -65 q-47 78 -113.5 115.5t-162.5 37.5q-104 0 -167 -59t-63 -152q0 -49 14.5 -86t45.5 -65.5t77 -54t109 -56.5l113 -53q84 -41 147.5 -81t106.5 -89t64.5 -109.5t21.5 -138.5q0 -86 -32 -153.5t-88 -114.5t-136 -71.5t-178 -24.5q-172 0 -292 75.5t-188 204.5z" />
<glyph unicode="T" horiz-adv-x="1097" d="M51 1274v119h996v-119h-431v-1274h-133v1274h-432z" />
<glyph unicode="U" horiz-adv-x="1318" d="M168 473v920h133v-910q0 -190 97.5 -284.5t260.5 -94.5q166 0 262.5 94.5t96.5 284.5v910h133v-920q0 -121 -37 -213t-103.5 -153.5t-157 -92t-194.5 -30.5t-194 30.5t-156.5 92t-103.5 153.5t-37 213z" />
<glyph unicode="V" horiz-adv-x="1306" d="M61 1393h144l450 -1121l453 1121h137l-588 -1422h-8z" />
<glyph unicode="W" horiz-adv-x="1875" d="M61 1393h138l448 -1133l232 571l-236 562h133l166 -402l164 402h127l-229 -551q16 -43 36 -90q16 -41 39 -93.5t45 -105.5q53 -127 121 -291l438 1131h132l-562 -1422h-12l-301 715l-297 -715h-12z" />
<glyph unicode="X" horiz-adv-x="1273" d="M76 0l241 377q45 72 89.5 138.5t78.5 119.5q39 61 76 119l-409 639h151l334 -521l334 521h143l-405 -631l489 -762h-151l-414 643q-31 -47 -66 -100q-29 -45 -65.5 -103.5t-75.5 -117.5q-92 -143 -207 -322h-143z" />
<glyph unicode="Y" horiz-adv-x="1290" d="M55 1393h148l448 -822l447 822h139l-520 -957v-436h-135v436z" />
<glyph unicode="Z" horiz-adv-x="1175" d="M66 0v8l811 1266h-711v119h928v-9l-811 -1265h815v-119h-1032z" />
<glyph unicode="[" horiz-adv-x="577" d="M162 -262v1716h342v-111h-213v-1495h213v-110h-342z" />
<glyph unicode="\" horiz-adv-x="833" d="M78 1454h129l614 -1716h-131z" />
<glyph unicode="]" horiz-adv-x="579" d="M74 -152h215v1495h-215v111h344v-1716h-344v110z" />
<glyph unicode="^" horiz-adv-x="563" d="M80 459v121h403v-121h-403z" />
<glyph unicode="_" horiz-adv-x="518" d="M-4 -150h526v-112h-526v112z" />
<glyph unicode="`" horiz-adv-x="1024" d="M311 1067h142l114 -289h-100z" />
<glyph unicode="a" horiz-adv-x="856" d="M61 336q0 76 25 140.5t69 112.5t104 74.5t130 26.5q84 0 143.5 -33.5t94.5 -97.5v115h125v-674h-125v115q-35 -63 -94.5 -97t-143.5 -34q-70 0 -130 26.5t-104 73.5t-69 111.5t-25 140.5zM193 336q0 -106 60.5 -174t160.5 -68q98 0 157.5 67.5t59.5 174.5 q0 109 -59.5 176.5t-157.5 67.5q-100 0 -160.5 -68t-60.5 -176z" />
<glyph unicode="b" horiz-adv-x="868" d="M106 0v1454h125v-895q35 63 96.5 97t147.5 34q70 0 131.5 -26.5t105.5 -74.5t69.5 -112.5t25.5 -140.5t-25.5 -140.5t-69.5 -111.5t-105.5 -73.5t-131.5 -26.5q-86 0 -147.5 33.5t-96.5 97.5v-115h-125zM227 336q0 -106 62 -174t162 -68q102 0 164.5 67.5t62.5 174.5 q0 109 -62.5 176.5t-164.5 67.5q-100 0 -162 -68t-62 -176z" />
<glyph unicode="c" horiz-adv-x="739" d="M61 336q0 76 27 140.5t74 112.5t110.5 74.5t137.5 26.5q90 0 154.5 -27.5t111.5 -80.5l-84 -76q-33 35 -78 55.5t-104 20.5q-98 0 -157.5 -71t-59.5 -175q0 -51 15 -96t44 -78t68.5 -51.5t89.5 -18.5q70 0 117.5 24.5t80.5 59.5l84 -74q-47 -57 -116.5 -87.5 t-165.5 -30.5q-74 0 -137.5 26.5t-110.5 73.5t-74 111.5t-27 140.5z" />
<glyph unicode="d" horiz-adv-x="872" d="M61 336q0 76 26 140.5t71 112.5t105.5 74.5t131.5 26.5q168 0 244 -131v895h125v-1454h-125v115q-76 -131 -244 -131q-72 0 -132 26.5t-105 73.5t-71 111.5t-26 140.5zM193 336q0 -106 61.5 -174t163.5 -68t163.5 67.5t61.5 174.5q0 109 -61.5 176.5t-163.5 67.5 t-163.5 -68t-61.5 -176z" />
<glyph unicode="e" horiz-adv-x="819" d="M61 336q0 76 28 140.5t76 112.5t112.5 74.5t138.5 26.5q80 0 144.5 -29.5t108.5 -82.5q43 -54 67 -128q22 -68 22 -146v-13h-565q14 -94 75.5 -147.5t159.5 -53.5q78 0 127 24.5t84 63.5l78 -76q-47 -55 -117 -86.5t-170 -31.5q-82 0 -149.5 26.5t-116.5 73.5t-76 111.5 t-27 140.5zM197 395h430q-12 80 -63.5 134.5t-147.5 54.5q-88 0 -145.5 -51.5t-73.5 -137.5z" />
<glyph unicode="f" horiz-adv-x="491" d="M53 567v107h88v577q0 111 53.5 165t141.5 54q59 0 97 -18t67 -53l-74 -80q-14 18 -33.5 29.5t-48.5 11.5q-35 0 -56.5 -24.5t-21.5 -86.5v-575h170v-107h-170v-567h-125v567h-88z" />
<glyph unicode="g" horiz-adv-x="872" d="M61 336q0 76 26 140.5t71 112.5t105.5 74.5t131.5 26.5q168 0 244 -131v115h125v-785q0 -160 -90 -252t-250 -92q-123 0 -209 53.5t-133 149.5l104 53q35 -72 95.5 -108.5t138.5 -36.5q104 0 161.5 60.5t57.5 174.5v224q-76 -131 -244 -131q-72 0 -132 26.5t-105 73.5 t-71 111.5t-26 140.5zM193 336q0 -106 61.5 -174t163.5 -68t163.5 67.5t61.5 174.5q0 109 -61.5 176.5t-163.5 67.5t-163.5 -68t-61.5 -176z" />
<glyph unicode="h" horiz-adv-x="813" d="M104 0v1454h125v-889q76 125 232 125q111 0 184.5 -69.5t73.5 -206.5v-414h-125v401q0 176 -164 177q-92 0 -146.5 -53.5t-54.5 -151.5v-373h-125z" />
<glyph unicode="i" horiz-adv-x="344" d="M86 1006q0 37 25.5 61.5t60.5 24.5t60.5 -25t25.5 -61q0 -37 -25.5 -61.5t-60.5 -24.5t-60.5 24.5t-25.5 61.5zM109 0v674h127v-674h-127z" />
<glyph unicode="j" horiz-adv-x="348" d="M-84 -399l64 82q29 -25 61 -25q72 0 72 92v924h127v-924q0 -98 -49.5 -150.5t-135.5 -52.5q-49 0 -81.5 15.5t-57.5 38.5zM90 1006q0 37 25.5 61.5t60.5 24.5t60.5 -25t25.5 -61q0 -37 -25.5 -61.5t-60.5 -24.5t-60.5 24.5t-25.5 61.5z" />
<glyph unicode="k" horiz-adv-x="714" d="M104 0v1454h125v-1102l285 322h145l-307 -344l344 -330h-168l-299 287v-287h-125z" />
<glyph unicode="l" horiz-adv-x="348" d="M111 0v1454h127v-1454h-127z" />
<glyph unicode="m" horiz-adv-x="1208" d="M104 0v674h125v-92q56 108 198 108h3q68 0 120 -30.5t83 -94.5q80 125 237 125q106 0 175 -68.5t69 -191.5v-430h-125v416q0 162 -143 162q-86 0 -130 -48.5t-44 -138.5v-391h-125v414q0 164 -144 164q-84 0 -129 -49.5t-45 -141.5v-387h-125z" />
<glyph unicode="n" horiz-adv-x="813" d="M104 0v674h125v-109q33 61 93.5 93t138.5 32q111 0 184.5 -69.5t73.5 -206.5v-414h-125v401q0 176 -164 177q-92 0 -146.5 -53.5t-54.5 -151.5v-373h-125z" />
<glyph unicode="o" horiz-adv-x="837" d="M61 336q0 76 28 140.5t76 112.5t113.5 74.5t141.5 26.5q74 0 139.5 -26.5t113.5 -74.5t75.5 -112.5t27.5 -140.5t-27.5 -140.5t-75.5 -111.5t-113.5 -73.5t-139.5 -26.5q-76 0 -141.5 26.5t-113.5 73.5t-76 111.5t-28 140.5zM193 336q0 -53 16 -97t46 -78t72 -52.5 t93 -18.5t93 18.5t71.5 52.5t46 78t16.5 97q0 106 -62.5 177t-164.5 71t-164.5 -71t-62.5 -177z" />
<glyph unicode="p" horiz-adv-x="868" d="M106 -434v1108h125v-115q35 63 96.5 97t147.5 34q70 0 131.5 -26.5t105.5 -74.5t69.5 -112.5t25.5 -140.5t-25.5 -140.5t-69.5 -111.5t-105.5 -73.5t-131.5 -26.5q-86 0 -147.5 33.5t-96.5 97.5v-549h-125zM227 336q0 -106 62 -174t162 -68q102 0 164.5 67.5t62.5 174.5 q0 109 -62.5 176.5t-164.5 67.5q-100 0 -162 -68t-62 -176z" />
<glyph unicode="q" horiz-adv-x="872" d="M61 336q0 76 26 140.5t71 112.5t105.5 74.5t131.5 26.5q168 0 244 -131v115h125v-1108h-125v549q-76 -131 -244 -131q-72 0 -132 26.5t-105 73.5t-71 111.5t-26 140.5zM193 336q0 -106 61.5 -174t163.5 -68t163.5 67.5t61.5 174.5q0 109 -61.5 176.5t-163.5 67.5 t-163.5 -68t-61.5 -176z" />
<glyph unicode="r" horiz-adv-x="557" d="M104 0v674h125v-113q33 66 85.5 97.5t111.5 31.5q35 0 59.5 -6t46.5 -20l-43 -107q-16 10 -35.5 14t-47.5 4q-76 0 -126.5 -57t-50.5 -162v-356h-125z" />
<glyph unicode="s" horiz-adv-x="651" d="M45 135l90 64q31 -51 81 -80t118 -29q66 0 100.5 24.5t34.5 65.5q0 45 -38 68.5t-126 48.5q-100 29 -156.5 73t-56.5 134q0 84 60.5 135t160.5 51q80 0 135.5 -27.5t96.5 -80.5l-84 -70q-25 33 -58.5 52.5t-87.5 19.5q-51 0 -78.5 -21.5t-27.5 -54.5q0 -45 35 -63.5 t112 -38.5q109 -29 171.5 -78t62.5 -142q0 -96 -67.5 -149t-188.5 -53q-98 0 -170 39.5t-119 111.5z" />
<glyph unicode="t" horiz-adv-x="505" d="M53 567v107h88v420h125v-420h168v-107h-168v-385q0 -90 72 -90q23 0 41 9.5t33 19.5l53 -88q-23 -23 -58.5 -36t-82.5 -13q-84 0 -133.5 46t-49.5 146v391h-88z" />
<glyph unicode="u" horiz-adv-x="798" d="M96 293v381h125v-373q0 -111 47 -159t131 -48q86 0 132.5 48t46.5 159v373h124v-381q0 -78 -23.5 -136.5t-64.5 -97.5t-96 -57t-121 -18q-133 0 -217 75.5t-84 233.5z" />
<glyph unicode="v" horiz-adv-x="720" d="M20 674h140l211 -453l200 453h129l-329 -697h-9z" />
<glyph unicode="w" horiz-adv-x="1083" d="M20 674h140l170 -434l211 454h6l217 -454l172 434h127l-291 -697h-8l-221 476l-226 -476h-8z" />
<glyph unicode="x" horiz-adv-x="747" d="M41 0l262 360l-225 314h145l154 -215l158 215h135q-61 -86 -113 -154q-23 -29 -43 -56.5t-37 -49.5q-20 -25 -35 -47l265 -367h-146l-190 266l-195 -266h-135z" />
<glyph unicode="y" horiz-adv-x="714" d="M20 674h142l205 -471l198 471h129l-469 -1108h-129l207 489z" />
<glyph unicode="z" horiz-adv-x="673" d="M45 0v6l379 561h-332v107h531v-8l-379 -560h368v-106h-567z" />
<glyph unicode="{" horiz-adv-x="669" d="M49 461v110h94q55 0 86 29t31 111v454q0 90 22.5 146.5t59.5 88.5t84 43t96 11h74v-111h-70q-63 0 -99 -36.5t-36 -139.5v-475q0 -88 -34.5 -126t-86.5 -48q51 -10 86 -50t35 -126v-317q0 -102 36 -139.5t99 -37.5h70v-110h-74q-49 0 -96 11t-84 43t-59.5 88.5 t-22.5 146.5v295q0 82 -30.5 110.5t-86.5 28.5h-94z" />
<glyph unicode="|" horiz-adv-x="464" d="M168 -262v1716h129v-1716h-129z" />
<glyph unicode="}" horiz-adv-x="669" d="M74 -152h69q63 0 100.5 37t37.5 140v317q0 86 33.5 125t84.5 49q-51 10 -84.5 49t-33.5 127v475q0 102 -37 139t-101 37h-69v111h73q49 0 96.5 -11t84.5 -43t59.5 -88.5t22.5 -146.5v-452q0 -82 30.5 -112t85.5 -30h95v-110h-95q-55 0 -85.5 -29t-30.5 -110v-295 q0 -90 -22.5 -146.5t-59.5 -88.5t-84 -43t-97 -11h-73v110z" />
<glyph unicode="~" horiz-adv-x="698" d="M78 473q14 84 57 131t109 47q33 0 61.5 -12t53 -25.5t48 -26t46.5 -12.5q47 0 69 72l99 -14q-12 -82 -55.5 -130t-106.5 -48q-35 0 -63.5 12t-53.5 26.5t-47.5 26.5t-44.5 12q-51 0 -70 -73z" />
<glyph unicode="&#xa1;" horiz-adv-x="438" d="M123 1309q0 41 29.5 68.5t66.5 27.5q39 0 67.5 -27.5t28.5 -68.5t-28.5 -69t-67.5 -28q-37 0 -66.5 28t-29.5 69zM150 0l14 1020h112l15 -1020h-141z" />
<glyph unicode="&#xa2;" horiz-adv-x="739" d="M61 336q0 68 22.5 127t61.5 105t93.5 77t117.5 41v199h101v-197q76 -6 130 -34.5t97 -75.5l-84 -74q-27 31 -61.5 51t-81.5 25v-488q53 8 91 29.5t66 52.5l84 -72q-88 -104 -241 -116v-203h-101v205q-63 10 -117.5 40.5t-93.5 77t-61.5 104.5t-22.5 126zM190 336 q0 -92 45.5 -154.5t120.5 -85.5v479q-76 -20 -121 -83.5t-45 -155.5z" />
<glyph unicode="&#xa3;" horiz-adv-x="1101" d="M27 162q0 84 57 132t139 48q47 0 87 -12.5t75 -32.5q-2 53 -11 102.5t-26 96.5h-229v104h190q-41 98 -76.5 196.5t-35.5 215.5q0 84 30.5 156.5t87 126t135 84t173.5 30.5q152 0 251 -69.5t148 -176.5l-109 -61q-43 88 -111.5 140t-180.5 52q-129 0 -208 -76.5 t-79 -205.5q0 -119 33.5 -217.5t70.5 -194.5h363v-104h-328q14 -49 23.5 -100.5t9.5 -108.5q0 -37 -6 -70q57 -45 120.5 -81t155.5 -36q76 0 124 27t91 74l84 -80q-63 -70 -130.5 -103.5t-168.5 -33.5q-104 0 -180 41t-135 90q-35 -59 -94.5 -95t-137.5 -36q-86 0 -144 47 t-58 131zM137 162q0 -37 25.5 -58.5t68.5 -21.5q47 0 83.5 29.5t54.5 76.5q-35 25 -68 40.5t-70 15.5q-43 0 -68.5 -22.5t-25.5 -59.5z" />
<glyph unicode="&#xa5;" horiz-adv-x="1241" d="M61 1393h148l418 -815l415 815h138l-422 -815h332v-103h-385l-15 -26v-97h400v-102h-400v-250h-133v250h-401v102h401v97l-14 26h-387v103h331z" />
<glyph unicode="&#xa6;" d="M80 442q0 41 28.5 69t67.5 28q37 0 66.5 -28t29.5 -69t-29.5 -68.5t-66.5 -27.5q-39 0 -67.5 27.5t-28.5 68.5z" />
<glyph unicode="&#xa7;" horiz-adv-x="1124" d="M76 610q0 96 49 158.5t123 99.5q-29 43 -46.5 94.5t-17.5 110.5q0 74 28 135.5t78 105.5t118.5 69.5t150.5 25.5q145 0 234.5 -59.5t136.5 -147.5l-107 -65q-41 76 -104.5 115.5t-159.5 39.5q-115 0 -176 -61.5t-61 -155.5q0 -96 49 -150.5t139 -93.5l254 -106 q152 -66 218.5 -146.5t66.5 -197.5q0 -84 -49.5 -146.5t-125.5 -99.5q63 -82 64 -190q0 -137 -100.5 -225.5t-292.5 -88.5q-82 0 -149.5 19.5t-122 51.5t-94.5 73t-66 84l100 71q20 -35 50 -66.5t70 -57t92 -41t120 -15.5q125 0 190.5 53.5t65.5 145.5q0 88 -55.5 136 t-157.5 91l-240 103q-141 59 -206.5 137t-65.5 194zM205 625q0 -86 48 -134.5t148 -91.5l240 -100q47 -20 86 -41.5t74 -48.5q53 25 86 67.5t33 98.5q0 78 -49.5 130t-159.5 99l-254 107q-41 16 -77 37.5t-67 50.5q-51 -29 -79.5 -71t-28.5 -103z" />
<glyph unicode="&#xa8;" horiz-adv-x="1024" d="M299 866q0 35 24.5 57.5t55.5 22.5t55.5 -22.5t24.5 -57.5t-24.5 -57.5t-55.5 -22.5t-55.5 22.5t-24.5 57.5zM565 866q0 35 24.5 57.5t55.5 22.5t55.5 -22.5t24.5 -57.5t-24.5 -57.5t-55.5 -22.5t-55.5 22.5t-24.5 57.5z" />
<glyph unicode="&#xa9;" horiz-adv-x="1609" d="M90 696q0 154 57.5 285t155.5 226.5t227 148.5t275 53q143 0 273 -53t228.5 -148.5t156 -226.5t57.5 -285t-57.5 -284.5t-156 -226t-228.5 -148.5t-273 -53q-145 0 -274.5 53t-227.5 148.5t-155.5 226.5t-57.5 284zM178 696q0 -137 49 -252.5t134 -199.5t200 -131 t244 -47t243.5 47t199.5 131t134.5 199.5t49.5 252.5t-49.5 253t-134.5 200t-199.5 131t-243.5 47t-244 -47t-200 -131t-134 -199.5t-49 -253.5zM373 694q0 94 34.5 175t95 140.5t141.5 92.5t171 33q111 0 197 -44t141 -122l-100 -78q-39 55 -97.5 88t-136.5 33 q-66 0 -122 -23.5t-98 -66.5t-65.5 -101.5t-23.5 -126.5q0 -70 23.5 -127t65.5 -99t98.5 -64.5t121.5 -22.5q84 0 143.5 32.5t100.5 90.5l102 -72q-55 -84 -145 -130t-205 -46q-90 0 -171 33t-141.5 91t-95 138t-34.5 176z" />
<glyph unicode="&#xaa;" horiz-adv-x="718" d="M63 944q0 49 20.5 85t54.5 60.5t80 36t97 11.5h195v6q0 98 -40 132t-110 34q-74 0 -115.5 -30t-70.5 -65l-74 66q41 57 103.5 93t167.5 36q53 0 100 -14.5t83 -46t56.5 -80.5t20.5 -119v-397h-121v73q-33 -41 -84 -65.5t-119 -24.5q-102 0 -173 51.5t-71 157.5zM182 942 q0 -53 39 -80.5t107 -27.5q72 0 127 35.5t55 103.5v78h-186q-59 0 -100.5 -26t-41.5 -83z" />
<glyph unicode="&#xab;" horiz-adv-x="681" d="M61 332v8l158 260h135l-157 -264l157 -270h-135zM330 332v8l157 260h134l-158 -264l158 -270h-134z" />
<glyph unicode="&#xac;" d="M80 442q0 41 28.5 69t67.5 28q37 0 66.5 -28t29.5 -69t-29.5 -68.5t-66.5 -27.5q-39 0 -67.5 27.5t-28.5 68.5z" />
<glyph unicode="&#xad;" horiz-adv-x="479" d="M74 332v112h332v-112h-332z" />
<glyph unicode="&#xae;" horiz-adv-x="774" d="M61 1087q0 70 26 129.5t70 102.5t102 66.5t126 23.5t127 -23.5t104.5 -66.5t71 -102.5t25.5 -129.5t-25.5 -128t-71 -101t-104.5 -66.5t-127 -23.5t-126 23.5t-102 66.5t-70 101.5t-26 127.5zM123 1087q0 -59 19.5 -107t54 -82t83 -53.5t105.5 -19.5t106.5 19.5t84 53.5 t55 82t20.5 107q0 121 -74.5 195t-191.5 74q-115 0 -188.5 -74t-73.5 -195zM262 909v365h115q82 0 121 -41t39 -98q0 -84 -74 -119l69 -107h-81l-60 88h-14h-39v-88h-76zM338 1057h37q47 0 66.5 20.5t19.5 55.5t-19.5 56t-66.5 21h-37v-153z" />
<glyph unicode="&#xb0;" horiz-adv-x="643" d="M59 1153q0 55 20.5 101t56.5 81t83 54.5t103 19.5q55 0 103 -19.5t83 -54.5t55.5 -81t20.5 -101q0 -53 -20.5 -99t-55.5 -81t-83 -55.5t-103 -20.5t-102.5 20.5t-83.5 55.5t-56.5 81t-20.5 99zM164 1153q0 -70 43 -116t115 -46t114.5 46t42.5 116t-43 117t-114 47 q-72 0 -115 -47t-43 -117z" />
<glyph unicode="&#xb2;" d="M80 442q0 41 28.5 69t67.5 28q37 0 66.5 -28t29.5 -69t-29.5 -68.5t-66.5 -27.5q-39 0 -67.5 27.5t-28.5 68.5z" />
<glyph unicode="&#xb3;" d="M80 442q0 41 28.5 69t67.5 28q37 0 66.5 -28t29.5 -69t-29.5 -68.5t-66.5 -27.5q-39 0 -67.5 27.5t-28.5 68.5z" />
<glyph unicode="&#xb4;" horiz-adv-x="1024" d="M457 778l114 289h142l-156 -289h-100z" />
<glyph unicode="&#xb6;" horiz-adv-x="1118" d="M72 1020q0 76 27.5 143.5t77.5 118.5t122 81t158 30h551v-1393h-129v1276h-156v-1276h-129v647h-137q-86 0 -158 30t-122 80t-77.5 117.5t-27.5 145.5zM211 1020q0 -117 65.5 -186.5t182.5 -69.5h135v512h-135q-117 0 -182.5 -69.5t-65.5 -186.5z" />
<glyph unicode="&#xb8;" horiz-adv-x="1028" d="M350 -301l78 45q10 -23 29.5 -38t54.5 -15q27 0 47.5 15t20.5 50q0 33 -19.5 52.5t-60.5 19.5h-39v172h86v-100q55 -6 93 -45t38 -107q0 -70 -48.5 -106.5t-109.5 -36.5q-66 0 -107.5 27.5t-62.5 66.5z" />
<glyph unicode="&#xb9;" d="M80 442q0 41 28.5 69t67.5 28q37 0 66.5 -28t29.5 -69t-29.5 -68.5t-66.5 -27.5q-39 0 -67.5 27.5t-28.5 68.5z" />
<glyph unicode="&#xba;" horiz-adv-x="798" d="M59 1073q0 72 27 133.5t73 106.5t108.5 70.5t133.5 25.5q70 0 132.5 -25.5t108.5 -70.5t72.5 -106.5t26.5 -133.5t-26.5 -134t-72.5 -107.5t-108.5 -71t-132.5 -25.5q-72 0 -134 25.5t-108 71t-73 107.5t-27 134zM182 1073q0 -104 60.5 -170.5t158.5 -66.5 q96 0 156.5 66.5t60.5 170.5q0 102 -60 169t-157 67q-98 0 -158.5 -66.5t-60.5 -169.5z" />
<glyph unicode="&#xbb;" horiz-adv-x="681" d="M61 66l158 266l-158 268h136l157 -264v-8l-157 -262h-136zM330 66l157 266l-157 268h133l158 -264v-8l-158 -262h-133z" />
<glyph unicode="&#xbc;" d="M80 442q0 41 28.5 69t67.5 28q37 0 66.5 -28t29.5 -69t-29.5 -68.5t-66.5 -27.5q-39 0 -67.5 27.5t-28.5 68.5z" />
<glyph unicode="&#xbd;" d="M80 442q0 41 28.5 69t67.5 28q37 0 66.5 -28t29.5 -69t-29.5 -68.5t-66.5 -27.5q-39 0 -67.5 27.5t-28.5 68.5z" />
<glyph unicode="&#xbe;" d="M80 442q0 41 28.5 69t67.5 28q37 0 66.5 -28t29.5 -69t-29.5 -68.5t-66.5 -27.5q-39 0 -67.5 27.5t-28.5 68.5z" />
<glyph unicode="&#xbf;" horiz-adv-x="907" d="M88 362q0 156 96.5 259.5t259.5 119.5v285h121v-393h-59q-70 0 -123 -21.5t-89 -58.5t-54.5 -86t-18.5 -105q0 -123 70.5 -193.5t187.5 -70.5q104 0 168 50.5t109 130.5l102 -60q-49 -100 -143.5 -167.5t-235.5 -67.5q-90 0 -162.5 28.5t-123 78.5t-78 120t-27.5 151z M410 1309q0 41 29.5 68.5t66.5 27.5t66.5 -27.5t29.5 -68.5t-29.5 -69t-66.5 -28t-66.5 28t-29.5 69z" />
<glyph unicode="&#xc0;" horiz-adv-x="1306" d="M61 0l586 1425h10l588 -1425h-137l-96 242h-719l-98 -242h-134zM340 360h623q-23 57 -48 121q-23 53 -50 123q-28 70 -56 141q-68 170 -156 388zM449 1794h141l115 -289h-101z" />
<glyph unicode="&#xc1;" horiz-adv-x="1306" d="M61 0l586 1425h10l588 -1425h-137l-96 242h-719l-98 -242h-134zM340 360h623q-23 57 -48 121q-23 53 -50 123q-28 70 -56 141q-68 170 -156 388zM606 1505l115 289h141l-155 -289h-101z" />
<glyph unicode="&#xc2;" horiz-adv-x="1306" d="M61 0l586 1425h10l588 -1425h-137l-96 242h-719l-98 -242h-134zM340 360h623q-23 57 -48 121q-23 53 -50 123q-28 70 -56 141q-68 170 -156 388zM426 1505l223 267h6l224 -267h-103l-123 119l-125 -119h-102z" />
<glyph unicode="&#xc3;" horiz-adv-x="1306" d="M61 0l586 1425h10l588 -1425h-137l-96 242h-719l-98 -242h-134zM340 360h623q-23 57 -48 121q-23 53 -50 123q-28 70 -56 141q-68 170 -156 388zM420 1516q12 74 47 117q35 44 94 44q31 0 55 -11q25 -11 47 -25q22 -13 39 -24q18 -11 37 -11q25 0 36 17t22 52l90 -14 q-12 -74 -47 -118q-36 -44 -95 -44q-31 0 -55 11q-25 11 -46 26q-22 14 -40 26q-18 11 -37 11q-25 0 -36 -19q-11 -18 -21 -53z" />
<glyph unicode="&#xc4;" horiz-adv-x="1306" d="M61 0l586 1425h10l588 -1425h-137l-96 242h-719l-98 -242h-134zM279 1329q0 35 24.5 56.5t54.5 21.5q31 0 55.5 -21.5t24.5 -56.5t-24.5 -57.5t-55.5 -22.5t-55 22.5t-24 57.5zM340 360h623q-23 57 -48 121q-23 53 -50 123t-56 141q-68 170 -156 388zM872 1329 q0 35 25 56.5t55 21.5q31 0 55.5 -21.5t24.5 -56.5t-24.5 -57.5t-55.5 -22.5t-55.5 22.5t-24.5 57.5z" />
<glyph unicode="&#xc5;" horiz-adv-x="1306" d="M61 0l560 1360q-57 10 -97.5 55t-40.5 105q0 68 50.5 115.5t119.5 47.5q70 0 119 -48t49 -115q0 -59 -39 -103.5t-98 -56.5l561 -1360h-137l-96 242h-719l-98 -242h-134zM340 360h623q-23 57 -48 121q-23 53 -50 123t-56 141q-68 170 -156 388zM571 1520 q0 -39 23.5 -62.5t58.5 -23.5t57.5 23.5t22.5 62.5t-22.5 63.5t-57.5 24.5t-58.5 -24.5t-23.5 -63.5z" />
<glyph unicode="&#xc6;" horiz-adv-x="1886" d="M61 0l574 1393h741v-119h-657l268 -696h572v-119h-527l131 -340h656v-119h-746l-90 242h-690l-98 -242h-134zM340 360h600l-287 773z" />
<glyph unicode="&#xc7;" horiz-adv-x="1449" d="M86 696q0 156 54.5 286t149.5 225.5t224 148.5t277 53q178 0 315 -68.5t231 -191.5l-102 -74q-78 102 -188.5 157.5t-258.5 55.5q-121 0 -224 -45t-179 -124t-118 -187.5t-42 -235.5q0 -129 43 -237.5t120 -187t182.5 -123t228.5 -44.5q152 0 270.5 60.5t202.5 171.5 l104 -74q-100 -131 -237.5 -202.5t-317.5 -75.5v-84q55 -6 93 -45t38 -107q0 -70 -48 -106.5t-109 -36.5q-66 0 -108 27.5t-62 66.5l77 45q10 -23 30 -38t54 -15q27 0 47.5 15t20.5 50q0 33 -19.5 52.5t-60.5 19.5h-39v158q-139 10 -258 67.5t-206 150.5t-136 219t-49 273z " />
<glyph unicode="&#xc8;" horiz-adv-x="1150" d="M178 0v1393h840v-119h-707v-696h631v-117h-631v-342h736v-119h-869zM418 1794h141l115 -289h-101z" />
<glyph unicode="&#xc9;" horiz-adv-x="1150" d="M178 0v1393h840v-119h-707v-696h631v-117h-631v-342h736v-119h-869zM553 1505l115 289h141l-156 -289h-100z" />
<glyph unicode="&#xca;" horiz-adv-x="1150" d="M178 0v1393h840v-119h-707v-696h631v-117h-631v-342h736v-119h-869zM385 1505l223 267h6l224 -267h-103l-123 119l-125 -119h-102z" />
<glyph unicode="&#xcb;" horiz-adv-x="1150" d="M178 0v1393h840v-119h-707v-696h631v-117h-631v-342h736v-119h-869zM397 1593q0 35 25 58t55 22q31 0 55 -22q25 -23 25 -58t-25 -57q-24 -23 -55 -23t-55 23q-25 23 -25 57zM664 1593q0 35 24 58q25 23 55 22q31 0 56 -22q25 -23 24 -58q0 -35 -24 -57q-25 -23 -56 -23 t-55 23q-25 23 -24 57z" />
<glyph unicode="&#xcc;" horiz-adv-x="507" d="M55 1794h142l114 -289h-100zM186 0v1393h136v-1393h-136z" />
<glyph unicode="&#xcd;" horiz-adv-x="507" d="M186 0v1393h136v-1393h-136zM201 1505l114 289h142l-156 -289h-100z" />
<glyph unicode="&#xce;" horiz-adv-x="507" d="M27 1505l223 267h6l223 -267h-102l-123 119l-125 -119h-102zM186 0v1393h136v-1393h-136z" />
<glyph unicode="&#xcf;" horiz-adv-x="507" d="M43 1593q0 35 25 58t55 22q31 0 55 -22q25 -23 25 -58t-25 -57q-24 -23 -55 -23t-55 23q-25 23 -25 57zM186 0v1393h136v-1393h-136zM309 1593q0 35 25 58t55 22q31 0 55 -22q25 -23 25 -58t-25 -57q-24 -23 -55 -23t-55 23q-25 23 -25 57z" />
<glyph unicode="&#xd0;" horiz-adv-x="1347" d="M33 461v117h145v815h348q172 0 309.5 -51.5t231.5 -143.5t144.5 -220t50.5 -282t-50.5 -281.5t-144.5 -220t-230.5 -143.5t-310.5 -51h-348v461h-145zM311 121h203q154 0 268.5 42t190.5 118.5t112.5 182t36.5 232.5t-36.5 232.5t-112.5 182.5t-190.5 119t-268.5 42h-203 v-694h365v-117h-365v-340z" />
<glyph unicode="&#xd1;" horiz-adv-x="1431" d="M178 0v1421h12l938 -1124v1096h125v-1422h-12l-938 1125v-1096h-125zM487 1516q12 74 48 117q35 44 94 44q31 0 55 -11q25 -11 46 -25q22 -13 40 -24t37 -11q25 0 36 17t21 52l90 -14q-12 -74 -47 -118t-94 -44q-31 0 -55 11q-25 11 -46 26q-22 14 -40 26q-18 11 -37 11 q-25 0 -36 -19q-11 -18 -21 -53z" />
<glyph unicode="&#xd2;" horiz-adv-x="1601" d="M86 696q0 154 56 285t153 226q96 95 227 149q131 53 279 53q147 0 278 -53t228 -149q96 -95 152 -226t57 -285q0 -154 -57 -284q-56 -131 -152 -227q-96 -95 -228 -148q-131 -53 -278 -53t-279 53q-131 53 -227 148t-153 227q-56 131 -56 284zM225 696q0 -127 43 -235 q43 -109 120 -188t182 -123q106 -46 231 -46t230 46q105 45 182 123q77 79 120 188t43 235q0 127 -43 236t-120 187q-77 79 -182 124t-230 45t-231 -45q-105 -45 -182 -124t-120 -187q-43 -109 -43 -236zM602 1794h141l115 -289h-100z" />
<glyph unicode="&#xd3;" horiz-adv-x="1601" d="M86 696q0 154 56 285t153 226q96 95 227 149q131 53 279 53q147 0 278 -53t228 -149q96 -95 152 -226t57 -285q0 -154 -57 -284q-56 -131 -152 -227q-96 -95 -228 -148q-131 -53 -278 -53t-279 53q-131 53 -227 148t-153 227q-56 131 -56 284zM225 696q0 -127 43 -235 q43 -109 120 -188t182 -123q106 -46 231 -46t230 46q105 45 182 123q77 79 120 188t43 235q0 127 -43 236t-120 187q-77 79 -182 124t-230 45t-231 -45q-105 -45 -182 -124t-120 -187q-43 -109 -43 -236zM748 1505l114 289h142l-156 -289h-100z" />
<glyph unicode="&#xd4;" horiz-adv-x="1601" d="M86 696q0 154 56 285t153 226q96 95 227 149q131 53 279 53q147 0 278 -53t228 -149q96 -95 152 -226t57 -285q0 -154 -57 -284q-56 -131 -152 -227q-96 -95 -228 -148q-131 -53 -278 -53t-279 53q-131 53 -227 148t-153 227q-56 131 -56 284zM225 696q0 -127 43 -235 q43 -109 120 -188t182 -123q106 -46 231 -46t230 46q105 45 182 123q77 79 120 188t43 235q0 127 -43 236t-120 187q-77 79 -182 124t-230 45t-231 -45q-105 -45 -182 -124t-120 -187q-43 -109 -43 -236zM573 1505l224 267h6l223 -267h-102l-123 119l-125 -119h-103z" />
<glyph unicode="&#xd5;" horiz-adv-x="1601" d="M86 696q0 154 56 285t153 226q96 95 227 149q131 53 279 53q147 0 278 -53t228 -149q96 -95 152 -226t57 -285q0 -154 -57 -284q-56 -131 -152 -227q-96 -95 -228 -148q-131 -53 -278 -53t-279 53q-131 53 -227 148t-153 227q-56 131 -56 284zM225 696q0 -127 43 -235 q43 -109 120 -188t182 -123q106 -46 231 -46t230 46q105 45 182 123q77 79 120 188t43 235q0 127 -43 236t-120 187q-77 79 -182 124t-230 45t-231 -45q-105 -45 -182 -124t-120 -187q-43 -109 -43 -236zM567 1516q12 74 47 117q35 44 95 44q31 0 55 -11q25 -11 46 -25 q22 -13 40 -24t37 -11q25 0 36 17t21 52l90 -14q-12 -74 -47 -118t-94 -44q-31 0 -55 11q-25 11 -46 26q-22 14 -40 26q-18 11 -37 11q-25 0 -36 -19q-11 -18 -22 -53z" />
<glyph unicode="&#xd6;" horiz-adv-x="1601" d="M72 1325q0 35 24.5 57.5t55.5 22.5t55 -22.5t24 -57.5t-24 -57.5t-55 -22.5t-55.5 22.5t-24.5 57.5zM86 696q0 154 56.5 285t152.5 226.5t227 148.5t279 53q147 0 278 -53t227.5 -148.5t153 -226.5t56.5 -285t-56.5 -284.5t-153 -226t-227.5 -148.5t-278 -53t-278.5 53 t-227.5 148.5t-152.5 226.5t-56.5 284zM225 696q0 -127 43 -235.5t120 -187t182.5 -124t230.5 -45.5t230.5 45.5t182 124t119.5 187t43 235.5t-43 235.5t-119.5 187.5t-182 124t-230.5 45t-230.5 -45t-182.5 -124t-120 -187.5t-43 -235.5zM1370 1325q0 35 24.5 57.5 t55.5 22.5t55.5 -22.5t24.5 -57.5t-24.5 -57.5t-55.5 -22.5t-55.5 22.5t-24.5 57.5z" />
<glyph unicode="&#xd7;" d="M80 442q0 41 28.5 69t67.5 28q37 0 66.5 -28t29.5 -69t-29.5 -68.5t-66.5 -27.5q-39 0 -67.5 27.5t-28.5 68.5z" />
<glyph unicode="&#xd8;" horiz-adv-x="1601" d="M84 55l172 172q-80 92 -125 211t-45 258q0 154 56.5 285t152.5 226.5t227 148.5t279 53q135 0 254 -44t215 -124l170 170l78 -76l-170 -170q78 -92 123 -210.5t45 -258.5q0 -154 -56.5 -284.5t-153 -226t-227.5 -148.5t-278 -53q-135 0 -254 44t-213 124l-172 -172z M223 696q0 -111 32 -207t91 -172l834 834q-74 66 -170.5 101.5t-208.5 35.5q-125 0 -230.5 -45t-182.5 -124t-121 -187.5t-44 -235.5zM422 240q74 -63 170 -99.5t209 -36.5q125 0 230.5 45.5t182 124t120.5 187t44 235.5q0 111 -31.5 206t-91.5 171z" />
<glyph unicode="&#xd9;" horiz-adv-x="1318" d="M168 473v920h133v-910q0 -190 97 -284t261 -95q166 0 263 95q96 94 96 284v910h133v-920q0 -121 -37 -213t-103 -154q-67 -61 -157 -92q-91 -30 -195 -30t-194 30q-90 31 -157 92t-103 154q-37 92 -37 213zM459 1794h141l115 -289h-101z" />
<glyph unicode="&#xda;" horiz-adv-x="1318" d="M168 473v920h133v-910q0 -190 97 -284t261 -95q166 0 263 95q96 94 96 284v910h133v-920q0 -121 -37 -213t-103 -154q-67 -61 -157 -92q-91 -30 -195 -30t-194 30q-90 31 -157 92t-103 154q-37 92 -37 213zM604 1505l115 289h141l-155 -289h-101z" />
<glyph unicode="&#xdb;" horiz-adv-x="1318" d="M168 473v920h133v-910q0 -190 97 -284t261 -95q166 0 263 95q96 94 96 284v910h133v-920q0 -121 -37 -213t-103 -154q-67 -61 -157 -92q-91 -30 -195 -30t-194 30q-90 31 -157 92t-103 154q-37 92 -37 213zM430 1505l223 267h6l224 -267h-103l-123 119l-125 -119h-102z " />
<glyph unicode="&#xdc;" horiz-adv-x="1318" d="M168 473v920h133v-910q0 -190 97.5 -284.5t260.5 -94.5q166 0 262.5 94.5t96.5 284.5v910h133v-920q0 -121 -37 -213t-103.5 -153.5t-157 -92t-194.5 -30.5t-194 30.5t-156.5 92t-103.5 153.5t-37 213zM446 1325q0 35 25 57.5t55 22.5q31 0 55.5 -22.5t24.5 -57.5 t-24.5 -57.5t-55.5 -22.5t-55.5 22.5t-24.5 57.5zM713 1325q0 35 24.5 57.5t55.5 22.5t55 -22.5t24 -57.5t-24 -57.5t-55 -22.5t-55.5 22.5t-24.5 57.5z" />
<glyph unicode="&#xdd;" horiz-adv-x="1290" d="M55 1393h148l448 -822l447 822h139l-520 -957v-436h-135v436zM598 1505l115 289h141l-156 -289h-100z" />
<glyph unicode="&#xde;" horiz-adv-x="1130" d="M178 0v1393h133v-164h166q141 0 249 -39t179.5 -108.5t108.5 -166t37 -208.5q0 -113 -37 -209.5t-108.5 -166t-179.5 -108.5t-249 -39h-166v-184h-133zM311 303h158q119 0 203 29.5t138 84t78.5 128t24.5 162.5q0 88 -24.5 161.5t-78.5 127t-138 84t-203 30.5h-158v-807z " />
<glyph unicode="&#xdf;" horiz-adv-x="866" d="M104 0v1190q0 74 21.5 126t58.5 87t85 51t100 16q57 0 108 -20t85 -62t46.5 -104.5t-4.5 -144.5l-112 -574q-8 -43 -3 -69.5t21 -43t43 -27.5t61 -22q41 -12 78 -28.5t64.5 -41t44 -60t16.5 -87.5q0 -88 -54 -145t-177 -57q-98 0 -161 36.5t-103 96.5l86 63 q27 -41 66.5 -67.5t105.5 -26.5q59 0 87.5 25.5t28.5 66.5q0 53 -33.5 77t-109.5 46q-45 12 -83 32.5t-62.5 53.5t-32.5 82t4 121l108 571q16 98 -15.5 149.5t-102.5 51.5q-139 0 -140 -174v-1188h-125z" />
<glyph unicode="&#xe0;" horiz-adv-x="856" d="M61 336q0 76 25 140q25 65 69 113t104 75t130 26q84 0 143 -34t95 -97v115h125v-674h-125v115q-35 -63 -95 -98q-59 -33 -143 -33q-70 0 -130 26q-60 27 -104 74t-69 112t-25 140zM193 336q0 -106 60 -174q61 -68 161 -68q98 0 157 68t60 174q0 109 -60 176 q-59 68 -157 68q-100 0 -161 -68q-60 -68 -60 -176zM199 1067h141l115 -289h-101z" />
<glyph unicode="&#xe1;" horiz-adv-x="856" d="M61 336q0 76 25 140q25 65 69 113t104 75t130 26q84 0 143 -34t95 -97v115h125v-674h-125v115q-35 -63 -95 -98q-59 -33 -143 -33q-70 0 -130 26q-60 27 -104 74t-69 112t-25 140zM193 336q0 -106 60 -174q61 -68 161 -68q98 0 157 68t60 174q0 109 -60 176 q-59 68 -157 68q-100 0 -161 -68q-60 -68 -60 -176zM350 778l115 289h141l-155 -289h-101z" />
<glyph unicode="&#xe2;" horiz-adv-x="856" d="M61 336q0 76 25 140q25 65 69 113t104 75t130 26q84 0 143 -34t95 -97v115h125v-674h-125v115q-35 -63 -95 -98q-59 -33 -143 -33q-70 0 -130 26q-60 27 -104 74t-69 112t-25 140zM184 778l224 266h6l223 -266h-102l-123 119l-125 -119h-103zM193 336q0 -106 60 -174 q61 -68 161 -68q98 0 157 68t60 174q0 109 -60 176q-59 68 -157 68q-100 0 -161 -68q-60 -68 -60 -176z" />
<glyph unicode="&#xe3;" horiz-adv-x="856" d="M61 336q0 76 25 140q25 65 69 113t104 75t130 26q84 0 143 -34t95 -97v115h125v-674h-125v115q-35 -63 -95 -98q-59 -33 -143 -33q-70 0 -130 26q-60 27 -104 74t-69 112t-25 140zM180 788q12 74 47 118t95 44q31 0 55 -11q25 -11 46 -25q22 -13 40 -24t37 -11 q25 0 36 17t21 52l90 -14q-12 -74 -47 -118t-94 -44q-31 0 -55 11q-25 11 -47 26q-22 14 -39 26q-18 11 -37 11q-25 0 -36 -19q-11 -18 -22 -53zM193 336q0 -106 60 -174q61 -68 161 -68q98 0 157 68t60 174q0 109 -60 176q-59 68 -157 68q-100 0 -161 -68q-60 -68 -60 -176 z" />
<glyph unicode="&#xe4;" horiz-adv-x="856" d="M61 336q0 76 25 140q25 65 69 113t104 75t130 26q84 0 143 -34t95 -97v115h125v-674h-125v115q-35 -63 -95 -98q-59 -33 -143 -33q-70 0 -130 26q-60 27 -104 74t-69 112t-25 140zM193 336q0 -106 60 -174q61 -68 161 -68q98 0 157 68t60 174q0 109 -60 176 q-59 68 -157 68q-100 0 -161 -68q-60 -68 -60 -176zM201 866q0 35 24 58q25 23 56 22q31 0 55 -22q25 -23 24 -58q0 -35 -24 -57q-24 -23 -55 -23t-56 23t-24 57zM467 866q0 35 25 58t55 22q31 0 55 -22q25 -23 25 -58t-25 -57q-24 -23 -55 -23t-55 23q-25 23 -25 57z" />
<glyph unicode="&#xe5;" horiz-adv-x="856" d="M61 336q0 76 25 140q25 65 69 113t104 75t130 26q84 0 143 -34t95 -97v115h125v-674h-125v115q-35 -63 -95 -98q-59 -33 -143 -33q-70 0 -130 26q-60 27 -104 74t-69 112t-25 140zM193 336q0 -106 60 -174q61 -68 161 -68q98 0 157 68t60 174q0 109 -60 176 q-59 68 -157 68q-100 0 -161 -68q-60 -68 -60 -176zM236 930q0 33 13 62q13 30 36 52q23 23 53 36q31 13 65 14q35 0 66 -14q31 -13 53 -36q23 -23 36 -52q13 -30 13 -62q0 -33 -13 -63t-36 -51q-23 -22 -53 -35q-31 -13 -66 -13t-65 13q-31 13 -53 35q-23 22 -36 51 q-13 30 -13 63zM322 930q0 -41 23 -64q23 -22 58 -22t59 22q24 23 23 64q0 39 -23 62q-24 24 -59 24t-58 -24q-24 -24 -23 -62z" />
<glyph unicode="&#xe6;" horiz-adv-x="1277" d="M63 197q0 53 20.5 92t56.5 63.5t84 36.5t102 12h204v13q0 94 -43 132t-114 38q-66 0 -111 -24.5t-80 -72.5l-80 70q100 133 275 133q86 0 144 -34.5t87 -106.5q41 66 108.5 103.5t157.5 37.5q80 0 144.5 -28.5t108.5 -81t67 -124t23 -157.5h-566q10 -98 73.5 -153.5 t164.5 -55.5q78 0 127 24.5t84 63.5l78 -76q-47 -55 -117 -86.5t-170 -31.5q-102 0 -176 41t-115 112q-20 -47 -51 -76.5t-69 -46t-80 -23.5t-81 -7q-53 0 -99 13t-81 39.5t-55.5 66.5t-20.5 94zM188 195q0 -53 40 -81t112 -28q76 0 133 40t57 110v63h-196 q-59 0 -102.5 -20.5t-43.5 -83.5zM655 401h428q-12 74 -61 128.5t-148 54.5q-86 0 -144 -49.5t-75 -133.5z" />
<glyph unicode="&#xe7;" horiz-adv-x="739" d="M61 336q0 76 27 140.5t74 112.5t110.5 74.5t137.5 26.5q90 0 154.5 -27.5t111.5 -80.5l-84 -76q-33 35 -78 55.5t-104 20.5q-98 0 -157.5 -71t-59.5 -175q0 -51 15 -96t44 -78t68.5 -51.5t89.5 -18.5q70 0 117.5 24.5t80.5 59.5l84 -74q-45 -53 -109.5 -83.5 t-152.5 -34.5v-84q55 -6 93 -45t38 -107q0 -70 -48 -106.5t-110 -36.5q-66 0 -107.5 27.5t-62.5 66.5l78 45q10 -23 29.5 -38t54.5 -15q27 0 47.5 15t20.5 50q0 33 -19.5 52.5t-60.5 19.5h-39v162q-61 10 -113.5 40.5t-89.5 76t-58.5 103.5t-21.5 126z" />
<glyph unicode="&#xe8;" horiz-adv-x="819" d="M61 336q0 76 28 140q28 65 76 113t113 75t138 26q80 0 144 -30q65 -30 109 -82q44 -53 67 -127q24 -74 22 -160h-565q14 -94 75 -148q61 -53 160 -53q78 0 127 25t84 63l78 -76q-47 -55 -117 -87t-170 -31q-82 0 -149 26q-68 27 -117 74t-76 112t-27 140zM197 395h430 q-12 80 -64 134q-51 54 -147 55q-88 0 -146 -52q-57 -51 -73 -137zM211 1067h141l115 -289h-100z" />
<glyph unicode="&#xe9;" horiz-adv-x="819" d="M61 336q0 76 28 140q28 65 76 113t113 75t138 26q80 0 144 -30q65 -30 109 -82q44 -53 67 -127q24 -74 22 -160h-565q14 -94 75 -148q61 -53 160 -53q78 0 127 25t84 63l78 -76q-47 -55 -117 -87t-170 -31q-82 0 -149 26q-68 27 -117 74t-76 112t-27 140zM197 395h430 q-12 80 -64 134q-51 54 -147 55q-88 0 -146 -52q-57 -51 -73 -137zM358 778l115 289h141l-155 -289h-101z" />
<glyph unicode="&#xea;" horiz-adv-x="819" d="M61 336q0 76 28 140q28 65 76 113t113 75t138 26q80 0 144 -30q65 -30 109 -82q44 -53 67 -127q24 -74 22 -160h-565q14 -94 75 -148q61 -53 160 -53q78 0 127 25t84 63l78 -76q-47 -55 -117 -87t-170 -31q-82 0 -149 26q-68 27 -117 74t-76 112t-27 140zM184 778 l224 266h6l223 -266h-102l-123 119l-125 -119h-103zM197 395h430q-12 80 -64 134q-51 54 -147 55q-88 0 -146 -52q-57 -51 -73 -137z" />
<glyph unicode="&#xeb;" horiz-adv-x="819" d="M61 336q0 76 28 140q28 65 76 113t113 75t138 26q80 0 144 -30q65 -30 109 -82q44 -53 67 -127q24 -74 22 -160h-565q14 -94 75 -148q61 -53 160 -53q78 0 127 25t84 63l78 -76q-47 -55 -117 -87t-170 -31q-82 0 -149 26q-68 27 -117 74t-76 112t-27 140zM197 395h430 q-12 80 -64 134q-51 54 -147 55q-88 0 -146 -52q-57 -51 -73 -137zM199 866q0 35 24 58q25 23 56 22q31 0 55 -22q25 -23 24 -58q0 -35 -24 -57q-24 -23 -55 -23t-56 23t-24 57zM465 866q0 35 24 58q25 23 56 22q31 0 55 -22q25 -23 25 -58t-25 -57q-24 -23 -55 -23t-56 23 t-24 57z" />
<glyph unicode="&#xec;" horiz-adv-x="348" d="M-27 1067h142l114 -289h-100zM113 0v674h127v-674h-127z" />
<glyph unicode="&#xed;" horiz-adv-x="348" d="M111 0v674h127v-674h-127zM121 778l115 289h141l-156 -289h-100z" />
<glyph unicode="&#xee;" horiz-adv-x="348" d="M-55 778l223 266h6l223 -266h-102l-123 119l-125 -119h-102zM113 0v674h127v-674h-127z" />
<glyph unicode="&#xef;" horiz-adv-x="348" d="M-37 866q0 35 25 58t55 22q31 0 55 -22q25 -23 25 -58t-25 -57q-24 -23 -55 -23t-55 23q-25 23 -25 57zM111 0v674h127v-674h-127zM229 866q0 35 25 58t55 22q31 0 56 -22q25 -23 24 -58q0 -35 -24 -57q-25 -23 -56 -23t-55 23q-25 23 -25 57z" />
<glyph unicode="&#xf0;" horiz-adv-x="837" d="M61 336q0 76 28 141.5t74 112.5t107.5 73.5t128.5 26.5q86 0 144.5 -33.5t95.5 -99.5q-18 166 -73.5 297t-141.5 244l-115 -97l-59 68l117 98q-84 94 -185 185l62 82q111 -84 209 -195l114 96l60 -67l-115 -97q121 -152 192.5 -341t71.5 -429q0 -106 -27.5 -185 t-75.5 -130t-112.5 -76.5t-140.5 -25.5t-141.5 26.5t-113.5 73.5t-76 111.5t-28 140.5zM193 336q0 -53 16 -97t46 -78t72 -52.5t93 -18.5t93 18.5t71.5 52.5t46 78t16.5 97q0 106 -62.5 177t-164.5 71t-164.5 -71t-62.5 -177z" />
<glyph unicode="&#xf1;" horiz-adv-x="813" d="M104 0v674h125v-109q33 61 94 93q60 32 138 32q111 0 184 -69q74 -70 74 -207v-414h-125v401q0 176 -164 177q-92 0 -146 -54q-54 -53 -55 -151v-373h-125zM174 788q12 74 47 118t94 44q31 0 56 -11t46 -25q22 -13 40 -24t37 -11q25 0 35 17q11 17 22 52l90 -14 q-12 -74 -47 -118t-94 -44q-31 0 -56 11t-46 26q-22 14 -40 26q-18 11 -36 11q-25 0 -36 -19q-11 -18 -22 -53z" />
<glyph unicode="&#xf2;" horiz-adv-x="837" d="M61 336q0 76 28 140q28 65 76 113t114 75t141 26q74 0 139 -26q66 -27 114 -75t76 -113t27 -140q0 -76 -27 -140q-28 -65 -76 -112t-114 -74q-65 -26 -139 -26q-76 0 -141 26q-66 27 -114 74t-76 112t-28 140zM193 336q0 -53 16 -97t46 -78t72 -52q42 -19 93 -19t93 19 q42 18 72 52t46 78t16 97q0 106 -62 177t-165 71q-102 0 -165 -71q-62 -71 -62 -177zM221 1067h141l115 -289h-100z" />
<glyph unicode="&#xf3;" horiz-adv-x="837" d="M61 336q0 76 28 140q28 65 76 113t114 75t141 26q74 0 139 -26q66 -27 114 -75t76 -113t27 -140q0 -76 -27 -140q-28 -65 -76 -112t-114 -74q-65 -26 -139 -26q-76 0 -141 26q-66 27 -114 74t-76 112t-28 140zM193 336q0 -53 16 -97t46 -78t72 -52q42 -19 93 -19t93 19 q42 18 72 52t46 78t16 97q0 106 -62 177t-165 71q-102 0 -165 -71q-62 -71 -62 -177zM367 778l114 289h142l-156 -289h-100z" />
<glyph unicode="&#xf4;" horiz-adv-x="837" d="M61 336q0 76 28 140q28 65 76 113t114 75t141 26q74 0 139 -26q66 -27 114 -75t76 -113t27 -140q0 -76 -27 -140q-28 -65 -76 -112t-114 -74q-65 -26 -139 -26q-76 0 -141 26q-66 27 -114 74t-76 112t-28 140zM193 336q0 -53 16 -97t46 -78t72 -52q42 -19 93 -19t93 19 q42 18 72 52t46 78t16 97q0 106 -62 177t-165 71q-102 0 -165 -71q-62 -71 -62 -177zM193 778l223 266h6l223 -266h-102l-123 119l-125 -119h-102z" />
<glyph unicode="&#xf5;" horiz-adv-x="837" d="M61 336q0 76 28 140q28 65 76 113t114 75t141 26q74 0 139 -26q66 -27 114 -75t76 -113t27 -140q0 -76 -27 -140q-28 -65 -76 -112t-114 -74q-65 -26 -139 -26q-76 0 -141 26q-66 27 -114 74t-76 112t-28 140zM186 788q12 74 47 118t95 44q31 0 55 -11q25 -11 46 -25 q22 -13 40 -24t37 -11q25 0 36 17t21 52l90 -14q-12 -74 -47 -118t-94 -44q-31 0 -55 11q-25 11 -46 26q-22 14 -40 26q-18 11 -37 11q-25 0 -36 -19q-11 -18 -22 -53zM193 336q0 -53 16 -97t46 -78t72 -52q42 -19 93 -19t93 19q42 18 72 52t46 78t16 97q0 106 -62 177 t-165 71q-102 0 -165 -71q-62 -71 -62 -177z" />
<glyph unicode="&#xf6;" horiz-adv-x="837" d="M61 336q0 76 28 140q28 65 76 113t114 75t141 26q74 0 139 -26q66 -27 114 -75t76 -113t27 -140q0 -76 -27 -140q-28 -65 -76 -112t-114 -74q-65 -26 -139 -26q-76 0 -141 26q-66 27 -114 74t-76 112t-28 140zM193 336q0 -53 16 -97t46 -78t72 -52q42 -19 93 -19t93 19 q42 18 72 52t46 78t16 97q0 106 -62 177t-165 71q-102 0 -165 -71q-62 -71 -62 -177zM209 866q0 35 24 58q25 23 56 22q31 0 55 -22q25 -23 25 -58t-25 -57q-24 -23 -55 -23t-56 23t-24 57zM475 866q0 35 25 58t55 22q31 0 55 -22q25 -23 25 -58t-25 -57q-24 -23 -55 -23 t-55 23q-25 23 -25 57z" />
<glyph unicode="&#xf7;" d="M80 442q0 41 28.5 69t67.5 28q37 0 66.5 -28t29.5 -69t-29.5 -68.5t-66.5 -27.5q-39 0 -67.5 27.5t-28.5 68.5z" />
<glyph unicode="&#xf8;" horiz-adv-x="837" d="M27 43q14 14 30 29q14 12 31.5 27.5t36.5 31.5q-29 43 -46.5 94t-17.5 111q0 76 28 140.5t76 112.5t113.5 74.5t141.5 26.5q68 0 127 -21.5t106 -62.5l101 90l57 -65l-98 -88q63 -88 63 -207q0 -76 -27.5 -140.5t-75.5 -111.5t-113.5 -73.5t-139.5 -26.5 q-70 0 -130.5 21.5t-107.5 62.5q-8 -4 -16 -13q-8 -6 -15.5 -14t-17.5 -16l-49 -45zM188 336q0 -70 25 -125l180 160q80 70 178 161q-29 25 -66.5 39.5t-84.5 14.5q-104 0 -168 -71t-64 -179zM266 143q61 -55 154 -55q104 0 167.5 70.5t63.5 177.5q0 68 -26 127z" />
<glyph unicode="&#xf9;" horiz-adv-x="798" d="M96 293v381h125v-373q0 -111 47 -159t131 -48q86 0 132 48t47 159v373h124v-381q0 -78 -23 -136q-24 -58 -65 -98q-41 -39 -96 -57t-121 -18q-133 0 -217 75q-84 76 -84 234zM203 1067h141l115 -289h-101z" />
<glyph unicode="&#xfa;" horiz-adv-x="798" d="M96 293v381h125v-373q0 -111 47 -159t131 -48q86 0 132 48t47 159v373h124v-381q0 -78 -23 -136q-24 -58 -65 -98q-41 -39 -96 -57t-121 -18q-133 0 -217 75q-84 76 -84 234zM348 778l115 289h141l-155 -289h-101z" />
<glyph unicode="&#xfb;" horiz-adv-x="798" d="M96 293v381h125v-373q0 -111 47 -159t131 -48q86 0 132 48t47 159v373h124v-381q0 -78 -23 -136q-24 -58 -65 -98q-41 -39 -96 -57t-121 -18q-133 0 -217 75q-84 76 -84 234zM174 778l223 266h6l224 -266h-103l-123 119l-125 -119h-102z" />
<glyph unicode="&#xfc;" horiz-adv-x="798" d="M96 293v381h125v-373q0 -111 47 -159t131 -48q86 0 132 48t47 159v373h124v-381q0 -78 -23 -136q-24 -58 -65 -98q-41 -39 -96 -57t-121 -18q-133 0 -217 75q-84 76 -84 234zM190 866q0 35 25 58t55 22q31 0 56 -22q25 -23 24 -58q0 -35 -24 -57q-25 -23 -56 -23t-55 23 q-25 23 -25 57zM457 866q0 35 24 58q25 23 56 22q31 0 55 -22q25 -23 24 -58q0 -35 -24 -57q-24 -23 -55 -23t-56 23t-24 57z" />
<glyph unicode="&#xfd;" horiz-adv-x="714" d="M20 674h142l205 -471l198 471h129l-469 -1108h-129l207 489zM307 778l115 289h141l-155 -289h-101z" />
<glyph unicode="&#xfe;" horiz-adv-x="870" d="M106 -434v1888h127v-895q35 63 96.5 97t147.5 34q70 0 131.5 -26.5t105.5 -74.5t69.5 -112.5t25.5 -140.5t-25.5 -140.5t-69.5 -111.5t-105.5 -73.5t-131.5 -26.5q-86 0 -147.5 33.5t-96.5 97.5v-549h-127zM229 336q0 -106 62 -174t162 -68q102 0 164.5 67.5t62.5 174.5 q0 109 -62.5 176.5t-164.5 67.5q-100 0 -162 -68t-62 -176z" />
<glyph unicode="&#xff;" horiz-adv-x="714" d="M20 674h142l205 -471l198 471h129l-469 -1108h-129l207 489zM150 866q0 35 24 58q25 23 55 22q31 0 56 -22q25 -23 24 -58q0 -35 -24 -57q-25 -23 -56 -23t-55 23q-25 23 -24 57zM416 866q0 35 24 58q25 23 56 22q31 0 55 -22q25 -23 24 -58q0 -35 -24 -57 q-24 -23 -55 -23t-56 23t-24 57z" />
<glyph unicode="&#x152;" horiz-adv-x="1972" d="M86 696q0 154 49 282t143.5 220t231.5 143.5t311 51.5h1018v-119h-706v-696h630v-119h-630v-340h735v-119h-1047q-174 0 -310 51t-230.5 143.5t-144.5 220.5t-50 281zM225 696q0 -127 37 -232.5t112 -182t189.5 -118.5t267.5 -42h166v1151h-166q-154 0 -268 -42 t-189 -119t-112 -182.5t-37 -232.5z" />
<glyph unicode="&#x153;" horiz-adv-x="1404" d="M61 336q0 76 28 140.5t76 112.5t113.5 74.5t141.5 26.5q98 0 173 -45t118 -123q43 78 117.5 123t172.5 45q80 0 144.5 -29.5t108.5 -83t68 -127t21 -159.5h-565q14 -94 75.5 -147.5t160.5 -53.5q78 0 127 24.5t84 63.5l78 -76q-47 -55 -117 -86.5t-170 -31.5 q-106 0 -184 43.5t-121 119.5q-43 -76 -118 -119.5t-173 -43.5q-76 0 -141.5 26.5t-113.5 73.5t-76 111.5t-28 140.5zM193 336q0 -53 16 -97t46 -78t72 -52.5t93 -18.5t93 18.5t71.5 52.5t46 78t16.5 97q0 106 -62.5 177t-164.5 71t-164.5 -71t-62.5 -177zM782 395h430 q-12 80 -63 134.5t-148 54.5q-88 0 -145 -51.5t-74 -137.5z" />
<glyph unicode="&#x178;" horiz-adv-x="1290" d="M55 1393h148l448 -822l447 822h139l-520 -957v-436h-135v436zM440 1466q0 35 24.5 57.5t55.5 22.5t55.5 -22.5t24.5 -57.5t-24.5 -57.5t-55.5 -22.5t-55.5 23t-24.5 57zM707 1466q0 35 24.5 57.5t54.5 22.5q31 0 55.5 -22.5t24.5 -57.5t-24.5 -57.5t-55.5 -22.5t-55 23 t-24 57z" />
<glyph unicode="&#x2c6;" horiz-adv-x="1019" d="M283 778l223 266h6l223 -266h-102l-123 119l-125 -119h-102z" />
<glyph unicode="&#x2dc;" horiz-adv-x="1019" d="M276 788q12 74 47 118t95 44q31 0 55.5 -11t46 -24.5t40 -24.5t36.5 -11q25 0 36 17t21 52l90 -14q-12 -74 -47 -118t-94 -44q-31 0 -55.5 11.5t-46 25.5t-40 25.5t-36.5 11.5q-25 0 -36 -18.5t-21 -53.5z" />
<glyph unicode="&#x2000;" horiz-adv-x="897" />
<glyph unicode="&#x2001;" horiz-adv-x="1794" />
<glyph unicode="&#x2002;" horiz-adv-x="897" />
<glyph unicode="&#x2003;" horiz-adv-x="1794" />
<glyph unicode="&#x2004;" horiz-adv-x="598" />
<glyph unicode="&#x2005;" horiz-adv-x="448" />
<glyph unicode="&#x2006;" horiz-adv-x="299" />
<glyph unicode="&#x2007;" horiz-adv-x="299" />
<glyph unicode="&#x2008;" horiz-adv-x="224" />
<glyph unicode="&#x2009;" horiz-adv-x="358" />
<glyph unicode="&#x200a;" horiz-adv-x="99" />
<glyph unicode="&#x2010;" horiz-adv-x="479" d="M74 332v112h332v-112h-332z" />
<glyph unicode="&#x2011;" horiz-adv-x="479" d="M74 332v112h332v-112h-332z" />
<glyph unicode="&#x2012;" horiz-adv-x="479" d="M74 332v112h332v-112h-332z" />
<glyph unicode="&#x2013;" horiz-adv-x="804" d="M74 332v112h657v-112h-657z" />
<glyph unicode="&#x2014;" horiz-adv-x="1267" d="M74 332v112h1120v-112h-1120z" />
<glyph unicode="&#x2018;" horiz-adv-x="356" d="M84 1151q0 23 7 42t18 38l90 162h69l-57 -154q23 -10 42 -31.5t19 -54.5q0 -41 -28.5 -67.5t-65.5 -26.5t-65.5 26.5t-28.5 65.5z" />
<glyph unicode="&#x2019;" horiz-adv-x="356" d="M84 1315q0 41 28.5 66.5t65.5 25.5t65.5 -25.5t28.5 -66.5q0 -23 -7 -41.5t-17 -36.5l-90 -162h-70l57 154q-23 8 -42 30.5t-19 55.5z" />
<glyph unicode="&#x201a;" horiz-adv-x="356" d="M84 82q0 41 28.5 67.5t65.5 26.5t65.5 -26.5t28.5 -67.5q0 -20 -7 -39.5t-17 -38.5l-90 -162h-70l57 154q-23 8 -42 30.5t-19 55.5z" />
<glyph unicode="&#x201c;" horiz-adv-x="632" d="M84 1151q0 23 7 42t18 38l90 162h69l-57 -154q23 -10 42 -31.5t19 -54.5q0 -41 -28.5 -67.5t-65.5 -26.5t-65.5 26.5t-28.5 65.5zM362 1151q0 23 7.5 42t17.5 38l90 162h70l-58 -154q23 -10 41.5 -31.5t18.5 -54.5q0 -41 -28.5 -67.5t-65.5 -26.5q-35 0 -64 26.5 t-29 65.5z" />
<glyph unicode="&#x201d;" horiz-adv-x="632" d="M84 1315q0 41 28.5 66.5t65.5 25.5t65.5 -25.5t28.5 -66.5q0 -23 -7 -41.5t-17 -36.5l-90 -162h-70l57 154q-23 8 -42 30.5t-19 55.5zM362 1315q0 41 29 66.5t66 25.5q35 0 63.5 -25.5t28.5 -66.5t-25 -78l-90 -162h-67l55 154q-23 8 -41.5 30.5t-18.5 55.5z" />
<glyph unicode="&#x201e;" horiz-adv-x="632" d="M84 82q0 41 28.5 67.5t65.5 26.5t65.5 -26.5t28.5 -67.5q0 -20 -7 -39.5t-17 -38.5l-90 -162h-70l57 154q-23 8 -42 30.5t-19 55.5zM362 82q0 41 29 67.5t66 26.5q35 0 63.5 -26.5t28.5 -67.5t-25 -78l-90 -162h-67l55 154q-23 8 -41.5 30.5t-18.5 55.5z" />
<glyph unicode="&#x2022;" horiz-adv-x="514" d="M90 487q0 72 49 120t117 48t118 -48t50 -120t-50 -120t-118 -48t-117 48.5t-49 119.5z" />
<glyph unicode="&#x2026;" horiz-adv-x="1050" d="M80 84q0 41 28.5 68.5t67.5 27.5q37 0 66.5 -27.5t29.5 -68.5t-29.5 -68.5t-66.5 -27.5q-39 0 -67.5 27.5t-28.5 68.5zM430 84q0 41 28.5 68.5t65.5 27.5q39 0 68 -27.5t29 -68.5t-29 -68.5t-68 -27.5q-37 0 -65.5 27.5t-28.5 68.5zM778 84q0 41 30 68.5t66 27.5 q39 0 68 -27.5t29 -68.5t-29 -68.5t-68 -27.5q-37 0 -66.5 27.5t-29.5 68.5z" />
<glyph unicode="&#x202f;" horiz-adv-x="358" />
<glyph unicode="&#x2039;" horiz-adv-x="415" d="M61 332v8l158 260h135l-157 -264l157 -270h-135z" />
<glyph unicode="&#x203a;" horiz-adv-x="415" d="M61 66l158 266l-158 268h136l157 -264v-8l-157 -262h-136z" />
<glyph unicode="&#x205f;" horiz-adv-x="448" />
<glyph unicode="&#x20ac;" horiz-adv-x="1595" d="M57 475v103h183q-4 29 -6.5 58.5t-2.5 59.5v15h-174v104h183q20 131 82.5 239.5t154.5 187.5t209 123t250 44q195 0 324 -68.5t223 -191.5l-103 -74q-80 100 -182 156.5t-264 56.5q-109 0 -201 -34.5t-164.5 -98t-121 -149.5t-66.5 -191h680v-104h-690v-15q0 -31 3 -60.5 t7 -57.5h680v-103h-653q31 -84 82 -151.5t119.5 -116.5t151.5 -76t177 -27q168 0 285.5 58.5t195.5 171.5l105 -74q-94 -135 -239.5 -205.5t-346.5 -70.5q-119 0 -226.5 35.5t-195.5 100t-153.5 155t-98.5 200.5h-207z" />
<glyph unicode="&#x2122;" horiz-adv-x="1060" d="M59 1313v80h347v-80h-125v-375h-93v375h-129zM494 938v461h8l221 -240l221 240h8v-461h-90v266l-139 -160l-137 160v-266h-92z" />
<glyph unicode="&#xe000;" horiz-adv-x="675" d="M0 0v676h676v-676h-676z" />
</font>
</defs>
</svg>
